<svg width="194" height="262" viewBox="0 0 194 262" fill="none" xmlns="http://www.w3.org/2000/svg">
<path d="M167.136 168.928C167.136 168.928 160.673 174.078 154.614 170.645C148.554 167.211 150.978 146.962 150.978 146.962C150.978 146.962 156.028 146.558 158.35 146.558C160.673 146.558 169.308 154.335 169.308 154.335L174.357 163.828L167.136 168.928Z" fill="url(#paint0_linear_54_6106)"/>
<path d="M167.136 168.928L174.357 163.828L169.308 154.335C169.308 154.335 160.673 146.558 158.35 146.558C156.027 146.558 150.978 146.962 150.978 146.962C150.978 146.962 150.17 154.082 150.725 160.546C151.937 163.222 154.967 169.887 155.321 168.928C155.725 167.918 156.734 153.224 156.734 153.224L157.946 159.485C157.946 159.485 165.622 164.535 165.824 166.504C165.975 168.271 159.865 171.049 158.148 171.806C162.945 172.261 167.136 168.928 167.136 168.928Z" fill="url(#paint1_linear_54_6106)"/>
<path d="M167.035 168.877C167.035 168.877 169.56 164.737 172.388 163.777C175.216 162.818 180.164 163.525 180.164 165.646C180.164 167.817 177.185 169.887 174.812 170.342C170.924 171.15 167.035 168.877 167.035 168.877Z" fill="url(#paint2_linear_54_6106)"/>
<path d="M172.388 163.777C169.56 164.737 167.035 168.877 167.035 168.877C167.035 168.877 170.924 171.15 174.812 170.342C176.427 170.039 178.397 168.928 179.407 167.565C177.841 168.726 175.115 169.231 173.852 168.877C172.388 168.473 169.156 166.605 171.984 164.989C174.357 163.626 178.75 164.737 180.063 165.141C179.356 163.424 174.963 162.919 172.388 163.777Z" fill="#EBC200"/>
<path d="M170.267 165.747C170.267 165.747 169.914 166.908 170.974 167.867C172.034 168.827 173.297 169.433 174.509 169.332C175.721 169.231 177.69 168.776 177.69 168.776C177.69 168.776 175.923 170.392 173.044 170.14C170.166 169.887 167.591 168.675 167.591 168.675C167.591 168.675 169.005 166.555 170.267 165.747Z" fill="#F5E100"/>
<path d="M158.956 158.526C158.956 158.526 155.321 142.418 155.068 128.178C155.068 128.178 168.904 125.755 183.547 126.31C183.547 126.31 189.708 129.794 194 134.642C194 134.642 191.576 152.214 186.072 162.566C186.072 162.566 174.509 164.333 166.228 163.929C166.228 163.929 162.036 161.354 158.956 158.526Z" fill="#975BFF"/>
<path d="M183.547 126.31C168.904 125.755 155.068 128.178 155.068 128.178C155.102 129.761 155.169 131.36 155.27 132.975L165.117 133.278C165.117 133.278 178.7 132.319 194 134.642C189.708 129.794 183.547 126.31 183.547 126.31Z" fill="#A77EFF"/>
<path d="M165.117 133.278C165.117 133.278 160.168 129.643 155.169 128.178C155.169 128.178 155.152 128.178 155.119 128.178C155.085 128.178 155.068 128.178 155.068 128.178C155.321 142.418 158.956 158.526 158.956 158.526C162.036 161.354 166.228 163.929 166.228 163.929C166.261 163.929 166.295 163.929 166.329 163.929C166.177 161.606 165.016 144.185 165.117 133.278Z" fill="#8B48E3"/>
<path d="M176.276 133.127C176.276 133.127 177.336 144.186 175.468 163.626L176.932 161.606L179.356 137.167L176.882 133.178C176.68 133.144 176.478 133.127 176.276 133.127Z" fill="#612AC0"/>
<path d="M172.741 128.633L168.702 126.613L171.53 128.936L172.741 128.633ZM187.082 129.895C187.082 129.895 182.638 129.441 181.124 129.289C179.558 129.138 176.276 129.693 176.276 129.693L179.861 130.501L190.061 130.855L187.082 129.895ZM170.217 129.188L160.421 129.895L160.37 130.35C160.841 130.585 161.279 130.821 161.683 131.057C161.683 131.023 161.683 131.006 161.683 131.006L173.852 130.299L176.226 133.076C176.461 133.076 176.68 133.093 176.882 133.127L174.357 129.087L170.217 129.188Z" fill="#6C44C0"/>
<path d="M161.481 133.177C161.548 132.403 161.616 131.713 161.683 131.107C161.279 130.871 160.858 130.636 160.421 130.4L160.269 133.127L160.017 138.782L161.784 160.192L162.592 161.303C162.592 161.303 160.875 142.166 161.481 133.177Z" fill="#581DA4"/>
<path d="M161.027 133.177C161.06 132.369 161.111 131.578 161.178 130.804L158.35 129.39C158.35 130.602 158.367 131.831 158.401 133.076C158.805 146.811 161.077 160.344 161.077 160.344C161.582 160.714 162.053 161.068 162.491 161.404C161.835 156.203 160.522 143.832 161.027 133.177Z" fill="#E6C53A"/>
<path d="M182.033 133.379L176.832 133.177C177.993 145.801 175.721 163.677 175.721 163.677C176.697 163.609 177.64 163.542 178.548 163.475C178.548 163.475 181.376 147.316 182.033 133.379Z" fill="#FFFF3A"/>
<path d="M177.791 128.481C176.226 127.118 174.862 126.31 174.862 126.31C172.691 126.361 170.621 126.462 168.651 126.613C169.964 127.32 171.075 127.976 171.984 128.633C167.894 128.784 163.198 128.986 158.35 129.39C159.36 129.845 160.32 130.35 161.178 130.804C161.178 130.804 166.682 130.148 173.903 130.047C176.074 131.865 176.832 133.177 176.832 133.177C178.447 133.177 180.215 133.278 182.033 133.379C181.427 132.218 180.518 131.057 179.508 130.047C183.042 130.148 186.678 130.4 190.112 130.905C188.95 129.946 187.84 129.138 186.83 128.431C186.83 128.431 183.295 128.38 177.791 128.481Z" fill="#FFFFAE"/>
<path d="M164.208 112.323C164.208 112.323 164.763 110.152 166.43 109.697C165.167 109.192 164.107 109.041 163.501 109.192C161.077 109.798 159.259 114.242 163.4 119.291C167.49 124.341 174.963 126.108 174.963 126.108C174.963 126.108 162.491 121.109 164.208 112.323Z" fill="#FFFF3A"/>
<path d="M166.43 109.697C164.763 110.152 164.208 112.323 164.208 112.323C164.208 112.323 171.227 112.323 174.963 126.108C175.67 116.009 170.166 111.212 166.43 109.697Z" fill="#E6C53A"/>
<path d="M181.982 107.374C181.982 107.374 184.86 106.112 186.173 108.081C186.224 105.759 185.921 103.991 185.466 103.183C183.497 100.053 177.538 102.224 175.014 111.767C173.145 118.938 174.913 126.159 174.913 126.159C174.913 126.159 173.145 111.969 181.982 107.374Z" fill="#FFFF3A"/>
<path d="M186.173 108.081C184.86 106.112 181.982 107.374 181.982 107.374C181.982 107.374 185.113 116.464 174.913 126.159C183.093 123.23 185.971 114.393 186.173 108.081Z" fill="#E6C53A"/>
<path d="M179.609 128.33C179.407 129.946 177.589 131.057 175.468 130.855C173.347 130.653 171.782 129.138 171.984 127.572C172.136 125.957 173.953 124.846 176.074 125.048C178.195 125.25 179.76 126.714 179.609 128.33Z" fill="#E6C53A"/>
<path d="M178.245 127.623C178.094 128.885 176.68 129.744 175.064 129.542C173.448 129.39 172.287 128.279 172.388 127.017C172.539 125.805 173.953 124.947 175.569 125.098C177.185 125.3 178.346 126.411 178.245 127.623Z" fill="#FFFF3A"/>
<path d="M144.666 144.387L135.981 141.964C135.981 141.964 128.508 133.278 125.326 127.825C122.095 122.422 113.41 116.161 110.178 114.949C106.997 113.737 128.912 159.283 128.912 159.283L133.557 172.766C133.557 172.766 144.666 169.938 145.474 169.736C146.282 169.534 147.645 163.929 148.049 163.121L144.666 144.387Z" fill="#E11700"/>
<path d="M116.136 121.614C116.136 121.614 130.325 134.995 135.981 160.293C135.981 160.293 140.424 148.073 143.252 144.387L143.959 145.751L136.688 168.019L134.264 167.413L116.136 121.614Z" fill="#CD1200"/>
<path d="M135.375 167.918C135.375 167.918 140.223 147.165 144.868 142.166C144.868 142.166 150.473 141.156 154.715 144.185C154.715 144.185 156.533 164.131 154.513 179.835C154.513 179.835 148.453 183.067 138.607 180.037C138.607 180.037 135.173 177.815 134.971 175.997C134.769 174.18 135.375 167.918 135.375 167.918Z" fill="url(#paint3_linear_54_6106)"/>
<path d="M138.152 157.667C138.085 157.836 138.034 158.021 138.001 158.223L144.363 158.879C142.596 158.172 140.273 157.516 138.152 157.667ZM142.192 150.901C141.687 150.665 141.165 150.447 140.626 150.245C140.559 150.447 140.492 150.649 140.425 150.851L145.878 153.628C145.777 152.466 143.202 151.356 142.192 150.901ZM142.646 145.65C142.545 145.784 142.461 145.919 142.394 146.054L144.363 147.669C144.262 147.013 143.454 146.205 142.646 145.65ZM148.302 142.014C147.898 141.98 147.511 141.964 147.14 141.964L148.655 146.256C149.059 144.943 148.908 143.377 148.302 142.014ZM154.917 146.559C154.849 146.592 154.782 146.626 154.715 146.66C153.048 147.366 151.18 148.477 150.069 149.992L154.967 147.619C154.967 147.249 154.95 146.895 154.917 146.559ZM155.472 160.95C153.553 160.192 151.281 159.99 149.463 159.99L155.472 161.455C155.472 161.286 155.472 161.118 155.472 160.95ZM146.282 166.807L152.493 177.815C152.846 173.624 149.16 169.382 146.282 166.807ZM143.05 176.098L144.363 167.211C143.808 169.231 142.899 171.2 142.798 173.321C142.798 174.28 142.949 175.139 143.05 176.098ZM137.597 167.312C136.738 168.372 136.132 169.534 135.375 170.645L144.565 162.212C141.889 163.373 139.415 164.989 137.597 167.312ZM155.371 156.001C155.371 155.866 155.371 155.715 155.371 155.547C153.856 155.698 152.392 156.052 150.978 156.355L155.371 156.001Z" fill="#D2E3FF"/>
<path d="M134.971 175.997C135.173 177.815 138.607 180.037 138.607 180.037C148.453 183.067 154.513 179.835 154.513 179.835C156.129 167.363 155.321 152.214 154.917 146.508C154.614 155.597 151.887 173.371 149.463 173.371C146.888 173.371 138.203 170.948 138.001 166.302C137.849 162.566 140.98 150.8 142.192 146.559C138.556 154.385 135.375 167.918 135.375 167.918C135.375 167.918 134.769 174.179 134.971 175.997Z" fill="#A2C8E1"/>
<path d="M139.92 170.746C139.92 170.746 147.039 174.382 149.665 173.978C152.291 173.574 154.412 156.961 154.715 155.951C154.715 155.951 155.321 170.544 154.109 179.532C154.109 179.532 147.342 181.855 141.838 179.835C141.838 179.835 141.03 173.17 137.294 170.645L136.587 165.494L137.799 161.606C137.799 161.606 135.678 167.918 139.92 170.746Z" fill="#B1D2ED"/>
<path d="M32.8193 217.302C32.8193 217.302 18.9331 210.637 11.2579 198.973C3.63311 187.258 -2.42631 172.968 1.00736 169.13C1.00736 169.13 3.02717 168.726 7.62223 173.372C12.2678 178.017 15.9034 180.845 22.9728 182.865C29.9916 184.884 37.4649 186.45 43.9283 186.45C50.3411 186.45 57.4105 185.844 58.0164 186.046C58.6224 186.248 67.257 192.711 67.863 193.923C68.4689 195.135 65.6917 206.597 65.6917 206.597C65.6917 206.597 46.554 220.332 45.1401 220.332L32.8193 217.302Z" fill="url(#paint4_linear_54_6106)"/>
<path d="M24.6897 199.377C21.458 196.7 16.7619 192.61 12.6718 188.773C12.1332 189.143 11.5778 189.496 11.0055 189.833C9.69262 190.59 8.32925 191.247 6.91538 191.752C8.27875 194.175 9.74311 196.599 11.258 198.973C12.9748 201.548 14.9441 203.871 17.0144 205.941C20.0441 204.376 22.8214 202.204 24.6897 199.377ZM39.2828 211.647C39.2828 211.647 31.2036 204.83 26.558 200.992C26.154 200.622 25.6996 200.218 25.1946 199.78C23.3263 202.608 20.4986 204.779 17.4689 206.395C24.7402 213.414 32.8194 217.302 32.8194 217.302L38.8788 218.767C39.5353 216.393 39.2828 211.647 39.2828 211.647ZM5.85498 181.855C2.21933 177.563 1.15893 171.402 0.855961 169.281C-1.6183 172.463 1.56289 181.754 6.66291 191.196C8.63222 190.54 10.6015 189.53 12.2174 188.318C9.64212 185.894 7.31934 183.622 5.85498 181.855Z" fill="url(#paint5_linear_54_6106)"/>
<path d="M7.72339 173.271C7.72339 173.271 10.4501 177.209 13.1769 178.522C13.1769 178.522 16.1056 175.593 15.2977 174.079C14.4897 172.564 9.13725 171.756 7.72339 173.271Z" fill="url(#paint6_linear_54_6106)"/>
<path d="M20.1453 183.067C20.1453 183.067 23.175 186.248 27.9721 186.551C32.8196 186.854 34.2335 185.945 34.2335 185.945C34.2335 185.945 26.2047 175.29 23.8819 175.088C21.5592 174.887 19.8423 180.441 20.1453 183.067Z" fill="url(#paint7_linear_54_6106)"/>
<path d="M39.2828 186.854C39.2828 186.854 43.5244 189.076 48.3215 188.47C53.169 187.864 55.3908 185.44 55.3908 184.48C55.3908 183.471 48.2205 177.108 46.0492 176.906C43.8274 176.704 38.8789 182.865 39.2828 186.854Z" fill="url(#paint8_linear_54_6106)"/>
<path d="M13.1769 178.522C13.1769 178.522 16.1056 175.593 15.2977 174.078C14.9443 173.422 13.6819 172.867 12.268 172.614C13.0759 172.917 13.5809 173.776 13.5809 173.776C13.5809 173.776 13.2779 176.098 11.8641 176.3C10.9551 176.452 9.38979 175.088 8.37988 174.129C9.33929 175.391 11.2581 177.613 13.1769 178.522Z" fill="#EBC200"/>
<path d="M20.1453 183.067C20.1453 183.067 23.175 186.248 27.972 186.551C32.8196 186.854 34.2334 185.945 34.2334 185.945C34.2334 185.945 29.9414 180.239 26.7097 177.108C27.9215 178.724 29.7394 181.905 29.4869 182.663C29.1839 183.572 22.4681 182.966 21.4582 182.057C20.6502 181.35 21.0037 178.724 21.1552 177.664C20.3978 179.431 19.9938 181.653 20.1453 183.067Z" fill="#EBC200"/>
<path d="M39.2829 186.854C39.2829 186.854 43.5245 189.076 48.3216 188.47C53.1691 187.864 55.3909 185.44 55.3909 184.481C55.3909 183.774 52.0582 180.593 49.2305 178.573C50.5434 179.835 51.3513 183.269 50.6443 184.077C49.9374 184.885 41.6057 184.986 41.3027 183.471C41.1008 182.41 42.1107 180.239 42.7166 179.027C40.7978 181.098 39.0305 184.38 39.2829 186.854Z" fill="#EBC200"/>
<path d="M51.9067 181.703L50.8968 180.643C50.8968 180.643 51.4018 182.36 51.2503 183.218C51.0988 184.077 51.1493 184.531 50.1899 184.834C49.2305 185.137 42.7166 185.137 41.6562 184.632C40.5958 184.127 40.8483 182.814 40.8483 182.814C39.8384 184.127 39.5859 186.399 39.5859 186.399C39.5859 186.399 42.2622 187.914 46.4028 188.167C50.4929 188.419 52.2602 186.904 52.2602 186.904C52.1087 185.945 51.9067 181.703 51.9067 181.703ZM30.0423 182.915C30.0423 183.269 29.2344 183.42 27.8205 183.521C26.4572 183.622 22.7205 182.966 21.7611 182.612C20.8017 182.259 20.5997 181.148 20.5997 181.148C20.5997 181.501 19.8928 184.228 24.8413 185.541C29.7394 186.904 33.577 185.743 33.577 185.743L29.3859 180.643C29.3859 180.643 30.0423 182.562 30.0423 182.915ZM13.7324 173.321L14.1364 173.927C14.1364 173.927 13.9344 175.795 12.672 176.351C11.4096 176.906 10.7532 176.351 10.7532 176.351C11.5106 177.411 13.2274 178.169 13.2274 178.169C13.2274 178.169 15.2472 175.543 15.1967 174.634C15.1463 173.725 13.7324 173.321 13.7324 173.321Z" fill="#F5E100"/>
<path d="M30.4965 220.433C30.4965 220.433 20.852 230.28 24.4876 239.369C28.0728 248.407 30.4965 250.427 30.4965 250.427C30.4965 250.427 33.4253 250.629 34.8391 252.952C36.253 255.275 48.4223 254.972 48.4223 254.972C48.4223 254.972 50.0382 254.467 52.159 255.477C54.2798 256.487 65.6917 250.629 65.6917 250.629C65.6917 250.629 64.6818 248.609 62.7629 247.296C60.8441 245.984 58.8243 240.177 59.6322 237.652C60.4402 235.127 57.5114 227.654 56.1986 226.24C54.8857 224.877 40.1916 215.585 39.7876 215.282C39.3837 214.979 36.253 213.667 36.253 213.667L33.8292 214.778L30.4965 220.433Z" fill="url(#paint9_linear_54_6106)"/>
<path d="M104.472 255.679C104.472 255.679 111.592 257.799 122.701 257.395C133.759 256.991 143.353 255.679 145.373 255.881C147.342 256.083 146.989 250.427 146.989 250.427C146.989 250.427 143.353 244.115 143.05 244.115C142.747 244.115 136.082 241.085 136.082 241.085C136.082 241.085 133.759 238.763 130.528 237.45C127.296 236.137 120.58 235.733 120.176 235.834C119.772 235.935 107.148 240.379 105.785 241.287C104.371 242.196 99.3215 249.114 99.3215 249.518C99.3215 249.922 104.472 255.679 104.472 255.679Z" fill="url(#paint10_linear_54_6106)"/>
<path d="M33.4757 220.029C33.4757 220.029 39.0302 235.38 56.855 240.732C56.855 240.732 59.0768 244.671 61.955 246.539C60.3392 244.418 58.9253 239.823 59.6323 237.652C60.4402 235.127 57.5115 227.654 56.1986 226.24C54.8857 224.877 40.1916 215.585 39.7876 215.282C39.3837 214.979 36.253 213.667 36.253 213.667L33.8292 214.778L30.4965 220.433C30.4965 220.433 26.9114 224.069 24.9421 229.017C26.4569 226.391 29.6886 221.594 33.4757 220.029ZM64.5303 248.963C56.9055 246.085 49.6342 249.72 49.6342 249.72C43.4233 244.923 38.8787 246.236 35.4956 246.892C32.1629 247.599 32.5668 244.368 32.5668 244.368C30.7995 235.481 26.7599 236.692 25.0431 236.692C24.2856 236.692 23.8817 236.137 23.6797 235.531C23.7302 236.793 23.9827 238.106 24.4876 239.369C28.0728 248.407 30.4965 250.427 30.4965 250.427C30.4965 250.427 33.4253 250.629 34.8391 252.952C36.253 255.275 48.4223 254.972 48.4223 254.972C48.4223 254.972 50.0382 254.467 52.159 255.477C54.2798 256.487 65.6917 250.629 65.6917 250.629C65.6917 250.629 65.2877 249.872 64.5303 248.963Z" fill="url(#paint11_linear_54_6106)"/>
<path d="M120.176 235.834C119.772 235.935 107.148 240.378 105.785 241.287C104.371 242.196 99.3215 249.114 99.3215 249.518C99.3215 249.922 104.472 255.678 104.472 255.678C104.472 255.678 111.592 257.799 122.701 257.395C133.759 256.991 143.353 255.678 145.373 255.88C147.342 256.082 146.989 250.427 146.989 250.427C146.989 250.427 145.676 248.205 144.616 246.438C144.447 246.269 144.346 246.152 144.313 246.084C143.909 245.832 142.293 244.771 140.273 245.428C138.253 246.084 141.081 251.083 141.081 251.083C141.081 251.083 134.921 247.296 129.417 247.195C123.913 247.044 119.318 250.932 118.257 251.336C117.197 251.74 111.693 251.083 111.693 251.083C116.389 243.812 127.902 238.308 130.124 237.298C126.74 236.086 120.53 235.733 120.176 235.834Z" fill="url(#paint12_linear_54_6106)"/>
<path d="M31.355 250.528C31.355 250.528 31.5065 252.447 28.1233 252.043C24.7906 251.639 22.0639 250.68 22.6193 244.216C23.1748 237.803 26.6589 237.096 27.8708 237.399C29.0827 237.652 32.8194 240.48 31.355 250.528Z" fill="url(#paint13_linear_54_6106)"/>
<path d="M36.7075 259.92C36.7075 259.92 33.7788 256.184 34.0313 253.103C34.2838 250.023 35.6471 247.448 37.1115 247.195C38.6264 246.892 44.3828 245.327 48.8264 250.023C48.8264 250.023 50.1393 255.123 49.4828 257.648C48.8264 260.223 46.6551 261.536 44.5343 261.688C42.363 261.839 38.8788 261.536 36.7075 259.92Z" fill="url(#paint14_linear_54_6106)"/>
<path d="M51.0985 254.719C51.0985 254.719 51.351 258.607 55.7946 259.92C59.2282 260.98 65.2372 262.647 68.4688 260.425C72.256 257.799 67.358 250.932 64.5302 249.619C59.2787 247.195 49.8866 248.256 51.0985 254.719Z" fill="url(#paint15_linear_54_6106)"/>
<path d="M121.489 257.143C121.489 257.143 118.51 253.204 122.701 249.872C126.841 246.488 132.901 247.195 137.748 250.427C142.545 253.608 143.353 255.628 142.949 256.991C142.545 258.355 139.061 260.072 131.689 259.415C124.317 258.759 121.489 257.143 121.489 257.143Z" fill="url(#paint16_linear_54_6106)"/>
<path d="M144.313 255.628C144.313 255.628 140.576 248.508 140.273 246.236L141.233 245.731C141.233 245.731 137.193 241.54 136.133 240.984C136.133 240.984 139.213 239.369 143.505 240.984C147.797 242.6 151.18 244.62 151.433 245.428C151.685 246.236 151.988 247.296 151.029 248.003C151.029 248.003 156.937 250.528 157.189 253.76C157.391 255.931 150.221 257.244 144.313 255.628Z" fill="url(#paint17_linear_54_6106)"/>
<path d="M42.161 246.741C45.0392 247.397 48.1194 249.922 48.1194 249.922C48.1194 249.922 48.8263 253.558 48.3214 255.477C47.8164 257.395 44.3323 260.021 41.5045 259.819C38.6768 259.617 35.8491 255.376 35.0412 253.861C34.3847 252.649 35.5966 249.013 36.1016 247.751C35.0412 248.71 34.2332 250.781 34.0313 253.103C33.7788 256.184 36.7075 259.92 36.7075 259.92C38.8788 261.536 42.363 261.839 44.5342 261.688C46.655 261.536 48.8263 260.223 49.4828 257.648C50.1392 255.123 48.8263 250.023 48.8263 250.023C46.7055 247.751 44.2818 246.943 42.161 246.741ZM27.8708 237.399C27.8372 237.366 27.8035 237.349 27.7699 237.349C30.6986 238.46 30.7996 246.488 30.3956 248.205C29.9916 250.023 26.3055 250.326 24.7906 249.821C23.3768 249.367 22.6698 246.892 22.5688 246.489C22.7708 250.932 25.1946 251.69 28.1233 252.043C31.5065 252.447 31.355 250.528 31.355 250.528C32.8194 240.48 29.0827 237.652 27.8708 237.399ZM65.8937 250.528C67.661 252.447 69.1759 255.83 68.9739 256.991C68.7719 258.405 64.3788 259.011 61.7531 258.607C59.1273 258.203 52.664 256.588 52.058 253.356C51.6036 250.831 54.6838 249.266 56.0471 248.66C52.8659 249.316 50.4422 251.235 51.0986 254.719C51.0986 254.719 51.3511 258.607 55.7947 259.92C59.2283 260.981 65.2373 262.647 68.469 260.425C71.6502 258.203 68.6204 252.901 65.8937 250.528ZM137.748 250.427C137.614 250.326 137.496 250.242 137.395 250.175C138.455 251.235 141.384 255.174 140.93 255.881C140.425 256.689 122.802 255.982 121.792 254.063C120.984 252.598 122.701 250.225 123.509 249.266C123.239 249.468 122.97 249.67 122.701 249.872C118.51 253.204 121.489 257.143 121.489 257.143C121.489 257.143 124.317 258.759 131.689 259.415C139.061 260.072 142.545 258.355 142.949 256.991C143.353 255.628 142.545 253.608 137.748 250.427ZM151.029 248.003C151.988 247.296 151.685 246.236 151.433 245.428C151.365 245.293 151.214 245.108 150.978 244.873C150.877 245.277 150.726 245.782 150.473 246.085C150.069 246.69 147.14 245.883 144.969 245.327C142.747 244.721 140.122 242.398 140.021 241.489C139.92 240.833 140.526 240.53 140.93 240.379C138.001 240.025 136.132 240.985 136.132 240.985C137.142 241.54 140.98 245.428 141.232 245.681C141.535 245.681 141.838 245.697 142.141 245.731C151.685 247.145 154.917 251.437 154.513 252.649C154.109 253.861 145.272 253.659 144.363 252.447C143.454 251.286 140.475 246.438 140.324 246.236H140.273C140.526 248.508 144.313 255.628 144.313 255.628C150.221 257.244 157.391 255.931 157.189 253.76C156.937 250.528 151.029 248.003 151.029 248.003Z" fill="#EBC200"/>
<path d="M30.1936 249.367C28.4768 250.73 24.5886 250.276 24.5886 250.276C27.3154 252.447 30.5975 251.336 30.5975 251.336C32.2639 244.721 30.3451 240.833 30.3451 240.833C31.5065 247.296 30.1936 249.367 30.1936 249.367ZM48.5233 256.335C47.7659 257.547 44.1807 260.829 40.5451 260.021C36.9094 259.213 34.4857 253.81 34.4857 253.81C34.7382 256.84 36.455 259.87 41.05 261.182C45.6451 262.495 48.5233 260.122 49.1293 257.799C49.7352 255.477 48.9273 252.194 48.9273 252.194C48.9273 252.194 49.2808 255.123 48.5233 256.335ZM56.8045 257.749C51.553 255.88 51.6035 253.457 51.6035 253.457C50.6441 259.466 59.5818 261.182 64.5303 261.132C69.4283 261.082 69.1254 257.648 69.1254 257.648C67.7115 259.415 62.056 259.617 56.8045 257.749ZM140.828 253.659C140.828 253.659 141.687 255.224 141.687 255.88C141.687 256.537 140.071 256.84 137.344 256.941C134.618 257.042 126.185 256.082 123.66 255.477C121.135 254.871 121.186 253.608 121.186 253.608C119.873 258.456 130.124 259.314 134.769 259.365C139.415 259.415 142.343 258.153 142.596 256.638C142.848 255.123 140.828 253.659 140.828 253.659ZM154.058 250.225C154.058 250.225 155.523 252.8 154.917 253.406C154.311 254.012 148.605 254.366 146.534 254.012C144.414 253.659 143.353 252.043 143.353 252.043C143.303 254.366 145.07 256.436 150.928 256.082C156.835 255.729 156.886 253.911 156.886 253.911C156.886 252.144 154.058 250.225 154.058 250.225ZM139.415 241.792C139.162 241.287 139.819 240.732 139.819 240.732C138.152 240.631 137.193 241.237 137.193 241.237L141.434 245.327L143.252 245.226C143.252 245.226 139.667 242.297 139.415 241.792ZM151.18 245.68C151.18 245.68 150.978 246.539 150.372 246.69C149.766 246.842 146.13 245.983 146.13 245.983L150.978 247.599C151.634 246.69 151.18 245.68 151.18 245.68Z" fill="#F5E100"/>
<path d="M48.3214 208.011C48.3214 208.011 48.1194 206.193 49.9372 206.597C51.755 207.001 53.1689 208.617 52.159 205.032C52.159 205.032 52.7649 204.224 54.1788 204.022C55.5927 203.82 58.0164 199.579 59.6323 199.175C61.2481 198.771 75.5383 191.903 75.5383 191.903L132.345 186.652L133.557 190.489L132.749 192.307C132.749 192.307 131.133 208.617 128.306 215.283L128.71 216.494C128.71 216.494 124.721 220.13 124.115 221.746C124.115 221.746 127.902 222.352 127.7 223.362C127.498 224.372 125.326 225.735 125.528 227.351C125.73 228.967 87.4046 241.49 87.4046 241.49C87.4046 241.49 88.4145 238.056 89.6264 236.642L86.0413 232.804C86.0413 232.804 84.0215 236.44 82.0016 236.844C79.9818 237.248 73.9224 237.248 71.9026 237.046C69.8828 236.844 61.8541 235.228 61.8541 235.228C61.8541 235.228 54.3808 228.361 52.563 226.543C50.7451 224.776 48.3214 217.706 48.1194 216.696L48.3214 208.011Z" fill="#FF2B00"/>
<path d="M54.0273 216.848C54.0273 216.848 63.066 229.724 73.67 229.169C84.274 228.664 95.1304 214.424 99.9779 211.445C104.825 208.516 121.489 206.345 130.073 195.741L130.73 198.821L116.49 217.656C116.49 217.656 90.0304 230.28 89.5254 230.381C88.97 230.532 81.6987 232.804 80.8908 232.956C80.0829 233.057 69.0749 234.42 66.3987 234.016C63.7224 233.612 56.8551 230.785 55.9462 229.977L54.0273 216.848Z" fill="#F02100"/>
<path d="M133.709 186.652C133.355 186.854 133.052 187.308 132.8 188.066L132.345 186.652L75.5382 191.903C75.5382 191.903 61.2481 198.771 59.6322 199.175C58.0164 199.579 55.5926 203.82 54.1787 204.022C52.7649 204.224 52.1589 205.032 52.1589 205.032C53.1688 208.617 51.755 207.001 49.9371 206.597C49.2807 206.446 48.8767 206.648 48.6243 206.9C50.0381 207.809 57.4609 212.758 59.0263 214.677C59.0263 214.677 57.6629 209.173 56.6025 206.749C55.5421 204.325 58.7738 203.012 58.7738 203.012C58.7738 203.012 64.3788 205.032 68.4184 203.921C68.4184 203.921 68.1659 211.445 70.6907 212.152C73.2659 212.808 81.2946 209.577 86.2937 206.749C91.2422 203.921 94.6254 202.204 96.3422 200.589C98.1095 198.973 125.781 196.801 131.436 190.792C131.773 190.388 132.076 190.035 132.345 189.732C132.312 189.867 132.278 190.035 132.244 190.237C130.729 198.013 121.59 205.133 108.31 210.132C95.0293 215.081 86.4452 229.32 76.5986 231.189C66.8025 233.057 56.754 222.453 56.754 222.453L52.3609 226.291C52.4282 226.392 52.4956 226.476 52.5629 226.543C54.3807 228.361 61.854 235.228 61.854 235.228C61.854 235.228 69.8827 236.844 71.9025 237.046C73.9224 237.248 79.9818 237.248 82.0016 236.844C84.0214 236.44 86.0412 232.804 86.0412 232.804L89.6263 236.642C88.4145 238.056 87.4046 241.49 87.4046 241.49C87.4046 241.49 125.73 228.967 125.528 227.351C125.326 225.735 127.498 224.372 127.7 223.362C127.902 222.352 124.115 221.746 124.115 221.746C124.72 220.13 128.71 216.494 128.71 216.494L128.306 215.283C131.133 208.617 132.749 192.307 132.749 192.307L133.557 190.489L133.002 188.722C133.507 187.914 133.709 187.207 133.709 186.652Z" fill="#E11700"/>
<path d="M98.1096 230.532C98.1096 230.532 115.581 225.533 124.418 225.533L126.437 223.261C126.437 223.261 117.197 222.453 98.1096 230.532ZM126.185 216.292C127.094 214.02 130.326 201.8 130.326 201.8C125.226 217.908 103.361 226.896 103.361 226.896L121.741 220.584L126.185 216.292Z" fill="#FF2B00"/>
<path d="M123.61 227.048C108.057 226.745 90.4343 236.036 90.4343 236.036L86.8491 232.653C87.4551 231.542 88.2125 230.33 89.1214 229.068C90.8383 227.856 95.6858 224.473 101.442 221.645C108.714 218.161 119.217 214.121 125.377 205.79C125.377 205.79 119.721 213.061 108.461 217.353C100.281 220.484 94.7264 223.564 92.3026 225.079C96.9482 219.575 102.25 214.677 102.25 214.677C92.3531 221.393 84.9303 233.865 82.9105 235.38C81.8501 236.137 79.4263 236.693 77.4065 236.996C76.9016 236.928 76.3293 236.878 75.6897 236.844C63.7223 236.036 56.0471 220.837 54.1788 216.696C52.3104 212.505 49.7352 209.425 49.7352 209.425L49.5332 220.837C50.4421 223.109 51.6035 225.584 52.5629 226.543C54.3807 228.361 61.854 235.228 61.854 235.228C61.854 235.228 69.8828 236.844 71.9026 237.046C73.9224 237.248 79.9818 237.248 82.0016 236.844C84.0214 236.44 86.0412 232.804 86.0412 232.804L89.6264 236.642C88.4145 238.056 87.4046 241.49 87.4046 241.49C87.4046 241.49 125.73 228.967 125.528 227.351C125.495 227.284 125.478 227.216 125.478 227.149C124.906 227.082 124.283 227.048 123.61 227.048ZM127.245 215.081L127.649 216.545C123.61 219.524 122.701 222.352 122.701 222.352L127.599 222.958C126.993 222.2 124.115 221.746 124.115 221.746C124.721 220.13 128.71 216.494 128.71 216.494L128.306 215.283C129.77 211.849 130.931 205.84 131.689 200.791C130.225 207.86 127.245 215.081 127.245 215.081ZM132.345 186.652L75.5382 191.903C75.5382 191.903 61.2481 198.771 59.6322 199.175C59.0263 199.326 58.2689 200.033 57.5114 200.841C58.7738 201.548 64.2778 204.325 69.2768 203.012C69.6303 203.972 70.3877 206.294 70.2867 209.324C70.1857 213.212 77.1541 212.505 80.8907 206.749C80.8907 206.749 85.2333 209.324 88.9699 202.861C88.9699 202.861 94.3224 204.628 96.6452 197.104C96.6452 197.104 120.529 196.953 132.497 190.388C132.8 190.22 133.086 190.052 133.355 189.884L132.345 186.652ZM56.3501 210.738C56.3501 210.738 54.8352 207.809 54.3302 206.749C53.9768 206.092 53.9263 204.881 53.9263 204.022C52.7144 204.275 52.159 204.982 52.159 204.982C53.1689 208.617 51.755 207.001 49.9372 206.597C49.9372 206.597 49.9203 206.597 49.8867 206.597C49.8867 206.597 54.7342 209.425 56.3501 210.738Z" fill="#CD1200"/>
<path d="M72.7105 236.844C72.7105 236.844 63.268 243.105 49.3313 236.036C35.4451 228.967 35.0411 216.696 35.0411 216.696C35.0411 216.696 32.2134 218.312 30.3956 220.736C30.3956 220.736 29.9916 214.071 36.859 210.031C43.7263 205.991 47.3115 206.799 49.5333 209.425C51.7551 212.051 58.2184 233.814 72.7105 236.844Z" fill="#EBF5FF"/>
<path d="M105.179 255.982C105.179 255.982 100.937 260.425 93.464 256.386C86.0412 252.346 84.4253 243.106 85.4352 241.894C86.4452 240.682 103.967 227.149 125.932 226.947C125.932 226.947 130.729 230.381 130.729 237.248C130.729 237.248 114.419 242.702 105.179 255.982Z" fill="url(#paint18_linear_54_6106)"/>
<path d="M56.1987 222.453C55.6433 222.908 55.1383 223.312 54.6839 223.716C53.4215 224.877 52.4621 226.139 51.5532 227.553L56.9056 223.564C56.67 223.194 56.4344 222.823 56.1987 222.453ZM54.9868 228.563L59.4304 227.301C59.3294 227.2 59.2453 227.099 59.1779 226.998C57.7136 227.351 56.2997 227.806 54.9868 228.563ZM47.0591 207.608C46.7225 207.507 46.3522 207.422 45.9482 207.355C45.2413 209.678 45.2413 212.203 45.7462 214.778L47.0591 207.608ZM35.4452 219.474C35.5125 219.642 35.563 219.827 35.5967 220.029L44.3828 220.282C42.0601 219.171 38.3234 218.868 35.4452 219.474ZM40.6462 229.371C40.7809 229.539 40.9492 229.724 41.1512 229.926L47.7155 224.725C45.0393 225.634 42.6155 227.301 40.6462 229.371ZM45.0898 233.461C45.2244 233.562 45.3591 233.646 45.4937 233.714L47.9175 229.573C46.5541 230.734 45.6957 231.946 45.0898 233.461ZM37.5155 224.776C37.5828 224.944 37.6502 225.096 37.7175 225.23L42.262 224.523C40.6967 224.523 39.0808 224.473 37.5155 224.776ZM34.1323 212.152L42.1611 213.768C40.2927 211.849 36.5561 212.152 34.1323 212.152ZM55.0373 238.309C55.1383 238.342 55.2393 238.359 55.3403 238.359L56.8552 233.209C55.7443 234.521 55.1383 236.44 55.0373 238.157C55.0373 238.191 55.0373 238.241 55.0373 238.309ZM91.1414 237.703C90.8384 237.905 90.5354 238.09 90.2325 238.258L96.4434 241.136C94.878 240.025 93.0602 238.713 91.1414 237.703ZM101.594 232.249C101.392 232.35 101.19 232.451 100.988 232.552L103.614 236.743C103.21 235.077 102.553 233.613 101.594 232.249ZM113.763 228.361C113.393 228.428 113.039 228.513 112.703 228.614L113.915 235.632C115.228 234.471 114.47 230.835 114.117 229.472C114.016 229.102 113.898 228.731 113.763 228.361ZM108.865 229.623C108.663 229.691 108.461 229.758 108.259 229.825L110.38 233.007C110.431 231.795 109.774 230.583 108.865 229.623ZM120.732 236.137L124.115 240.126C124.384 239.992 124.637 239.857 124.872 239.722C123.812 238.056 122.246 236.491 120.732 236.137ZM128.962 230.532C127.7 230.835 126.538 231.29 125.68 232.098L129.366 231.34C129.232 231.037 129.097 230.768 128.962 230.532ZM120.782 227.25C120.429 228.008 120.277 228.816 120.53 229.573L121.691 227.149C121.388 227.183 121.085 227.217 120.782 227.25ZM110.33 249.872C110.431 249.771 110.532 249.67 110.633 249.569L108.057 242.449C108.007 245.025 108.966 247.65 110.33 249.872ZM100.079 245.984L104.775 256.285C105.028 256.083 105.129 255.982 105.129 255.982C105.196 255.881 105.263 255.78 105.331 255.679C105.482 254.114 104.169 251.69 103.715 250.73C102.856 248.963 101.644 247.145 100.079 245.984ZM90.4849 254.215C90.7206 254.45 90.9731 254.686 91.2424 254.922L96.5444 247.499C94.3731 248.812 91.6463 251.437 90.4849 254.215ZM85.6374 246.337C85.6711 246.405 85.6879 246.472 85.6879 246.539L93.0602 244.873C90.4344 244.873 88.0612 245.529 85.6374 246.337Z" fill="#D2E3FF"/>
<path d="M30.3956 220.736C32.2134 218.312 35.0411 216.697 35.0411 216.697C35.0411 216.697 35.4451 228.967 49.3313 236.036C63.268 243.106 72.7105 236.844 72.7105 236.844C61.6016 234.521 55.1887 221.14 51.8055 213.919C56.0976 229.068 65.8937 236.238 65.8937 236.238C58.2184 237.248 43.7263 234.622 39.2827 226.139C35.3946 218.767 37.6669 211.041 38.3233 209.223C37.852 209.459 37.3639 209.728 36.859 210.031C29.9916 214.071 30.3956 220.736 30.3956 220.736Z" fill="#A2C8E1"/>
<path d="M93.464 256.386C100.937 260.425 105.179 255.982 105.179 255.982C114.369 242.752 130.578 237.299 130.729 237.248C130.662 237.248 130.595 237.248 130.527 237.248C118.661 237.248 101.341 254.972 94.4739 253.76C88.5155 252.7 85.7383 244.974 85.1323 242.954C85.0313 245.782 87.1521 252.952 93.464 256.386Z" fill="#A2C8E1"/>
<path d="M36.1521 215.131C36.354 215.064 36.5392 214.997 36.7075 214.929L37.3135 210.233C37.3135 210.233 32.9709 211.597 31.4055 218.262C31.4055 218.262 33.1224 216.495 35.3946 215.434C35.4956 217.353 36.0006 220.433 37.6669 223.412C37.6669 223.412 36.0006 218.615 36.1521 215.131ZM46.4026 233.612C60.1373 242.752 71.4987 237.097 71.4987 237.097L69.2264 236.592C57.1581 238.056 46.4026 233.612 46.4026 233.612ZM111.087 246.388C107.906 248.66 100.533 254.416 95.9383 254.416C91.3938 254.416 88.97 251.538 88.97 251.538C89.6265 253.356 94.0195 256.84 99.069 257.345C104.068 257.8 105.381 253.205 111.491 248.004C117.601 242.752 125.831 238.712 125.831 238.712C121.59 239.571 114.218 244.115 111.087 246.388Z" fill="#B1D2ED"/>
<path d="M67.6106 107.627C67.6106 107.627 77.0027 104.294 90.9899 105.859C104.977 107.475 83.7186 115.958 83.7186 115.958L73.2661 113.535L67.6106 107.627Z" fill="#E11700"/>
<path d="M78.1136 124.846C78.1136 124.846 69.7819 113.787 67.6106 107.627C67.6106 107.627 71.6502 110.202 75.1344 110.303C78.6185 110.454 87.1017 111.01 87.1017 111.01L103.058 107.475C103.058 107.475 109.522 112.07 113.965 119.19C113.965 119.19 121.59 125.603 129.114 142.569C136.637 159.485 136.789 171.301 136.133 173.977C135.426 176.654 120.025 183.117 120.025 183.117C120.025 183.117 108.562 185.642 106.189 185.793C103.765 185.945 96.3423 184.581 95.1305 184.177C93.9186 183.773 83.2136 181.501 83.2136 181.501C83.2136 181.501 78.9215 152.769 79.9819 142.014C81.0423 131.258 78.1136 124.846 78.1136 124.846Z" fill="url(#paint19_radial_54_6106)"/>
<path d="M95.1306 184.178C96.3425 184.581 103.765 185.945 106.189 185.793C108.562 185.642 120.025 183.117 120.025 183.117C120.025 183.117 135.426 176.654 136.133 173.977C136.537 172.261 136.638 166.656 134.618 158.324C135.173 161.051 136.587 171.453 126.741 173.826C116.086 176.401 104.674 165.494 101.998 157.466C99.3217 149.386 96.09 132.622 96.09 132.622L80.689 161.051C81.6989 171.453 83.2137 181.501 83.2137 181.501C83.2137 181.501 93.9187 183.774 95.1306 184.178Z" fill="#F02100"/>
<path d="M83.7186 132.875L89.778 122.271C89.778 122.271 84.8294 119.695 79.578 117.171C74.5284 114.696 69.2264 110.505 67.8631 107.778C67.6948 107.677 67.6106 107.627 67.6106 107.627C69.7819 113.787 78.1136 124.846 78.1136 124.846C78.1136 124.846 79.4265 127.724 79.9819 132.925C81.3453 133.127 83.2136 132.875 83.7186 132.875Z" fill="#F02100"/>
<path d="M82.8097 119.19C78.7701 117.827 78.9216 120.654 76.5988 119.695C74.68 118.887 70.3374 112.777 69.1255 111.01C72.3067 117.17 78.1136 124.846 78.1136 124.846C78.1136 124.846 78.7196 126.158 79.275 128.633C80.4869 128.027 81.5978 127.219 82.4057 126.562C84.274 124.947 86.8493 120.503 82.8097 119.19Z" fill="#E11700"/>
<path d="M97.1503 139.186C97.1503 139.186 99.7255 156.405 100.129 165.09C100.533 173.826 117.702 179.734 126.589 176.25C135.426 172.766 135.729 168.07 135.729 168.07C135.729 168.07 136.637 172.917 135.022 175.846C133.456 178.825 125.63 182.309 124.418 182.562C123.206 182.865 104.977 185.288 104.977 185.288C104.977 185.288 96.6453 185.945 95.0295 184.985C93.4136 184.076 89.9294 177.866 89.9294 177.866L89.6265 171.301L97.1503 139.186Z" fill="#E11700"/>
<path d="M120.782 142.267C120.849 142.199 120.917 142.132 120.984 142.065C121.018 142.031 121.035 141.997 121.035 141.964C121.068 141.93 121.102 141.879 121.135 141.812C121.169 141.778 121.203 141.745 121.236 141.711C121.27 141.678 121.287 141.627 121.287 141.56C121.321 141.526 121.337 141.492 121.337 141.459C121.371 141.391 121.405 141.324 121.438 141.257C121.438 141.223 121.455 141.206 121.489 141.206C121.523 141.105 121.556 141.004 121.59 140.903C121.59 140.87 121.59 140.853 121.59 140.853C121.624 140.752 121.64 140.668 121.64 140.6C121.64 140.567 121.657 140.533 121.691 140.499C121.691 140.432 121.691 140.365 121.691 140.297C121.725 140.264 121.741 140.23 121.741 140.196C121.741 140.129 121.741 140.045 121.741 139.944C121.741 139.91 121.758 139.893 121.792 139.893C121.792 139.658 121.792 139.439 121.792 139.237C121.792 139.203 121.792 139.186 121.792 139.186C121.792 139.085 121.792 138.984 121.792 138.883C121.792 138.883 121.792 138.867 121.792 138.833C121.792 138.732 121.792 138.631 121.792 138.53C121.758 138.16 121.725 137.823 121.691 137.52C121.657 137.419 121.64 137.318 121.64 137.217C121.388 136.157 121.085 135.298 120.782 135.046C120.126 134.339 117.702 133.278 114.47 135.854C114.403 135.887 114.335 135.955 114.268 136.056C114.167 136.123 114.083 136.207 114.016 136.308C113.982 136.308 113.965 136.308 113.965 136.308C113.898 136.409 113.831 136.527 113.763 136.662C113.763 136.662 113.746 136.662 113.713 136.662C113.645 136.763 113.578 136.88 113.511 137.015C113.443 137.116 113.393 137.234 113.359 137.369C113.359 137.369 113.342 137.385 113.309 137.419C113.275 137.52 113.241 137.638 113.208 137.773C113.208 137.773 113.191 137.789 113.157 137.823C113.124 137.924 113.09 138.042 113.056 138.177C113.056 138.177 113.056 138.193 113.056 138.227C113.023 138.328 113.006 138.446 113.006 138.58C112.972 138.614 112.955 138.631 112.955 138.631C112.955 138.766 112.955 138.883 112.955 138.984C112.922 139.018 112.905 139.052 112.905 139.085C112.905 139.186 112.905 139.287 112.905 139.388C112.905 139.456 112.905 139.506 112.905 139.54C112.905 139.641 112.905 139.742 112.905 139.843C112.905 139.91 112.905 139.961 112.905 139.994C112.938 140.095 112.955 140.179 112.955 140.247C112.955 140.314 112.972 140.381 113.006 140.449C113.006 140.516 113.006 140.6 113.006 140.701C113.039 140.769 113.056 140.836 113.056 140.903C113.09 140.971 113.107 141.038 113.107 141.105C113.14 141.173 113.174 141.24 113.208 141.307C113.208 141.375 113.225 141.442 113.258 141.509C113.292 141.577 113.326 141.661 113.359 141.762C113.393 141.795 113.41 141.829 113.41 141.863C113.477 141.997 113.544 142.132 113.612 142.267C115.278 144.943 118.863 144.387 120.782 142.267ZM129.518 155.446C127.397 152.467 123.61 151.962 119.217 153.982C117.449 154.739 116.49 156.203 115.934 157.668C115.934 157.701 115.934 157.718 115.934 157.718C115.278 159.435 115.278 161.202 115.278 161.96C115.278 162.027 115.278 162.078 115.278 162.111C115.278 162.145 115.278 162.162 115.278 162.162C115.278 162.162 115.278 162.179 115.278 162.212C115.278 162.212 115.278 162.229 115.278 162.263C115.278 162.296 115.278 162.313 115.278 162.313C115.278 167.514 118.005 169.13 121.085 169.938C124.165 170.746 126.993 168.221 128.71 165.898C128.777 165.831 128.844 165.764 128.912 165.696C128.912 165.663 128.929 165.646 128.962 165.646C128.996 165.579 129.03 165.511 129.063 165.444C129.063 165.41 129.08 165.377 129.114 165.343C129.147 165.309 129.181 165.259 129.215 165.191C129.248 165.158 129.265 165.107 129.265 165.04C129.299 165.006 129.333 164.973 129.366 164.939C129.4 164.872 129.417 164.821 129.417 164.787C129.45 164.754 129.484 164.703 129.518 164.636C129.551 164.602 129.568 164.552 129.568 164.484C129.602 164.451 129.619 164.417 129.619 164.384C129.652 164.283 129.686 164.198 129.72 164.131C129.753 164.097 129.77 164.081 129.77 164.081C129.804 163.98 129.838 163.895 129.871 163.828C129.871 163.794 129.871 163.761 129.871 163.727C129.905 163.66 129.938 163.576 129.972 163.475C130.006 163.441 130.023 163.424 130.023 163.424C130.056 163.323 130.09 163.222 130.124 163.121C130.124 163.121 130.124 163.104 130.124 163.071C130.881 160.596 131.033 157.466 129.518 155.446Z" fill="#E11700"/>
<path d="M96.0899 131.41C96.0899 131.41 101.038 156.506 97.7058 178.017L98.6652 179.633C98.6652 179.633 114.218 183.117 136.133 173.725L136.941 175.442L133.153 178.825C133.153 178.825 109.774 184.733 108.714 184.885C107.653 184.986 95.4335 184.329 94.7266 184.178C94.0701 184.077 90.8384 177.361 90.8384 177.361C90.8384 177.361 90.182 164.182 90.3335 162.97L96.0899 131.41Z" fill="#CD1200"/>
<path d="M126.892 178.421C127.144 174.886 126.942 171.352 126.69 167.817C126.084 159.94 124.519 152.113 121.792 144.64C119.318 137.823 115.682 131.41 110.834 125.957C110.531 125.654 110.127 126.108 110.38 126.36C121.539 138.833 125.882 156.254 126.336 172.614C126.387 174.533 126.437 176.502 126.286 178.421C126.235 178.825 126.841 178.774 126.892 178.421Z" fill="#CD1200"/>
<path d="M97.0997 180.845C97.0997 180.845 106.997 183.067 119.469 179.835C131.941 176.603 136.183 173.977 136.183 173.977L136.385 171.352C136.385 171.352 140.829 173.371 140.627 179.229C140.425 185.086 139.415 189.681 132.749 192.509L132.143 189.479C132.143 189.479 113.612 197.155 95.4838 194.933L93.666 188.268L97.0997 180.845Z" fill="#EBF5FF"/>
<path d="M105.229 181.552C104.489 181.552 103.799 181.535 103.159 181.501L105.28 187.258C105.229 185.339 105.28 183.471 105.229 181.552ZM108.36 186.147L109.471 181.451C109.101 181.484 108.73 181.501 108.36 181.501C108.108 183.117 107.855 185.036 108.36 186.147ZM116.843 185.541L119.015 179.936C118.543 180.071 118.072 180.188 117.601 180.289C117.096 182.006 116.793 183.723 116.843 185.541ZM124.922 178.32C124.384 178.488 123.828 178.657 123.256 178.825L127.195 182.966C126.841 181.501 126.134 179.431 124.922 178.32ZM129.366 176.856L130.325 181.552C131.032 180.39 130.881 178.169 130.123 176.603C129.854 176.704 129.602 176.788 129.366 176.856ZM132.8 175.593C132.732 175.627 132.648 175.661 132.547 175.694L135.072 179.33C134.618 177.815 133.911 176.553 132.8 175.593ZM124.518 192.055C124.586 192.021 124.636 192.004 124.67 192.004C125.276 189.934 123.307 187.763 122.196 186.248L124.518 192.055ZM115.53 194.125L116.742 187.914C115.581 189.025 114.722 192.055 114.773 194.277C115.009 194.243 115.261 194.192 115.53 194.125ZM111.541 194.782C111.676 194.748 111.794 194.731 111.895 194.731C112.501 192.863 112.097 190.388 111.087 188.924L111.541 194.782ZM101.846 195.387L103.613 188.975C102.2 190.994 102.2 193.166 101.796 195.387C101.796 195.387 101.812 195.387 101.846 195.387ZM129.618 190.489C129.888 190.422 130.14 190.338 130.376 190.237C130.729 188.318 130.275 186.046 129.517 184.531L129.618 190.489ZM134.769 182.511L139.162 186.955C139.196 186.921 139.213 186.887 139.213 186.854C139.213 184.784 136.89 182.309 134.769 182.511ZM140.576 177.916C139.566 177.866 138.607 178.017 138.001 178.27L140.626 178.623C140.626 178.387 140.61 178.152 140.576 177.916Z" fill="#D2E3FF"/>
<path d="M93.666 188.268L95.4838 194.933C113.612 197.155 132.143 189.479 132.143 189.479L132.749 192.509C139.213 189.782 140.324 185.389 140.576 179.784C140.542 179.919 140.492 180.071 140.425 180.239C135.577 192.105 106.694 192.358 98.4631 192.206C99.9779 187.51 99.2205 182.41 98.968 181.148C97.7561 180.996 97.0997 180.845 97.0997 180.845L93.666 188.268Z" fill="#A2C8E1"/>
<path d="M136.385 171.352L136.183 173.977C136.183 173.977 134.062 175.29 128.356 177.209C131.386 176.654 136.688 175.442 139.162 173.876C137.95 172.059 136.385 171.352 136.385 171.352Z" fill="#B1D2ED"/>
<path d="M97.8066 194.529C119.873 195.438 131.234 188.571 131.234 188.571C121.893 192.711 98.3116 193.014 98.3116 193.014L97.8066 194.529ZM133.153 189.682V191.701C140.021 187.763 140.021 182.461 140.021 182.461C138.102 185.491 133.153 189.682 133.153 189.682Z" fill="#B1D2ED"/>
<path d="M69.4789 201.699C69.4789 201.699 70.1859 202.81 72.0037 202.608C73.771 202.406 83.6681 202.305 83.6681 202.305L85.2839 199.023L67.2066 193.973L61.4502 193.67C61.4502 193.67 61.7532 196.094 61.7532 196.296L69.4789 201.699Z" fill="url(#paint20_linear_54_6106)"/>
<path d="M63.7728 195.539C63.7728 195.539 75.1342 197.306 82.6075 200.083L82.4055 201.447L85.8392 199.477C85.8392 199.477 76.3461 195.539 76.0936 195.488C75.7906 195.387 62.1569 193.923 62.1569 193.923L62.1064 195.791L63.7728 195.539Z" fill="#003800"/>
<path d="M62.5108 194.377L59.8345 194.933C56.6028 196.549 57.9662 199.376 57.9662 199.376C60.4909 203.265 69.6306 201.901 69.6306 201.901C68.4187 197.912 62.5108 194.377 62.5108 194.377ZM84.6781 199.225L82.4059 201.396C72.2058 199.629 70.59 202.457 70.59 202.457C71.4989 203.416 71.8019 206.092 71.4989 207.809C71.2464 209.576 72.3068 210.94 74.8821 210.536C77.4068 210.132 81.295 205.537 81.295 205.537C81.295 205.537 82.4059 206.749 84.5266 205.688C86.6979 204.628 88.8187 200.285 88.8187 200.285L84.6781 199.225Z" fill="#EBC200"/>
<path d="M60.6926 201.043C60.6926 201.043 63.7728 201.901 64.8837 197.155C64.8837 197.155 67.257 198.165 69.0748 201.649C69.0748 201.649 63.3689 202.406 60.6926 201.043Z" fill="#F5E100"/>
<path d="M72.7104 209.728C72.7104 209.728 75.5382 209.576 77.2045 207.759C78.9214 205.941 80.1837 202.507 80.1837 202.507L81.8501 202.457C81.8501 202.457 78.1639 211.394 72.7104 209.728Z" fill="#F5E100"/>
<path d="M61.8541 200.588C64.2778 200.437 64.2779 196.549 64.2779 196.549C64.2779 196.549 62.662 194.933 61.8541 194.933C61.3491 194.933 60.2887 194.983 59.6323 195.034C57.0065 196.448 57.7135 198.72 57.9155 199.275C58.5719 199.73 60.0363 200.689 61.8541 200.588Z" fill="url(#paint21_linear_54_6106)"/>
<path d="M74.074 209.172C77.8107 208.213 79.174 202.608 79.174 202.608C75.4879 200.588 71.5493 202.002 70.6403 202.356C70.6067 202.423 70.5898 202.457 70.5898 202.457C71.4988 203.416 71.8017 206.092 71.4988 207.809C71.4314 208.348 71.4819 208.819 71.6502 209.223C72.2562 209.425 73.0641 209.425 74.074 209.172Z" fill="url(#paint22_linear_54_6106)"/>
<path d="M83.7185 202.305C82.5066 202.861 82.2542 205.133 82.2542 205.133C84.9304 206.345 87.2027 201.8 87.2027 201.8C87.2027 201.8 84.9304 201.8 83.7185 202.305Z" fill="url(#paint23_linear_54_6106)"/>
<path d="M71.2462 175.593L59.2788 169.938C59.2788 169.938 64.6818 168.473 65.9947 163.626C67.358 158.778 76.1947 121.311 80.6383 119.291C85.0818 117.322 93.9185 124.139 95.5343 129.239C97.1502 134.339 98.3621 163.373 96.2413 178.169L71.2462 175.593Z" fill="#FF2B00"/>
<path d="M68.0144 161.505C68.0144 161.505 76.5986 121.867 81.2946 119.998C81.2946 119.998 86.1422 118.231 93.0095 127.623C93.0095 127.623 94.2214 134.743 91.9491 146.559C89.6263 158.425 80.7897 167.918 77.154 168.625C73.5184 169.282 68.4184 164.181 68.0144 161.505Z" fill="url(#paint24_linear_54_6106)"/>
<path d="M59.2788 169.938L71.2462 175.593L96.2413 178.169C98.3621 163.374 97.1502 134.339 95.5343 129.239C94.8274 126.967 92.6561 124.341 90.0809 122.321C91.0908 123.634 93.5145 126.866 93.9185 127.522C94.4739 128.33 94.6254 139.742 92.4541 148.882C90.3333 158.021 80.8907 171.15 74.8818 170.241C69.0244 169.332 66.4491 163.02 66.2976 162.566C66.163 163.003 66.062 163.357 65.9947 163.626C64.6818 168.474 59.2788 169.938 59.2788 169.938Z" fill="#F02100"/>
<path d="M59.2788 169.938L71.2462 175.593L96.2413 178.169C98.3621 163.373 97.1502 134.339 95.5343 129.239C95.3324 128.532 94.9284 127.724 94.4234 126.966C94.6759 127.774 95.4838 130.855 95.6858 137.318C95.9383 145.094 93.1611 166.05 88.566 169.534C84.0214 173.018 75.7907 173.018 71.0947 172.109C67.0046 171.301 65.5907 166.605 65.2877 165.393C63.3184 168.827 59.2788 169.938 59.2788 169.938Z" fill="#E11700"/>
<path d="M59.4306 195.337C59.4306 195.337 54.8356 194.529 53.1187 187.409C51.3514 180.289 52.7148 169.837 57.2593 169.13C61.8544 168.474 67.8633 172.766 73.5188 173.321C79.1742 173.826 91.798 175.846 93.6663 176.149C95.5347 176.401 98.2614 179.33 98.2614 183.269C98.2614 187.157 96.3426 201.245 92.202 201.245C88.0109 201.245 82.9109 199.074 76.094 197.205C69.2267 195.337 60.7435 193.721 59.4306 195.337Z" fill="url(#paint25_linear_54_6106)"/>
<path d="M59.4305 195.337C60.7434 193.721 69.2266 195.337 76.0939 197.205C82.9108 199.074 88.0108 201.245 92.2019 201.245C96.3425 201.245 98.2613 187.157 98.2613 183.269C98.2613 183.168 98.2445 183.067 98.2108 182.966C98.1603 187.763 96.7465 192.661 93.0098 196.549C89.1217 200.589 74.5791 194.782 64.1266 192.257C56.4008 190.388 53.5226 185.945 52.5127 183.723C52.6137 185.036 52.8157 186.248 53.1186 187.409C54.8355 194.529 59.4305 195.337 59.4305 195.337Z" fill="#A2C8E1"/>
<path d="M53.3711 186.551C53.3711 186.551 57.0572 191.196 63.3691 192.913C69.681 194.681 77.1543 196.397 81.1939 197.508C85.2335 198.569 93.5148 200.79 96.4435 192.358C96.4435 192.358 95.4841 199.831 92.2019 200.639C88.9197 201.447 82.0524 198.013 74.5791 196.296C67.1563 194.529 61.3493 193.469 59.38 194.681C59.38 194.681 54.5325 192.105 53.3711 186.551Z" fill="#B1D2ED"/>
<path d="M57.2591 171.554C56.6532 171.049 55.9462 170.594 55.2898 170.19C55.1551 170.325 55.0205 170.477 54.8858 170.645L63.1671 178.825C61.4502 176.149 59.8344 173.574 57.2591 171.554ZM63.3185 170.14L65.8938 176.654C65.9443 174.735 65.3888 172.463 64.3789 170.544C64.0423 170.409 63.6888 170.275 63.3185 170.14ZM68.469 172.059L69.7819 175.745C69.6304 174.381 69.2265 173.271 68.671 172.16C68.6037 172.126 68.5364 172.092 68.469 172.059ZM82.8097 180.441L86.3443 175.038C86.0077 174.971 85.6542 174.92 85.2839 174.886C84.0216 176.553 83.0621 178.573 82.8097 180.441ZM94.878 176.603C93.6156 177.31 92.4543 178.169 91.5453 178.825C90.0305 179.986 88.6166 181.198 87.3542 182.562L95.9384 177.462C95.6018 177.125 95.2483 176.839 94.878 176.603ZM98.1097 181.905C96.1404 182.511 94.2216 183.37 92.8582 184.329L98.2107 183.067C98.2107 183.033 98.2107 182.999 98.2107 182.966C98.2107 182.595 98.177 182.242 98.1097 181.905ZM52.3611 180.996L59.6829 182.865C57.4611 181.35 54.9363 180.592 52.3611 180.188C52.3611 180.458 52.3611 180.727 52.3611 180.996Z" fill="#D2E3FF"/>
<path d="M121.742 140.549C123.61 138.53 122.398 133.935 121.742 133.278C121.085 132.622 118.661 131.561 115.43 134.086C113.612 135.55 113.41 138.58 114.571 140.499C116.238 143.175 119.772 142.62 121.742 140.549ZM130.477 153.678C128.306 150.749 124.569 150.194 120.126 152.214C115.682 154.234 116.238 160.546 116.238 160.546C116.238 165.797 118.914 167.413 121.994 168.221C125.125 169.029 127.902 166.453 129.669 164.181C131.437 161.909 132.648 156.657 130.477 153.678Z" fill="#EBF5FF"/>
<path d="M121.742 140.549C122.903 139.287 122.903 137.116 122.55 135.449C122.297 137.015 121.691 138.58 120.277 138.934C119.217 139.186 116.288 138.227 115.581 137.469C114.723 136.56 115.026 135.399 115.228 134.288C113.612 135.803 113.46 138.681 114.571 140.499C116.238 143.175 119.772 142.62 121.742 140.549ZM130.528 153.729C131.336 156.859 131.184 160.243 127.801 161.707C125.68 162.666 121.691 162.767 119.57 161.757C117.197 160.596 117.551 157.768 117.046 155.496C116.036 157.92 116.238 160.546 116.238 160.546C116.238 165.797 118.914 167.413 121.994 168.221C125.125 169.029 127.902 166.454 129.669 164.181C131.386 161.909 132.598 156.708 130.528 153.729Z" fill="#A2C8E1"/>
<path d="M122.347 137.722C122.347 137.722 120.681 139.59 120.025 139.742C119.318 139.843 116.591 139.035 115.581 138.429C114.571 137.873 114.571 136.459 114.571 136.459L114.773 135.5C114.773 135.5 113.965 136.156 114.268 139.035C114.622 141.963 118.308 142.014 118.308 142.014C122.297 141.206 122.347 137.722 122.347 137.722ZM128.811 161.959C127.195 162.818 121.489 163.373 119.469 162.565C117.449 161.757 116.793 157.92 116.793 157.92C116.288 159.081 116.894 163.121 116.894 163.121C117.803 167.665 123.357 167.918 123.357 167.918C129.518 167.211 131.033 159.485 131.033 159.485C131.033 159.485 130.427 161.101 128.811 161.959Z" fill="#B1D2ED"/>
<path d="M64.3788 94.0436C64.3788 94.0436 61.0461 99.699 62.1065 101.315C63.1669 102.931 71.3976 101.163 71.3976 101.163L64.3788 94.0436Z" fill="url(#paint26_linear_54_6106)"/>
<path d="M62.1065 101.315C63.1669 102.931 71.3976 101.163 71.3976 101.163L64.7828 94.4476C64.5471 94.4476 64.3451 94.4476 64.1768 94.4476C64.1095 94.5823 64.0253 94.7338 63.9243 94.9021C64.4293 96.2655 65.7927 100.053 64.2778 100.507C62.8135 100.911 62.157 100.255 61.955 99.9011C61.854 100.457 61.9045 100.962 62.1065 101.315Z" fill="#EBC200"/>
<path d="M62.7629 101.063C62.7629 101.063 64.2778 101.365 65.2372 100.558C66.1966 99.6991 66.4491 98.5883 66.4491 98.5883L68.4689 101.265C68.4689 101.265 64.1768 102.476 62.7629 101.063Z" fill="#F5E100"/>
<path d="M52.3108 83.2882C52.3108 83.2882 49.1801 89.0447 50.291 90.6605C51.4019 92.2259 59.5316 90.206 59.5316 90.206L52.3108 83.2882Z" fill="url(#paint27_linear_54_6106)"/>
<path d="M50.2908 90.6605C51.4017 92.2258 59.5314 90.206 59.5314 90.206L52.7146 83.6921C52.4789 83.6921 52.2769 83.6921 52.1086 83.6921C52.0413 83.8268 51.9571 83.9951 51.8561 84.1971C52.4621 85.51 53.9264 89.2466 52.4116 89.7516C50.9977 90.206 50.3413 89.5496 50.0888 89.1961C49.9878 89.8021 50.0383 90.307 50.2908 90.6605Z" fill="#EBC200"/>
<path d="M50.8967 90.3576C50.8967 90.3576 52.4621 90.6101 53.371 89.7517C54.2799 88.8932 54.5324 87.7823 54.5324 87.7823L56.6532 90.3576C56.6532 90.3576 52.3611 91.721 50.8967 90.3576Z" fill="#F5E100"/>
<path d="M75.1345 110.505C75.1345 110.505 67.8632 98.0328 61.2483 91.7714C54.583 85.51 101.342 105.052 101.342 105.052C101.342 105.052 108.158 111.717 110.986 126.613C110.986 126.613 93.4643 112.525 75.1345 110.505Z" fill="url(#paint28_linear_54_6106)"/>
<path d="M105.229 110.455C103.109 106.819 101.341 105.052 101.341 105.052C101.341 105.052 101.207 105.001 100.937 104.9C100.702 104.867 100.466 104.833 100.23 104.799C96.1909 104.345 92.0503 104.547 88.2126 105.961C86.1423 106.769 83.971 107.93 82.2037 109.445C82.7086 110.505 83.1631 111.414 83.5166 112.222C85.6879 112.828 87.7582 113.585 89.778 114.393C90.8889 113.737 92.1008 113.181 93.2621 112.777C97.0493 111.414 101.139 110.657 105.229 110.455ZM99.1196 104.143C94.575 102.274 84.072 97.9824 75.1344 94.7002C72.6096 95.2051 71.2967 96.0636 73.5185 97.6289C76.8512 99.9517 79.8809 104.951 81.9512 108.94C82.6582 108.334 83.4661 107.778 84.2235 107.273C88.7681 104.395 93.9186 103.688 99.1196 104.143ZM108.714 118.079C105.886 118.029 103.109 118.483 100.634 119.746C106.896 123.331 110.986 126.613 110.986 126.613C110.38 123.381 109.572 120.554 108.714 118.079ZM108.461 117.474C107.552 114.949 106.542 112.828 105.583 111.111C105.044 111.111 104.506 111.145 103.967 111.212C100.331 111.515 96.6453 112.121 93.2116 113.434C92.3027 113.787 91.3938 114.191 90.4849 114.696C93.9691 116.11 97.2008 117.776 99.978 119.342C100.348 119.174 100.719 119.005 101.089 118.837C103.462 117.827 105.987 117.423 108.461 117.474Z" fill="url(#paint29_linear_54_6106)"/>
<path d="M101.341 105.052C101.341 105.052 101.325 105.052 101.291 105.052C101.257 105.052 101.207 105.035 101.139 105.001C101.072 104.968 101.005 104.934 100.937 104.9C100.702 104.867 100.466 104.833 100.23 104.799C96.1909 104.345 92.0503 104.547 88.2126 105.961C87.8087 106.129 87.3879 106.314 86.9502 106.516C91.8483 107.526 98.3117 108.536 103.462 107.677C102.2 105.91 101.341 105.052 101.341 105.052ZM99.1196 104.143C99.0859 104.143 99.0523 104.143 99.0186 104.143C99.0186 104.109 99.0018 104.092 98.9681 104.092C98.9008 104.059 98.8166 104.025 98.7156 103.991C98.5136 103.924 98.3117 103.84 98.1097 103.739C98.076 103.739 98.0592 103.739 98.0592 103.739C97.9582 103.705 97.874 103.672 97.8067 103.638C97.773 103.604 97.7225 103.571 97.6552 103.537C97.6216 103.537 97.5879 103.52 97.5542 103.486C97.4532 103.453 97.3691 103.419 97.3018 103.385C97.2681 103.385 97.2513 103.385 97.2513 103.385C97.1503 103.352 97.0493 103.318 96.9483 103.284C96.8136 103.217 96.6958 103.167 96.5948 103.133C95.9889 102.897 95.3661 102.645 94.7265 102.375L94.676 102.325C94.474 102.258 94.2552 102.173 94.0196 102.072C93.5819 101.904 93.1275 101.719 92.6562 101.517C92.6225 101.517 92.6057 101.517 92.6057 101.517C92.3701 101.416 92.1344 101.315 91.8988 101.214C91.3938 101.012 90.8889 100.81 90.3839 100.608C90.3839 100.608 90.3671 100.608 90.3334 100.608C90.0978 100.507 89.8453 100.406 89.576 100.305C89.576 100.305 89.576 100.288 89.576 100.255C89.0374 100.053 88.4988 99.8507 87.9601 99.6487C87.6908 99.5477 87.4215 99.4467 87.1522 99.3457C87.1522 99.3121 87.1354 99.2953 87.1017 99.2953C86.2938 98.9923 85.4691 98.6725 84.6275 98.3358C84.5938 98.3358 84.577 98.3358 84.577 98.3358C84.3077 98.2012 84.0384 98.0834 83.769 97.9824C83.7354 97.9824 83.7186 97.9824 83.7186 97.9824C83.1463 97.7467 82.5908 97.5279 82.0522 97.3259C82.0185 97.3259 82.0017 97.3259 82.0017 97.3259C81.7324 97.225 81.4463 97.1071 81.1433 96.9725C80.571 96.7705 79.9987 96.5517 79.4265 96.316C79.1235 96.215 78.8374 96.1141 78.568 96.0131C78.568 96.0131 78.5512 95.9962 78.5175 95.9626C77.676 95.6596 76.8512 95.3566 76.0433 95.0537C76.0096 95.0537 75.976 95.0368 75.9423 95.0032C75.673 94.9022 75.4037 94.818 75.1344 94.7507C75.1344 94.7507 75.1344 94.7339 75.1344 94.7002C72.6096 95.2051 71.2967 96.0636 73.5185 97.6289C75.8413 99.2448 78.0631 102.173 79.8304 105.153C81.0423 105.254 82.2542 105.405 83.4156 105.658C84.173 105.86 85.0314 106.062 85.9908 106.264C90.0809 104.244 94.6255 103.739 99.1196 104.143Z" fill="url(#paint30_linear_54_6106)"/>
<path d="M99.1196 104.143C94.6255 103.739 90.081 104.244 85.9908 106.264C86.2938 106.331 86.6136 106.415 86.9503 106.516C87.3879 106.314 87.8087 106.129 88.2126 105.961C92.0503 104.547 96.1909 104.345 100.23 104.799C100.466 104.833 100.702 104.867 100.937 104.9C100.584 104.749 99.9275 104.496 99.1196 104.143ZM73.5185 97.6291C71.2968 96.0637 72.6096 95.2053 75.1344 94.7004C65.8433 91.3172 58.269 88.9944 61.2482 91.7717C65.1868 95.4578 69.3274 101.366 72.0542 105.557C73.872 105.304 76.8007 104.951 79.8304 105.153C78.0631 102.174 75.8413 99.2449 73.5185 97.6291Z" fill="#003800"/>
<path d="M49.7354 78.895C49.7354 78.895 56.6027 96.6189 84.6275 104.294C84.6275 104.294 105.381 110.303 116.843 97.8307C116.843 97.8307 122.297 97.2248 121.085 94.3971C121.085 94.3971 124.923 92.3773 124.317 87.9337L122.903 86.9238C122.903 86.9238 125.529 83.5406 125.125 82.7327C124.721 81.9247 121.893 80.5109 121.893 80.5109C121.893 80.5109 124.519 76.8752 124.519 67.7861C124.519 67.7861 125.933 61.1712 127.7 59.5554C129.518 57.9395 115.43 46.8306 115.43 46.8306C115.43 46.8306 67.2572 44.6593 65.6919 44.8108C64.076 45.0128 47.5136 51.4762 47.5136 51.4762L45.9482 65.7663L49.7354 78.895Z" fill="url(#paint31_linear_54_6106)"/>
<path d="M127.7 59.5554C129.518 57.9395 115.43 46.8306 115.43 46.8306C115.43 46.8306 67.2572 44.6593 65.6919 44.8108C64.076 45.0128 47.5136 51.4762 47.5136 51.4762L45.9482 65.7663L49.7354 78.895C49.7354 78.895 49.8364 79.0465 49.9879 79.4L50.1393 79.299C50.1393 79.299 50.3413 63.797 64.076 60.3633C77.7602 56.9296 93.2622 60.3633 100.534 62.1811C106.29 63.595 116.339 67.9376 124.519 68.493C124.519 68.2574 124.519 68.0217 124.519 67.7861C124.519 67.7861 125.933 61.1712 127.7 59.5554Z" fill="url(#paint32_linear_54_6106)"/>
<path d="M84.8296 55.3139C70.4889 54.304 65.6919 72.0278 65.6919 72.0278L71.4988 74.8555C71.4988 74.8555 87.2028 79.0971 90.2326 80.309C93.2623 81.5209 96.292 81.9249 96.292 81.9249C100.13 69.2001 96.292 59.1515 96.292 59.1515L84.8296 55.3139ZM119.368 59.5555C113.056 59.9595 111.844 78.4912 111.844 78.4912L120.782 80.612C120.934 80.511 121.641 80.1575 122.297 79.8041C123.054 78.3902 124.519 74.6031 124.519 67.7862C124.519 67.7862 124.872 66.1704 125.428 64.3525C124.569 61.9288 122.852 59.303 119.368 59.5555Z" fill="url(#paint33_linear_54_6106)"/>
<path d="M110.683 74.4011C110.633 73.8456 110.633 73.5426 110.633 73.5426C108.562 71.3208 106.341 72.9367 106.341 72.9367C106.071 73.4416 105.836 73.9803 105.634 74.5525C105.97 74.3506 106.307 74.1991 106.643 74.0981C108.057 73.7446 109.37 73.8961 110.683 74.4011ZM111.289 77.2793C110.986 76.4714 110.835 75.7139 110.734 75.108C109.017 74.4011 106.997 74.1991 105.432 75.3605C105.179 76.3199 105.078 77.3298 105.078 78.3397C107.047 77.4813 109.168 77.1783 111.289 77.2793ZM113.662 81.7229C111.239 81.3694 108.714 81.2684 106.441 82.1268C106.139 82.2278 105.785 82.3793 105.432 82.5308C105.886 84.8536 106.542 86.5199 106.542 86.5199L109.572 88.7417C109.572 88.7417 118.914 89.0447 119.217 89.0447C119.52 89.0447 122.347 86.9239 122.347 86.9239C118.106 85.8635 115.43 83.8436 113.662 81.7229ZM113.157 81.0664C112.4 80.006 111.844 78.8951 111.491 77.8852C109.774 77.7842 108.057 77.9357 106.441 78.4407C105.97 78.609 105.516 78.7941 105.078 78.9961C105.078 80.006 105.179 81.0159 105.331 81.9248C105.634 81.7902 105.903 81.6724 106.139 81.5714C108.36 80.7634 110.784 80.7634 113.157 81.0664Z" fill="url(#paint34_linear_54_6106)"/>
<path d="M62.7631 75.2593C62.7631 75.7138 62.1066 76.0673 61.2482 76.0673C60.3898 76.0673 59.6829 75.7138 59.6829 75.2593C59.6829 74.8049 60.3898 74.4514 61.2482 74.4514C62.1066 74.4514 62.7631 74.8049 62.7631 75.2593Z" fill="#38B83A"/>
<path d="M124.115 83.0862C124.014 83.3892 123.509 83.4902 122.953 83.3387C122.348 83.1367 121.994 82.7832 122.045 82.4803C122.146 82.1773 122.701 82.0763 123.256 82.2278C123.812 82.4298 124.216 82.7833 124.115 83.0862Z" fill="#38B83A"/>
<path d="M122.903 86.924C122.903 86.924 119.57 85.8636 115.329 85.4091C112.652 85.2576 109.825 85.3081 107.552 85.7121C102.553 86.722 108.36 89.3477 94.878 92.5794C90.3839 93.6398 86.5463 93.6903 83.0621 93.0844C79.174 92.3774 76.2958 88.3883 74.2255 85.5101C71.9027 82.3289 66.8532 81.8239 63.3185 81.319C59.8849 80.814 55.8452 80.915 52.3611 80.6626C51.5532 80.6121 50.9472 80.6121 50.5938 80.6121C53.169 85.3081 61.9552 98.0834 84.6275 104.294C84.6275 104.294 105.381 110.303 116.843 97.8309C116.843 97.8309 122.297 97.225 121.085 94.3972C121.085 94.3972 124.923 92.3774 124.317 87.9339L122.903 86.924Z" fill="#A2E135"/>
<path d="M66.2979 86.9238C66.2979 86.9238 79.1741 98.3357 91.3435 97.2248C103.563 96.114 105.28 91.0644 114.218 89.9535C114.218 89.9535 120.479 89.3981 122.852 92.9328L102.856 102.072C102.856 102.072 87.9098 100.659 87.4048 100.659C86.8999 100.659 71.9028 95.912 71.9028 95.912L66.2979 86.9238Z" fill="#88BD23"/>
<path d="M116.843 97.8308C116.843 97.8308 122.297 97.2249 121.085 94.3971C121.085 94.3971 121.994 93.8922 122.852 92.9328C119.368 90.307 115.48 89.2971 105.886 93.7912C96.2414 98.3358 89.778 97.9823 89.778 97.9823C74.579 97.6793 64.7829 84.9041 64.7829 84.9041H62.2581C62.2581 84.9041 61.7532 88.6407 61.1978 92.7813C66.4997 97.0734 74.0235 101.365 84.6275 104.294C84.6275 104.294 105.381 110.303 116.843 97.8308Z" fill="#95CF2C"/>
<path d="M120.934 95.1546C120.782 93.5388 119.318 93.7912 118.005 93.3873C116.641 92.9833 108.966 94.8516 107.098 95.811C105.23 96.7705 102.402 101.315 87.2027 100.103C72.0542 98.8913 65.4898 90.3071 65.4898 90.3071L63.47 86.9239L62.5106 84.6516C60.2383 84.6516 56.7542 88.5397 56.7542 88.5397V88.7922C62.0056 94.1952 70.6908 100.457 84.6275 104.294C84.6275 104.294 105.381 110.303 116.843 97.8309C116.843 97.8309 120.025 97.4774 120.984 96.0635C120.984 95.7269 120.967 95.4239 120.934 95.1546Z" fill="#95CF2C"/>
<path d="M108.259 86.5704C106.845 86.2674 105.28 87.9842 106.744 88.9941C106.879 89.0615 107.031 89.1288 107.199 89.1961C106.896 88.8426 106.845 88.3882 107.148 87.9337C107.552 87.4288 108.461 87.4288 109.017 87.5298C109.572 87.6813 110.077 87.9842 110.178 88.6407C110.212 88.7417 110.229 88.8426 110.229 88.9436C110.262 88.8763 110.296 88.7922 110.33 88.6912C110.633 87.7822 108.916 86.6714 108.259 86.5704Z" fill="#007200"/>
<path d="M109.017 87.5297C108.461 87.4287 107.552 87.4287 107.148 87.9337C106.845 88.3881 106.896 88.8426 107.199 89.196C108.108 89.6 109.673 89.7515 110.229 88.9436C110.229 88.8426 110.212 88.7416 110.178 88.6406C110.077 87.9842 109.572 87.6812 109.017 87.5297Z" fill="#002D00"/>
<path d="M122.701 87.5803C123.66 87.4793 124.418 89.2467 123.256 89.9536C123.155 89.9873 123.054 90.0378 122.953 90.1051C123.155 89.8021 123.307 89.3982 123.155 88.9437C123.004 88.4387 122.448 88.2873 122.045 88.3378C121.641 88.4387 121.287 88.6407 121.085 89.1962C121.051 89.2635 121.035 89.3477 121.035 89.4486C121.001 89.3813 120.984 89.2972 120.984 89.1962C120.984 88.3882 122.247 87.5803 122.701 87.5803Z" fill="#007200"/>
<path d="M122.045 88.3376C122.449 88.2871 123.004 88.4385 123.155 88.9435C123.307 89.398 123.155 89.8019 122.953 90.1049C122.247 90.3069 121.186 90.2564 121.035 89.4485C121.035 89.3475 121.052 89.2633 121.085 89.196C121.287 88.6405 121.641 88.4386 122.045 88.3376Z" fill="#002D00"/>
<path d="M84.6275 104.294C84.6275 104.294 105.381 110.303 116.843 97.8307C116.843 97.8307 122.297 97.2248 121.085 94.397C121.085 94.397 121.102 94.3802 121.136 94.3465H121.085C120.277 93.2356 118.914 92.3267 117.449 92.0238C113.814 91.5188 106.997 95.1544 103.765 96.6188C97.8573 99.5475 93.5147 100.507 86.9503 99.5475C77.3562 98.1337 68.1156 93.3366 63.1671 85.5604C67.2572 84.5 71.0948 84.399 71.0948 84.399C68.1661 83.3891 64.6819 83.4396 61.7532 84.6515H61.6522L61.5512 84.702C60.1879 85.3079 58.9255 86.1663 57.9661 87.3277L58.9255 87.0247C59.6324 86.7218 60.3562 86.4356 61.0968 86.1663C62.6116 88.5396 70.4889 99.6485 87.3038 101.567C87.3038 101.567 97.0998 102.678 102.25 99.5475C107.956 96.1644 114.066 92.3267 119.772 94.4475C120.429 95.8109 118.762 97.3257 117.045 97.0228C115.228 96.7198 112.804 96.8208 112.804 96.8208C107.653 105.001 93.4642 104.496 93.4642 104.496C70.8928 102.931 56.1988 87.8326 52.1086 83.1366C55.9968 88.8426 65.2374 98.9921 84.6275 104.294Z" fill="#88BD23"/>
<path d="M121.085 94.2961C119.621 92.6298 118.106 91.5189 115.783 91.6704C113.612 91.8724 111.541 92.6803 109.522 93.4377C105.128 95.2051 101.038 97.8308 96.3423 98.9417C91.1413 100.154 85.4858 99.1942 80.4363 97.5783C75.4878 96.013 70.8422 93.3872 67.0551 89.8526C65.3887 88.2872 63.8739 86.6714 62.7125 84.7525C63.1838 84.5842 63.6551 84.4496 64.1263 84.3486C66.4491 83.7427 68.7719 83.7931 71.0947 84.4496C71.1452 84.4496 71.1452 84.3486 71.0947 84.3486C68.8729 83.4902 66.2976 83.2377 63.9244 83.5912C62.763 83.7427 61.6521 84.1971 60.5917 84.7021C59.3798 85.3585 58.7234 86.2674 57.9154 87.3278C57.865 87.3783 57.9154 87.4288 57.9659 87.3783C58.7234 86.6209 59.8343 86.0654 60.7937 85.5605C61.3996 85.2575 62.0056 85.005 62.662 84.7525C65.0353 89.0951 68.3679 92.3773 72.559 94.9526C76.9016 97.6288 81.8502 99.2447 86.8492 100.002C92.0502 100.81 96.9482 100.154 101.745 98.0833C105.987 96.2655 109.976 93.8417 114.47 92.6803C116.742 92.0744 119.52 92.2763 121.034 94.3466C121.085 94.3971 121.135 94.3466 121.085 94.2961Z" fill="#5B8300"/>
<path d="M96.0899 82.2278C96.0899 82.2278 82.9107 83.1367 65.5908 72.0277C65.5908 72.0277 69.075 73.3406 70.7918 73.6436C70.7918 73.6436 75.0334 54.001 90.0305 54.9099C90.0305 54.9099 99.8265 61.1713 94.979 81.3188L96.0899 82.2278Z" fill="black"/>
<path d="M73.3167 75.0574C73.3167 75.0574 83.7187 81.3188 93.9692 81.4198C93.9692 81.4198 98.6652 63.595 90.7375 57.6366C83.9206 52.4861 73.4176 67.2812 73.3167 75.0574Z" fill="white"/>
<path d="M89.4245 72.0784C90.4849 66.1199 87.8591 60.6664 83.6175 59.909C82.6581 59.7575 81.7492 59.808 80.8403 60.111C77.5076 63.3427 74.7304 68.1902 73.7205 72.2803C73.7205 73.4417 73.8719 74.5021 74.1749 75.5625C75.8918 76.4714 80.0324 78.5922 85.0314 80.0061C87.1522 78.3398 88.8185 75.512 89.4245 72.0784Z" fill="url(#paint35_linear_54_6106)"/>
<path d="M88.6166 71.9773C89.576 66.6248 87.2532 61.7267 83.4156 61.0198C81.8502 60.7673 80.2849 61.2218 78.9215 62.2317C77.2552 64.2515 75.8413 66.6248 74.8819 68.9476C74.8146 69.1159 74.7641 69.301 74.7304 69.503C74.3265 71.9268 74.5789 74.2495 75.3364 76.1684C77.2047 77.1278 80.2344 78.5416 83.8195 79.6525C86.1423 78.2892 88.0106 75.4614 88.6166 71.9773Z" fill="url(#paint36_linear_54_6106)"/>
<path d="M86.2938 71.5227C85.6878 75.1079 83.1126 77.6327 80.5373 77.1782C78.0126 76.7237 76.4472 73.4416 77.1037 69.9069C77.7096 66.3722 80.2849 63.8475 82.8096 64.3019C85.3849 64.7564 86.8997 67.9881 86.2938 71.5227Z" fill="black"/>
<path d="M85.6375 71.4218C85.082 74.502 82.9107 76.6228 80.6889 76.2693C78.5176 75.8653 77.2048 73.0881 77.7097 70.0079C78.2652 66.9782 80.487 64.8069 82.6583 65.2109C84.8295 65.5643 86.1929 68.3921 85.6375 71.4218Z" fill="url(#paint37_linear_54_6106)"/>
<path d="M82.1531 67.3317C82.0016 68.2406 81.3452 68.8465 80.6888 68.7455C80.0323 68.6445 79.6284 67.7861 79.7798 66.8772C79.9818 65.9683 80.6383 65.3119 81.2947 65.4128C81.9511 65.5643 82.3551 66.3722 82.1531 67.3317Z" fill="white"/>
<path d="M111.996 78.6931C111.794 78.3396 112.299 76.6228 112.349 76.2693C112.652 74.3505 113.056 72.4822 113.612 70.6643C114.218 68.594 114.925 66.5237 116.086 64.7564C116.995 63.2415 119.217 60.3128 121.136 62.0801C121.943 62.7871 122.398 64.0495 122.751 65.0594C124.317 69.6544 123.155 75.0069 121.691 79.501C121.691 79.501 123.509 79.4 124.519 78.4911C124.519 78.4911 120.58 83.2376 114.723 82.7327L111.996 78.6931Z" fill="black"/>
<path d="M114.723 82.8337C114.723 82.8337 112.804 80.4099 111.895 78.7941C111.895 78.7941 114.521 63.797 119.772 63.191C119.772 63.191 123.206 65.5643 122.499 72.3307C121.792 79.097 119.368 81.5208 119.368 81.5208C119.368 81.5208 117.752 82.7327 114.723 82.8337Z" fill="white"/>
<path d="M117.197 64.8069C117.163 64.8069 117.147 64.8069 117.147 64.8069C113.662 68.796 111.895 78.7941 111.895 78.7941C112.804 80.4099 114.723 82.8337 114.723 82.8337C115.834 82.7832 116.743 82.5812 117.449 82.3792C118.712 80.7634 119.722 78.2891 120.227 75.4614C121.186 70.0584 119.823 65.2613 117.197 64.8069Z" fill="url(#paint38_linear_54_6106)"/>
<path d="M119.722 75.411C120.58 70.5129 119.368 66.2208 116.995 65.8169C116.793 65.7832 116.591 65.7832 116.389 65.8169C113.41 70.2604 111.895 78.7941 111.895 78.7941C112.804 80.41 114.723 82.8338 114.723 82.8338C115.261 82.8001 115.749 82.7496 116.187 82.6823C117.752 81.3694 119.166 78.6931 119.722 75.411Z" fill="url(#paint39_linear_54_6106)"/>
<path d="M114.42 80.4605C115.985 80.7635 117.702 78.3397 118.308 75.108C118.863 71.9268 118.055 69.0486 116.49 68.7961C115.783 68.6446 115.026 69.0991 114.369 69.8565C113.46 72.1793 112.804 74.6536 112.4 76.4209C112.45 78.5922 113.208 80.2585 114.42 80.4605Z" fill="black"/>
<path d="M114.571 79.6526C115.884 79.9051 117.399 77.8348 117.904 75.0576C118.409 72.2803 117.702 69.8566 116.338 69.6041C115.329 69.4021 114.218 70.5635 113.511 72.2803C113.342 72.8526 113.191 73.3912 113.056 73.8962C113.023 73.9972 113.006 74.0982 113.006 74.1991C112.501 76.9764 113.208 79.4001 114.571 79.6526Z" fill="url(#paint40_linear_54_6106)"/>
<path d="M115.935 71.5228C115.783 72.3813 115.329 72.9872 114.925 72.8862C114.521 72.8357 114.319 72.0783 114.42 71.2704C114.571 70.4119 115.026 69.806 115.43 69.907C115.834 69.9575 116.086 70.7149 115.935 71.5228Z" fill="white"/>
<path d="M154.917 51.2742C150.675 46.2247 146.686 46.0227 142.647 41.4276C138.607 36.7821 131.74 21.0781 125.125 16.6345C120.732 13.7058 115.228 14.3622 111.996 15.1701C109.32 13.8573 105.381 12.3424 101.139 11.989C101.139 11.989 90.0306 -0.685336 73.1147 1.13249C73.1147 1.13249 66.8533 0.728528 65.0859 6.33349C63.2681 11.989 63.6721 14.2107 59.2285 14.2107C54.7849 14.2107 50.3414 12.5949 48.7255 15.8266C47.1097 19.0583 48.9275 23.7038 46.9077 25.6731C44.9384 27.693 41.5047 30.7227 40.2928 34.5603C39.0809 38.3979 38.475 46.6286 40.6968 50.2643C42.9186 53.8999 56.4008 49.0524 57.0067 48.8504C57.6127 48.6484 70.4889 45.2148 73.9226 46.4267C77.3563 47.6385 90.8385 52.0821 92.0504 52.89C93.2622 53.698 100.736 56.1217 102.755 55.7178C103.816 55.5158 105.886 53.8999 107.805 52.2841L116.036 55.7178C116.036 55.7178 124.317 59.1514 128.71 61.3732C133.153 63.595 138.001 67.7861 140.627 68.594C140.627 68.594 137.799 72.2297 138.405 75.0574C139.011 77.8852 139.415 80.7129 135.577 87.7317C131.74 94.801 130.528 97.6288 131.74 101.264L132.951 103.688L133.961 103.284C133.961 103.284 132.346 96.6189 138.405 88.9436C144.464 81.3188 149.059 79.501 148.453 75.6634C147.848 71.8257 145.676 69.2 151.079 64.4029C156.533 59.5554 159.158 56.3237 154.917 51.2742Z" fill="#FF2B00"/>
<path d="M64.5808 12.0899C64.5808 12.0899 64.6818 4.91956 68.8729 2.64728C73.1145 0.324498 86.8492 1.03143 94.07 7.54531C94.07 7.54531 87.2027 13.5037 80.9917 14.6146C74.7303 15.7255 64.5808 12.0899 64.5808 12.0899Z" fill="url(#paint41_linear_54_6106)"/>
<path d="M143.555 44.0028C140.425 43.2959 135.829 42.7909 130.224 43.8513C130.224 43.8513 134.214 42.2355 136.132 40.2157C137.597 38.6503 136.789 35.0652 135.829 32.3384C134.214 29.5612 132.446 26.5315 130.628 23.7038C125.225 15.1196 120.176 15.2206 120.176 15.2206C110.178 14.4127 103.361 21.078 103.361 21.078C99.3214 29.7127 127.7 44.5583 130.83 47.3355C133.961 50.1632 139.718 59.6563 142.848 61.4742C145.979 63.292 156.028 60.2623 156.129 55.5157C156.229 51.3246 146.736 45.9216 143.555 44.0028Z" fill="url(#paint42_linear_54_6106)"/>
<path d="M156.987 55.4653C156.633 60.4138 145.928 65.7663 143.353 65.2109C140.626 64.6049 132.194 51.6277 125.528 47.689C118.863 43.7504 102.25 26.8345 101.038 24.4108C99.8264 21.987 104.068 17.7454 104.068 17.7454C104.068 17.7454 91.0907 21.684 88.9699 20.4721C86.8491 19.2602 90.4848 14.4127 90.4848 14.4127C90.4848 14.4127 83.8194 19.2602 78.6689 19.8662C73.5689 20.4721 55.6936 21.381 52.1084 19.5632C49.2302 18.1494 50.2906 15.2206 50.8966 14.0592C49.9876 14.3117 49.2302 14.8672 48.7253 15.8266C47.1094 19.0583 48.9272 23.7038 46.9074 25.6731C44.9381 27.6929 41.5044 30.7227 40.2926 34.5603C39.0807 38.3979 38.4747 46.6286 40.6965 50.2643C42.9183 53.8999 56.4005 49.0524 57.0065 48.8504C57.6124 48.6484 70.4887 45.2148 73.9224 46.4267C77.356 47.6385 90.8382 52.0821 92.0501 52.89C93.262 53.698 100.735 56.1217 102.755 55.7178C103.815 55.5158 105.886 53.8999 107.805 52.2841L116.035 55.7178C116.035 55.7178 124.317 59.1514 128.71 61.3732C133.153 63.595 138.001 67.7861 140.626 68.594C140.626 68.594 137.799 72.2297 138.405 75.0574C139.011 77.8851 139.415 80.7129 135.577 87.7317C131.739 94.801 130.527 97.6288 131.739 101.264L132.951 103.688L133.961 103.284C133.961 103.284 132.345 96.6189 138.405 88.9436C144.464 81.3188 149.059 79.501 148.453 75.6634C147.847 71.8257 145.676 69.2 151.079 64.4029C154.866 61.0198 157.29 58.4445 156.987 55.4653ZM94.6254 12.5444L101.139 11.9889C101.139 11.9889 98.362 8.80775 93.464 5.87903C98.16 9.61567 94.6254 12.5444 94.6254 12.5444ZM105.633 16.988L112.198 15.2206L112.299 15.0691C112.198 15.1028 112.097 15.1365 111.996 15.1701C110.43 14.4127 108.411 13.5543 106.189 12.8979C109.067 14.7157 105.633 16.988 105.633 16.988Z" fill="#F02100"/>
<path d="M40.6965 50.2642C42.9183 53.8999 56.4005 49.0523 57.0065 48.8504C57.6124 48.6484 70.4887 45.2147 73.9224 46.4266C77.356 47.6385 90.8382 52.0821 92.0501 52.89C93.262 53.6979 100.735 56.1217 102.755 55.7177C103.815 55.5157 105.886 53.8999 107.805 52.284L116.035 55.7177C116.035 55.7177 124.317 59.1514 128.71 61.3732C133.153 63.595 138.001 67.7861 140.626 68.594C140.626 68.594 137.799 72.2296 138.405 75.0574C139.011 77.8851 139.415 80.7128 135.577 87.7317C131.739 94.801 130.527 97.6287 131.739 101.264L132.951 103.688L133.961 103.284C133.961 103.284 132.345 96.6188 138.405 88.9435C144.464 81.3188 149.059 79.5009 148.453 75.6633C147.847 71.8257 145.676 69.1999 151.079 64.4029C151.954 63.6286 152.745 62.9049 153.452 62.2316C153.048 62.3831 152.594 62.686 152.089 63.191C148.756 66.5237 143.252 67.5841 141.636 67.0791C140.021 66.5237 129.669 58.4444 126.185 56.9801C122.701 55.5157 112.753 52.1325 111.137 50.8197C109.521 49.4563 97.4531 34.4087 96.7462 33.1969C96.0897 31.985 94.8778 26.481 95.0293 25.1681C95.1303 23.8048 100.634 19.9166 100.634 19.9166C100.634 19.9166 97.0491 22.3404 94.4739 24.1077C91.9491 25.8246 91.7976 27.8444 91.7976 27.8444C91.7976 27.8444 84.2739 23.7038 77.0026 22.5929C69.7817 21.5325 61.551 21.7849 54.0273 26.077C46.554 30.4196 43.4233 35.1157 42.1104 34.1563C41.05 33.4493 43.5747 29.5612 44.8371 27.7939C43.0698 29.6117 41.151 31.884 40.2926 34.5602C39.0807 38.3979 38.4747 46.6286 40.6965 50.2642Z" fill="#E11700"/>
<path d="M40.6966 50.2643C42.9184 53.9 56.4006 49.0525 57.0065 48.8505C57.6124 48.6485 70.4887 45.2148 73.9224 46.4267C77.3561 47.6386 90.8383 52.0822 92.0502 52.8901C93.262 53.698 100.735 56.1218 102.755 55.7178C103.816 55.5158 105.886 53.9 107.805 52.2842L116.035 55.7178C116.035 55.7178 124.317 59.1515 128.71 61.3733C133.153 63.5951 138.001 67.7862 140.627 68.5941C140.627 68.5941 137.799 72.2297 138.405 75.0575C139.011 77.8852 139.415 80.7129 135.577 87.7318C131.739 94.8011 130.527 97.6288 131.739 101.264L132.951 103.688L133.961 103.284C133.961 103.284 132.345 96.6189 138.405 88.9437C144.464 81.3189 149.059 79.501 148.453 75.6634C147.999 72.4822 146.383 70.1594 148.908 66.7258C147.292 68.1901 145.979 70.2604 146.585 71.6238C147.241 73.3406 147.645 77.2793 146.08 79.602C144.464 81.9248 139.819 86.6209 138.102 88.4387C136.385 90.2565 133.153 95.306 133.153 95.306C133.456 93.5892 136.183 88.5397 136.183 88.5397C140.021 82.2278 140.223 77.8852 139.718 74.3505C139.213 70.8159 144.868 67.7862 144.161 67.8872C143.454 67.9882 140.324 67.5842 139.718 67.3822C139.112 67.1802 134.264 63.1911 132.345 62.0802C130.426 60.9693 119.57 55.8188 118.863 55.6168C118.156 55.4149 112.804 53.2941 111.188 52.1832C109.572 51.0723 101.543 41.2257 100.634 40.0138C100.079 39.2564 98.0086 36.5297 95.6353 33.8534C94.9284 32.591 93.464 29.5108 94.171 26.1781C94.171 26.1781 92.6056 27.8445 92.0502 30.2178C91.6462 29.8475 91.2422 29.5108 90.8383 29.2079C86.8997 26.1781 79.4769 22.9969 70.6907 22.9969C61.955 22.9969 57.2085 24.6633 51.957 28.198C46.7055 31.7326 41.5045 38.398 40.7976 38.398C40.2926 38.398 40.1916 36.2267 40.1916 34.9138C39.0302 38.8524 38.5253 46.7297 40.6966 50.2643Z" fill="#CD1200"/>
<path d="M126.135 113.535C126.135 113.535 127.296 104.698 133.153 101.466C139.011 98.2347 146.888 98.6387 149.463 101.264C152.089 103.89 155.119 106.869 154.917 112.323C154.715 117.776 149.463 123.634 145.676 124.442C141.839 125.199 127.7 123.836 126.135 113.535Z" fill="url(#paint43_linear_54_6106)"/>
<path d="M149.463 101.264C148.807 100.557 147.696 100.002 146.383 99.6485C149.312 101.062 150.372 104.244 151.281 105.859C151.382 106.028 151.449 106.196 151.483 106.364C149.463 106.263 147.494 106.314 145.474 107.071L151.635 106.819C152.291 109.344 152.14 114.343 149.867 116.766C148.554 118.231 146.03 119.241 143.303 119.645L139.213 113.939C139.465 115.908 140.627 117.978 142.091 119.796C140.223 119.948 138.354 119.796 136.638 119.342L136.385 113.535C135.981 115.201 135.931 117.271 136.133 119.19C135.931 119.123 135.745 119.055 135.577 118.988C134.517 118.534 133.608 118.029 132.85 117.372L133.961 113.131C133.204 114.444 132.8 115.756 132.497 117.12C130.225 115.05 129.316 112.272 128.71 110.505C128.205 108.94 128.76 106.617 129.265 105.203C126.74 108.94 126.135 113.535 126.135 113.535C127.7 123.836 141.839 125.199 145.676 124.442C149.463 123.634 154.715 117.776 154.917 112.323C155.119 106.869 152.089 103.89 149.463 101.264ZM142.545 99.1436L140.425 105.455C141.839 103.739 142.646 101.466 143.151 99.1941C142.949 99.1604 142.747 99.1436 142.545 99.1436Z" fill="#A2C8E1"/>
<path d="M127.902 109.899C127.902 109.899 128.104 113.333 131.235 117.069C134.365 120.806 140.223 121.21 141.94 121.21C143.656 121.21 149.867 118.685 150.877 117.271C151.887 115.857 153.402 109.697 152.493 107.071C151.584 104.496 150.675 103.486 150.675 103.486C150.675 103.486 153.301 105.96 154.008 108.889C154.715 111.818 153.402 119.695 148.151 122.624C142.95 125.502 133.759 122.927 130.831 120.2C127.902 117.473 125.63 113.03 127.902 109.899Z" fill="#B1D2ED"/>
<path d="M49.9372 79.097C49.9372 79.097 48.9273 67.988 49.9372 65.5643C50.9471 63.191 53.5729 55.7177 56.6026 54.1019C59.6323 52.486 76.3462 54.5058 83.6175 56.3236C90.8383 58.1415 110.784 66.1702 116.035 55.5157C116.035 55.5157 111.996 54.3038 109.976 52.486C107.956 50.6682 95.6858 35.1662 94.4739 33.9543C93.2621 32.7424 89.0205 28.0968 87.2026 27.2889L87.8086 30.9246C87.8086 30.9246 84.4254 25.4711 77.76 24.5117L76.9521 26.885L74.3264 24.5117C74.3264 24.5117 69.8828 22.4919 64.0758 23.7038L67.257 26.683C67.257 26.683 62.46 24.3097 58.6224 25.6731C54.7847 27.0869 52.159 29.1067 52.159 29.1067L55.3907 30.3186C55.3907 30.3186 51.1491 30.7226 49.3313 31.7325C47.5134 32.7424 40.2926 39.2058 38.8788 46.2246C37.4649 53.2939 43.1204 54.9098 43.1204 54.9098C43.1204 54.9098 39.6867 54.7078 37.4649 53.2939C37.4649 53.2939 36.051 60.5652 39.2827 63.7969C39.2827 63.7969 41.1005 65.3623 43.3223 65.7662C43.3223 65.7662 42.1104 66.7761 40.0906 66.3722C40.0906 66.3722 41.9085 71.6237 44.3322 73.6435C46.7055 75.6633 48.5233 77.2791 48.5233 77.2791L47.5134 77.4811C47.5134 77.4811 48.7253 79.097 49.9372 79.097Z" fill="url(#paint44_linear_54_6106)"/>
<path d="M109.976 52.486C107.956 50.6682 95.6861 35.1662 94.4742 33.9543C93.2623 32.7424 89.0207 28.0969 87.2029 27.2889C89.4247 28.5008 100.332 44.0533 104.977 50.0623C107.906 53.9504 111.441 56.3237 113.612 57.5355C111.34 59.2019 108.36 59.4544 104.472 58.8989C103.563 56.9296 101.947 55.2633 100.534 53.6979L103.26 58.7474C101.644 58.4445 99.9277 58.0405 98.0088 57.586C98.1098 53.8494 97.1504 49.9108 94.8781 47.0326L96.7465 57.2831C92.3534 56.1722 87.2534 54.7583 81.3454 53.4454L83.6177 49.0524C82.1029 50.1128 80.9415 51.5771 80.386 53.2435C78.8712 52.9068 77.3226 52.587 75.7405 52.2841C74.2256 52.0147 72.8117 51.7791 71.4989 51.5771L71.0949 45.0127C69.9335 46.9821 69.681 49.2543 70.085 51.3751C68.5365 51.1732 67.1226 51.0217 65.8434 50.9207L63.4701 42.4375C63.4701 45.1137 63.4701 48.1434 64.2781 50.8197C52.6642 50.3147 51.7553 54.1019 51.7553 54.1019C51.7553 54.1019 45.5443 63.393 42.3127 63.595C39.6364 63.7465 37.7681 59.9088 37.2126 58.596C37.4146 60.4643 37.9701 62.4336 39.2829 63.7969C39.2829 63.7969 41.1008 65.3623 43.3226 65.7663C43.3226 65.7663 42.1107 66.7762 40.0909 66.3722C40.0909 66.3722 41.9087 71.6237 44.3325 73.6435C46.7057 75.6633 48.5236 77.2792 48.5236 77.2792L47.5137 77.4811C47.5137 77.4811 48.7255 79.097 49.9374 79.097C49.9374 79.097 48.9275 67.988 49.9374 65.5643C50.9473 63.191 53.5731 55.7177 56.6028 54.1019C59.6325 52.486 76.3464 54.5058 83.6177 56.3237C90.8385 58.1415 110.784 66.1702 116.036 55.5157C116.036 55.5157 111.996 54.3039 109.976 52.486Z" fill="#A2C8E1"/>
<path d="M67.1562 23.2999C66.584 23.3336 65.9949 23.3841 65.3889 23.4514L75.1345 36.5802C74.2256 30.9247 71.3473 26.5821 67.1562 23.2999ZM51.7552 30.9247C51.6206 30.9584 51.4691 30.992 51.3008 31.0257L55.9968 35.5703C54.7849 33.7019 53.3711 32.2376 51.7552 30.9247ZM48.372 32.3891C48.0017 32.692 47.5809 33.0455 47.1097 33.4495L56.6028 38.196C54.4315 35.9237 51.5532 33.6009 48.372 32.3891ZM80.487 25.2187C80.0493 25.0504 79.5781 24.8989 79.0731 24.7643L81.5979 31.5306C81.6484 29.3089 81.3959 27.0871 80.487 25.2187ZM37.1621 57.9396C40.2928 58.3941 43.474 58.2426 46.7057 57.9396L37.1621 56.9297C37.1621 57.2664 37.1621 57.603 37.1621 57.9396ZM39.3334 44.5079C39.1314 45.0802 38.9799 45.6525 38.8789 46.2247C38.8789 46.2584 38.8789 46.2921 38.8789 46.3257L54.179 45.2148C49.9374 44.0534 44.1809 43.3465 39.3334 44.5079ZM44.0295 36.6811C43.7938 36.9168 43.575 37.1693 43.373 37.4386L49.5334 39.4079C47.6146 38.1455 45.8978 37.2366 44.0295 36.6811ZM41.6562 39.8119C41.3869 40.2495 41.1176 40.6871 40.8483 41.1247L50.1394 42.6396C47.7661 41.2762 44.6859 40.2158 41.6562 39.8119Z" fill="#D2E3FF"/>
<path d="M42.6155 64.3019C42.6155 64.3019 44.1304 64.201 47.2106 60.7673C50.3413 57.3336 51.8561 52.6881 57.3096 51.7791C57.3096 51.7791 66.2978 50.5673 78.2651 53.395C90.2325 56.2227 103.563 60.4643 107.754 60.0604C107.754 60.0604 101.038 61.3732 91.2424 57.7376C81.4968 54.1019 61.1473 51.8801 56.4007 53.395C56.4007 53.395 51.8561 55.9197 48.6244 66.4732C48.6244 66.4732 48.3215 72.8356 49.3314 77.3802C49.3314 77.3802 47.5136 75.4614 46.8066 74.7545C46.1502 74.0475 42.3126 71.1188 41.2017 67.4831C41.2017 67.4831 44.8373 67.5841 46.2512 65.0594C46.2512 65.0594 44.3324 65.3623 42.6155 64.3019Z" fill="#B1D2ED"/>
<defs>
<linearGradient id="paint0_linear_54_6106" x1="175.811" y1="146.58" x2="175.811" y2="171.833" gradientUnits="userSpaceOnUse">
<stop stop-color="#004700"/>
<stop offset="1" stop-color="#008D00"/>
</linearGradient>
<linearGradient id="paint1_linear_54_6106" x1="175.809" y1="146.58" x2="175.809" y2="171.831" gradientUnits="userSpaceOnUse">
<stop stop-color="#003600"/>
<stop offset="1" stop-color="#007C00"/>
</linearGradient>
<linearGradient id="paint2_linear_54_6106" x1="180.789" y1="163.841" x2="172.292" y2="174.67" gradientUnits="userSpaceOnUse">
<stop stop-color="#FFFF00"/>
<stop offset="1" stop-color="#F5E100"/>
</linearGradient>
<linearGradient id="paint3_linear_54_6106" x1="100.16" y1="173.058" x2="110.099" y2="131.211" gradientUnits="userSpaceOnUse">
<stop stop-color="#EBF5FF"/>
<stop offset="1" stop-color="#D2E3FF"/>
</linearGradient>
<linearGradient id="paint4_linear_54_6106" x1="64.394" y1="233.648" x2="-11.8074" y2="213.204" gradientUnits="userSpaceOnUse">
<stop stop-color="#004700"/>
<stop offset="1" stop-color="#008D00"/>
</linearGradient>
<linearGradient id="paint5_linear_54_6106" x1="35.9173" y1="231.497" x2="-13.1417" y2="218.335" gradientUnits="userSpaceOnUse">
<stop offset="0.006" stop-color="#88BD23"/>
<stop offset="1" stop-color="#95CF2C"/>
</linearGradient>
<linearGradient id="paint6_linear_54_6106" x1="12.5563" y1="169.863" x2="16.8339" y2="177.76" gradientUnits="userSpaceOnUse">
<stop stop-color="#FFFF00"/>
<stop offset="1" stop-color="#F5E100"/>
</linearGradient>
<linearGradient id="paint7_linear_54_6106" x1="27.608" y1="169.416" x2="38.2963" y2="183.571" gradientUnits="userSpaceOnUse">
<stop stop-color="#FFFF00"/>
<stop offset="1" stop-color="#F5E100"/>
</linearGradient>
<linearGradient id="paint8_linear_54_6106" x1="50.9982" y1="174.33" x2="54.1759" y2="188.857" gradientUnits="userSpaceOnUse">
<stop stop-color="#FFFF00"/>
<stop offset="1" stop-color="#F5E100"/>
</linearGradient>
<linearGradient id="paint9_linear_54_6106" x1="86.3452" y1="231.476" x2="47.727" y2="276.323" gradientUnits="userSpaceOnUse">
<stop stop-color="#004700"/>
<stop offset="1" stop-color="#008D00"/>
</linearGradient>
<linearGradient id="paint10_linear_54_6106" x1="103.235" y1="259.887" x2="126.309" y2="222.91" gradientUnits="userSpaceOnUse">
<stop stop-color="#004700"/>
<stop offset="1" stop-color="#008D00"/>
</linearGradient>
<linearGradient id="paint11_linear_54_6106" x1="86.3503" y1="231.48" x2="47.7355" y2="276.323" gradientUnits="userSpaceOnUse">
<stop stop-color="#003600"/>
<stop offset="1" stop-color="#007C00"/>
</linearGradient>
<linearGradient id="paint12_linear_54_6106" x1="103.235" y1="259.887" x2="126.309" y2="222.91" gradientUnits="userSpaceOnUse">
<stop stop-color="#003600"/>
<stop offset="1" stop-color="#007C00"/>
</linearGradient>
<linearGradient id="paint13_linear_54_6106" x1="33.1521" y1="229.445" x2="43.4684" y2="243.313" gradientUnits="userSpaceOnUse">
<stop stop-color="#FFFF00"/>
<stop offset="1" stop-color="#F5E100"/>
</linearGradient>
<linearGradient id="paint14_linear_54_6106" x1="44.7615" y1="239.912" x2="56.0126" y2="257.712" gradientUnits="userSpaceOnUse">
<stop stop-color="#FFFF00"/>
<stop offset="1" stop-color="#F5E100"/>
</linearGradient>
<linearGradient id="paint15_linear_54_6106" x1="61.1758" y1="242.198" x2="72.1222" y2="260.127" gradientUnits="userSpaceOnUse">
<stop stop-color="#FFFF00"/>
<stop offset="1" stop-color="#F5E100"/>
</linearGradient>
<linearGradient id="paint16_linear_54_6106" x1="134.046" y1="244.254" x2="138.176" y2="260.776" gradientUnits="userSpaceOnUse">
<stop stop-color="#FFFF00"/>
<stop offset="1" stop-color="#F5E100"/>
</linearGradient>
<linearGradient id="paint17_linear_54_6106" x1="162.869" y1="251.066" x2="139.725" y2="263.227" gradientUnits="userSpaceOnUse">
<stop stop-color="#FFFF00"/>
<stop offset="1" stop-color="#F5E100"/>
</linearGradient>
<linearGradient id="paint18_linear_54_6106" x1="82.4535" y1="256.731" x2="104.017" y2="213.604" gradientUnits="userSpaceOnUse">
<stop stop-color="#EBF5FF"/>
<stop offset="1" stop-color="#D2E3FF"/>
</linearGradient>
<radialGradient id="paint19_radial_54_6106" cx="0" cy="0" r="1" gradientUnits="userSpaceOnUse" gradientTransform="translate(101.995 146.652) rotate(22.5333) scale(36.8456 36.8456)">
<stop stop-color="#FF4E28"/>
<stop offset="1" stop-color="#FF2B00"/>
</radialGradient>
<linearGradient id="paint20_linear_54_6106" x1="78.6039" y1="191.516" x2="73.7706" y2="206.574" gradientUnits="userSpaceOnUse">
<stop stop-color="#004700"/>
<stop offset="1" stop-color="#008D00"/>
</linearGradient>
<linearGradient id="paint21_linear_54_6106" x1="61.7485" y1="192.351" x2="66.1881" y2="199.361" gradientUnits="userSpaceOnUse">
<stop stop-color="#FFFF00"/>
<stop offset="1" stop-color="#F5E100"/>
</linearGradient>
<linearGradient id="paint22_linear_54_6106" x1="68.5609" y1="202.325" x2="78.5752" y2="199.464" gradientUnits="userSpaceOnUse">
<stop stop-color="#FFFF00"/>
<stop offset="1" stop-color="#F5E100"/>
</linearGradient>
<linearGradient id="paint23_linear_54_6106" x1="84.3926" y1="206.964" x2="81.636" y2="202.14" gradientUnits="userSpaceOnUse">
<stop stop-color="#FFFF00"/>
<stop offset="1" stop-color="#F5E100"/>
</linearGradient>
<linearGradient id="paint24_linear_54_6106" x1="75.6629" y1="195.923" x2="35.5683" y2="169.945" gradientUnits="userSpaceOnUse">
<stop stop-color="#FF2B00"/>
<stop offset="1" stop-color="#FF4E28"/>
</linearGradient>
<linearGradient id="paint25_linear_54_6106" x1="65.7233" y1="208.68" x2="56.4575" y2="168.141" gradientUnits="userSpaceOnUse">
<stop stop-color="#EBF5FF"/>
<stop offset="1" stop-color="#D2E3FF"/>
</linearGradient>
<linearGradient id="paint26_linear_54_6106" x1="58.5996" y1="97.6" x2="68.4754" y2="90.1932" gradientUnits="userSpaceOnUse">
<stop stop-color="#FFFF00"/>
<stop offset="1" stop-color="#F5E100"/>
</linearGradient>
<linearGradient id="paint27_linear_54_6106" x1="46.6533" y1="87.0466" x2="56.2664" y2="79.3049" gradientUnits="userSpaceOnUse">
<stop stop-color="#FFFF00"/>
<stop offset="1" stop-color="#F5E100"/>
</linearGradient>
<linearGradient id="paint28_linear_54_6106" x1="98.3012" y1="86.585" x2="102.61" y2="127.517" gradientUnits="userSpaceOnUse">
<stop stop-color="#004700"/>
<stop offset="1" stop-color="#008D00"/>
</linearGradient>
<linearGradient id="paint29_linear_54_6106" x1="104.524" y1="91.3423" x2="108.269" y2="126.922" gradientUnits="userSpaceOnUse">
<stop offset="0.006" stop-color="#88BD23"/>
<stop offset="1" stop-color="#95CF2C"/>
</linearGradient>
<linearGradient id="paint30_linear_54_6106" x1="90.7056" y1="93.8095" x2="91.4445" y2="108.592" gradientUnits="userSpaceOnUse">
<stop stop-color="#5B8300"/>
<stop offset="1" stop-color="#88BD23"/>
</linearGradient>
<linearGradient id="paint31_linear_54_6106" x1="64.2694" y1="105.732" x2="64.2694" y2="44.8234" gradientUnits="userSpaceOnUse">
<stop offset="0.006" stop-color="#008D00"/>
<stop offset="1" stop-color="#004700"/>
</linearGradient>
<linearGradient id="paint32_linear_54_6106" x1="79.6144" y1="79.3874" x2="79.6144" y2="44.8234" gradientUnits="userSpaceOnUse">
<stop offset="0.006" stop-color="#008200"/>
<stop offset="1" stop-color="#003C00"/>
</linearGradient>
<linearGradient id="paint33_linear_54_6106" x1="89.6009" y1="81.9072" x2="89.6009" y2="55.2715" gradientUnits="userSpaceOnUse">
<stop offset="0.006" stop-color="#008200"/>
<stop offset="1" stop-color="#003C00"/>
</linearGradient>
<linearGradient id="paint34_linear_54_6106" x1="120.496" y1="67.9402" x2="126.249" y2="87.9383" gradientUnits="userSpaceOnUse">
<stop offset="0.006" stop-color="#008200"/>
<stop offset="1" stop-color="#38B83A"/>
</linearGradient>
<linearGradient id="paint35_linear_54_6106" x1="66.6375" y1="79.1719" x2="69.1969" y2="57.4176" gradientUnits="userSpaceOnUse">
<stop offset="0.006" stop-color="#007300"/>
<stop offset="1" stop-color="#002D00"/>
</linearGradient>
<linearGradient id="paint36_linear_54_6106" x1="67.3682" y1="78.7982" x2="69.7316" y2="58.7076" gradientUnits="userSpaceOnUse">
<stop offset="0.006" stop-color="#008D00"/>
<stop offset="1" stop-color="#004700"/>
</linearGradient>
<linearGradient id="paint37_linear_54_6106" x1="90.5557" y1="65.7108" x2="89.1498" y2="77.6589" gradientUnits="userSpaceOnUse">
<stop/>
<stop offset="1" stop-color="#21603D"/>
</linearGradient>
<linearGradient id="paint38_linear_54_6106" x1="105.101" y1="82.4716" x2="107.716" y2="63.2966" gradientUnits="userSpaceOnUse">
<stop offset="0.006" stop-color="#007300"/>
<stop offset="1" stop-color="#002D00"/>
</linearGradient>
<linearGradient id="paint39_linear_54_6106" x1="105.325" y1="82.4914" x2="107.798" y2="64.3459" gradientUnits="userSpaceOnUse">
<stop offset="0.006" stop-color="#008D00"/>
<stop offset="1" stop-color="#004700"/>
</linearGradient>
<linearGradient id="paint40_linear_54_6106" x1="121.263" y1="69.6773" x2="119.789" y2="80.4909" gradientUnits="userSpaceOnUse">
<stop/>
<stop offset="1" stop-color="#21603D"/>
</linearGradient>
<linearGradient id="paint41_linear_54_6106" x1="76.3502" y1="15.974" x2="75.3617" y2="0.721884" gradientUnits="userSpaceOnUse">
<stop stop-color="#FF2B00"/>
<stop offset="1" stop-color="#FF4E28"/>
</linearGradient>
<linearGradient id="paint42_linear_54_6106" x1="83.2089" y1="44.9405" x2="129.071" y2="-8.201" gradientUnits="userSpaceOnUse">
<stop stop-color="#FF2B00"/>
<stop offset="1" stop-color="#FF4E28"/>
</linearGradient>
<linearGradient id="paint43_linear_54_6106" x1="129.494" y1="126.921" x2="126.963" y2="99.08" gradientUnits="userSpaceOnUse">
<stop stop-color="#EBF5FF"/>
<stop offset="1" stop-color="#D2E3FF"/>
</linearGradient>
<linearGradient id="paint44_linear_54_6106" x1="134.644" y1="59.2675" x2="49.6448" y2="103.233" gradientUnits="userSpaceOnUse">
<stop stop-color="#EBF5FF"/>
<stop offset="1" stop-color="#D2E3FF"/>
</linearGradient>
</defs>
</svg>
