<svg width="220" height="84" viewBox="0 0 220 84" fill="none" xmlns="http://www.w3.org/2000/svg">
<path d="M33.6974 80.4705C33.5507 80.664 33.3741 81.09 33.3053 81.414C33.2365 81.7365 32.8803 82.035 32.9356 81.828C32.9895 81.621 33.1676 80.988 33.2005 80.8455C33.232 80.703 33.0359 80.34 32.9985 80.1075L32.9446 80.004L32.8174 79.746C32.7351 79.3965 32.6438 78.996 32.6109 78.867C32.581 78.738 32.4103 79.164 32.361 79.3845V79.6935C32.3789 79.8495 32.343 80.2635 32.2831 80.5995C32.2233 80.9355 32.2053 81.957 32.1829 81.9705C32.1604 81.9825 32.0781 81.9705 32.0556 81.8535C32.0317 81.7365 31.9 81.3615 31.8401 81.1935C31.7803 81.0255 32.0497 80.6505 32.0826 80.5215C32.114 80.3925 32.1095 80.1735 32.0093 80.3415C31.909 80.5095 31.6127 80.0175 31.5483 80.0565C31.4854 80.0955 31.5573 80.6775 31.5812 80.871L31.5902 81.039L31.5992 81.219C31.5992 81.4005 31.4525 81.504 31.2789 81.4275H31.1382L31.1158 81.453C31.0918 81.8535 31.041 82.1385 31.0065 82.0725C30.9691 82.008 30.7596 82.035 30.6369 82.1385V82.1115L30.559 81.7365C30.6907 81.6855 30.7835 81.5175 30.7641 81.3615C30.7461 81.207 30.6219 80.883 30.5456 81.1035C30.4678 81.324 30.1849 81.879 30.0667 81.879C29.9469 81.879 29.6327 81.8535 29.6327 81.828C29.6327 81.8025 29.6925 81.711 29.7748 81.6855C29.8556 81.66 30.0801 81.4005 30.0801 81.156C30.0801 80.91 30.4094 80.625 30.4722 80.586C30.5366 80.547 30.7132 80.367 30.7371 80.2755L30.7282 80.211C30.7132 80.1345 30.6593 80.004 30.6414 80.0175C30.3271 80.25 30.0203 80.535 29.679 80.5095L29.4501 80.4825C29.3408 80.8845 29.2031 81.285 29.1493 81.363C29.0939 81.4395 28.9712 81.0255 28.9442 80.961C28.9173 80.8965 28.7841 80.742 28.7197 80.664C28.6569 80.586 28.5147 80.34 28.5476 80.2635C28.579 80.1855 28.7152 80.0175 28.7661 80.0685L28.7811 80.1585L28.8559 80.625C28.9978 80.5668 29.1281 80.4834 29.2405 80.379C29.2765 80.328 29.3453 79.9665 29.3408 79.7985C29.3363 79.629 29.0939 79.3335 29.0071 79.293V79.2285C28.9307 78.285 28.7107 78.8145 28.6703 79.1385C28.597 79.7205 28.3605 79.7715 28.2139 80.0835L28.0867 80.367C27.9999 80.7285 27.9131 80.871 27.8951 80.6895L27.8861 80.5215L27.8682 80.211C27.6861 80.0054 27.5153 79.7901 27.3563 79.566L27.3339 79.3455C27.2785 78.8025 27.1288 78.7755 26.9418 78.7755C26.8595 78.7755 26.7622 78.531 26.6948 78.582C26.6305 78.6345 26.599 78.906 26.5452 79.074L26.5257 79.125C26.4539 79.1505 26.4539 79.2555 26.5212 79.3575C26.5901 79.4625 26.7173 79.8375 26.6589 79.9665C26.599 80.0955 26.171 79.6035 26.2204 79.449L26.2429 79.293C26.3177 78.828 26.2159 78.543 26.0109 78.738C25.8463 78.8805 25.8014 78.5565 25.7011 78.531L25.5724 78.5055C25.4227 78.531 25.1354 78.6735 24.9393 78.828L24.8286 78.6855L24.6924 78.5055C24.5421 78.5589 24.4019 78.6376 24.2778 78.738C24.1731 78.828 23.8079 78.543 23.7241 78.492C23.6433 78.4395 23.4382 78.531 23.338 78.504C23.2377 78.4785 22.9219 78.4275 22.8306 78.6345C22.7408 78.8415 22.3801 79.0605 22.2245 78.66L21.997 78.8145L21.8369 78.9315C21.6469 78.8767 21.4508 78.8465 21.2532 78.8415C21.0931 78.8415 20.6605 79.1115 20.478 79.242C20.2954 79.371 19.7252 79.062 19.5007 79.152L19.2777 78.8535L19.1131 78.6345C18.8212 78.828 18.5339 79.0095 18.48 79.0605C18.4246 79.113 18.1777 79.0605 18.037 79.0605C17.8948 79.0605 17.5267 79.2285 17.5072 79.1385C17.4893 79.0485 17.4114 78.867 17.362 78.9705C17.3112 79.074 17.1331 79.2165 17.0702 79.0605L17.0058 78.945L16.961 78.867C16.9011 78.828 16.8233 78.867 16.7873 78.957C16.7499 79.047 16.6317 79.203 16.5913 79.113C16.5494 79.023 16.3773 79.1895 16.3399 79.2555C16.3039 79.32 16.1079 79.41 15.9163 79.5L15.7472 79.3455C15.6604 79.2675 15.5736 79.1655 15.4868 79.0605C15.3776 78.9315 15.2818 78.531 15.1306 78.945C15.1171 78.984 15.0303 78.945 15.0079 78.867C14.8433 78.4395 14.7654 78.312 14.5978 78.9705L14.4841 79.41C14.4018 78.8805 14.3045 78.5565 14.2686 78.6735C14.2327 78.789 14.0995 79.0605 14.074 78.918C14.0441 78.777 13.9139 78.4395 13.8405 78.3885C13.7672 78.336 13.5861 78.8145 13.5397 78.9315C13.4948 79.0485 13.3437 78.8415 13.3197 78.945C13.2973 79.0485 13.2524 79.086 13.2659 78.828C13.2793 78.57 12.9965 79.008 12.9785 79.023H12.959C12.7735 79.1775 12.7675 78.363 12.5355 78.633L12.4128 78.777C12.2752 78.7811 12.1378 78.7634 12.0057 78.7245C11.9563 78.699 11.7737 78.8025 11.6555 78.8145C11.5358 78.828 11.1901 78.582 11.1257 78.8145L11.0479 78.9315L11.003 78.996C10.9162 78.945 10.7695 78.75 10.6842 78.582C10.5974 78.414 10.1305 78.8535 10.0856 78.699C10.0407 78.543 9.8581 78.2985 9.80272 78.453C9.74884 78.609 9.53782 78.285 9.50639 78.363L9.47946 78.4395C9.44653 78.5295 9.41061 78.7245 9.38367 78.711C9.2834 78.6855 9.10531 78.906 9.11878 78.426V78.3C9.2415 78.144 9.29687 77.964 9.2415 77.886C9.18762 77.808 9.00952 77.7435 8.96762 77.886C8.92721 78.0285 8.74014 78.4035 8.74463 78.0405V77.8605C8.73755 77.7812 8.72251 77.7028 8.69973 77.6265L8.59945 77.6655C8.48871 77.718 8.41986 77.55 8.4483 77.2785L8.2702 77.394L8.23878 77.4195C8.20585 77.5095 8.09211 77.4975 7.97837 77.394C7.86463 77.2905 7.43061 77.2905 7.3034 77.304C7.17619 77.3175 6.77959 76.878 6.67483 76.9155C6.57007 76.9545 6.29469 77.0835 6.25429 76.8C6.21238 76.515 5.73347 76.347 5.69306 76.3725V76.347L5.46558 75.5715C5.07197 75.4545 4.71728 75.339 4.67986 75.3C4.64395 75.261 4.46585 75.2865 4.32517 75.261C4.18299 75.2355 3.6083 75.3255 3.35238 75.378L3.30299 74.64C3.2985 74.5635 3.19823 74.421 3.17429 74.4465L3.02912 74.6415C2.88668 74.495 2.77207 74.3237 2.69088 74.136C2.65048 74.007 2.39905 73.7745 2.32571 73.683C2.25388 73.593 2.02639 73.425 1.99347 73.4505C1.96204 73.476 1.85728 73.3995 1.83333 73.206L1.78844 73.0755C1.7615 73.011 1.66871 72.999 1.6283 73.05C1.46367 73.257 1.28258 73.2825 1.16735 73.308C0.917415 73.347 1.04014 73.1025 1.05361 72.8175C1.06258 72.675 0.903946 72.4935 1.10449 72.429C1.19429 72.4035 1.28707 72.3 1.37388 72.21C1.46816 72.093 1.4502 71.9775 1.37837 71.8095L1.30054 71.6145C1.37837 71.4465 1.53701 71.0985 1.64626 70.8525C1.75551 70.6065 1.8932 69.6375 1.77048 69.585L1.67918 69.6105L1.57442 69.636C1.45918 69.741 1.29007 69.714 1.19129 69.585C1.08952 69.456 1.11347 68.331 1.15388 67.878C1.19578 67.4265 1.2766 66.237 1.26313 66.2235C1.24966 66.21 1.12694 66.4035 1.04014 66.663L0.920408 66.2355L0.862041 66.0165C0.88449 65.8095 0.953333 65.4465 1.01769 65.202L0.908435 65.085L0.848571 65.0205C0.710884 65.1885 0.630068 65.151 0.665986 64.9305L0.674966 64.7505L0.697415 64.233C0.610092 63.7926 0.545156 63.348 0.502857 62.901C0.492381 62.6805 0.615102 61.9305 0.797687 61.7235C0.980272 61.5165 0.980272 60.3405 0.848571 60.4305L0.770748 60.5865L0.688435 60.741C0.592653 60.8835 0.410068 60.651 0.278367 60.198L0.347211 59.823C0.36966 59.7075 0.36517 59.553 0.392109 59.448C0.460952 59.178 0.538776 58.9185 0.606122 58.659C0.688435 58.362 0.779728 59.0475 0.87551 58.6335L0.903946 58.518C1.01769 58.4655 1.00422 58.3365 0.87551 58.233V58.1295C0.862041 57.9495 0.920408 57.729 0.975782 57.5595C1.00422 57.4695 1.08503 57.483 1.13143 57.405C1.24068 57.225 1.27211 56.694 1.16735 56.616C1.03116 56.514 0.993741 56.397 0.942857 56.112L0.917415 55.971C0.72585 55.9185 0.743809 55.725 0.957823 55.5435C1.17184 55.3635 1.74653 54.5865 2.01592 55.0005L2.34068 54.8715C2.40354 54.846 2.54122 55.182 2.56816 55.401L2.63701 55.944C2.79116 55.7895 2.87347 55.44 2.82408 55.182L2.83306 54.9615C2.86 54.2895 2.91088 53.6175 2.97374 52.9575L2.98871 52.815C3.07401 52.6995 3.18327 52.557 3.22966 52.5045C3.27456 52.4535 3.39429 52.053 3.4766 52.053C3.55741 52.053 3.80585 51.948 3.83578 51.9105C3.86871 51.8715 3.96449 51.6255 4.00041 51.5355C4.03782 51.4455 4.20544 51.807 4.23388 51.858C4.26082 51.9105 4.4015 51.9885 4.41497 51.729C4.42993 51.471 4.53918 51.006 4.64395 51.174C4.74871 51.342 5.02707 50.979 5.00912 50.928C4.99116 50.8755 4.98667 50.6565 5.04503 50.5665L5.08245 50.604C5.22313 50.7465 5.39224 51.2895 5.43714 50.424C5.48204 50.397 5.59279 50.4495 5.67959 50.5275C5.76639 50.604 6.05374 50.3205 6.13605 50.307C6.21687 50.295 6.47728 50.3595 6.60599 50.346C6.7332 50.3325 6.94721 49.803 6.85592 49.701C6.76612 49.596 6.56857 49.026 6.61946 48.666C6.66884 48.303 6.16748 47.2815 6.21238 47.2425C6.25728 47.2035 6.30367 46.8945 6.17197 46.6485V46.4415L6.18095 45.9765C6.04925 45.9765 5.89361 45.834 5.83374 45.6915L5.79333 45.5355L5.70204 45.1875C5.7619 44.787 5.76639 44.127 5.70653 43.713L5.67061 43.326L5.66163 43.209C5.67959 43.0545 5.8068 43.08 5.94 43.2735C6.0717 43.4685 6.48177 43.119 6.49524 43.0545C6.49845 42.9041 6.45901 42.7558 6.3815 42.627L6.34109 42.6795L6.2498 42.8085C6.13007 42.9765 6.05374 42.9765 6.07619 42.8085L6.09415 42.6525L6.11211 42.498C6.13156 42.318 6.1166 42.201 6.08517 42.2265C6.05374 42.252 5.91156 42.291 5.84422 42.24C5.77537 42.1875 5.91156 41.412 5.96245 41.025L6.14952 40.9335C6.18544 40.92 6.25429 40.869 6.25429 40.8555L6.22735 39.9765C6.52367 39.6405 6.70177 39.2655 6.62395 39.1485C6.54612 39.033 6.24531 39.1875 6.19891 39.1485C6.15401 39.111 5.78884 38.8125 5.51497 38.529L5.22313 38.658C5.09143 38.7225 5.07646 38.529 5.04054 38.2695L4.99116 37.869C4.90884 38.115 4.74422 38.244 4.62599 38.154C4.50626 38.064 4.1381 37.65 4.06476 37.494L4.07374 37.4685L4.17401 37.1445C4.12975 36.9008 4.07331 36.6595 4.0049 36.4215C3.97796 36.357 3.87769 36.24 3.85075 36.3435L3.81333 36.408L3.76395 36.5115C3.69959 36.6015 3.56789 36.744 3.47211 36.834C3.37633 36.924 3.06952 37.08 3.02313 36.9645C2.97823 36.8475 2.87796 36.369 2.92435 36.162C2.96925 35.955 3.33442 36.2925 3.48109 36.3045L3.50354 36.0855C3.52599 35.8515 3.44816 35.3475 3.40775 35.3355L2.76871 35.271C2.85102 34.2495 2.84653 33.3825 2.75524 33.3435C2.66395 33.3045 2.50381 33.783 2.48136 33.732C2.45891 33.6795 2.39156 33.5115 2.38109 33.4995C2.34188 33.3501 2.30992 33.199 2.28531 33.0465C2.24939 32.8395 2.3766 32.1165 2.41701 31.935L2.43197 31.767L2.44544 31.611C2.42748 31.431 2.36313 31.3005 2.30327 31.326L2.24939 31.353L2.20449 31.3785C2.1581 31.4175 2.10272 31.353 2.08476 31.236L2.10272 31.185L2.18952 30.8865C2.33619 30.447 2.31673 30.2145 2.15361 30.3825H2.05782L1.87823 30.435C1.67469 30.4215 1.4966 30.255 1.48313 30.072V29.943L1.52354 28.5855C1.2766 28.0305 1.04463 27.525 1.00422 27.474L0.989252 27.4095L0.939864 27.1245C0.951348 26.7041 0.917731 26.2837 0.839592 25.8705L0.73483 25.767C0.474422 25.521 0.478912 25.0815 0.492381 24.5775V24.3825C0.492381 24.0345 0.36068 23.892 0.200544 24.06L0.305306 23.6085C0.405578 23.181 0.227483 23.1945 0.173605 23.0265C0.158639 22.974 0.0598639 23.5695 0.00897959 23.0265L0 22.947C0.0587489 22.8556 0.119627 22.7656 0.182585 22.677C0.200544 22.65 0.151156 22.2105 0.0329252 21.771L0.0733333 21.267C0.0823129 21.1365 0.122721 21.0075 0.113741 20.892V20.7495C0.0733333 20.607 0.0823129 20.5035 0.128707 20.529C0.173605 20.556 0.383129 20.478 0.469932 20.283C0.556735 20.0895 0.429524 19.3395 0.492381 19.275L0.507347 19.314C0.671973 19.65 0.812653 19.7145 0.953333 19.236L1.07605 18.822C1.20925 19.107 1.32299 19.224 1.33646 19.068C1.35143 18.9135 1.55497 18.3825 1.7615 18.228L1.90218 18.9255L1.97551 19.2885C2.17605 18.8865 2.30775 18.525 2.26735 18.486C2.22544 18.447 2.12517 18.279 2.14014 18.1755H2.14912C2.2449 18.1755 2.34367 18.2145 2.44095 18.24H2.48585C2.53075 18.2925 2.59061 18.228 2.61456 18.099C2.63701 17.9685 2.80014 18.0345 2.81959 17.9565C2.83755 17.8785 2.92884 17.6205 2.96027 17.7765C2.9932 17.931 3.17429 18.111 3.26109 17.697L3.33592 17.5035L3.37633 17.4C3.45714 17.3745 3.61279 17.4525 3.71755 17.568C3.82231 17.685 4.21143 17.4135 4.28327 17.5425C4.3566 17.6715 4.58408 17.9685 4.67238 17.5935L4.74422 17.3355L4.81755 17.0775C4.88689 17.0666 4.95786 17.0741 5.02347 17.0991C5.08907 17.1241 5.14705 17.1657 5.1917 17.22C5.26354 17.3235 5.4102 16.806 5.5015 16.818C5.59129 16.8315 5.83823 16.974 5.87116 17.0385C5.90259 17.103 6.05823 17.2065 6.09565 16.9995C6.13156 16.7925 6.29918 16.263 6.38599 16.3395C6.47279 16.4175 6.67782 16.302 6.74218 16.236C6.80653 16.1715 6.9966 16.3785 7.03401 16.314V16.2495L7.05646 16.0035C7.13429 16.0425 7.34381 16.236 7.51741 16.4565L7.53986 15.7845V15.732C7.58177 15.681 7.75537 15.552 7.92898 15.447C8.10109 15.345 8.69075 15.5895 8.8419 15.5775L8.94966 15.6555C9.0634 15.732 9.13673 16.095 9.14571 15.4995C9.14571 15.435 9.27891 15.3195 9.2834 15.3315C9.41959 15.7965 9.62463 15.4215 9.66653 15.2925C9.78925 14.9055 9.96735 15.435 10.1005 15.06L10.1499 14.9175C10.3639 15.099 10.5645 15.2535 10.5974 15.2805C10.6273 15.306 10.798 15.06 10.9162 14.8005C11.0359 14.5425 11.44 14.9955 11.4639 14.97V14.9445L11.455 14.2455C11.6495 14.388 11.9473 14.3235 12.112 14.091L12.2527 14.6205L12.3215 14.8785C12.4667 14.6985 12.6627 14.466 12.7495 14.349L12.8453 14.298H12.8782C12.9082 14.259 13.0099 14.2455 13.1102 14.271C13.2105 14.298 13.5487 14.22 13.649 14.271C13.7493 14.3235 14.0037 14.0265 14.0276 14.103C14.0501 14.181 14.1593 14.3625 14.1818 14.259L14.2057 14.181L14.2327 14.091C14.2641 14.001 14.297 13.986 14.3105 14.052C14.3239 14.1165 14.3733 14.349 14.3973 14.388H14.4197L14.6023 14.2455C14.8073 14.142 15.0079 14.0265 15.0438 13.9755L15.0722 13.9095L15.2593 13.4175C15.4 13.8705 15.5422 14.1285 15.5781 13.9995C15.614 13.8705 15.7337 13.5735 15.7697 13.6515C15.8056 13.728 15.8834 13.4445 15.8894 12.9015L16.1528 13.5855L16.1977 13.7025C16.3214 13.6412 16.4578 13.6104 16.5958 13.6125C16.6781 13.6245 16.8652 13.7415 16.8697 13.5735C16.8741 13.4055 17.1525 13.3785 17.1929 13.4955C17.2333 13.6125 17.3127 13.4055 17.3022 12.9015L17.594 13.5345C17.6224 13.599 17.7856 13.3545 17.8814 13.2375L17.9322 13.173C17.9816 13.095 18.1971 12.9015 18.4022 12.7455C18.6072 12.591 19.1505 13.3005 19.1909 13.3005C19.2313 13.3005 19.4917 13.185 19.6698 13.095C19.8479 13.005 20.5004 13.056 20.6321 13.095L20.6875 12.978L20.8237 12.693C20.9434 12.849 21.111 13.005 21.1978 13.0305H21.4268C21.572 12.8625 21.759 12.6675 21.8369 12.6165C21.9147 12.5655 22.2933 12.474 22.4984 12.474H22.6854L22.7408 12.4485C22.8007 12.384 22.8546 12.423 22.8635 12.552C22.8725 12.681 23.091 12.603 23.1239 12.513C23.1539 12.423 23.2886 12.2025 23.338 12.318C23.3873 12.435 23.5565 12.6165 23.6253 12.5265C23.6941 12.4365 23.995 12.1635 24.1312 12.138L24.1761 12.306C24.2778 12.6675 24.3961 11.9445 24.5053 12.411L24.5502 12.603C24.7238 12.396 24.9064 12.294 24.9528 12.396C24.9977 12.501 25.1473 12.6945 25.1623 12.603C25.1773 12.513 25.2401 12.294 25.2716 12.333C25.303 12.3705 25.4093 12.333 25.4317 12.177C25.4541 12.021 25.8657 12.0735 26.1022 11.9445L26.3671 12.1395C26.5811 12.2925 26.8684 12.3585 27.1199 11.9445L27.2426 11.7375C27.4746 11.841 27.6856 11.9955 27.717 12.087C27.7484 12.177 27.8861 12.2025 27.9535 11.931C28.0223 11.661 28.3456 12.126 28.3695 12.021C28.392 11.919 28.4833 11.661 28.4967 11.841C28.5117 12.021 28.5835 12.228 28.6329 11.9835C28.6838 11.7375 29.0669 12.099 29.2226 11.9835L29.4097 12.06L29.6551 12.165C29.9514 11.892 30.2088 11.7375 30.2298 11.841C30.2537 11.9445 30.3301 12.138 30.354 12.036C30.3765 11.931 30.4812 11.634 30.5411 11.6205L30.5635 11.673L30.7371 12.0735C30.9691 12.009 31.2834 11.9835 31.4346 12.021C31.5842 12.06 32.0631 11.8665 32.1784 12.099L32.3101 11.673C32.334 11.595 32.4971 11.802 32.5944 11.7885L32.8803 11.763C33.1946 11.712 33.6376 11.568 33.8561 11.466L34.0252 11.919L34.0581 12.009C34.1747 11.9563 34.3 11.9258 34.4278 11.919C34.5235 11.919 34.7465 12.048 34.76 11.904C34.775 11.763 35.0743 11.841 35.179 12.138L35.3437 11.763L35.399 11.6475C35.5487 11.724 35.7223 11.802 35.7912 11.8275C35.86 11.853 36.1054 11.9325 36.1922 11.9325H36.2746C36.3389 11.9325 36.4018 11.9565 36.4571 11.9325C36.5215 11.892 36.5769 11.7765 36.6397 11.7375H36.6756C36.7265 11.7765 36.8253 11.7765 36.8941 11.712C36.963 11.6475 37.183 11.853 37.2922 12.06V11.517C37.3551 11.517 37.5916 11.673 37.8116 11.88L38.0166 11.9055H38.1767C38.3548 11.7255 38.5359 11.505 38.5778 11.466C38.6197 11.427 38.7649 11.661 38.8293 11.97L39.0253 11.802C39.1256 11.712 39.3082 11.634 39.3441 11.7375C39.5042 12.2025 39.5536 11.4405 39.7003 11.6325L39.8275 11.802C40.0114 11.8297 40.1874 11.8962 40.3438 11.997L40.3752 11.919L40.5713 11.466C40.7808 11.685 40.9829 11.802 41.0233 11.712C41.0637 11.622 41.2193 11.4525 41.2612 11.595C41.3016 11.7375 41.4258 12.138 41.4333 12.1245L41.6758 11.8395C41.785 11.712 42.255 11.685 42.4061 11.7375C42.5558 11.7885 42.9524 11.685 43.0721 11.802C43.1903 11.919 43.4822 11.478 43.5869 11.634L43.8698 10.7295C44.2439 11.1045 44.6226 11.4135 44.7139 11.4135C44.8037 11.4135 44.9788 11.3235 44.9653 11.5815C44.9503 11.841 45.311 11.349 45.4023 11.2455C45.4936 11.142 45.6941 11.22 45.7615 11.2455C45.8318 11.2725 46.0039 11.1555 46.0234 11.2455C46.0414 11.3355 46.1237 11.556 46.1551 11.4525C46.1865 11.349 46.3975 11.0775 46.5562 11.0775L46.6894 11.2575L47.0815 11.595L47.1713 11.4405C47.291 11.2335 47.4048 11.13 47.4227 11.2065C47.4422 11.2845 47.6023 11.5815 47.7011 11.7375L47.9106 11.2575L47.9346 11.2065C47.9839 11.2065 48.0752 11.2965 48.1351 11.388C48.195 11.478 48.5541 11.4525 48.7741 11.22L48.7921 11.181L48.8744 10.974C48.9792 11.079 49.039 11.505 49.0061 11.919L49.2755 11.517L49.4805 11.2065C49.4656 11.595 49.4716 11.6865 49.4895 11.4135C49.5075 11.1435 49.8038 11.556 49.8188 11.544C49.8322 11.5305 49.9639 11.478 50.0732 11.4135C50.1839 11.349 50.594 11.6595 50.7078 11.7375C50.8215 11.8155 51.0909 11.4405 51.1328 11.5425C51.1732 11.6475 51.2869 11.892 51.2974 11.892C51.3049 11.892 51.3603 11.802 51.4097 11.685C51.4605 11.5695 51.6746 11.4525 51.7569 11.5305H51.8392C51.8841 11.556 51.9709 11.3505 51.9858 11.376L52.1205 11.673C52.2627 11.517 52.5246 11.5305 52.6967 11.673L52.8569 11.802L52.9197 11.853C53.002 11.853 53.1023 11.7765 53.1532 11.685C53.2026 11.595 53.3986 11.5695 53.463 11.4525C53.5273 11.337 53.9239 11.5815 54.1155 11.6205L54.2981 11.6475L54.4522 11.673C54.6169 11.7885 54.7725 11.8275 54.8039 11.7375C54.8369 11.6475 55.0224 11.478 55.1512 11.5425L55.2469 11.6595C55.3517 11.7765 55.434 12.1515 55.4415 11.544C55.4415 11.5305 55.5208 11.4915 55.5567 11.505C55.7947 11.544 56.0401 11.6985 56.2691 11.6205L56.4457 11.556C56.5834 11.712 56.7301 11.841 56.7705 11.853C56.8109 11.868 56.98 11.7765 57.0803 11.712C57.1805 11.6475 57.7687 11.763 57.9333 11.892C58.098 12.021 58.5544 11.376 58.6592 11.388C58.7639 11.4015 59.1561 11.2725 59.2878 11.103C59.421 10.935 59.7307 11.6205 59.7667 11.6085C59.8041 11.595 60.0001 11.259 60.0869 11.5185L60.1737 11.5695C60.2635 11.6205 60.3922 11.337 60.4731 11.4015L60.6437 11.5305C60.7335 11.2845 60.8622 11.1045 60.931 11.1165L60.9714 11.1945L61.0493 11.3235C61.1226 11.5035 61.2184 11.5815 61.2588 11.478C61.2992 11.376 61.4189 11.259 61.4279 11.4135C61.4369 11.5695 61.6973 11.595 61.7422 11.478C61.7871 11.3625 61.9756 11.193 62.0161 11.337C62.0565 11.478 62.1897 11.8665 62.2166 11.8665L62.2256 11.8155C62.3588 11.169 62.5548 11.7105 62.7135 11.673H62.7913C62.905 11.556 63.0427 11.505 63.0921 11.5305C63.143 11.556 63.2837 11.595 63.3705 11.685C63.4573 11.775 63.8494 11.505 64.014 11.6205L64.1966 11.517C64.2969 11.4525 64.439 11.712 64.5303 11.634L64.695 11.505C64.8536 11.5815 65.105 11.685 65.2457 11.712L65.3789 11.6595L65.6109 11.556C65.8713 11.505 66.1212 11.4525 66.1631 11.4405C66.2035 11.427 66.3412 11.673 66.4086 11.88C66.4774 12.087 66.7648 11.763 66.8111 11.853C66.856 11.943 67.0117 12.138 67.0431 12.048V11.9835C67.0207 11.7885 66.9473 11.4525 66.9608 11.4405L67.1105 11.259C67.1434 11.556 67.2077 11.814 67.2482 11.853C67.2901 11.892 67.4038 11.7885 67.4442 11.6985C67.4861 11.6085 67.6313 11.4525 67.6777 11.556C67.7226 11.661 67.8558 11.5695 67.8648 11.142L68.1012 11.427H68.1102C68.0743 11.6595 68.1701 11.7765 68.3257 11.712C68.4799 11.6475 68.854 12.1515 68.8854 12.0735V11.5185C69.0231 11.6085 69.1698 11.7495 69.2057 11.841C69.2416 11.931 69.3599 12.111 69.3748 11.9565C69.3883 11.802 69.4931 11.556 69.5888 11.7495C69.6846 11.9445 70.0902 11.6475 70.1994 11.634C70.3087 11.6205 70.5961 11.9835 70.6185 12.099C70.6424 12.216 70.9388 11.9955 70.9807 11.8665C71.0211 11.7375 71.2351 11.6205 71.3039 12.0735L71.5135 11.931C71.738 11.7885 71.3773 11.4525 71.5359 11.388L71.7005 11.337C71.8921 11.337 72.3441 11.3625 72.7033 11.3625H73.0325C73.1971 11.3625 73.3618 11.349 73.5264 11.3625H73.6611C73.8078 11.4405 74.0412 11.2845 74.1819 11.013L74.3286 11.493L74.4154 11.7765C74.4288 11.517 74.5052 11.142 74.583 10.962L74.6518 11.169L74.7611 11.4915C74.8943 11.388 75.0903 11.259 75.1951 11.1945C75.2999 11.13 75.6471 10.962 75.7279 10.8315C75.8102 10.7025 76.1215 11.0775 76.2263 11.091C76.331 11.103 76.6543 11.2335 76.7097 11.1555C76.8357 11.0255 76.9781 10.9126 77.1332 10.8195L77.2424 10.6635L77.449 10.3665C77.5343 10.7295 77.6166 10.8975 77.6256 10.755C77.6361 10.6125 77.7633 10.251 77.886 10.3665C78.0087 10.4835 78.4158 10.7805 78.5385 10.7805C78.6612 10.7805 79.0952 10.263 79.3317 10.251L79.5278 10.2765C79.7298 10.302 79.9169 10.1985 80.1084 10.212H80.2401C80.3449 10.0695 80.532 10.032 80.6547 10.134L80.7146 10.044C80.9061 9.77251 80.9615 9.88801 80.9839 10.3545V10.392C81.0932 10.392 81.3401 10.122 81.5317 9.77251L81.819 10.3155L81.846 10.3665C81.8774 10.431 81.9058 10.2885 81.9103 10.044C81.9148 9.79801 82.2845 10.083 82.3698 10.1475C82.4566 10.212 82.7679 10.1475 82.8592 10.083C82.949 10.017 83.2378 9.83701 83.3097 9.88801C83.3845 9.94051 83.6703 9.66901 83.8335 9.72001C83.9981 9.77251 84.477 9.68101 84.5459 9.75901C84.6147 9.83701 84.7614 10.1475 84.7748 10.056C84.7883 9.96601 84.8796 9.79801 84.911 10.083L84.9619 10.134L85.0442 10.212C85.1535 10.173 85.3944 10.122 85.583 10.083L85.6907 9.88801L85.8374 9.63001C85.9422 9.77251 86.0694 9.90001 86.1158 9.90001C86.1607 9.90001 86.2894 9.75901 86.3298 9.69451C86.3717 9.63001 86.6351 9.79801 86.7818 9.88951C86.9269 9.97951 87.343 9.66901 87.3804 9.63001C87.4163 9.59101 87.6019 10.173 87.6169 10.005C87.6303 9.83701 87.7575 9.46201 87.8863 9.46201H87.9955L88.1407 9.50101C88.2903 9.68101 88.5103 9.78601 88.6196 9.73351C88.7288 9.68101 89.0716 9.40951 89.1584 9.35851C89.2452 9.30601 89.4592 9.55351 89.4726 9.39751C89.4876 9.24151 89.5505 8.84251 89.5864 8.85451L89.6059 8.89351C89.751 9.22951 89.8752 9.60451 90.1207 9.21601L90.194 9.09901C90.3347 9.17701 90.5038 9.21601 90.5682 9.18901C90.631 9.16501 90.8376 9.34501 90.8824 9.35851L90.9199 9.33301L91.0695 9.24301C91.2342 9.13801 91.4706 9.09901 91.5993 9.15151L91.7176 9.17701L91.8074 9.20251C91.9316 8.94451 92.0693 8.85451 92.1097 8.99701C92.1501 9.13801 92.2878 9.33301 92.3476 9.19051C92.4075 9.04801 92.6529 8.75101 92.7158 8.93101C92.7801 9.11251 93.0031 9.26851 93.1947 9.30601L93.3503 9.37051L93.5 9.43651C93.6057 9.30997 93.7479 9.21932 93.9071 9.17701L94.0029 9.04801L94.0478 8.98351C94.1226 9.02251 94.362 8.90551 94.5865 8.73751L94.805 9.15151L94.9203 9.37051C95.1433 9.33301 95.3348 9.13801 95.3438 8.91901C95.3528 8.69851 95.6267 8.85451 95.6955 8.93101C95.7629 9.00901 96.0322 9.07351 96.1235 9.11251C96.2148 9.15151 96.4378 8.85451 96.4573 8.88001C96.4752 8.90551 96.5575 9.07501 96.6024 9.17701C96.6473 9.28201 97.0005 9.48751 96.9497 9.34501C96.8988 9.20251 96.9078 9.03451 97.0634 9.22951L97.2325 8.77651C97.3058 8.58151 97.5468 8.72401 97.7114 8.75101H97.8312C97.921 8.98351 98.0212 9.16501 98.0482 9.17701C98.0766 9.19051 98.3041 9.20251 98.5271 9.25501L98.6827 8.77651L98.7067 8.69851C98.9252 8.90551 99.0808 8.97001 99.0524 8.82751C99.0254 8.68651 98.988 8.32351 99.0075 8.27251C99.0254 8.22001 99.1841 8.13001 99.3307 8.07751C99.4774 8.02651 99.8785 8.37601 99.9429 8.27251L99.9728 8.31151L100.115 8.49151C100.284 8.46601 100.489 8.54401 100.567 8.65951C100.645 8.77651 100.937 8.11651 101.119 7.80751L101.297 7.98751L101.502 8.19451C101.625 7.92451 101.739 7.70401 101.757 7.69051C101.776 7.67701 101.85 7.62601 101.908 7.52251C101.968 7.41751 102.204 7.70251 102.269 7.79251C102.333 7.88401 102.578 8.06551 102.529 7.79251C102.478 7.52251 102.761 7.75501 102.816 7.72951C102.87 7.70401 103.077 7.75501 103.153 7.92451C103.231 8.09101 103.532 8.06551 103.514 7.98751C103.496 7.90951 103.756 7.75501 104.142 7.78051L104.284 8.02651L104.549 8.49151C104.572 8.00101 104.686 7.84651 104.804 8.14351L105.051 7.93651C105.311 7.71601 105.63 7.80751 105.922 8.13001C106.033 8.24701 106.191 8.50501 106.383 8.20801C106.47 8.07901 106.703 8.37601 106.857 8.54401C106.932 8.63401 106.67 8.82901 106.839 8.99701C106.884 9.04801 106.977 8.79001 107.044 8.81551C107.144 8.84101 107.305 8.91901 107.332 9.08551L107.427 9.60451C107.637 9.75901 107.915 9.97951 108.053 10.095C108.189 10.212 108.622 10.419 108.705 10.38C108.788 10.341 109.035 10.548 109.093 10.4835C109.153 10.419 109.271 10.3785 109.258 10.6125C109.243 10.845 109.545 10.509 109.599 10.47C109.654 10.431 109.859 10.47 110.024 10.47C110.189 10.47 110.599 10.974 110.639 10.935C110.681 10.8975 110.826 10.8705 110.831 11.001C110.835 11.13 110.98 11.505 111.149 11.4135C111.318 11.3235 111.835 11.853 112.031 11.9955L112.095 12.5775C112.125 12.8625 112.419 12.9015 112.472 13.47L112.501 13.728C112.688 13.923 112.875 14.1165 112.915 14.1555C112.957 14.1945 113.025 14.466 112.984 14.673L113.153 14.8665C113.083 15.2284 113.046 15.5959 113.043 15.9645L113.062 16.236L113.098 16.818C113.149 17.4525 113.221 17.982 113.263 18.0075H113.345C113.39 18.021 113.432 18.072 113.435 18.138C113.441 18.2025 113.349 18.3825 113.258 18.498L113.183 18.6285C113.183 18.6285 113.183 18.8085 113.198 18.8865C113.203 18.9255 113.254 18.9255 113.281 18.9135C113.299 18.9135 113.307 18.8235 113.325 18.8235L113.421 18.7845C113.526 18.7455 113.614 18.7965 113.604 18.888C113.595 18.978 113.682 19.4175 113.8 19.6635L113.878 19.9215L113.929 20.0895C113.938 20.4255 113.828 20.5815 113.691 20.439C113.554 20.2965 113.212 20.4135 113.325 21.1245C113.441 21.8355 113.463 23.787 113.349 23.8785C113.236 23.9685 112.924 24.2655 112.966 24.2925C113.007 24.318 113.158 24.5625 113.263 24.7575L113.303 24.9765C113.417 25.6365 113.49 24.6285 113.608 24.9645L113.677 25.158C113.751 25.2468 113.804 25.3507 113.833 25.4624C113.863 25.5741 113.867 25.6909 113.846 25.8045C113.801 26.0115 113.942 27.0975 113.969 27.615L113.879 28.0935C113.777 28.6095 113.964 29.4765 114.198 29.529L114.393 29.5665C114.613 29.6715 114.708 29.7735 114.602 29.787C114.497 29.799 114.202 29.994 114.202 30.174C114.202 30.3555 114.307 30.8985 114.439 30.834L114.562 30.795L114.63 30.7695C114.704 30.7695 114.827 30.8085 114.9 30.8475C114.973 30.885 115.338 30.795 115.51 30.8085C115.684 30.8205 115.889 31.8945 115.867 31.9845L115.777 31.9455C115.593 31.881 115.497 32.217 115.57 32.5665C115.615 32.8125 115.662 33.1095 115.748 33.2385L115.936 33.51C115.949 33.975 115.995 34.26 116.045 34.131L116.096 34.1055C116.145 34.08 116.223 34.1055 116.254 34.1835C116.283 34.26 116.287 34.4685 116.259 34.5435C116.176 34.8285 116.064 34.998 115.9 34.9455C115.867 34.9455 115.799 35.1015 115.795 35.1915C115.795 35.295 115.831 35.4495 115.871 35.502L116.004 35.6565C116.159 35.799 116.154 36.084 115.994 36.303L115.853 36.3285H115.739C115.575 36.1095 115.439 36.2385 115.439 36.627L115.415 36.885L115.379 37.26C115.219 37.377 115.02 37.4925 114.922 37.506C114.827 37.518 114.853 38.3325 114.913 38.7735C114.973 39.213 115.082 40.6335 114.987 40.7505C114.891 40.8675 114.978 41.6175 115.032 41.7465C115.087 41.8755 115.183 42.3285 115.106 42.4575L115.009 42.5475C114.927 42.6255 114.831 42.1995 114.744 42.5865L114.735 42.639C114.617 42.5625 114.508 42.4712 114.412 42.3675C114.312 42.2625 113.929 42.4575 113.764 42.5475C113.599 42.6375 113.061 42.225 112.929 42.0705C112.797 41.9145 112.314 42.0045 112.209 41.9535C112.104 41.901 111.848 41.526 111.815 41.682C111.764 41.9809 111.736 42.2833 111.73 42.5865C111.739 42.7935 112.059 42.9225 112.131 42.9225L112.163 43.0005C112.231 43.1685 112.178 43.5825 112.377 43.518H112.41C112.463 43.815 112.588 43.8405 112.683 43.5825L112.706 44.1645V44.28C112.836 44.3879 112.998 44.4478 113.167 44.4495L113.189 44.8095L113.207 45.1095C113.24 45.444 113.207 45.6255 113.143 45.5085C113.08 45.393 112.829 45.315 112.788 45.405C112.746 45.495 112.555 45.6 112.45 45.432C112.345 45.2625 112.109 44.7075 112.071 44.8365L112.08 44.901C112.14 45.2895 112.276 45.69 112.254 46.0395L112.227 46.44C112.062 46.905 111.973 47.37 112.026 47.487C112.08 47.604 112.3 47.577 112.386 47.3835L112.445 47.1645L112.483 47.022C112.492 46.815 112.513 46.6725 112.537 46.686L112.546 46.7115L112.67 47.151C112.815 46.9185 112.975 46.7895 113.02 46.8405C113.065 46.893 113.053 47.28 112.884 47.565L112.993 48.0165L113.038 48.2115C113.158 48.1215 113.312 48.3915 113.381 48.8055C113.45 49.2195 113.536 49.6845 113.504 49.7625C113.472 49.8405 113.309 49.8675 113.212 49.659L113.122 49.479L113.107 49.452C113.058 49.452 112.993 49.581 112.962 49.7115C112.929 49.8405 112.893 50.28 112.98 50.2935C113.067 50.3055 113.309 50.487 113.234 50.616C113.162 50.745 112.975 51.237 113.007 51.3915C113.038 51.5475 113.162 51.9465 113.198 51.831L113.236 51.8055C113.354 51.7275 113.526 52.0515 113.659 52.6725L113.715 52.9305C113.662 53.1474 113.602 53.3625 113.535 53.5755C113.513 53.6415 113.505 53.8995 113.577 54.003H113.641C113.809 54.003 113.866 54.1455 113.791 54.5085C113.773 54.612 113.724 54.7665 113.737 54.8055L113.815 55.0005C113.791 55.2195 113.691 55.3605 113.595 55.3095L113.55 55.0125L113.532 54.8955C113.29 54.8445 113.299 55.0125 113.55 55.2705L113.45 55.8L113.399 56.085C113.358 56.409 113.363 56.7705 113.408 56.874C113.453 56.9775 113.545 57.534 113.483 57.741C113.417 57.9465 113.111 58.2315 113.108 58.425L113.138 58.554L113.198 58.8135C113.249 59.136 113.243 59.304 113.198 59.1885C113.153 59.0715 112.944 58.956 112.884 59.0085C112.824 59.0595 112.61 59.0595 112.537 59.0085C112.463 58.956 112.254 59.0715 112.291 59.1495C112.327 59.2275 112.463 59.538 112.523 59.6535C112.583 59.7705 112.778 59.4855 112.797 59.4855C112.815 59.4855 112.861 59.6145 112.847 59.847C112.833 60.081 113.147 59.847 113.207 59.8095C113.267 59.7705 113.363 59.9775 113.258 60.0945C113.153 60.21 112.869 60.4425 112.847 60.3255C112.824 60.21 112.71 60.0405 112.674 60.0555C112.637 60.0675 112.501 60.7275 112.445 60.714C112.392 60.7005 112.204 60.96 112.158 61.3215L112.213 61.683C112.263 62.019 112.336 62.2395 112.501 62.2785H112.532C112.574 62.382 112.559 62.64 112.505 62.8485C112.45 63.054 112.185 63.468 112.158 63.5715C112.131 63.675 112.136 64.0245 112.095 64.05C112.053 64.0755 112.02 64.296 112.013 64.32C112.014 64.4406 112.04 64.5596 112.089 64.6695C112.154 64.812 112.291 65.4585 112.281 65.847L112.213 66.054C112.022 66.624 112.067 66.933 112.341 67.2825L112.55 67.5525C112.417 67.9308 112.301 68.3152 112.204 68.7045C112.149 68.9505 111.984 69.2475 112.136 69.2745L112.118 69.8025L112.109 70.023L112.158 71.0955L112.24 71.277L112.336 71.4975C112.305 71.7555 112.245 72.2205 112.2 72.5325L112.296 72.8415L112.532 73.617C112.332 73.941 112.163 74.2245 112.154 74.238C112.145 74.2515 112.291 75.0015 112.532 75.7635L112.71 76.527L112.76 76.746C112.689 76.7016 112.621 76.654 112.555 76.6035C112.541 76.5915 112.45 76.6695 112.396 76.7715C112.341 76.8765 112.136 77.121 112.085 77.1345C111.941 77.1859 111.812 77.2701 111.706 77.3805L111.601 77.496L111.479 77.6385C111.338 77.586 110.982 77.7165 110.69 77.9235C110.398 78.1305 109.458 78.2985 109.294 78.414L109.144 78.4665L108.988 78.5175C108.828 78.6225 108.418 78.7245 108.084 78.75H107.62C107.465 78.906 107.246 79.293 107.131 79.59L106.986 79.086C106.966 79.0215 106.712 79.242 106.712 79.2285C106.634 78.699 106.483 79.617 106.378 79.125L106.342 78.957C106.178 79.2285 105.983 79.3965 105.908 79.332L105.895 79.371L105.745 79.6815C105.554 79.629 105.329 79.6815 105.251 79.785C105.175 79.8885 104.859 79.668 104.781 79.707C104.705 79.746 104.331 79.887 104.135 79.887C103.939 79.887 103.404 80.262 103.354 80.1345C103.304 80.004 102.975 80.367 102.825 80.5095L102.706 80.4315L102.507 80.3025C102.3 80.3925 102.032 80.4825 101.908 80.5215C101.785 80.5605 101.507 80.7675 101.484 80.6775C101.46 80.5875 101.246 80.7285 101.133 80.9625C101.019 81.1935 100.553 80.8575 100.449 80.9745L100.411 80.91L100.247 80.613C100.112 80.8455 99.8471 80.988 99.66 80.9355L99.5088 81.039L99.3592 81.156C99.1924 81.0334 98.9898 80.9696 98.783 80.9745L98.6244 81.0255L98.4732 81.078C98.3131 81.207 98.0766 81.156 97.9434 80.961L97.7668 81.1935L97.6381 81.363C97.451 81.336 97.0918 81.414 96.8404 81.5295L96.589 81.363L96.4199 81.246C96.2515 81.379 96.0711 81.496 95.8811 81.5955C95.8092 81.621 95.5758 81.4395 95.5069 81.5175C95.4396 81.5955 95.2076 81.5685 95.0475 81.5565C94.8873 81.543 94.4863 81.7635 94.4728 81.672C94.4578 81.582 94.4129 81.5685 94.4084 81.84C94.4039 82.1115 94.0852 81.621 94.0208 81.6075C93.8551 81.6071 93.6903 81.6334 93.5329 81.6855C93.3967 81.7365 93.0316 81.5955 92.9343 81.6465C92.84 81.699 92.4838 81.5565 92.3566 81.504C92.2279 81.453 91.7774 81.5295 91.6397 81.453C91.5035 81.375 91.1429 81.867 91.083 81.8925C91.0231 81.918 90.8331 81.7635 90.7597 81.7875C90.6864 81.8145 90.4724 81.7635 90.3078 81.7365C90.1431 81.711 89.6792 81.5955 89.6238 81.5955C89.5684 81.5955 89.4233 81.7365 89.3769 81.5685C89.332 81.4005 88.9429 81.5955 88.8201 81.6345C88.6974 81.672 88.241 81.7635 88.0673 82.0095L87.8533 81.6345L87.6992 81.363C87.4433 81.348 87.0512 81.453 86.8267 81.6075L86.6037 81.375L86.5722 81.336C86.472 81.621 86.2939 81.672 86.1801 81.465C86.0649 81.258 85.4767 81.6465 85.2223 81.7245C84.9664 81.8025 84.2765 81.3495 84.2405 81.336C84.2046 81.324 83.9532 81.441 83.7167 81.531L83.4922 81.336L83.3605 81.2205C83.2827 81.6075 83.142 81.8025 83.0358 81.66C82.931 81.5175 82.6586 81.297 82.5943 81.453C82.5299 81.6075 82.283 81.9435 82.2291 81.789C82.1737 81.633 81.9044 81.4005 81.6859 81.465L81.5362 81.633C81.3671 81.828 81.2114 81.789 81.0842 81.5955L80.9376 81.3885C80.8238 81.5685 80.6741 81.6585 80.6083 81.5955C80.4936 81.4992 80.368 81.4166 80.2341 81.3495C80.1668 81.324 79.9393 81.465 79.8615 81.6075C79.7837 81.75 79.5188 81.6075 79.4514 81.66C79.3826 81.711 79.0952 81.6465 79.0084 81.6345C78.9216 81.6195 78.6852 81.504 78.6747 81.363C78.6657 81.2205 78.6208 80.8065 78.5849 80.871C78.5475 80.9355 78.4562 80.9355 78.4382 80.8065C78.4203 80.6775 78.2736 80.586 78.2003 80.664L78.1599 80.8965C78.1284 81.0915 77.9728 81.168 77.877 81.3105C77.6121 81.75 77.6031 81.75 77.3248 81.2325L77.2799 81.156C77.2155 81.066 77.1197 81.1035 77.0599 81.2205C77 81.336 76.7546 81.5685 76.6722 81.4005C76.5914 81.2325 76.349 80.871 76.34 81.0135C76.331 81.156 76.1978 81.5955 76.0751 81.633C75.9524 81.672 75.3268 81.5175 74.9167 81.738L74.5201 81.375L74.3974 81.258C74.1879 81.5685 73.9814 81.699 73.9454 81.543C73.908 81.3885 73.7165 81.6855 73.694 81.738C73.6716 81.789 73.4845 81.8025 73.2974 81.8025C73.1103 81.8025 72.5716 81.5565 72.4997 81.504C72.4249 81.453 72.1615 81.7245 72.0747 81.8535C71.9879 81.9825 71.5554 81.9435 71.3773 82.2795L71.1678 81.8145L71.0435 81.5445C70.8984 81.66 70.7023 81.6465 70.6155 81.5295C70.5287 81.414 70.2683 81.9195 70.177 81.957C70.0872 81.996 69.8029 81.762 69.7939 81.621C69.7849 81.4785 69.6532 81.207 69.5335 81.465L69.4467 81.699L69.3464 81.957C69.2327 81.84 69.0965 81.8025 69.0411 81.879C68.9872 81.957 68.8166 82.059 68.8091 81.9045C68.8001 81.75 68.7493 81.699 68.7178 82.1115L68.5128 81.8925L68.408 81.7755C68.3158 81.84 68.221 81.9005 68.1237 81.957C68.0563 81.996 67.8184 81.7365 67.7405 81.777C67.6642 81.8145 67.3903 81.777 67.3035 81.633C67.2167 81.492 66.9144 81.5685 66.7827 81.4785L66.6645 81.414C66.6151 81.3885 66.5043 81.582 66.4954 81.5565C66.3951 81.246 66.3457 81.5175 66.2679 81.6075C66.2305 81.6465 66.1452 81.4275 66.0763 81.363C66.0614 81.363 66.003 81.492 65.9985 81.5685V81.6345C66.0434 81.711 66.0673 81.801 66.0494 81.8535C66.0299 81.9045 65.9446 81.867 65.8848 81.8145C65.8249 81.7635 65.575 81.8025 65.4597 81.9195H65.355C65.1903 81.9195 64.9673 81.6345 64.8805 81.789L64.7129 82.0995C64.5752 81.9195 64.4061 81.789 64.3328 81.8025C64.2609 81.8145 64.023 82.047 63.9586 82.1775C63.8958 82.3065 63.8359 81.75 63.8269 81.7245C63.818 81.699 63.6668 81.7245 63.4947 81.7635C63.3211 81.8025 62.7688 81.957 62.6461 81.996C62.5219 82.035 62.1717 81.2205 62.1253 81.336C62.0804 81.453 61.9712 82.0215 61.7796 82.086C61.588 82.1505 60.8577 81.543 60.5479 81.324L60.2785 81.9315L60.2052 82.0995C60.0463 82.0254 59.9011 81.925 59.7756 81.8025C59.7263 81.7365 59.5257 81.8535 59.4434 81.7365C59.3611 81.621 59.0872 81.918 59.0468 81.9315C58.8975 81.9283 58.7496 81.902 58.6083 81.8535C58.4541 81.801 57.8286 81.9435 57.5502 82.086L57.3182 81.66C57.3182 81.66 56.748 81.9825 56.7435 82.0095C56.7151 82.0725 56.6882 82.1895 56.6567 82.203L56.5146 82.2795C56.3829 82.1115 56.2871 81.84 56.2961 81.699C56.305 81.5565 56.2691 81.129 56.2137 81.129C56.1584 81.129 56.0446 81.246 56.0865 81.375V81.5175L56.1 81.7125C56.1 81.996 55.9773 82.1625 55.8351 82.0725H55.6106C55.5059 82.1385 55.3008 82.2285 55.1556 82.254C55.009 82.2795 54.5765 82.059 54.4897 82.1505C54.4029 82.2405 54.1155 82.035 54.0332 82.1505C53.9509 82.2675 53.677 82.0725 53.6321 82.125H53.5872C53.3717 82.215 53.1756 82.203 52.9527 82.0215L52.7566 81.867C52.5375 81.8828 52.3177 81.8868 52.0981 81.879C52.0128 81.867 51.926 81.375 51.8212 81.711L51.7659 81.891L51.7344 81.996C51.6682 82.1521 51.5546 82.2833 51.4097 82.371C51.2645 82.461 50.8215 82.0215 50.7437 81.9825C50.6673 81.9435 50.5207 81.9825 50.4713 81.918C50.4204 81.8535 50.2154 81.918 50.151 81.9435C49.9937 81.9872 49.8288 81.9964 49.6676 81.9705C49.5269 81.9315 49.1663 81.6855 49.1618 81.621C49.1573 81.5565 49.075 81.699 48.9971 82.0725L48.7607 81.7365C48.6963 81.6465 48.5182 82.086 48.3805 82.125L48.2623 82.164C48.1261 82.0215 47.9031 82.164 47.7744 82.5L47.5784 82.0995L47.4646 81.879C47.282 81.6855 47.0995 81.6345 47.068 81.7755C47.0351 81.918 46.872 82.2405 46.8256 82.0725C46.7807 81.9045 46.5936 81.75 46.5023 81.996L46.4155 82.1115C46.3646 82.1775 46.2195 82.0995 46.2195 82.0605L46.197 81.4275C45.959 81.246 45.754 81.2595 45.7361 81.465C45.7166 81.672 45.5864 82.035 45.4622 81.9705L45.3619 82.035C45.2841 82.086 45.2287 82.2675 45.2197 81.945C45.2107 81.5955 45.1015 81.5175 45.0252 81.672C44.8052 82.1115 44.5537 81.8145 44.3218 81.9045L44.1616 81.9705C43.9835 82.035 43.8144 82.0995 43.783 82.0995H43.7561L43.5645 82.0095C43.2996 81.8925 43.1574 81.7245 43.2442 81.6465C43.331 81.5685 43.1544 81.156 43.1395 81.0135C43.126 80.871 43.0212 80.742 43.0122 81.0255C43.0033 81.3105 42.9165 82.0215 42.8297 81.918L42.7698 81.789L42.7024 81.6465C42.6336 81.3495 42.4824 81.2595 42.3597 81.4395C42.237 81.6195 41.9033 81.75 41.8629 81.5295C41.821 81.3105 41.6204 80.922 41.5246 81.207V82.125C41.3274 82.1394 41.1305 82.0944 40.9589 81.996C40.8092 81.906 40.3618 82.0605 40.3303 82.0215C40.2974 81.9825 40.1478 81.867 40.0654 81.789C39.9831 81.711 39.6269 81.789 39.4533 81.9315L39.3396 81.8265L39.2303 81.7245C39.1615 81.324 39.0253 81.1035 38.9295 81.2205C38.8337 81.336 38.6197 81.7365 38.6287 81.84V82.0215C38.6018 82.1115 38.5554 82.1775 38.5239 82.1505C38.4324 82.0048 38.3585 81.8487 38.3039 81.6855C38.2366 81.4905 37.9537 81.8925 37.9073 81.9045C37.8624 81.9195 37.6754 81.84 37.5781 81.7755L37.5706 81.672L37.5377 81.336C37.6788 81.3351 37.819 81.3133 37.9537 81.2715C38.0585 81.2325 38.1079 80.547 38.0031 80.496C37.8984 80.4435 37.5886 80.496 37.5886 80.715L37.5437 80.922C37.4883 81.1815 37.397 81.5685 37.3102 81.582C37.0782 81.621 37.2593 81.0525 37.1635 80.8455L37.1501 80.82C37.1501 80.82 37.0318 81 36.9405 81.3105C36.8507 81.621 36.3524 81.6075 36.1967 81.633C36.0426 81.66 35.8735 80.922 35.8271 81.1935C35.7822 81.465 36.1144 81.6735 36.1324 81.711C36.1599 81.8572 36.1522 82.0079 36.1099 82.1505H36.0561L35.9872 82.1895C35.9049 82.0995 35.7328 81.7755 35.5981 81.465L35.5682 80.367C35.5452 80.2209 35.4855 80.083 35.3946 79.9665C34.998 80.7165 35.1297 79.8105 35.0892 79.461V79.4235C35.0429 79.3455 35.0024 79.488 34.992 79.746C34.983 80.004 34.8872 80.4825 34.8004 80.2755C34.7151 80.0685 34.5774 81 34.546 81.1815C34.5146 81.3615 34.3769 81.918 34.3215 81.9435C34.2676 81.9705 33.9623 81.918 33.7288 81.9435L33.5193 81.9705H33.4744C33.428 82.035 33.3876 81.996 33.3816 81.8925C33.3771 81.7875 33.3876 81.5565 33.3816 81.363C33.3771 81.168 33.5463 80.7675 33.6376 80.8065L33.7109 80.8455L33.7797 80.8845C33.8396 81.0135 33.9743 81.1935 34.079 81.2715L34.1853 81.3105C34.2362 81.324 34.3215 81.258 34.341 81.1815L34.3948 80.8575C34.4397 80.496 34.5639 80.1855 34.6597 80.1855L34.6912 80.082C34.766 79.836 34.76 79.449 34.8468 79.2555L35.0114 78.8925C34.9156 78.582 34.7914 78.3105 34.7331 78.285C34.6732 78.2595 34.4906 78.465 34.4906 78.855C34.4906 79.242 34.3724 80.211 34.2362 80.2245L34.1539 80.4825C34.0536 80.8065 33.9578 80.8455 33.8067 80.547L33.7288 80.406L33.6974 80.4705ZM35.179 77.574C35.0653 77.4705 34.9695 77.418 34.9605 77.457C34.9637 77.5953 34.9932 77.7317 35.0473 77.859C35.1117 78 35.4574 78.078 35.64 77.871L35.8136 78.2595C35.8136 78.2595 35.8869 78.207 35.9094 78.1425L35.9692 77.9745C36.0471 77.7165 36.0186 77.457 35.9049 77.4045C35.7912 77.3535 35.2943 77.6775 35.179 77.574ZM31.8716 78.129C31.7912 78.2137 31.7334 78.3173 31.7033 78.4303C31.6732 78.5432 31.6719 78.6619 31.6995 78.7755C31.7593 78.996 32.0407 78.543 32.1095 78.4395C32.1784 78.336 32.5061 78.2595 32.6258 78.2595C32.7441 78.2595 33.0808 78.0915 33.0269 77.871C32.9716 77.652 32.6528 77.8455 32.575 77.91C32.4971 77.9745 32.2786 77.871 32.1275 77.793L31.9958 77.961L31.8686 78.1305H31.8731L31.8716 78.129ZM111.452 42.033C111.579 42.1485 111.634 42.033 111.574 41.787C111.448 41.2407 111.326 40.6931 111.209 40.1445L111.022 40.752L110.886 41.205C110.736 41.049 110.69 40.9845 110.79 41.0625C110.89 41.1405 111.323 41.9175 111.452 42.033ZM58.4676 78.285C58.312 78.285 58.1608 78.3885 58.1339 78.492L58.1429 78.543L58.1878 78.7755C58.1429 79.0095 58.1578 79.2675 58.2177 79.3575C58.2761 79.4475 58.4946 79.1385 58.6083 79.0605C58.722 78.984 58.6307 78.2715 58.4721 78.2715L58.4676 78.285ZM113.394 41.67C113.312 41.307 113.267 41.307 113.299 41.67C113.331 42.03 113.7 42.42 113.81 42.4575L113.819 42.096V41.928C113.915 41.5905 113.809 41.565 113.586 41.8755L113.508 41.7975L113.394 41.682V41.6685V41.67ZM30.8554 77.7795C30.601 77.9595 30.4663 78.102 30.5635 78.102C30.6593 78.102 30.9512 78.555 31.0275 78.672C31.1068 78.7875 31.3343 78.969 31.3343 78.762C31.3343 78.555 31.2295 78.141 31.0963 78.309L31.0694 78.2445L30.8554 77.7795ZM42.0634 79.1115C42.008 79.0845 42.0365 79.473 42.1278 79.977L42.2505 80.145L42.4001 80.352C42.5468 80.6235 42.7294 80.766 42.8072 80.688L42.8297 80.5725L42.8566 80.4165C42.8431 80.172 42.7024 80.0295 42.5378 80.0805L42.4465 79.965L42.3463 79.8345C42.2729 79.5255 42.1218 79.1505 42.0679 79.1235L42.0634 79.1115ZM79.0683 79.047C79.1446 78.957 79.1641 78.762 79.1042 78.6195C79.0443 78.477 78.8797 78.09 78.8498 77.9745C78.8169 77.8575 78.6343 77.9865 78.6702 78.297C78.7076 78.6075 78.9905 79.137 79.0683 79.047ZM38.3907 79.758C38.3683 79.395 38.3548 79.356 38.3638 79.668C38.3728 79.977 38.3324 80.844 38.4282 80.8185C38.5239 80.7915 38.4132 80.1195 38.3907 79.758ZM3.43469 55.9035C3.53048 55.9695 3.58435 55.8135 3.55442 55.5555H3.53048C3.35238 55.5165 3.30599 55.296 3.32544 54.921L3.33442 54.741C3.30748 54.4815 3.22517 54.5595 3.15633 54.8835C3.08898 55.206 3.33891 55.839 3.43469 55.8915V55.9035ZM1.85728 62.124C1.85728 61.9815 1.78844 61.8255 1.71061 61.7745L1.64626 61.695C1.58639 61.6305 1.56395 61.3725 1.46816 61.605C1.39633 61.785 1.33646 61.902 1.45469 62.1225C1.55048 62.3025 1.36789 62.8845 1.60435 62.8455C1.69265 62.8335 1.76599 62.4195 1.83782 62.1855L1.85728 62.124Z" fill="#1F96A8"/>
<path d="M116.606 42.507C116.66 42.6495 116.486 42.39 116.217 41.925L115.894 42.081C115.843 42.1065 115.748 41.913 115.711 41.7705L115.633 41.472C115.561 41.0715 115.624 40.839 115.775 40.956H115.889L116.167 40.929C116.036 40.6845 116.067 40.503 116.236 40.5285L116.355 40.9425L116.441 41.253C116.651 41.4855 116.778 41.706 116.724 41.745C116.669 41.7825 116.542 42.3645 116.602 42.507H116.606Z" fill="#1F96A8"/>
<path d="M74.4707 61.92C72.9547 62.3595 70.9986 62.76 68.604 63.12C66.2095 63.5205 63.6952 63.72 61.0612 63.72C58.3868 63.72 56.1523 63.36 54.3564 62.64C52.6009 61.92 51.2031 60.9195 50.1659 59.64C49.1288 58.32 48.3895 56.76 47.951 54.96C47.5125 53.16 47.2925 51.18 47.2925 49.02V31.44H56.2122V47.94C56.2122 50.82 56.5908 52.9005 57.3496 54.18C58.1084 55.4595 59.5242 56.1 61.6 56.1C62.239 56.1 62.917 56.0805 63.6353 56.04C64.3537 55.9605 64.9928 55.8795 65.551 55.8V31.44H74.4707V61.92ZM78.0551 32.52C79.5711 32.0805 81.5272 31.68 83.9217 31.32C86.3163 30.9195 88.8306 30.72 91.4646 30.72C94.1375 30.72 96.3525 31.08 98.1095 31.8C99.9054 32.4795 101.321 33.4605 102.36 34.74C103.397 36.0195 104.135 37.5405 104.575 39.3C105.013 41.0595 105.233 43.02 105.233 45.18V63H96.3136V46.26C96.3136 43.38 95.9334 41.34 95.1762 40.14C94.4174 38.94 93.0001 38.34 90.9258 38.34C90.2868 38.34 89.6088 38.3805 88.8904 38.46C88.1721 38.5005 87.533 38.5605 86.9748 38.64V63H78.0551V32.52Z" fill="white"/>
<path d="M122.167 16.44C123.843 16.44 125.379 16.62 126.777 16.98C128.173 17.2995 129.251 17.6205 130.009 17.94L128.273 25.08C127.433 24.7073 126.547 24.4452 125.639 24.3C124.794 24.1084 123.932 24.0078 123.065 24C121.988 24 121.069 24.1605 120.312 24.48C119.593 24.7605 119.014 25.1595 118.575 25.68C118.159 26.2359 117.854 26.8676 117.677 27.54C117.517 28.26 117.438 29.04 117.438 29.88V31.44H128.453V38.88H117.438V63H108.518V29.76C108.518 25.68 109.656 22.44 111.931 20.04C114.244 17.64 117.657 16.44 122.167 16.44ZM157.969 47.16C157.969 49.6395 157.61 51.9195 156.891 54C156.173 56.04 155.136 57.7995 153.778 59.28C152.421 60.72 150.785 61.8405 148.87 62.64C146.994 63.4395 144.878 63.84 142.524 63.84C140.209 63.84 138.094 63.4395 136.178 62.64C134.346 61.8704 132.695 60.726 131.329 59.28C129.972 57.7995 128.914 56.04 128.157 54C127.398 51.9195 127.019 49.6395 127.019 47.16C127.019 44.6805 127.398 42.42 128.157 40.38C128.954 38.34 130.032 36.6 131.389 35.16C132.784 33.7213 134.454 32.5786 136.298 31.8C138.214 31.0005 140.288 30.6 142.524 30.6C144.799 30.6 146.873 31.0005 148.75 31.8C150.605 32.5587 152.278 33.704 153.659 35.16C155.016 36.6 156.073 38.34 156.832 40.38C157.59 42.42 157.969 44.6805 157.969 47.16ZM148.87 47.16C148.87 44.4 148.311 42.24 147.193 40.68C146.116 39.0795 144.559 38.28 142.524 38.28C140.489 38.28 138.913 39.0795 137.795 40.68C136.677 42.24 136.119 44.4 136.119 47.16C136.119 49.92 136.677 52.1205 137.795 53.76C138.911 55.3605 140.489 56.16 142.524 56.16C144.559 56.16 146.116 55.3605 147.193 53.76C148.31 52.1205 148.87 49.92 148.87 47.16ZM172.661 63.6C170.066 63.5595 167.951 63.2805 166.315 62.76C164.719 62.2395 163.442 61.5195 162.484 60.6C161.566 59.6413 160.907 58.4644 160.569 57.18C160.248 55.8195 160.09 54.3 160.09 52.62V17.88L169.009 16.44V50.82C169.009 51.6195 169.069 52.3395 169.189 52.98C169.309 53.6205 169.527 54.1605 169.847 54.6C170.207 55.0395 170.705 55.3995 171.344 55.68C171.982 55.9605 172.841 56.1405 173.918 56.22L172.661 63.6ZM183.161 63H174.241V31.44H183.161V63ZM183.999 22.32C183.999 23.9595 183.46 25.26 182.383 26.22C181.346 27.1395 180.108 27.6 178.671 27.6C177.235 27.6 175.977 27.1395 174.9 26.22C173.863 25.26 173.343 23.9595 173.343 22.32C173.343 20.6805 173.863 19.3995 174.9 18.48C175.977 17.52 177.235 17.04 178.671 17.04C180.108 17.04 181.346 17.52 182.383 18.48C183.46 19.3995 183.999 20.6805 183.999 22.32ZM216.211 47.16C216.211 49.6395 215.851 51.9195 215.133 54C214.415 56.04 213.376 57.7995 212.02 59.28C210.663 60.72 209.027 61.8405 207.111 62.64C205.234 63.4395 203.12 63.84 200.766 63.84C198.45 63.84 196.336 63.4395 194.42 62.64C192.588 61.8709 190.936 60.7264 189.571 59.28C188.214 57.7995 187.156 56.04 186.398 54C185.64 51.9195 185.261 49.6395 185.261 47.16C185.261 44.6805 185.64 42.42 186.398 40.38C187.196 38.34 188.274 36.6 189.631 35.16C191.026 33.721 192.695 32.5783 194.54 31.8C196.455 31.0005 198.53 30.6 200.766 30.6C203.04 30.6 205.115 31.0005 206.992 31.8C208.847 32.5588 210.52 33.7041 211.9 35.16C213.256 36.6 214.314 38.34 215.073 40.38C215.83 42.42 216.211 44.6805 216.211 47.16ZM207.111 47.16C207.111 44.4 206.552 42.24 205.435 40.68C204.357 39.0795 202.801 38.28 200.766 38.28C198.73 38.28 197.153 39.0795 196.036 40.68C194.918 42.24 194.36 44.4 194.36 47.16C194.36 49.92 194.918 52.1205 196.036 53.76C197.153 55.3605 198.73 56.16 200.766 56.16C202.801 56.16 204.357 55.3605 205.435 53.76C206.552 52.1205 207.111 49.92 207.111 47.16Z" fill="black"/>
<path d="M78.0476 26.52C79.5637 26.0805 81.5197 25.68 83.9143 25.32C86.3088 24.9195 88.8231 24.72 91.4571 24.72C94.1301 24.72 96.345 25.08 98.102 25.8C99.8979 26.4795 101.314 27.4605 102.352 28.74C103.39 30.0195 104.127 31.5405 104.567 33.3C105.006 35.0595 105.226 37.02 105.226 39.18V57H96.3061V40.26C96.3061 37.38 95.926 35.34 95.1687 34.14C94.4099 32.94 92.9926 32.34 90.9184 32.34C90.2793 32.34 89.6013 32.3805 88.883 32.46C88.1646 32.5005 87.5256 32.5605 86.9673 32.64V57H78.0476V26.52Z" fill="#FFCC00"/>
<path d="M43.2038 52.326C43.2038 54.978 42.8925 57.474 42.2699 59.814C41.6997 62.154 40.6611 64.209 39.157 65.976C37.7053 67.692 35.7074 69.0705 33.1646 70.11C30.6743 71.0985 27.509 71.592 23.6702 71.592C20.1427 71.592 17.1076 71.1765 14.5649 70.344C12.0222 69.459 9.92096 68.4465 8.26123 67.302L12.308 57.864C13.8121 58.749 15.421 59.529 17.1331 60.204C18.8452 60.879 20.7129 61.218 22.7363 61.218C25.6936 61.218 27.8203 60.4905 29.1178 59.034C30.4154 57.579 31.0634 55.134 31.0634 51.702V16.446H43.2038V52.326Z" fill="white"/>
</svg>
