<svg width="171" height="301" viewBox="0 0 171 301" fill="none" xmlns="http://www.w3.org/2000/svg">
<path d="M183.722 221.215C183.722 230.474 153.699 237.96 116.663 237.96C79.6668 237.96 49.644 230.474 49.644 221.215C49.644 211.995 79.6668 204.509 116.663 204.509C153.699 204.509 183.722 211.995 183.722 221.215Z" fill="#C3DBDA"/>
<path d="M274.066 205.967C274.066 219.127 239.473 229.804 196.803 229.804C154.093 229.804 119.5 219.127 119.5 205.967C119.5 192.808 154.093 182.13 196.803 182.13C239.473 182.13 274.066 192.808 274.066 205.967Z" fill="#EDEBCC"/>
<path d="M244.201 241.664C244.201 250.923 219.891 258.409 189.908 258.409C159.925 258.409 135.615 250.923 135.615 241.664C135.615 232.444 159.925 224.919 189.908 224.919C219.891 224.919 244.201 232.444 244.201 241.664Z" fill="#C3DBDA"/>
<path d="M239.079 179.49L256.336 49.0764L160.91 74.7652L180.216 199.545L239.079 179.49Z" fill="#D9A72A"/>
<path d="M256.336 49.0764L163.431 78.9416L107.641 43.2452L194.439 28.7854L206.18 32.6466L221.901 37.7686L256.336 49.0764Z" fill="#F0C04A"/>
<path d="M221.901 37.7686C215.4 39.1476 208.78 40.172 202.319 41.4722C197.827 42.3784 192.942 42.8512 188.608 44.2302C181.082 46.6336 173.439 44.1514 165.834 43.5998C178.6 37.8474 192.272 34.1438 206.18 32.6466L221.901 37.7686Z" fill="#8FB73A"/>
<path d="M107.641 43.2452L134.157 173.462L180.215 199.545L160.909 74.7652L107.641 43.2452Z" fill="#BA8D1E"/>
<path d="M115.009 47.3429C119.027 48.4855 122.455 52.2284 126.198 54.4742C131.754 57.8232 137.703 60.1479 143.337 63.0635C147.789 65.3487 152.163 67.6732 156.576 70.0372C158.585 71.1404 160.634 71.8103 162.17 73.8985C189.356 67.3975 216.345 57.8232 243.65 52.8982C244.004 52.8194 244.044 53.6075 243.728 53.7651C230.332 61.4481 216.07 64.7971 202.004 68.5795C189.159 72.0467 176.276 75.1987 163.431 78.9416C164.377 85.3638 164.889 92.0619 165.756 98.4841C166.898 106.719 168.08 114.953 169.223 123.227C171.429 138.869 173.636 154.629 175.015 170.468C175.054 171.216 174.266 171.335 174.148 170.665C170.917 154.511 168.671 137.845 166.347 121.336C165.244 113.614 164.14 105.891 163.037 98.1689C162.21 92.1801 161.107 85.6791 161.028 79.4145C160.043 79.0599 159.491 77.4445 159.609 76.1049C152.754 71.4163 145.15 68.2249 138.097 64.3637C133.842 62.0391 129.784 59.1235 125.607 56.6807C121.825 54.4743 117.845 53.0165 114.26 50.0221C113.275 49.1553 113.984 47.0277 115.009 47.3429Z" fill="#FFD878"/>
<path d="M178.797 45.3333C170.681 47.1457 164.061 51.7949 155.945 53.6073C149.129 55.1045 141.525 57.7443 135.378 60.9751C135.615 60.9357 129.35 58.2959 129.586 58.1777C125.095 56.4047 125.528 54.3953 121.037 52.5829C133.802 49.4309 147.71 44.8211 160.712 42.7723C163.943 42.2207 167.213 41.7085 170.444 42.1025C173.675 42.4965 176.945 43.9149 178.836 46.5547C178.495 46.3183 178.153 46.0688 177.812 45.8061" fill="#6A872A"/>
<path d="M135.26 135.205C138.176 149.783 140.304 163.415 143.298 177.954C148.341 181.342 153.384 184.731 158.428 188.119C157.285 187.252 156.182 175.826 155.788 173.659C154.816 168.248 153.831 162.824 152.833 157.387C150.863 146.539 148.88 135.691 146.883 124.843C144.966 114.283 143.048 103.724 141.131 93.165C140.133 87.7541 139.135 82.33 138.137 76.8928C137.467 73.1892 137.112 65.979 135.497 63.024C132.266 57.1928 125.371 57.6656 120.998 55.144C122.613 61.6844 122.771 67.1216 123.716 73.8196C124.662 80.4388 126.001 86.861 127.144 93.4014C129.587 107.507 132.542 121.375 135.26 135.205Z" fill="#6A872A"/>
<path d="M149.523 16.8866C148.538 13.2224 152.202 12.0404 155.157 12.592C160.122 13.5376 164.731 16.8866 168.08 20.5114C172.217 24.9636 175.172 30.4008 177.576 35.9956C178.915 39.0688 180.058 42.733 178.324 45.6486C173.399 43.521 170.208 38.7536 167.411 34.1832C164.574 29.6128 161.579 24.7666 156.812 22.2844C155.433 21.5752 153.896 21.1024 152.557 20.3144C151.217 19.5658 149.956 18.4232 149.523 16.8866Z" fill="#6A872A"/>
<path d="M142.037 23.3482C148.459 34.065 164.731 48.3672 178.245 44.8606C175.409 40.5266 169.656 38.3596 165.874 34.853C161.185 30.4796 155.59 25.1212 154.093 18.6202C153.581 16.3744 153.936 13.8528 155.551 12.198C152.044 12.0798 148.538 12.6708 145.268 13.971C143.258 14.759 141.091 16.0986 140.618 18.2262C140.224 19.9992 141.091 21.7722 142.037 23.3482Z" fill="#8FB73A"/>
<path d="M163.51 42.142C165.953 42.4572 168.356 43.2058 170.799 43.6786C173.478 44.1908 176.197 44.5454 178.915 44.9394C179.506 45.0182 179.388 46.0426 178.797 46.0032C173.754 45.688 167.923 45.0576 163.273 43.0482C162.84 42.8512 163.076 42.1026 163.51 42.142Z" fill="#6A872A"/>
<path d="M155.394 88.7128L152.439 86.861L149.365 88.5158L149.878 84.3394L147.75 81.1874L151.02 80.4782L152.754 76.8534L154.251 80.557L157.482 81.5026L155.157 84.5364L155.394 88.7128Z" fill="#D9A72A"/>
<path d="M140.54 163.73L137.585 161.918L134.511 163.573L135.024 159.396L132.896 156.244L136.166 155.535L137.9 151.91L139.397 155.614L142.628 156.56L140.303 159.554L140.54 163.73Z" fill="#D9A72A"/>
<path d="M158.703 135.796L155.748 133.944L152.714 135.599L153.227 131.462L151.06 128.27L154.33 127.561L156.103 123.976L157.6 127.679L160.791 128.586L158.467 131.619L158.703 135.796Z" fill="#D9A72A"/>
<path d="M132.384 116.569L129.429 114.717L126.356 116.372L126.868 112.195L124.74 109.043L128.01 108.334L129.744 104.709L131.241 108.413L134.472 109.358L132.108 112.392L132.384 116.569Z" fill="#D9A72A"/>
<path d="M158.94 110.816L157.64 110.028L156.3 110.737L156.536 108.925L155.591 107.507L157.009 107.191L157.797 105.615L158.467 107.231L159.846 107.664L158.822 108.964L158.94 110.816Z" fill="#D9A72A"/>
<path d="M152.596 116.963L151.296 116.175L149.957 116.884L150.154 115.071L149.208 113.653L150.666 113.338L151.414 111.762L152.084 113.377L153.503 113.811L152.478 115.111L152.596 116.963Z" fill="#D9A72A"/>
<path d="M165.519 164.873L164.219 164.085L162.84 164.794L163.076 162.982L162.131 161.563L163.589 161.248L164.337 159.672L165.007 161.288L166.425 161.721L165.401 163.021L165.519 164.873Z" fill="#D9A72A"/>
<path d="M165.519 147.537L164.219 146.71L162.84 147.458L163.076 145.606L162.131 144.227L163.589 143.912L164.337 142.336L165.007 143.952L166.425 144.346L165.401 145.685L165.519 147.537Z" fill="#D9A72A"/>
<path d="M132.266 133.117L130.966 132.289L129.626 133.038L129.863 131.186L128.917 129.807L130.335 129.492L131.123 127.916L131.793 129.531L133.172 129.965L132.148 131.265L132.266 133.117Z" fill="#D9A72A"/>
<path d="M121.155 71.298L119.855 70.4706L118.515 71.2192L118.752 69.3674L117.806 67.9884L119.225 67.6732L120.013 66.0972L120.682 67.7126L122.061 68.146L121.037 69.4462L121.155 71.298Z" fill="#D9A72A"/>
<path d="M147.277 96.1989L145.977 95.3714L144.637 96.12L144.874 94.2682L143.928 92.8892L145.347 92.574L146.135 90.998L146.804 92.6134L148.223 93.0469L147.198 94.347L147.277 96.1989Z" fill="#D9A72A"/>
<path d="M122.258 90.1706L120.958 89.3432L119.618 90.0918L119.855 88.24L118.909 86.861L120.328 86.5458L121.116 84.9698L121.785 86.5852L123.204 86.9792L122.179 88.3188L122.258 90.1706Z" fill="#D9A72A"/>
<path d="M177.064 64.9546L173.084 65.1122L169.893 67.5156L169.381 64.6788L165.992 63.615L169.656 61.6844L170.76 58.6506L173.518 60.3054L177.576 59.4386L175.645 62.3936L177.064 64.9546Z" fill="#FFD878"/>
<path d="M137.388 45.3334L134.748 45.4516L132.62 47.067L132.266 45.1364L129.98 44.4272L132.463 43.1664L133.172 41.1176L135.024 42.2208L137.742 41.6692L136.442 43.6392L137.388 45.3334Z" fill="#FFD878"/>
<path d="M174.345 52.2284L172.729 52.3072L171.469 53.2528L171.272 52.1102L169.893 51.6768L171.39 50.9282L171.823 49.7068L172.926 50.3766L174.542 50.022L173.754 51.204L174.345 52.2284Z" fill="#FFD878"/>
<path d="M135.733 58.1778C133.408 57.0352 131.084 55.932 128.759 54.8288C126.671 53.8044 124.504 52.386 122.219 52.0314C120.958 51.8344 119.737 53.3316 120.879 54.356C122.573 55.9714 124.898 56.7988 126.986 57.8232C129.311 58.9658 131.596 60.1084 133.921 61.251C135.969 62.236 137.782 59.2022 135.733 58.1778Z" fill="#8FB73A"/>
<path d="M167.686 221.333L184.983 135.323L89.5562 152.265L108.862 234.532L167.686 221.333Z" fill="#8FB73A"/>
<path d="M185.81 135.323L122.849 114.362L36.0903 131.501L90.3835 152.265L185.81 135.323Z" fill="#A4CC4B"/>
<path d="M150.547 224.367C153.818 196.787 152.636 167.001 150.941 139.263C151.335 139.342 151.729 139.407 152.123 139.46C142.825 134.771 133.054 131.107 122.967 128.507L103.622 134.574C113.708 137.175 123.519 140.839 132.817 145.528C132.423 145.449 132.029 145.383 131.635 145.331C133.33 173.068 134.472 202.855 131.241 230.435L150.547 224.367Z" fill="#D93D2A"/>
<path d="M94.4814 133.432C102.086 133.983 109.729 136.426 117.215 134.062C121.589 132.644 126.474 132.21 130.966 131.304C139.988 129.492 149.405 128.192 158.27 125.749C153.148 122.321 144.756 121.612 138.806 122.085C123.519 123.227 108.468 127.128 94.4814 133.432Z" fill="#F04832"/>
<path d="M36.2876 131.501L62.8038 217.354L108.862 234.532L89.5564 152.265L36.2876 131.501Z" fill="#6A872A"/>
<path d="M43.655 134.18C47.6738 134.968 51.0622 137.411 54.8446 138.908C60.4 141.115 66.31 142.651 71.9836 144.582C76.3964 146.079 80.8092 147.616 85.1826 149.192C87.192 149.901 89.2802 150.334 90.8168 151.713C118.003 147.419 144.992 141.115 172.296 137.884C172.651 137.805 172.651 138.317 172.375 138.436C158.979 143.479 144.716 145.725 130.65 148.207C117.806 150.492 104.883 152.58 92.0776 155.062C93.0232 159.278 93.496 163.691 94.4022 167.907C95.558 173.344 96.7137 178.781 97.8694 184.218C100.036 194.541 102.282 204.903 103.622 215.384C103.701 215.857 102.913 215.935 102.794 215.502C99.5636 204.825 97.3178 193.871 94.9538 182.958C93.89 177.875 92.7474 172.792 91.6836 167.71C90.8562 163.77 89.753 159.475 89.6742 155.338C88.6892 155.102 88.1376 154.038 88.2558 153.171C81.3608 150.059 73.7566 147.97 66.7434 145.409C62.4882 143.912 58.43 141.982 54.2142 140.366C50.4318 138.908 46.4918 137.923 42.9064 135.953C41.9214 135.402 42.6306 134.023 43.655 134.18Z" fill="#B4D66D"/>
<path d="M107.444 135.165C99.3273 136.951 91.1978 138.751 83.0551 140.563C76.2783 142.06 68.9893 141.509 62.8429 144.74C63.1056 144.687 63.3551 144.621 63.5915 144.543C59.0999 142.73 54.6083 140.931 50.1167 139.145C62.8823 135.953 76.3571 134.653 89.3197 132.565C92.5505 132.053 95.8207 131.541 99.0909 131.935C102.322 132.329 105.592 133.708 107.483 136.387C107.142 136.124 106.8 135.875 106.459 135.638" fill="#F04832"/>
<path d="M63.9068 192.098C66.8224 201.751 68.95 210.695 71.9444 220.309C76.9876 222.541 82.0308 224.774 87.074 227.007C85.9314 226.455 84.8282 218.89 84.4342 217.472C83.4361 213.9 82.4511 210.327 81.4792 206.755C79.483 199.584 77.4998 192.427 75.5298 185.282C73.6124 178.322 71.6818 171.374 69.738 164.44C68.7662 160.841 67.7812 157.256 66.783 153.683C66.1132 151.241 65.7586 146.513 64.1038 144.543C60.9124 140.721 54.0174 140.997 49.644 139.342C51.2594 143.676 51.417 147.261 52.3626 151.674C53.3082 156.008 54.6478 160.263 55.751 164.558C58.2332 173.856 61.1488 183.036 63.9068 192.098Z" fill="#BF2525"/>
<path d="M131.044 100.533C130.072 106.837 129.114 113.141 128.168 119.445L131.044 100.533Z" fill="#E6369F"/>
<path d="M114.694 93.4802C113.275 95.4896 112.487 97.893 111.739 100.257C108.271 111.762 105.868 123.661 104.686 135.638C106.144 136.544 108.153 135.914 109.335 134.732C110.557 133.511 111.187 131.816 111.739 130.201C115.81 118.828 119.881 107.441 123.953 96.0412C126.317 89.422 117.806 88.9886 114.694 93.4802Z" fill="#BF2525"/>
<path d="M135.693 105.221C136.521 101.36 135.851 94.8987 131.911 92.6135C130.256 91.6679 127.222 91.3133 125.331 90.9193C124.07 90.6435 118.121 91.2345 117.53 90.6829C124.386 96.9081 120.052 107.782 117.688 115.071C115.324 122.4 111.108 128.664 108.153 135.638C112.96 137.608 122.179 128.231 125.055 125.158C130.296 119.642 134.078 112.707 135.693 105.221Z" fill="#F04832"/>
<path d="M78.1698 106.719C77.1454 103.054 80.849 101.833 83.804 102.385C88.7684 103.33 93.3782 106.719 96.7272 110.343C100.864 114.796 103.819 120.193 106.223 125.788C107.562 128.901 108.665 132.565 106.971 135.441C102.046 133.314 98.8548 128.546 96.018 123.976C93.2206 119.405 90.2262 114.559 85.4588 112.116C84.0404 111.407 82.5432 110.934 81.2036 110.146C79.8246 109.358 78.6032 108.216 78.1698 106.719Z" fill="#D93D2A"/>
<path d="M70.6838 113.141C77.106 123.858 93.3782 138.199 106.892 134.653C104.056 130.359 98.3032 128.192 94.5208 124.685C89.8322 120.312 84.198 114.953 82.7402 108.413C82.228 106.206 82.5826 103.645 84.1586 101.991C80.6914 101.912 77.1848 102.503 73.9146 103.764C71.8658 104.591 69.7382 105.891 69.2654 108.019C68.8714 109.792 69.7382 111.604 70.6838 113.141Z" fill="#F04832"/>
<path d="M123.874 138.593C120.958 137.648 117.964 137.214 114.93 137.293C113.472 137.293 110.241 137.214 112.724 134.456C113.315 133.786 114.103 133.392 114.93 133.077C122.928 129.846 133.487 130.95 140.895 135.323C148.972 140.13 154.094 149.546 153.739 158.924C153.621 162.233 152.872 165.543 152.833 168.852C152.754 172.162 153.542 175.747 155.945 178.033C151.336 177.323 147.199 173.896 145.701 169.443C145.833 172.858 145.964 176.26 146.095 179.648C141.84 179.451 138.452 175.747 137.191 171.689C135.93 167.67 136.245 163.297 136.403 159.081C136.6 154.865 136.521 150.413 134.512 146.67C132.384 142.612 128.247 139.933 123.874 138.593Z" fill="#BF2525"/>
<path d="M124.622 136.387C121.667 135.717 118.634 135.52 115.639 135.756C114.181 135.914 110.951 136.032 113.196 133.117C113.748 132.407 114.536 131.974 115.324 131.58C123.046 127.758 133.684 128.073 141.367 131.895C149.799 136.072 155.591 145.055 155.945 154.471C156.064 157.781 155.591 161.091 155.788 164.44C155.985 167.749 157.009 171.216 159.57 173.344C154.921 172.989 150.548 169.877 148.735 165.543C149.103 168.931 149.471 172.32 149.838 175.708C145.623 175.826 141.958 172.359 140.382 168.419C138.806 164.518 138.846 160.145 138.688 155.929C138.531 151.674 138.137 147.261 135.891 143.676C133.448 139.815 129.114 137.451 124.622 136.387Z" fill="#F04832"/>
<path d="M108.389 133.905C112.408 130.713 117.963 128.113 123.558 127.207C123.952 126.996 124.333 126.786 124.701 126.576C125.922 125.749 126.947 124.764 127.971 123.739C128.326 123.385 128.995 123.858 128.68 124.291C128.05 125.197 127.183 126.103 126.237 126.891C130.02 126.655 133.723 127.246 136.915 129.058C137.427 129.334 137.112 130.201 136.521 130.004C131.635 128.231 126.828 127.837 121.785 129.255C119.342 129.886 117.018 130.871 114.811 132.013C112.881 133.038 111.108 134.417 109.059 135.047C108.429 135.244 107.838 134.338 108.389 133.905Z" fill="#D93D2A"/>
<path d="M92.1566 131.974C94.5994 132.25 97.0028 132.998 99.4456 133.471C102.125 134.023 104.843 134.377 107.562 134.771C108.153 134.85 108.035 135.875 107.404 135.835C102.401 135.481 96.5694 134.89 91.9202 132.841C91.4868 132.644 91.6838 131.935 92.1566 131.974Z" fill="#BF2525"/>
<path d="M113.314 169.128C112.842 169.089 112.526 169.246 112.093 169.404C110.99 169.916 110.99 171.886 112.093 172.359C112.526 172.556 112.842 172.714 113.314 172.674C114.221 172.556 115.087 171.926 115.048 170.901C115.009 169.837 114.299 169.246 113.314 169.128Z" fill="#B4D66D"/>
<path d="M124.583 185.282C123.716 185.322 122.81 186.031 122.889 186.976C122.889 187.029 122.902 187.081 122.928 187.134C122.967 188.001 123.637 188.828 124.583 188.789C125.528 188.749 126.159 188.08 126.238 187.134C126.238 187.081 126.238 187.029 126.238 186.976C126.316 186.11 125.41 185.282 124.583 185.282Z" fill="#B4D66D"/>
<path d="M114.299 205.416C112.644 205.416 112.644 207.937 114.299 207.937C115.915 207.937 115.915 205.416 114.299 205.416Z" fill="#B4D66D"/>
<path d="M126.238 216.408C123.834 216.408 123.834 220.151 126.238 220.151C128.641 220.151 128.641 216.408 126.238 216.408Z" fill="#B4D66D"/>
<path d="M162.131 210.813C162.079 210.735 162.026 210.656 161.973 210.577C161.382 209.592 160.003 209.592 159.373 210.577C159.321 210.656 159.268 210.735 159.215 210.813C158.546 211.917 159.412 213.335 160.673 213.335C161.934 213.335 162.84 211.917 162.131 210.813Z" fill="#B4D66D"/>
<path d="M169.617 192.571C167.647 192.571 167.647 195.644 169.617 195.644C171.587 195.644 171.627 192.571 169.617 192.571Z" fill="#B4D66D"/>
<path d="M161.303 184.415C161.33 184.442 161.343 184.455 161.343 184.455C160.555 183.47 158.939 184.337 158.939 185.479C158.939 186.622 160.555 187.489 161.343 186.464C161.343 186.49 161.33 186.517 161.303 186.543C162.091 186.07 162.091 184.888 161.303 184.415Z" fill="#B4D66D"/>
<path d="M170.957 159.633C169.262 159.633 169.262 162.273 170.957 162.273C172.651 162.273 172.651 159.633 170.957 159.633Z" fill="#B4D66D"/>
<path d="M162.84 154.511C162.407 153.762 161.579 153.762 161.146 154.511C160.791 155.141 161.264 155.969 162.013 155.969C162.761 155.969 163.234 155.141 162.84 154.511Z" fill="#B4D66D"/>
<path d="M80.0609 161.445C79.9427 160.657 79.4305 159.869 78.5243 159.909C77.5787 159.948 77.1059 160.618 76.9877 161.445C76.9089 161.839 77.0271 162.194 77.2635 162.509C77.8939 163.455 79.1547 163.455 79.7851 162.509C79.9821 162.194 80.1003 161.839 80.0609 161.445Z" fill="#B4D66D"/>
<path d="M87.1132 177.914C85.1038 177.914 85.0644 181.106 87.1132 181.106C89.162 181.106 89.162 177.914 87.1132 177.914Z" fill="#B4D66D"/>
<path d="M86.1284 199.19C84.1584 199.19 84.1584 202.264 86.1284 202.264C88.0984 202.264 88.0984 199.19 86.1284 199.19Z" fill="#B4D66D"/>
<path d="M95.8997 223.027C95.7421 222.633 95.5845 222.318 95.2693 222.042C94.7571 221.609 94.0873 221.609 93.5357 222.042C93.2205 222.318 93.0629 222.633 92.9447 223.027C92.6295 223.973 93.4569 224.919 94.4025 224.919C95.3875 224.919 96.1755 223.973 95.8997 223.027Z" fill="#B4D66D"/>
<path d="M63.9854 205.652C63.9592 205.6 63.946 205.547 63.946 205.494C63.6702 204.194 61.582 204.194 61.2668 205.494C61.2668 205.547 61.2668 205.6 61.2668 205.652C61.0698 206.519 61.6608 207.425 62.6064 207.425C63.552 207.425 64.143 206.519 63.9854 205.652Z" fill="#B4D66D"/>
<path d="M49.6835 160.184C47.8711 160.184 47.8711 163.061 49.6835 163.061C51.4959 163.061 51.5353 160.184 49.6835 160.184Z" fill="#B4D66D"/>
<path d="M124.583 154.944C124.504 154.944 124.438 154.944 124.386 154.944C122.613 154.865 122.613 157.781 124.386 157.702C124.438 157.702 124.504 157.702 124.583 157.702C126.317 157.623 126.356 155.023 124.583 154.944Z" fill="#B4D66D"/>
<path d="M97.7122 143.794C96.8848 143.794 96.0968 144.543 96.1362 145.37C96.1756 146.237 96.8454 146.985 97.7122 146.985C98.5396 146.985 99.367 146.237 99.3276 145.37C99.2882 144.543 98.6184 143.794 97.7122 143.794Z" fill="#B4D66D"/>
<path d="M113.629 141.391C112.329 141.391 112.329 143.4 113.629 143.4C114.93 143.4 114.93 141.391 113.629 141.391Z" fill="#B4D66D"/>
<path d="M65.9164 133.077C65.8901 133.025 65.877 132.985 65.877 132.959C65.4436 131.698 63.7494 131.698 63.316 132.959C63.2897 132.985 63.2766 133.025 63.2766 133.077C62.9614 133.944 63.7494 134.85 64.5768 134.85C65.4436 134.85 66.1922 133.944 65.9164 133.077Z" fill="#B4D66D"/>
<path d="M76.3573 128.034C76.3047 128.008 76.2653 127.981 76.2391 127.955C75.3329 127.482 74.1509 128.073 74.1509 129.137C74.1509 130.201 75.3329 130.831 76.2391 130.319C76.2653 130.319 76.3047 130.306 76.3573 130.28C77.1847 129.807 77.1847 128.507 76.3573 128.034Z" fill="#B4D66D"/>
<path d="M151.178 131.107C150.941 130.713 150.469 130.437 149.996 130.437C149.943 130.437 149.878 130.437 149.799 130.437C148.065 130.477 148.065 133.117 149.799 133.156C149.878 133.156 149.943 133.156 149.996 133.156C150.469 133.156 150.941 132.88 151.178 132.486C151.414 132.013 151.414 131.58 151.178 131.107Z" fill="#B4D66D"/>
<path d="M163.707 133.865C163.668 133.786 163.668 133.668 163.628 133.432C163.471 132.565 162.565 131.856 161.658 132.171C161.383 132.25 161.225 132.447 160.949 132.565C161.186 132.381 161.186 132.381 160.949 132.565C160.818 132.644 160.726 132.749 160.673 132.88C160.24 133.392 160.24 133.944 160.358 134.574C160.516 135.441 161.658 136.032 162.486 135.756C163.313 135.481 163.825 134.693 163.707 133.865Z" fill="#B4D66D"/>
<path d="M156.339 247.18L144.322 187.41L197.749 199.19L197.236 256.36L156.339 247.18Z" fill="#D6C48B"/>
<path d="M143.574 187.252L186.559 173.186L234.903 184.179L198.025 199.821L143.574 187.252Z" fill="#ECE1C3"/>
<path d="M167.332 250.292C165.086 231.104 165.874 209.789 167.056 190.522C166.793 190.575 166.517 190.614 166.229 190.641C172.69 187.41 179.506 184.849 186.52 183.036L199.955 187.252C192.942 189.065 186.126 191.626 179.664 194.856C179.927 194.804 180.202 194.764 180.491 194.738C179.309 214.005 178.521 234.099 180.767 253.287L167.332 250.292Z" fill="#BA8D1E"/>
<path d="M206.299 186.464C201.019 186.819 195.7 188.552 190.499 186.898C187.465 185.913 184.077 185.597 180.964 184.967C174.66 183.706 168.12 182.8 161.974 181.106C165.52 178.742 171.351 178.23 175.488 178.545C186.126 179.372 196.606 182.051 206.299 186.464Z" fill="#D9A72A"/>
<path d="M185.889 190.05C187.899 189.38 189.987 189.104 192.075 189.143C193.099 189.143 195.345 189.065 193.612 187.173C193.218 186.701 192.666 186.425 192.075 186.228C186.52 183.943 179.191 184.731 174.03 187.764C168.435 191.113 164.85 197.654 165.125 204.194C165.204 206.479 165.716 208.765 165.756 211.089C165.795 213.374 165.244 215.857 163.589 217.472C166.82 216.96 169.656 214.596 170.681 211.483C170.602 213.847 170.523 216.211 170.444 218.575C173.399 218.457 175.724 215.857 176.63 213.059C177.497 210.262 177.261 207.228 177.142 204.273C177.024 201.357 177.103 198.284 178.482 195.684C179.94 192.847 182.855 190.995 185.889 190.05Z" fill="#BA8D1E"/>
<path d="M185.338 188.513C187.426 188.04 189.514 187.883 191.602 188.08C192.627 188.158 194.873 188.277 193.297 186.228C192.903 185.755 192.351 185.44 191.839 185.164C186.441 182.524 179.073 182.721 173.715 185.4C167.844 188.277 163.825 194.541 163.589 201.082C163.471 203.367 163.825 205.691 163.707 208.016C163.55 210.301 162.84 212.744 161.067 214.202C164.298 213.965 167.332 211.798 168.593 208.804C168.33 211.142 168.067 213.479 167.805 215.817C170.76 215.935 173.281 213.532 174.385 210.774C175.488 208.055 175.488 205.022 175.567 202.067C175.685 199.151 175.961 196.078 177.537 193.596C179.231 190.877 182.225 189.222 185.338 188.513Z" fill="#D9A72A"/>
<path d="M134.118 98.1688C133.802 97.0656 132.187 97.2626 132.148 98.4052C132.029 105.694 131.202 111.801 126.75 117.908C126.356 118.46 127.223 119.09 127.695 118.617C132.896 113.653 136.324 105.34 134.118 98.1688Z" fill="#F77261"/>
<path d="M130.256 94.6622C129.941 93.2832 127.735 93.2832 127.42 94.6622C127.38 94.8986 127.301 95.0956 127.341 95.332C127.42 96.12 127.971 96.8686 128.838 96.8292C129.705 96.7898 130.256 96.1594 130.335 95.332C130.375 95.0956 130.296 94.8986 130.256 94.6622Z" fill="#F77261"/>
<path d="M136.718 133.826C135.693 133.589 135.181 134.929 136.009 135.52C139.239 137.726 142.273 139.736 144.44 143.085C146.41 146.197 146.922 149.625 147.986 153.053C148.223 153.762 149.326 153.841 149.483 153.053C151.414 145.409 144.125 135.52 136.718 133.826Z" fill="#F77261"/>
<path d="M87.6254 121.927C85.9706 119.681 84.04 117.672 82.661 115.19C81.3214 112.707 81.0456 109.752 79.6272 107.388C79.1544 106.64 77.7754 106.679 77.5784 107.664C77.0268 110.54 78.6028 113.771 79.9424 116.293C81.4002 119.051 83.449 121.809 86.1676 123.385C87.0344 123.897 88.2952 122.833 87.6254 121.927Z" fill="#F77261"/>
<path fill-rule="evenodd" clip-rule="evenodd" d="M140.697 278.069C140.802 278.201 140.855 278.384 140.855 278.621V284.255C140.855 284.491 140.802 284.675 140.697 284.807C140.592 284.938 140.448 285.004 140.264 285.004C140.08 285.004 139.936 284.938 139.83 284.807C139.725 284.675 139.673 284.491 139.673 284.255V284.137C139.489 284.321 139.318 284.478 139.161 284.61C138.977 284.741 138.793 284.833 138.609 284.885C138.399 284.964 138.189 285.004 137.979 285.004C137.663 285.004 137.375 284.938 137.112 284.807C136.849 284.675 136.626 284.491 136.442 284.255C136.258 283.992 136.114 283.703 136.009 283.388C135.904 283.073 135.851 282.718 135.851 282.324C135.851 281.536 136.048 280.919 136.442 280.473C136.836 280.026 137.348 279.803 137.979 279.803C138.346 279.803 138.662 279.868 138.924 280C139.161 280.131 139.41 280.328 139.673 280.591V278.7C139.673 278.437 139.712 278.24 139.791 278.109C139.896 277.977 140.054 277.912 140.264 277.912C140.448 277.912 140.592 277.964 140.697 278.069ZM139.594 282.364C139.594 282.049 139.542 281.76 139.436 281.497C139.305 281.261 139.148 281.077 138.964 280.945C138.78 280.814 138.57 280.748 138.333 280.748C138.097 280.748 137.887 280.814 137.703 280.945C137.519 281.077 137.388 281.274 137.309 281.536C137.204 281.773 137.151 282.049 137.151 282.364C137.151 282.732 137.204 283.034 137.309 283.27C137.414 283.506 137.558 283.69 137.742 283.822C137.926 283.953 138.136 284.019 138.373 284.019C138.583 284.019 138.78 283.953 138.964 283.822C139.148 283.717 139.305 283.533 139.436 283.27C139.542 283.034 139.594 282.732 139.594 282.364Z" fill="#3A8DA1"/>
<path fill-rule="evenodd" clip-rule="evenodd" d="M145.268 282.718H142.786C142.786 283.007 142.851 283.257 142.983 283.467C143.088 283.703 143.232 283.874 143.416 283.979C143.6 284.084 143.81 284.137 144.046 284.137C144.204 284.137 144.335 284.124 144.44 284.097C144.572 284.045 144.703 283.979 144.834 283.9C144.939 283.848 145.044 283.769 145.15 283.664C145.255 283.585 145.386 283.467 145.544 283.309C145.596 283.257 145.688 283.231 145.819 283.231C145.951 283.231 146.056 283.27 146.135 283.349C146.213 283.428 146.253 283.533 146.253 283.664C146.253 283.769 146.213 283.9 146.135 284.058C146.029 284.216 145.885 284.36 145.701 284.491C145.517 284.623 145.294 284.741 145.031 284.846C144.742 284.951 144.427 285.004 144.086 285.004C143.271 285.004 142.628 284.767 142.155 284.294C141.709 283.822 141.485 283.178 141.485 282.364C141.485 281.996 141.538 281.655 141.643 281.339C141.748 281.024 141.919 280.748 142.155 280.512C142.365 280.276 142.628 280.092 142.943 279.96C143.258 279.855 143.6 279.803 143.968 279.803C144.467 279.803 144.9 279.908 145.268 280.118C145.635 280.328 145.898 280.591 146.056 280.906C146.24 281.248 146.332 281.589 146.332 281.93C146.332 282.246 146.24 282.456 146.056 282.561C145.872 282.666 145.609 282.718 145.268 282.718ZM145.11 281.97C145.084 281.55 144.966 281.221 144.756 280.985C144.545 280.775 144.27 280.67 143.928 280.67C143.613 280.67 143.35 280.775 143.14 280.985C142.956 281.221 142.838 281.55 142.786 281.97H145.11Z" fill="#3A8DA1"/>
<path d="M150.35 282.206C150.088 282.075 149.759 281.97 149.365 281.891C149.024 281.786 148.761 281.707 148.577 281.655C148.394 281.602 148.249 281.536 148.144 281.458C148.013 281.379 147.947 281.274 147.947 281.142C147.947 280.985 148.026 280.854 148.183 280.748C148.341 280.643 148.538 280.591 148.774 280.591C148.985 280.591 149.155 280.63 149.287 280.709C149.418 280.788 149.536 280.893 149.641 281.024C149.746 281.182 149.851 281.287 149.956 281.339C150.035 281.418 150.14 281.458 150.272 281.458C150.455 281.458 150.6 281.418 150.705 281.339C150.81 281.234 150.863 281.116 150.863 280.985C150.863 280.827 150.81 280.683 150.705 280.551C150.626 280.42 150.495 280.289 150.311 280.157C150.127 280.052 149.904 279.96 149.641 279.882C149.379 279.829 149.09 279.803 148.774 279.803C148.354 279.803 147.986 279.869 147.671 280C147.382 280.131 147.159 280.315 147.001 280.551C146.844 280.762 146.765 280.998 146.765 281.261C146.765 281.55 146.857 281.799 147.041 282.009C147.198 282.193 147.422 282.351 147.711 282.482C147.973 282.587 148.328 282.692 148.774 282.797C149.168 282.902 149.444 283.007 149.602 283.112C149.786 283.218 149.878 283.375 149.878 283.585C149.878 283.743 149.786 283.874 149.602 283.979C149.444 284.111 149.234 284.176 148.971 284.176C148.656 284.176 148.407 284.111 148.223 283.979C148.039 283.874 147.881 283.703 147.75 283.467C147.697 283.362 147.632 283.27 147.553 283.191C147.5 283.139 147.395 283.112 147.238 283.112C147.106 283.112 146.988 283.165 146.883 283.27C146.778 283.349 146.726 283.467 146.726 283.625C146.726 283.835 146.804 284.045 146.962 284.255C147.12 284.465 147.356 284.636 147.671 284.767C148.013 284.925 148.407 285.004 148.853 285.004C149.352 285.004 149.759 284.938 150.075 284.807C150.416 284.675 150.679 284.478 150.863 284.216C151.02 283.979 151.099 283.677 151.099 283.309C151.099 283.073 151.033 282.863 150.902 282.679C150.771 282.495 150.587 282.338 150.35 282.206Z" fill="#3A8DA1"/>
<path d="M152.399 279.803C152.215 279.803 152.057 279.869 151.926 280C151.821 280.131 151.769 280.315 151.769 280.551V284.216C151.769 284.452 151.821 284.636 151.926 284.767C152.057 284.925 152.215 285.004 152.399 285.004C152.583 285.004 152.74 284.938 152.872 284.807C152.977 284.675 153.029 284.478 153.029 284.216V280.512C153.029 280.302 152.977 280.131 152.872 280C152.74 279.869 152.583 279.803 152.399 279.803Z" fill="#3A8DA1"/>
<path d="M152.399 277.951C152.241 277.951 152.097 278.003 151.966 278.109C151.834 278.24 151.769 278.397 151.769 278.581C151.769 278.765 151.834 278.923 151.966 279.054C152.071 279.159 152.215 279.212 152.399 279.212C152.583 279.212 152.74 279.159 152.872 279.054C152.977 278.923 153.029 278.765 153.029 278.581C153.029 278.371 152.964 278.214 152.832 278.109C152.727 278.003 152.583 277.951 152.399 277.951Z" fill="#3A8DA1"/>
<path fill-rule="evenodd" clip-rule="evenodd" d="M158.506 280.039C158.585 280.197 158.625 280.433 158.625 280.748V284.452C158.625 284.872 158.585 285.227 158.506 285.516C158.401 285.831 158.257 286.094 158.073 286.304C157.863 286.488 157.6 286.632 157.285 286.737C156.97 286.842 156.563 286.895 156.064 286.895C155.643 286.895 155.249 286.829 154.882 286.698C154.54 286.567 154.277 286.409 154.094 286.225C153.91 286.015 153.818 285.818 153.818 285.634C153.818 285.476 153.87 285.345 153.975 285.24C154.08 285.135 154.212 285.082 154.369 285.082C154.553 285.082 154.711 285.161 154.842 285.319C154.921 285.424 155 285.516 155.079 285.595C155.131 285.673 155.21 285.752 155.315 285.831C155.394 285.884 155.499 285.923 155.63 285.949C155.761 285.976 155.906 285.989 156.064 285.989C156.379 285.989 156.628 285.949 156.812 285.87C156.996 285.765 157.127 285.634 157.206 285.476C157.285 285.319 157.324 285.135 157.324 284.925C157.351 284.741 157.364 284.439 157.364 284.019C157.18 284.308 156.957 284.518 156.694 284.649C156.431 284.807 156.116 284.885 155.748 284.885C155.328 284.885 154.96 284.767 154.645 284.531C154.33 284.321 154.08 284.019 153.897 283.625C153.739 283.231 153.66 282.771 153.66 282.246C153.66 281.878 153.713 281.536 153.818 281.221C153.923 280.906 154.067 280.643 154.251 280.433C154.435 280.223 154.658 280.066 154.921 279.96C155.184 279.855 155.459 279.803 155.748 279.803C156.116 279.803 156.431 279.869 156.694 280C156.957 280.157 157.206 280.381 157.443 280.67V280.473C157.443 280.263 157.495 280.092 157.6 279.96C157.705 279.855 157.85 279.803 158.034 279.803C158.27 279.803 158.428 279.882 158.506 280.039ZM157.403 282.403C157.403 281.878 157.285 281.471 157.049 281.182C156.812 280.893 156.51 280.748 156.142 280.748C155.775 280.748 155.486 280.893 155.276 281.182C155.039 281.445 154.921 281.839 154.921 282.364C154.921 282.863 155.039 283.244 155.276 283.506C155.512 283.795 155.801 283.94 156.142 283.94C156.352 283.94 156.549 283.874 156.733 283.743C156.943 283.638 157.101 283.467 157.206 283.231C157.337 282.994 157.403 282.718 157.403 282.403Z" fill="#3A8DA1"/>
<path d="M163.825 280.63C163.694 280.368 163.497 280.157 163.234 280C162.971 279.869 162.669 279.803 162.328 279.803C161.986 279.803 161.671 279.869 161.382 280C161.12 280.131 160.883 280.354 160.673 280.67V280.512C160.673 280.354 160.647 280.223 160.594 280.118C160.542 280.013 160.463 279.934 160.358 279.882C160.279 279.829 160.174 279.803 160.043 279.803C159.859 279.803 159.714 279.855 159.609 279.96C159.504 280.092 159.452 280.276 159.452 280.512V284.216C159.452 284.452 159.517 284.636 159.649 284.767C159.754 284.925 159.898 285.004 160.082 285.004C160.292 285.004 160.45 284.938 160.555 284.807C160.686 284.675 160.752 284.478 160.752 284.216V282.6C160.752 282.075 160.778 281.72 160.831 281.536C160.909 281.3 161.054 281.116 161.264 280.985C161.448 280.854 161.645 280.788 161.855 280.788C162.223 280.788 162.459 280.893 162.564 281.103C162.696 281.339 162.761 281.668 162.761 282.088V284.216C162.761 284.452 162.814 284.636 162.919 284.767C163.05 284.925 163.208 285.004 163.392 285.004C163.576 285.004 163.72 284.938 163.825 284.807C163.956 284.675 164.022 284.478 164.022 284.216V281.852C164.022 281.563 164.009 281.326 163.983 281.142C163.956 280.959 163.904 280.788 163.825 280.63Z" fill="#3A8DA1"/>
<path fill-rule="evenodd" clip-rule="evenodd" d="M168.435 282.718H165.953C165.953 283.007 166.005 283.257 166.11 283.467C166.216 283.703 166.373 283.874 166.583 283.979C166.767 284.084 166.964 284.137 167.174 284.137C167.332 284.137 167.476 284.124 167.608 284.097C167.739 284.045 167.857 283.979 167.962 283.9C168.094 283.848 168.212 283.769 168.317 283.664C168.396 283.585 168.514 283.467 168.671 283.309C168.75 283.257 168.855 283.231 168.987 283.231C169.118 283.231 169.223 283.27 169.302 283.349C169.381 283.428 169.42 283.533 169.42 283.664C169.42 283.769 169.368 283.9 169.262 284.058C169.184 284.216 169.052 284.36 168.868 284.491C168.685 284.623 168.448 284.741 168.159 284.846C167.897 284.951 167.581 285.004 167.214 285.004C166.399 285.004 165.769 284.767 165.322 284.294C164.85 283.822 164.613 283.178 164.613 282.364C164.613 281.996 164.679 281.655 164.81 281.339C164.915 281.024 165.073 280.748 165.283 280.512C165.493 280.276 165.756 280.092 166.071 279.96C166.386 279.855 166.741 279.803 167.135 279.803C167.634 279.803 168.067 279.908 168.435 280.118C168.777 280.328 169.039 280.591 169.223 280.906C169.407 281.248 169.499 281.589 169.499 281.93C169.499 282.246 169.407 282.456 169.223 282.561C169.039 282.666 168.777 282.718 168.435 282.718ZM168.238 281.97C168.212 281.55 168.094 281.221 167.883 280.985C167.7 280.775 167.437 280.67 167.095 280.67C166.78 280.67 166.518 280.775 166.307 280.985C166.097 281.221 165.979 281.55 165.953 281.97H168.238Z" fill="#3A8DA1"/>
<path fill-rule="evenodd" clip-rule="evenodd" d="M174.7 278.069C174.805 278.201 174.857 278.384 174.857 278.621V284.255C174.857 284.491 174.792 284.675 174.66 284.807C174.555 284.938 174.411 285.004 174.227 285.004C174.069 285.004 173.925 284.938 173.794 284.807C173.688 284.675 173.636 284.491 173.636 284.255V284.137C173.478 284.321 173.308 284.478 173.124 284.61C172.966 284.741 172.782 284.833 172.572 284.885C172.388 284.964 172.178 285.004 171.942 285.004C171.653 285.004 171.377 284.938 171.114 284.807C170.852 284.675 170.628 284.491 170.445 284.255C170.234 283.992 170.09 283.703 170.011 283.388C169.906 283.073 169.854 282.718 169.854 282.324C169.854 281.536 170.051 280.919 170.445 280.473C170.812 280.026 171.324 279.803 171.981 279.803C172.349 279.803 172.651 279.868 172.887 280C173.15 280.131 173.4 280.328 173.636 280.591V278.7C173.636 278.437 173.688 278.24 173.794 278.109C173.899 277.977 174.043 277.912 174.227 277.912C174.437 277.912 174.595 277.964 174.7 278.069ZM173.557 282.364C173.557 282.049 173.505 281.76 173.4 281.497C173.294 281.261 173.15 281.077 172.966 280.945C172.756 280.814 172.546 280.748 172.336 280.748C172.099 280.748 171.889 280.814 171.705 280.945C171.521 281.077 171.377 281.274 171.272 281.536C171.167 281.773 171.114 282.049 171.114 282.364C171.114 282.732 171.167 283.034 171.272 283.27C171.403 283.506 171.561 283.69 171.745 283.822C171.929 283.953 172.126 284.019 172.336 284.019C172.572 284.019 172.782 283.953 172.966 283.822C173.15 283.717 173.294 283.533 173.4 283.27C173.505 283.034 173.557 282.732 173.557 282.364Z" fill="#3A8DA1"/>
</svg>
