<svg width="212" height="289" viewBox="0 0 212 289" fill="none" xmlns="http://www.w3.org/2000/svg">
<path d="M12.8238 196.982C12.8238 202.787 31.6452 207.48 54.8632 207.48C78.0565 207.48 96.8779 202.787 96.8779 196.982C96.8779 191.203 78.0565 186.51 54.8632 186.51C31.6452 186.51 12.8238 191.203 12.8238 196.982Z" fill="#C3DBDA"/>
<path d="M-86.8159 194.907C-86.8159 201.848 -65.1046 207.48 -38.3545 207.48C-11.6044 207.48 10.1069 201.848 10.1069 194.907C10.1069 187.991 -11.6044 182.36 -38.3545 182.36C-65.1046 182.36 -86.8159 187.991 -86.8159 194.907Z" fill="#C3DBDA"/>
<path d="M-43.8131 187.424C-43.8131 195.673 -22.1265 202.367 4.62356 202.367C31.3984 202.367 53.085 195.673 53.085 187.424C53.085 179.174 31.3984 172.48 4.62356 172.48C-22.1265 172.48 -43.8131 179.174 -43.8131 187.424Z" fill="#EDEBCC"/>
<path d="M-25.0908 209.802C-25.0908 215.607 -9.85088 220.3 8.94582 220.3C27.7425 220.3 42.9824 215.607 42.9824 209.802C42.9824 204.022 27.7425 199.305 8.94582 199.305C-9.85088 199.305 -25.0908 204.022 -25.0908 209.802Z" fill="#C3DBDA"/>
<path d="M-21.8798 170.825L-32.6984 89.0682L27.125 105.173L15.022 183.398L-21.8798 170.825Z" fill="#D9A72A"/>
<path d="M-32.6983 89.0682L25.5443 107.791L60.5195 85.4126L6.10543 76.3477L-1.25516 78.7683L-11.1105 81.9793L-32.6983 89.0682Z" fill="#F0C04A"/>
<path d="M-11.1104 173.74C-13.1605 147.484 -12.4195 119.177 -11.3574 92.7979C-11.6044 92.8637 -11.8597 92.9296 -12.1231 92.9955C-6.29393 88.5248 -0.143639 85.0174 6.17956 82.5474L19.814 87.9567C13.4908 90.402 5.83376 94.2799 0.00456047 98.7506C0.25156 98.6847 0.498562 98.6188 0.745562 98.553C-0.31654 124.933 -1.03284 153.239 0.992561 179.495L-11.1104 173.74Z" fill="#8FB73A"/>
<path d="M-11.1105 81.9792C-7.03501 82.8437 -2.8854 83.4859 1.1654 84.301C3.9812 84.8691 7.04399 85.1655 9.76099 86.03C14.4787 87.5367 19.2705 85.9806 24.0376 85.6348C16.0348 82.0286 7.4639 79.7068 -1.2552 78.7682L-11.1105 81.9792Z" fill="#8FB73A"/>
<path d="M60.5195 85.4125L43.8964 167.046L15.0221 183.397L27.1251 105.173L60.5195 85.4125Z" fill="#BA8D1E"/>
<path d="M55.9007 87.9814C53.3813 88.6977 51.2324 91.0442 48.8859 92.4521C45.4032 94.5516 41.6735 96.0089 38.1414 97.8367C35.3503 99.2693 32.6086 100.727 29.8422 102.209C28.5825 102.9 27.2981 103.32 26.3348 104.629C9.29181 100.554 -7.62769 94.5516 -24.7448 91.4641C-24.9671 91.4147 -24.9918 91.9087 -24.7942 92.0075C-16.3962 96.824 -7.45479 98.9235 1.36311 101.295C9.41531 103.468 17.4922 105.444 25.5444 107.791C24.9516 111.817 24.6305 116.016 24.0871 120.042C23.3708 125.204 22.6298 130.367 21.9135 135.554C20.5303 145.36 19.1471 155.24 18.2826 165.169C18.2579 165.638 18.7519 165.712 18.826 165.292C20.8514 155.165 22.2593 144.717 23.7166 134.368C24.4082 129.527 25.0998 124.686 25.7914 119.844C26.3101 116.09 27.0017 112.015 27.0511 108.087C27.6686 107.865 28.0144 106.852 27.9403 106.012C32.2381 103.073 37.0052 101.072 41.4265 98.6518C44.0941 97.1945 46.6382 95.3667 49.2564 93.8353C51.6276 92.4521 54.1223 91.5382 56.37 89.661C56.9875 89.1176 56.5429 87.7838 55.9007 87.9814Z" fill="#FFD878"/>
<path d="M15.9114 86.7216C20.9996 87.8578 25.1492 90.7724 30.2374 91.9086C34.5105 92.8472 39.2776 94.5021 43.1308 96.5275C42.9826 96.5028 46.9099 94.8479 46.7617 94.7738C49.5775 93.6623 49.3058 92.4026 52.1216 91.2664C44.1188 89.2904 35.3997 86.4005 27.2487 85.1161C25.2233 84.7703 23.1732 84.4492 21.1478 84.6962C19.1224 84.9432 17.0723 85.8324 15.8867 87.4873C16.1008 87.3391 16.3148 87.1827 16.5289 87.018" fill="#6A872A"/>
<path d="M43.2051 143.063C41.3773 152.202 40.0435 160.748 38.1663 169.862C35.0047 171.986 31.8431 174.11 28.6815 176.235C29.3978 175.691 30.0894 168.528 30.3364 167.17C30.9457 163.778 31.5632 160.377 32.1889 156.969C33.4239 150.168 34.6671 143.367 35.9186 136.567C37.1207 129.947 38.3227 123.327 39.5248 116.708C40.1505 113.316 40.7763 109.915 41.402 106.507C41.8219 104.185 42.0442 99.6647 43.0569 97.8122C45.0823 94.1566 49.4048 94.453 52.1465 92.8722C51.1338 96.9724 51.035 100.381 50.4422 104.58C49.8494 108.73 49.0096 112.756 48.2933 116.856C46.7619 125.698 44.9094 134.393 43.2051 143.063Z" fill="#6A872A"/>
<path d="M1.11633 65.035C1.70913 68.9706 2.31017 72.9143 2.91943 76.8663L1.11633 65.035Z" fill="#E6369F"/>
<path d="M11.3668 60.589C12.256 61.8487 12.75 63.3554 13.1946 64.8374C15.3929 72.0745 16.8749 79.5092 17.6406 87.0427C16.7267 87.5861 15.467 87.2156 14.7013 86.4499C13.9603 85.6842 13.5651 84.6468 13.2193 83.6341C10.667 76.4876 8.11465 69.3493 5.56232 62.2192C4.08032 58.0449 9.41552 57.7979 11.3668 60.589Z" fill="#6A872A"/>
<path d="M-1.7985 67.9744C-2.3172 65.5291 -1.89731 61.503 0.572693 60.0457C1.58539 59.4529 3.512 59.2553 4.6976 59.0083C5.488 58.8354 9.193 59.1812 9.5882 58.8354C5.2657 62.738 8.0074 69.5552 9.4894 74.1494C10.9714 78.7189 13.6143 82.6462 15.4668 87.0181C12.4534 88.2531 6.6736 82.3745 4.8705 80.4726C1.5854 76.9899 -0.785801 72.6427 -1.7985 67.9744Z" fill="#8FB73A"/>
<path d="M34.2637 68.888C34.8812 66.5909 32.5841 65.8499 30.7316 66.1957C27.6194 66.7885 24.7295 68.888 22.63 71.1604C20.0365 73.9515 18.184 77.3601 16.6773 80.8675C15.8375 82.7941 15.1212 85.0912 16.208 86.919C19.2955 85.5852 21.2962 82.5965 23.0499 79.7313C24.8283 76.8661 26.7055 73.828 29.6942 72.2719C30.5587 71.8273 31.522 71.5309 32.3618 71.0369C33.2016 70.5676 33.992 69.8513 34.2637 68.888Z" fill="#6A872A"/>
<path d="M38.9565 72.9389C34.9304 79.6573 24.7293 88.6234 16.2572 86.4251C18.0356 83.7081 21.6418 82.3496 24.013 80.1513C26.9523 77.4096 30.4597 74.0504 31.3983 69.9749C31.7194 68.567 31.4971 66.9862 30.4844 65.9488C32.6827 65.8747 34.881 66.2452 36.9311 67.0603C38.1908 67.5543 39.5493 68.3941 39.8457 69.7279C40.0927 70.8394 39.5493 71.9509 38.9565 72.9389Z" fill="#8FB73A"/>
<path d="M25.4952 84.721C23.9638 84.9186 22.4571 85.3879 20.9257 85.6843C19.2461 86.0054 17.5418 86.2277 15.8375 86.4747C15.467 86.5241 15.5411 87.1663 15.9116 87.1416C19.0732 86.944 22.7288 86.5488 25.6434 85.2891C25.9151 85.1656 25.7669 84.6963 25.4952 84.721Z" fill="#6A872A"/>
<path d="M7.3898 116.461L9.8845 115.646L12.1322 116.979L12.1075 114.336L14.0835 112.607L11.5888 111.817L10.5514 109.396L9.02 111.545L6.4018 111.792L7.9579 113.917L7.3898 116.461Z" fill="#FFD878"/>
<path d="M-0.835296 138.74L1.6594 137.9L3.9071 139.259L3.8824 136.616L5.8584 134.887L3.3637 134.097L2.3016 131.676L0.794898 133.825L-1.8233 134.072L-0.267199 136.171L-0.835296 138.74Z" fill="#FFD878"/>
<path d="M1.78286 171.27L4.25286 170.455L6.52526 171.789L6.50056 169.146L8.47656 167.417L5.95716 166.626L4.91976 164.206L3.38836 166.355L0.794861 166.602L2.35096 168.726L1.78286 171.27Z" fill="#FFD878"/>
<path d="M10.4774 148.25L12.9721 147.41L15.2445 148.768L15.2198 146.125L17.1958 144.396L14.6764 143.606L13.639 141.185L12.1076 143.334L9.4894 143.581L11.0702 145.681L10.4774 148.25Z" fill="#FFD878"/>
<path d="M30.5832 113.917L32.4357 112.756L34.3623 113.793L34.0412 111.175L35.375 109.199L33.3249 108.754L32.2381 106.482L31.2995 108.804L29.2741 109.396L30.7314 111.298L30.5832 113.917Z" fill="#D9A72A"/>
<path d="M39.8952 160.945L41.7477 159.809L43.6743 160.846L43.3532 158.228L44.687 156.252L42.6369 155.808L41.5501 153.535L40.6115 155.857L38.5861 156.45L40.0434 158.327L39.8952 160.945Z" fill="#D9A72A"/>
<path d="M28.5085 143.433L30.361 142.272L32.2629 143.309L31.9418 140.716L33.3003 138.715L31.2502 138.271L30.1387 136.023L29.2001 138.345L27.1994 138.913L28.6567 140.815L28.5085 143.433Z" fill="#D9A72A"/>
<path d="M45.008 131.379L46.8605 130.218L48.7871 131.256L48.466 128.638L49.7998 126.662L47.7497 126.217L46.6629 123.945L45.7243 126.266L43.6989 126.859L45.1809 128.761L45.008 131.379Z" fill="#D9A72A"/>
<path d="M28.36 127.773L29.1751 127.279L30.0149 127.724L29.8667 126.587L30.4595 125.698L29.5703 125.501L29.0763 124.513L28.6564 125.525L27.7919 125.797L28.4341 126.612L28.36 127.773Z" fill="#D9A72A"/>
<path d="M32.3367 131.626L33.1518 131.132L33.9916 131.577L33.8681 130.441L34.4609 129.552L33.547 129.354L33.0777 128.366L32.6578 129.379L31.7686 129.65L32.4108 130.465L32.3367 131.626Z" fill="#D9A72A"/>
<path d="M24.2352 161.661L25.0503 161.167L25.9148 161.612L25.7666 160.476L26.3594 159.587L25.4455 159.389L24.9762 158.401L24.5563 159.414L23.6671 159.685L24.3093 160.5L24.2352 161.661Z" fill="#D9A72A"/>
<path d="M24.2352 150.793L25.0503 150.275L25.9148 150.744L25.7666 149.583L26.3594 148.719L25.4455 148.521L24.9762 147.533L24.5563 148.546L23.6671 148.793L24.3093 149.632L24.2352 150.793Z" fill="#D9A72A"/>
<path d="M45.0821 141.753L45.8972 141.235L46.737 141.704L46.5888 140.543L47.1816 139.678L46.2924 139.481L45.7984 138.493L45.3785 139.506L44.514 139.777L45.1562 140.592L45.0821 141.753Z" fill="#D9A72A"/>
<path d="M52.0475 102.999L52.8626 102.48L53.7024 102.95L53.5542 101.789L54.147 100.924L53.2578 100.727L52.7638 99.7385L52.3439 100.751L51.4794 101.023L52.1216 101.838L52.0475 102.999Z" fill="#D9A72A"/>
<path d="M35.6715 118.61L36.4866 118.091L37.3264 118.56L37.1782 117.399L37.771 116.535L36.8818 116.337L36.3878 115.349L35.9679 116.362L35.0787 116.634L35.7209 117.449L35.6715 118.61Z" fill="#D9A72A"/>
<path d="M51.3561 114.83L52.1712 114.311L53.011 114.781L52.8628 113.62L53.4556 112.755L52.5664 112.558L52.0724 111.57L51.6525 112.582L50.7633 112.829L51.4055 113.669L51.3561 114.83Z" fill="#D9A72A"/>
<path d="M16.9983 99.0224L19.493 99.1212L21.4937 100.628L21.8148 98.8495L23.939 98.1826L21.6419 96.9723L20.9503 95.0704L19.2213 96.1078L16.6772 95.5644L17.8875 97.4169L16.9983 99.0224Z" fill="#FFD878"/>
<path d="M41.871 86.7217L43.5259 86.7958L44.8597 87.8085L45.082 86.5982L46.5146 86.1536L44.9585 85.3632L44.5139 84.0788L43.353 84.7704L41.6487 84.4246L42.4639 85.6596L41.871 86.7217Z" fill="#FFD878"/>
<path d="M18.7026 91.0442L19.7153 91.0936L20.5057 91.6864L20.6292 90.9701L21.4937 90.6984L20.5551 90.2291L20.2834 89.4634L19.5918 89.8833L18.5791 89.661L19.0731 90.402L18.7026 91.0442Z" fill="#FFD878"/>
<path d="M5.71005 154.918L6.59926 154.622L7.41435 155.116L7.38966 154.177L8.10596 153.56L7.21676 153.288L6.84626 152.424L6.30285 153.189L5.36426 153.263L5.93235 154.029L5.71005 154.918Z" fill="#FFD878"/>
<path d="M9.6869 126.118L10.5514 125.822L11.3665 126.291V125.352L12.0581 124.735L11.1689 124.463L10.7984 123.599L10.255 124.364L9.3164 124.463L9.8845 125.204L9.6869 126.118Z" fill="#FFD878"/>
<path d="M15.2445 123.574L16.109 123.278L16.9241 123.772V122.833L17.6157 122.216L16.7265 121.944L16.356 121.08L15.8126 121.845L14.874 121.92L15.4421 122.661L15.2445 123.574Z" fill="#FFD878"/>
<path d="M42.9084 94.774C44.3657 94.0577 45.823 93.3661 47.2803 92.6745C48.5894 92.0323 49.9478 91.1431 51.3804 90.9208C52.1708 90.7973 52.9366 91.7359 52.2203 92.3781C51.1582 93.3908 49.7009 93.9095 48.3918 94.5517C46.9345 95.268 45.5019 95.9843 44.0446 96.7006C42.7602 97.3181 41.624 95.4162 42.9084 94.774Z" fill="#8FB73A"/>
<path d="M-10.9871 94.1566C-8.09723 95.0211 -5.20733 95.8115 -2.36683 96.7007C1.60987 97.9604 2.37557 97.7875 0.720671 101.739C-3.08313 100.085 -8.12193 98.3309 -12.2468 97.7875C-12.5926 97.7381 -13.4571 93.4403 -10.9871 94.1566Z" fill="#AED164"/>
<path d="M-0.365708 69.8516C-0.291609 69.5058 0.2271 69.2588 0.5235 69.5058C1.7091 70.395 1.95609 71.7041 2.59829 73.0132C3.48749 74.7916 4.5496 76.5206 5.7599 78.1014C6.8961 79.5834 8.15579 80.9666 9.53899 82.2263C10.9469 83.486 12.6018 84.4987 13.8615 85.9313C14.1826 86.3018 13.8862 86.944 13.3428 86.7958C9.76129 85.8325 6.5256 82.2016 4.2779 79.3858C3.117 77.9285 2.07959 76.3724 1.19039 74.7175C0.399988 73.2602 -0.736209 71.5559 -0.365708 69.8516Z" fill="#AED164"/>
<path d="M1.78325 65.0101C2.15375 65.0348 2.59836 65.3559 2.54896 65.7758C2.54896 65.8416 2.54072 65.8993 2.52425 65.9487C2.49955 66.3439 2.22785 66.7144 1.78325 66.6897C1.33865 66.6897 1.06695 66.3686 1.04225 65.9487C1.02579 65.8993 1.01756 65.8416 1.01756 65.7758C0.96816 65.3806 1.38805 64.9854 1.78325 65.0101Z" fill="#AED164"/>
<path d="M-56.0395 143.161L-52.6803 157.463V157.487L-52.0381 160.278L-47.4439 179.841L-46.8264 182.484L-42.3804 201.478L-26.9182 198.02L-24.8681 197.551L-10.4186 194.315L-8.41792 193.87C-8.40146 193.87 -8.39323 193.87 -8.39323 193.87L-0.637424 192.117L1.19037 182.953L1.51148 181.372L4.03087 168.899L4.32727 167.318L6.35267 157.24L6.59967 156.055L7.98287 149.163L8.32867 147.484L9.93417 139.481L10.2553 137.95L11.6138 131.157L3.19108 132.664L1.06687 133.034L-7.33113 134.516L-9.62823 134.936L-19.0142 136.591L-20.9655 136.937L-33.9083 139.234L-36.3042 139.679L-50.7784 142.247L-52.6803 142.569L-56.0395 143.161Z" fill="#BF2525"/>
<path d="M1.06648 133.034C2.99308 134.343 4.96908 135.578 6.82158 136.986C7.88368 137.777 8.92109 138.641 9.93379 139.481L10.2549 137.95C8.05658 135.974 5.63599 134.171 3.19069 132.664L1.06648 133.034Z" fill="#D93D2A"/>
<path d="M-9.62829 134.936C-7.15829 136.789 -4.63889 138.616 -2.24299 140.543C1.23972 143.334 4.54951 146.323 7.98281 149.163L8.32861 147.484C5.16701 144.569 1.78311 141.877 -1.55139 139.184C-3.45329 137.653 -5.3799 136.072 -7.33119 134.516L-9.62829 134.936Z" fill="#D93D2A"/>
<path d="M-20.9656 136.937C-20.1752 137.513 -19.3848 138.098 -18.5944 138.691C-15.5975 140.963 -12.5923 143.227 -9.57889 145.483C-4.29309 149.435 0.992709 153.387 6.35261 157.24L6.59961 156.055C1.75841 152.251 -3.1569 148.546 -8.0722 144.841C-11.0691 142.568 -14.0743 140.304 -17.0877 138.048C-17.7299 137.571 -18.3721 137.085 -19.0143 136.591L-20.9656 136.937Z" fill="#D93D2A"/>
<path d="M-36.3043 139.679C-34.2048 141.012 -32.056 142.297 -30.0553 143.68C-25.5599 146.792 -21.0974 149.954 -16.6679 153.165C-9.67775 158.253 -2.78645 163.539 4.03075 168.899L4.32715 167.318C-1.89725 162.279 -8.29455 157.388 -14.7659 152.646C-19.286 149.336 -23.8802 146.076 -28.5238 142.89C-30.3022 141.671 -32.0971 140.452 -33.9084 139.234L-36.3043 139.679Z" fill="#D93D2A"/>
<path d="M-52.6806 142.568C-48.9756 145.458 -44.826 147.829 -40.9234 150.472C-36.7491 153.288 -32.6242 156.153 -28.5487 159.117C-21.5339 164.205 -7.99828 175.345 1.19012 182.953L1.51123 181.372C-7.30667 173.814 -20.0272 163.291 -26.5974 158.475C-30.8952 155.313 -35.2671 152.226 -39.6884 149.262C-43.2946 146.841 -46.9255 144.248 -50.7787 142.247L-52.6806 142.568Z" fill="#D93D2A"/>
<path d="M-93.9296 128.44L-55.4717 143.161L-36.0575 139.728L-31.241 138.863L-22.8183 137.381H-22.7936L-18.2735 136.566L-7.38075 134.64L-5.33066 134.269L0.794939 133.182L3.11674 132.762L12.1816 131.157L-6.44216 124.957L-15.1119 122.067L-32.4266 116.288L-41.4174 118.066L-46.1845 119.005L-55.4717 120.857C-55.4717 120.857 -55.4799 120.857 -55.4964 120.857L-61.0786 121.944L-69.6495 123.648C-69.6495 123.648 -69.6577 123.648 -69.6742 123.648L-75.4046 124.784C-75.421 124.784 -75.4293 124.784 -75.4293 124.784L-93.9296 128.44Z" fill="#F04832"/>
<path d="M-61.0786 121.944C-55.9904 122.932 -50.754 123.377 -45.6658 124.167C-40.2318 125.007 -34.8143 125.929 -29.4132 126.934C-23.8639 127.938 -18.3229 129.033 -12.7901 130.219C-8.2947 131.182 -3.7746 132.491 0.7949 133.183L3.1167 132.763C3.092 132.54 2.9685 132.293 2.7215 132.195C-2.5149 130.268 -8.29471 129.379 -13.7534 128.243C-19.1215 127.106 -24.5061 126.044 -29.9072 125.056C-35.4729 124.052 -41.0469 123.121 -46.6291 122.265C-49.5437 121.796 -52.5077 121.277 -55.4717 120.857C-55.4717 120.857 -55.4799 120.857 -55.4964 120.857L-61.0786 121.944Z" fill="#F77261"/>
<path d="M-88.5694 130.367C-85.7289 130.885 -83.333 132.639 -80.6407 133.701C-76.7134 135.257 -72.5144 136.344 -68.4883 137.702C-65.3761 138.765 -62.2392 139.851 -59.127 140.963C-57.7191 141.482 -56.2618 141.803 -55.175 142.766C-35.8843 139.728 -16.7665 135.257 2.623 132.96C2.87 132.935 2.87 133.281 2.6724 133.355C-6.8371 136.937 -16.9394 138.518 -26.9182 140.296C-36.0325 141.901 -45.1715 143.383 -54.2611 145.137C-53.5942 148.126 -53.2484 151.263 -52.6062 154.251C-51.7911 158.105 -50.976 161.958 -50.1609 165.811C-48.6048 173.122 -47.024 180.483 -46.0607 187.893C-46.0113 188.263 -46.5794 188.288 -46.6782 187.992C-48.9506 180.433 -50.5561 172.653 -52.211 164.922C-52.9767 161.316 -53.7671 157.734 -54.5328 154.128C-55.1256 151.312 -55.916 148.274 -55.9654 145.335C-56.657 145.187 -57.0522 144.421 -56.9781 143.803C-61.844 141.605 -67.2286 140.123 -72.218 138.32C-75.2314 137.233 -78.0966 135.875 -81.0853 134.738C-83.7776 133.701 -86.5934 133.009 -89.1128 131.602C-89.8291 131.206 -89.3104 130.218 -88.5694 130.367Z" fill="#F77261"/>
<path d="M22.8768 197.056L12.0335 143.136L71.8569 153.757L59.7539 205.331L22.8768 197.056Z" fill="#8FB73A"/>
<path d="M11.515 143.136L50.9856 129.996L105.375 140.741L71.3384 153.757L11.515 143.136Z" fill="#A4CC4B"/>
<path d="M33.6214 198.959C31.5713 181.669 32.3123 162.995 33.3744 145.607C33.1274 145.656 32.8804 145.697 32.6334 145.73C38.4626 142.791 44.5882 140.494 50.9114 138.864L63.0391 142.667C56.7159 144.298 50.5656 146.595 44.7364 149.534C44.9834 149.485 45.2304 149.443 45.4774 149.41C44.4153 166.799 43.699 185.472 45.7244 202.762L33.6214 198.959Z" fill="#D93D2A"/>
<path d="M68.7695 141.951C64.0024 142.297 59.2106 143.828 54.5176 142.346C51.7759 141.457 48.7131 141.185 45.8973 140.617C40.241 139.481 34.3377 138.666 28.7802 137.134C31.9912 134.985 37.2523 134.541 40.982 134.837C50.5656 135.553 60.001 137.999 68.7695 141.951Z" fill="#F04832"/>
<path d="M105.251 140.741L88.6284 194.562L59.7541 205.331L71.8571 153.758L105.251 140.741Z" fill="#6A872A"/>
<path d="M100.633 142.42C98.1132 142.914 95.989 144.446 93.6178 145.384C90.1351 146.767 86.4301 147.731 82.8733 148.941C80.1069 149.88 77.3405 150.843 74.5988 151.831C73.3391 152.275 72.03 152.547 71.0667 153.412C54.0238 150.719 37.1042 146.767 19.9872 144.742C19.7649 144.693 19.7648 145.014 19.9377 145.088C28.3357 148.249 37.2771 149.657 46.095 151.213C54.1472 152.646 62.2488 153.955 70.2764 155.511C69.6835 158.154 69.3871 160.92 68.819 163.563C68.0945 166.972 67.37 170.381 66.6454 173.789C65.2869 180.261 63.879 186.757 63.0392 193.327C62.9898 193.623 63.4838 193.673 63.5579 193.401C65.5833 186.707 66.9912 179.841 68.4732 172.999C69.1401 169.812 69.8564 166.626 70.5233 163.44C71.042 160.97 71.7336 158.278 71.783 155.684C72.4005 155.536 72.7463 154.869 72.6722 154.326C76.9947 152.374 81.7618 151.065 86.1584 149.46C88.826 148.521 91.3701 147.311 94.013 146.298C96.3842 145.384 98.8542 144.767 101.102 143.532C101.719 143.186 101.275 142.321 100.633 142.42Z" fill="#B4D66D"/>
<path d="M60.643 143.038C65.7312 144.158 70.8277 145.286 75.9323 146.422C80.1807 147.36 84.7502 147.015 88.6034 149.04C88.4388 149.007 88.2823 148.966 88.1341 148.916C90.9499 147.78 93.7657 146.652 96.5815 145.533C88.5787 143.532 80.1313 142.717 72.005 141.408C69.9796 141.087 67.9295 140.765 65.8794 141.012C63.854 141.259 61.8039 142.124 60.6183 143.804C60.8324 143.639 61.0465 143.482 61.2605 143.334" fill="#F04832"/>
<path d="M87.9365 178.729C86.1087 184.781 84.7749 190.388 82.8977 196.415C79.7361 197.814 76.5745 199.214 73.4129 200.614C74.1292 200.268 74.8208 195.525 75.0678 194.636C75.6936 192.397 76.3111 190.157 76.9203 187.918C78.1718 183.422 79.415 178.935 80.65 174.456C81.8521 170.093 83.0624 165.737 84.2809 161.39C84.8902 159.134 85.5077 156.886 86.1334 154.647C86.5533 153.115 86.7756 150.151 87.813 148.916C89.8137 146.521 94.1362 146.693 96.8779 145.656C95.8652 148.373 95.7664 150.621 95.1736 153.387C94.5808 156.104 93.741 158.772 93.0494 161.464C91.4933 167.293 89.6655 173.048 87.9365 178.729Z" fill="#BF2525"/>
<path d="M45.8478 121.326C46.457 125.278 47.0581 129.23 47.6509 133.182L45.8478 121.326Z" fill="#E6369F"/>
<path d="M56.0983 116.905C56.9875 118.165 57.4815 119.671 57.9508 121.153C60.1244 128.366 61.6311 135.825 62.3721 143.334C61.4582 143.902 60.1985 143.507 59.4575 142.766C58.6918 142 58.2966 140.938 57.9508 139.925C55.3984 132.795 52.8461 125.657 50.2938 118.511C48.8118 114.361 54.147 114.089 56.0983 116.905Z" fill="#BF2525"/>
<path d="M42.9334 124.266C42.4147 121.845 42.8346 117.794 45.3046 116.362C46.342 115.769 48.2439 115.547 49.4295 115.3C50.2199 115.127 53.9496 115.497 54.3201 115.151C50.0223 119.054 52.7393 125.871 54.2213 130.441C55.7033 135.035 58.3462 138.962 60.1987 143.334C57.1853 144.569 51.4055 138.691 49.6024 136.764C46.3173 133.306 43.9461 128.959 42.9334 124.266Z" fill="#F04832"/>
<path d="M78.9953 125.205C79.6375 122.907 77.3157 122.142 75.4632 122.488C72.351 123.08 69.4611 125.205 67.3616 127.477C64.7681 130.268 62.9156 133.652 61.4089 137.159C60.5691 139.111 59.8775 141.408 60.9396 143.211C64.0271 141.877 66.0278 138.888 67.8062 136.023C69.5599 133.158 71.4371 130.12 74.4258 128.588C75.315 128.144 76.2536 127.847 77.0934 127.353C77.9579 126.859 78.7236 126.143 78.9953 125.205Z" fill="#D93D2A"/>
<path d="M83.6884 129.23C79.6623 135.949 69.4612 144.939 60.9891 142.716C62.7675 140.024 66.3737 138.666 68.7449 136.467C71.6842 133.726 75.2163 130.367 76.1302 126.266C76.4513 124.883 76.229 123.278 75.241 122.24C77.4146 122.191 79.6129 122.561 81.663 123.352C82.9474 123.87 84.2812 124.686 84.5776 126.019C84.8246 127.131 84.2812 128.267 83.6884 129.23Z" fill="#F04832"/>
<path d="M50.3433 145.187C52.1711 144.594 54.0483 144.322 55.9502 144.372C56.8641 144.372 58.8895 144.322 57.3334 142.593C56.9629 142.173 56.4689 141.926 55.9502 141.729C50.9361 139.703 44.3165 140.395 39.6729 143.137C34.6094 146.15 31.3984 152.053 31.6207 157.932C31.6948 160.007 32.1641 162.081 32.1888 164.156C32.2382 166.231 31.7442 168.479 30.2375 169.911C33.1274 169.467 35.7209 167.318 36.6595 164.527C36.5771 166.667 36.4948 168.8 36.4125 170.924C39.0801 170.801 41.2043 168.479 41.9947 165.935C42.7851 163.415 42.5875 160.674 42.4887 158.031C42.3652 155.388 42.4146 152.597 43.6743 150.25C45.0081 147.706 47.6016 146.026 50.3433 145.187Z" fill="#BF2525"/>
<path d="M49.8741 143.803C51.7266 143.383 53.6285 143.26 55.5057 143.408C56.4196 143.507 58.445 143.581 57.0371 141.753C56.6913 141.309 56.1973 141.037 55.7033 140.79C50.8621 138.394 44.1931 138.592 39.3766 140.988C34.0908 143.606 30.4599 149.237 30.2376 155.141C30.1635 157.215 30.4599 159.29 30.3364 161.39C30.2129 163.465 29.5707 165.638 27.9652 166.972C30.8798 166.75 33.6215 164.798 34.7577 162.081C34.5272 164.206 34.2966 166.33 34.0661 168.454C36.709 168.528 39.0061 166.354 39.9941 163.884C40.9821 161.439 40.9574 158.697 41.0562 156.055C41.155 153.387 41.402 150.621 42.8099 148.373C44.3413 145.952 47.0583 144.47 49.8741 143.803Z" fill="#F04832"/>
<path d="M60.0503 142.247C57.5309 140.247 54.0482 138.616 50.5408 138.048C50.2938 137.917 50.0551 137.785 49.8245 137.653C49.0588 137.134 48.4166 136.517 47.7744 135.875C47.5521 135.652 47.1322 135.949 47.3298 136.22C47.725 136.789 48.2684 137.357 48.8612 137.851C46.49 137.702 44.1682 138.073 42.1675 139.209C41.8464 139.382 42.044 139.925 42.4145 139.802C45.4773 138.69 48.4907 138.443 51.6523 139.333C53.1837 139.728 54.641 140.345 56.0242 141.062C57.2345 141.704 58.346 142.568 59.6304 142.964C60.0256 143.087 60.3961 142.519 60.0503 142.247Z" fill="#D93D2A"/>
<path d="M70.2269 141.037C68.6955 141.21 67.1888 141.679 65.6574 141.976C63.9778 142.322 62.2735 142.544 60.5692 142.791C60.1987 142.84 60.2728 143.482 60.668 143.458C63.8049 143.235 67.4605 142.865 70.3751 141.581C70.6468 141.457 70.5233 141.012 70.2269 141.037Z" fill="#BF2525"/>
<path d="M56.9627 164.329C57.2591 164.304 57.4567 164.403 57.7284 164.502C58.42 164.823 58.42 166.058 57.7284 166.354C57.4567 166.478 57.2591 166.577 56.9627 166.552C56.3946 166.478 55.8512 166.083 55.8759 165.441C55.9006 164.774 56.3452 164.403 56.9627 164.329Z" fill="#B4D66D"/>
<path d="M49.8988 174.456C50.4422 174.481 51.0103 174.925 50.9609 175.518C50.9609 175.551 50.9526 175.584 50.9362 175.617C50.9115 176.16 50.4916 176.679 49.8988 176.654C49.306 176.63 48.9108 176.21 48.8614 175.617C48.8614 175.584 48.8614 175.551 48.8614 175.518C48.812 174.975 49.3801 174.456 49.8988 174.456Z" fill="#B4D66D"/>
<path d="M56.3455 187.078C57.3829 187.078 57.3829 188.658 56.3455 188.658C55.3328 188.658 55.3328 187.078 56.3455 187.078Z" fill="#B4D66D"/>
<path d="M48.8612 193.969C50.3679 193.969 50.3679 196.315 48.8612 196.315C47.3545 196.315 47.3545 193.969 48.8612 193.969Z" fill="#B4D66D"/>
<path d="M26.3594 190.462C26.3924 190.412 26.4253 190.363 26.4582 190.314C26.8287 189.696 27.6932 189.696 28.0884 190.314C28.1214 190.363 28.1543 190.412 28.1872 190.462C28.6071 191.153 28.0637 192.043 27.2733 192.043C26.4829 192.043 25.9148 191.153 26.3594 190.462Z" fill="#B4D66D"/>
<path d="M21.6665 179.026C22.9015 179.026 22.9015 180.952 21.6665 180.952C20.4315 180.952 20.4068 179.026 21.6665 179.026Z" fill="#B4D66D"/>
<path d="M26.8784 173.913C26.8619 173.929 26.8537 173.937 26.8537 173.937C27.3477 173.32 28.3604 173.863 28.3604 174.58C28.3604 175.296 27.3477 175.839 26.8537 175.197C26.8537 175.214 26.8619 175.23 26.8784 175.247C26.3844 174.95 26.3844 174.209 26.8784 173.913Z" fill="#B4D66D"/>
<path d="M20.8265 158.376C21.8886 158.376 21.8886 160.031 20.8265 160.031C19.7644 160.031 19.7644 158.376 20.8265 158.376Z" fill="#B4D66D"/>
<path d="M25.9149 155.165C26.1866 154.696 26.7053 154.696 26.977 155.165C27.1993 155.561 26.9029 156.079 26.4336 156.079C25.9643 156.079 25.6679 155.561 25.9149 155.165Z" fill="#B4D66D"/>
<path d="M77.8096 159.513C77.8837 159.019 78.2048 158.525 78.7729 158.549C79.3657 158.574 79.6621 158.994 79.7362 159.513C79.7856 159.76 79.7115 159.982 79.5633 160.18C79.1681 160.772 78.3777 160.772 77.9825 160.18C77.859 159.982 77.7849 159.76 77.8096 159.513Z" fill="#B4D66D"/>
<path d="M73.3882 169.837C74.6479 169.837 74.6726 171.838 73.3882 171.838C72.1038 171.838 72.1038 169.837 73.3882 169.837Z" fill="#B4D66D"/>
<path d="M74.0059 183.175C75.2409 183.175 75.2409 185.102 74.0059 185.102C72.7709 185.102 72.7709 183.175 74.0059 183.175Z" fill="#B4D66D"/>
<path d="M67.8801 198.119C67.9789 197.872 68.0777 197.674 68.2753 197.501C68.5964 197.23 69.0163 197.23 69.3621 197.501C69.5597 197.674 69.6585 197.872 69.7326 198.119C69.9302 198.712 69.4115 199.304 68.8187 199.304C68.2012 199.304 67.7072 198.712 67.8801 198.119Z" fill="#B4D66D"/>
<path d="M87.8872 187.226C87.9037 187.193 87.9119 187.16 87.9119 187.127C88.0848 186.312 89.3939 186.312 89.5915 187.127C89.5915 187.16 89.5915 187.193 89.5915 187.226C89.715 187.769 89.3445 188.338 88.7517 188.338C88.1589 188.338 87.7884 187.769 87.8872 187.226Z" fill="#B4D66D"/>
<path d="M96.8534 158.722C97.9896 158.722 97.9896 160.525 96.8534 160.525C95.7172 160.525 95.6925 158.722 96.8534 158.722Z" fill="#B4D66D"/>
<path d="M49.8983 155.437C49.9477 155.437 49.9889 155.437 50.0218 155.437C51.1333 155.388 51.1333 157.216 50.0218 157.166C49.9889 157.166 49.9477 157.166 49.8983 157.166C48.8115 157.117 48.7868 155.487 49.8983 155.437Z" fill="#B4D66D"/>
<path d="M66.744 148.447C67.2627 148.447 67.7567 148.916 67.732 149.435C67.7073 149.978 67.2874 150.448 66.744 150.448C66.2253 150.448 65.7066 149.978 65.7313 149.435C65.756 148.916 66.1759 148.447 66.744 148.447Z" fill="#B4D66D"/>
<path d="M56.7651 146.94C57.5802 146.94 57.5802 148.2 56.7651 148.2C55.95 148.2 55.95 146.94 56.7651 146.94Z" fill="#B4D66D"/>
<path d="M86.677 141.728C86.6935 141.696 86.7017 141.671 86.7017 141.654C86.9734 140.864 88.0355 140.864 88.3072 141.654C88.3237 141.671 88.3319 141.696 88.3319 141.728C88.5295 142.272 88.0355 142.84 87.5168 142.84C86.9734 142.84 86.5041 142.272 86.677 141.728Z" fill="#B4D66D"/>
<path d="M80.1314 138.567C80.1644 138.551 80.1891 138.534 80.2055 138.518C80.7736 138.221 81.5146 138.592 81.5146 139.259C81.5146 139.926 80.7736 140.321 80.2055 140C80.1891 140 80.1644 139.991 80.1314 139.975C79.6127 139.679 79.6127 138.864 80.1314 138.567Z" fill="#B4D66D"/>
<path d="M33.2262 140.494C33.3744 140.247 33.6708 140.074 33.9672 140.074C34.0001 140.074 34.0413 140.074 34.0907 140.074C35.1775 140.098 35.1775 141.753 34.0907 141.778C34.0413 141.778 34.0001 141.778 33.9672 141.778C33.6708 141.778 33.3744 141.605 33.2262 141.358C33.078 141.062 33.078 140.79 33.2262 140.494Z" fill="#B4D66D"/>
<path d="M25.3716 142.223C25.3963 142.173 25.3963 142.099 25.421 141.951C25.5198 141.408 26.0879 140.963 26.656 141.161C26.8289 141.21 26.9277 141.333 27.1006 141.408C26.9524 141.292 26.9524 141.292 27.1006 141.408C27.1829 141.457 27.2405 141.523 27.2735 141.605C27.5452 141.926 27.5452 142.272 27.4711 142.667C27.3723 143.211 26.656 143.581 26.1373 143.408C25.6186 143.235 25.2975 142.741 25.3716 142.223Z" fill="#B4D66D"/>
<path d="M29.9904 213.26L37.5239 175.79L4.03073 183.175L4.35183 219.015L29.9904 213.26Z" fill="#D6C48B"/>
<path d="M37.9932 175.691L11.0455 166.873L-19.2614 173.764L3.85777 183.57L37.9932 175.691Z" fill="#ECE1C3"/>
<path d="M23.0989 215.211C24.5068 203.182 24.0128 189.819 23.2718 177.741C23.4365 177.774 23.6094 177.799 23.7905 177.815C19.7397 175.79 15.4666 174.184 11.07 173.048L2.6473 175.691C7.0439 176.827 11.317 178.433 15.3678 180.458C15.2031 180.425 15.0302 180.4 14.8491 180.384C15.5901 192.462 16.0841 205.059 14.6762 217.088L23.0989 215.211Z" fill="#BA8D1E"/>
<path d="M-1.329 175.197C1.9808 175.419 5.3153 176.506 8.5757 175.469C10.4776 174.851 12.6018 174.654 14.5531 174.258C18.5051 173.468 22.6053 172.9 26.4585 171.838C24.2355 170.356 20.5799 170.035 17.9864 170.232C11.3174 170.751 4.7472 172.431 -1.329 175.197Z" fill="#D9A72A"/>
<path d="M-19.1873 173.764L-15.1365 211.753L4.91992 219.262L4.62352 183.397L-19.1873 173.764Z" fill="#ECE1C3"/>
<path d="M4.62354 176.16L-4.14497 179.865L-3.57687 216.076L-8.98616 214.05L-10.8634 177.247L0.819729 174.259L4.62354 176.16Z" fill="#F0C04A"/>
<path d="M14.6025 160.871C14.1744 163.605 13.7545 166.346 13.3428 169.096L14.6025 160.871Z" fill="#00B2C5"/>
<path d="M7.46396 157.783C6.84646 158.648 6.50066 159.71 6.20426 160.723C4.67286 165.762 3.63546 170.924 3.11676 176.16C3.75896 176.531 4.62346 176.284 5.14216 175.74C5.68556 175.222 5.93256 174.505 6.17956 173.789C7.95796 168.833 9.72812 163.868 11.4901 158.895C12.5275 156.005 8.82246 155.832 7.46396 157.783Z" fill="#BA8D1E"/>
<path d="M16.6276 162.896C16.9734 161.217 16.7017 158.401 14.9727 157.413C14.2564 156.993 12.9473 156.845 12.1075 156.672C11.5394 156.549 8.97064 156.796 8.69894 156.573C11.7123 159.266 9.81043 164.008 8.77303 167.194C7.73563 170.381 5.90784 173.122 4.62344 176.16C6.72294 177.025 10.7243 172.925 11.984 171.591C14.2811 169.17 15.9113 166.157 16.6276 162.896Z" fill="#F0C04A"/>
<path d="M-8.44288 163.563C-8.88748 161.958 -7.28197 161.439 -5.99757 161.662C-3.82397 162.081 -1.82328 163.539 -0.365978 165.12C1.43712 167.071 2.74623 169.442 3.78363 171.863C4.35173 173.221 4.84572 174.802 4.10472 176.062C1.95582 175.148 0.572619 173.073 -0.662381 171.072C-1.89738 169.072 -3.18177 166.972 -5.28127 165.91C-5.87407 165.589 -6.54097 165.391 -7.13377 165.045C-7.72657 164.7 -8.26998 164.206 -8.44288 163.563Z" fill="#BA8D1E"/>
<path d="M-11.7032 166.355C-8.91211 171.023 -1.82322 177.272 4.08008 175.716C2.84508 173.863 0.325681 172.9 -1.30452 171.369C-3.35462 169.467 -5.79992 167.145 -6.46683 164.304C-6.68913 163.316 -6.51622 162.205 -5.82462 161.489C-7.35602 161.439 -8.88743 161.711 -10.2953 162.279C-11.1845 162.625 -12.1231 163.193 -12.3207 164.132C-12.4936 164.897 -12.1231 165.688 -11.7032 166.355Z" fill="#F0C04A"/>
<path d="M11.4656 177.445C10.2059 177.025 8.8968 176.852 7.5877 176.876C6.94551 176.876 5.53761 176.827 6.6244 175.641C6.87141 175.345 7.21721 175.172 7.5877 175.049C11.0704 173.616 15.6646 174.11 18.9003 176.012C22.4077 178.111 24.6554 182.212 24.4825 186.312C24.4331 187.744 24.112 189.177 24.0873 190.634C24.0626 192.067 24.4084 193.623 25.4458 194.636C23.4204 194.315 21.642 192.833 20.9998 190.881C21.0492 192.363 21.0986 193.845 21.148 195.327C19.2955 195.253 17.8382 193.623 17.2701 191.869C16.7267 190.116 16.8749 188.214 16.949 186.361C17.0231 184.533 16.9737 182.607 16.1092 180.977C15.1953 179.198 13.3675 178.037 11.4656 177.445Z" fill="#BA8D1E"/>
<path d="M11.8112 176.481C10.5021 176.185 9.19297 176.086 7.88387 176.21C7.24167 176.259 5.83376 176.333 6.82176 175.049C7.06876 174.752 7.41456 174.555 7.73566 174.382C11.1196 172.727 15.7385 172.85 19.0977 174.53C22.778 176.333 25.2974 180.26 25.4456 184.361C25.5197 185.793 25.2974 187.25 25.3715 188.708C25.4703 190.14 25.9149 191.672 27.0264 192.586C25.001 192.437 23.0991 191.079 22.3087 189.202C22.4733 190.667 22.638 192.133 22.8027 193.598C20.9502 193.672 19.3694 192.166 18.6778 190.437C17.9862 188.732 17.9862 186.831 17.9368 184.978C17.8627 183.15 17.6898 181.224 16.7018 179.668C15.6397 177.963 13.7625 176.926 11.8112 176.481Z" fill="#D9A72A"/>
<path d="M4.72253 175.395C6.47623 174.011 8.89683 172.875 11.3421 172.48C11.5068 172.398 11.6715 172.307 11.8361 172.208C12.3795 171.863 12.8241 171.418 13.2687 170.973C13.4169 170.8 13.7133 171.023 13.5651 171.196C13.2934 171.616 12.9229 172.011 12.503 172.357C14.1332 172.233 15.7634 172.505 17.1713 173.27C17.3936 173.394 17.2454 173.789 16.9984 173.69C14.8495 172.925 12.7747 172.752 10.5517 173.369C9.51433 173.666 8.50163 174.086 7.53833 174.58C6.69853 175.024 5.90813 175.617 5.01893 175.913C4.74723 175.987 4.47553 175.592 4.72253 175.395Z" fill="#D9A72A"/>
<path d="M-2.34199 174.555C-1.27989 174.679 -0.24249 175 0.81961 175.222C2.00521 175.444 3.19082 175.592 4.37642 175.765C4.62342 175.815 4.57402 176.259 4.30232 176.235C2.10402 176.086 -0.440086 175.839 -2.46549 174.926C-2.63839 174.851 -2.53959 174.53 -2.34199 174.555Z" fill="#F0C04A"/>
<path d="M10.7987 163.959C11.268 162.6 11.6138 161.242 12.009 159.883C12.1819 159.266 13.1699 159.364 13.1699 160.056C13.1205 162.452 12.503 166.453 10.3788 167.935C10.1071 168.133 9.73662 167.886 9.73662 167.589C9.71192 166.33 10.4035 165.119 10.7987 163.959Z" fill="#FFD878"/>
<path d="M12.6511 157.364C12.7005 157.364 12.7581 157.364 12.824 157.364C13.4168 157.413 13.4168 158.253 12.824 158.302C12.7581 158.302 12.7005 158.302 12.6511 158.302C12.0583 158.327 12.0583 157.339 12.6511 157.364Z" fill="#FFD878"/>
<path d="M43.921 119.844C44.1186 119.153 45.1313 119.276 45.156 119.993C45.2301 124.562 45.7488 128.391 48.5399 132.219C48.7869 132.565 48.2435 132.96 47.9471 132.664C44.6867 129.552 42.5378 124.34 43.921 119.844Z" fill="#F77261"/>
<path d="M46.3417 117.646C46.5393 116.782 47.9225 116.782 48.1201 117.646C48.1448 117.794 48.1942 117.918 48.1695 118.066C48.1201 118.56 47.7743 119.029 47.2309 119.005C46.6875 118.98 46.3417 118.585 46.2923 118.066C46.2676 117.918 46.317 117.794 46.3417 117.646Z" fill="#F77261"/>
<path d="M42.2908 142.198C42.933 142.05 43.2541 142.89 42.7354 143.26C40.71 144.643 38.8081 145.903 37.4496 148.002C36.2146 149.954 35.8935 152.103 35.2266 154.252C35.0784 154.696 34.3868 154.746 34.288 154.252C33.0777 149.46 37.6472 143.26 42.2908 142.198Z" fill="#F77261"/>
<path d="M73.0671 134.738C74.1045 133.33 75.3148 132.071 76.1793 130.515C77.0191 128.959 77.192 127.106 78.0812 125.624C78.3776 125.155 79.2421 125.179 79.3656 125.797C79.7114 127.6 78.7234 129.625 77.8836 131.206C76.9697 132.935 75.6853 134.664 73.981 135.652C73.4376 135.973 72.6472 135.306 73.0671 134.738Z" fill="#F77261"/>
<path d="M87.0315 294.73C87.0315 301.028 107.453 306.12 132.645 306.12C157.81 306.12 178.232 301.028 178.232 294.73C178.232 288.459 157.81 283.367 132.645 283.367C107.453 283.367 87.0315 288.459 87.0315 294.73Z" fill="#C3DBDA"/>
<path d="M-21.0797 292.479C-21.0797 300.009 2.47749 306.12 31.5019 306.12C60.5263 306.12 84.0835 300.009 84.0835 292.479C84.0835 284.975 60.5263 278.864 31.5019 278.864C2.47749 278.864 -21.0797 284.975 -21.0797 292.479Z" fill="#C3DBDA"/>
<path d="M25.5794 284.358C25.5794 293.31 49.1098 300.572 78.1342 300.572C107.185 300.572 130.716 293.31 130.716 284.358C130.716 275.407 107.185 268.144 78.1342 268.144C49.1098 268.144 25.5794 275.407 25.5794 284.358Z" fill="#EDEBCC"/>
<path d="M49.3776 266.349L37.6392 177.641L102.549 195.115L89.4168 279.99L49.3776 266.349Z" fill="#D9A72A"/>
<path d="M37.639 177.641L100.833 197.955L138.782 173.674L79.7418 163.839L71.7554 166.465L61.0622 169.949L37.639 177.641Z" fill="#F0C04A"/>
<path d="M61.0626 269.511C58.8382 241.023 59.6422 210.31 60.7946 181.688C60.5266 181.759 60.2497 181.831 59.9638 181.902C66.2886 177.051 72.9618 173.246 79.8226 170.566L94.6162 176.435C87.7554 179.088 79.4474 183.296 73.1226 188.146C73.3906 188.075 73.6586 188.003 73.9266 187.932C72.7742 216.554 71.997 247.267 74.1946 275.756L61.0626 269.511Z" fill="#8FB73A"/>
<path d="M61.0623 169.949C65.4843 170.887 69.9867 171.584 74.3819 172.468C77.4371 173.085 80.7603 173.406 83.7083 174.344C88.8271 175.979 94.0263 174.291 99.1987 173.916C90.5155 170.003 81.2159 167.484 71.7555 166.465L61.0623 169.949Z" fill="#8FB73A"/>
<path d="M138.782 173.674L120.746 262.248L89.4166 279.99L102.549 195.114L138.782 173.674Z" fill="#BA8D1E"/>
<path d="M133.771 176.462C131.037 177.239 128.706 179.785 126.16 181.312C122.381 183.59 118.334 185.172 114.502 187.155C111.473 188.709 108.498 190.29 105.497 191.898C104.13 192.649 102.736 193.104 101.691 194.525C83.1991 190.103 64.8411 183.59 46.2687 180.24C46.0275 180.187 46.0008 180.723 46.2151 180.83C55.3272 186.056 65.0287 188.334 74.5963 190.907C83.3331 193.265 92.0967 195.409 100.834 197.955C100.19 202.324 99.8419 206.88 99.2523 211.248C98.4751 216.849 97.6711 222.45 96.8939 228.078C95.3931 238.718 93.8923 249.438 92.9543 260.212C92.9275 260.721 93.4635 260.801 93.5439 260.346C95.7415 249.358 97.2691 238.021 98.8503 226.792C99.6007 221.539 100.351 216.286 101.102 211.034C101.664 206.96 102.415 202.538 102.468 198.277C103.138 198.036 103.514 196.937 103.433 196.026C108.096 192.836 113.269 190.666 118.066 188.039C120.96 186.458 123.721 184.475 126.562 182.813C129.134 181.312 131.841 180.321 134.28 178.284C134.95 177.694 134.468 176.247 133.771 176.462Z" fill="#FFD878"/>
<path d="M90.3816 175.095C95.9024 176.328 100.405 179.49 105.926 180.723C110.562 181.741 115.734 183.537 119.915 185.734C119.754 185.708 124.016 183.912 123.855 183.832C126.91 182.626 126.615 181.259 129.67 180.026C120.987 177.882 111.527 174.746 102.683 173.353C100.485 172.978 98.2608 172.629 96.0632 172.897C93.8656 173.165 91.6412 174.13 90.3548 175.926C90.5871 175.765 90.8193 175.595 91.0516 175.416" fill="#6A872A"/>
<path d="M119.996 236.226C118.012 246.142 116.565 255.414 114.528 265.304C111.098 267.608 107.668 269.913 104.237 272.218C105.014 271.628 105.765 263.856 106.033 262.382C106.694 258.702 107.364 255.012 108.043 251.314C109.383 243.935 110.732 236.556 112.09 229.177C113.394 221.995 114.698 214.812 116.002 207.63C116.681 203.95 117.36 200.26 118.039 196.562C118.495 194.042 118.736 189.138 119.835 187.128C122.032 183.162 126.722 183.483 129.697 181.768C128.598 186.217 128.491 189.915 127.848 194.471C127.205 198.974 126.294 203.342 125.516 207.791C123.855 217.385 121.845 226.819 119.996 236.226Z" fill="#6A872A"/>
<path d="M74.3283 151.564C74.9715 155.835 75.6236 160.114 76.2847 164.402L74.3283 151.564Z" fill="#E6369F"/>
<path d="M85.4506 146.74C86.4154 148.107 86.9514 149.742 87.4338 151.35C89.819 159.202 91.427 167.269 92.2578 175.443C91.2662 176.033 89.8994 175.631 89.0686 174.8C88.2646 173.969 87.8358 172.844 87.4606 171.745C84.6913 163.991 81.9219 156.245 79.1526 148.509C77.5446 143.98 83.3334 143.712 85.4506 146.74Z" fill="#6A872A"/>
<path d="M71.1662 154.754C70.6034 152.1 71.059 147.732 73.739 146.151C74.8378 145.508 76.9282 145.293 78.2146 145.025C79.0722 144.838 83.0922 145.213 83.521 144.838C78.831 149.072 81.8058 156.469 83.4138 161.454C85.0218 166.412 87.8894 170.673 89.8994 175.416C86.6298 176.756 80.3586 170.378 78.4022 168.314C74.8378 164.536 72.265 159.819 71.1662 154.754Z" fill="#8FB73A"/>
<path d="M110.294 155.745C110.964 153.253 108.472 152.449 106.462 152.824C103.085 153.467 99.9492 155.745 97.6712 158.211C94.8572 161.239 92.8472 164.937 91.2124 168.743C90.3012 170.833 89.524 173.326 90.7032 175.309C94.0532 173.862 96.224 170.619 98.1268 167.51C100.056 164.401 102.093 161.105 105.336 159.417C106.274 158.934 107.319 158.613 108.23 158.077C109.142 157.567 109.999 156.79 110.294 155.745Z" fill="#6A872A"/>
<path d="M115.386 160.14C111.018 167.43 99.9491 177.158 90.7567 174.773C92.6863 171.825 96.5991 170.351 99.1719 167.966C102.361 164.991 106.167 161.346 107.185 156.924C107.534 155.397 107.292 153.682 106.194 152.556C108.579 152.476 110.964 152.878 113.188 153.762C114.555 154.298 116.029 155.209 116.351 156.656C116.619 157.862 116.029 159.068 115.386 160.14Z" fill="#8FB73A"/>
<path d="M100.78 172.924C99.1184 173.138 97.4836 173.648 95.822 173.969C93.9996 174.318 92.1504 174.559 90.3012 174.827C89.8992 174.88 89.9796 175.577 90.3816 175.55C93.812 175.336 97.7784 174.907 100.941 173.54C101.236 173.406 101.075 172.897 100.78 172.924Z" fill="#6A872A"/>
<path d="M81.1356 207.362L83.8424 206.478L86.2812 207.925L86.2544 205.057L88.3984 203.181L85.6916 202.324L84.566 199.697L82.9044 202.029L80.0636 202.297L81.752 204.602L81.1356 207.362Z" fill="#FFD878"/>
<path d="M72.2113 231.536L74.9181 230.625L77.3569 232.099L77.3301 229.231L79.4741 227.355L76.7673 226.498L75.6149 223.871L73.9801 226.203L71.1393 226.471L72.8277 228.749L72.2113 231.536Z" fill="#FFD878"/>
<path d="M75.0521 266.831L77.7321 265.947L80.1977 267.394L80.1709 264.527L82.3149 262.651L79.5813 261.793L78.4557 259.167L76.7941 261.498L73.9801 261.766L75.6685 264.071L75.0521 266.831Z" fill="#FFD878"/>
<path d="M84.4858 241.854L87.1926 240.943L89.6582 242.417L89.6314 239.549L91.7754 237.673L89.0418 236.815L87.9162 234.189L86.2546 236.521L83.4138 236.789L85.129 239.067L84.4858 241.854Z" fill="#FFD878"/>
<path d="M106.301 204.602L108.311 203.342L110.401 204.468L110.053 201.627L111.5 199.483L109.276 199L108.096 196.535L107.078 199.054L104.88 199.697L106.462 201.761L106.301 204.602Z" fill="#D9A72A"/>
<path d="M116.404 255.629L118.414 254.396L120.505 255.521L120.156 252.681L121.604 250.537L119.379 250.054L118.2 247.589L117.182 250.108L114.984 250.751L116.565 252.788L116.404 255.629Z" fill="#D9A72A"/>
<path d="M104.05 236.628L106.06 235.368L108.123 236.494L107.775 233.68L109.249 231.509L107.025 231.026L105.819 228.588L104.8 231.107L102.629 231.723L104.211 233.787L104.05 236.628Z" fill="#D9A72A"/>
<path d="M121.952 223.549L123.962 222.29L126.053 223.415L125.704 220.574L127.151 218.43L124.927 217.948L123.748 215.482L122.729 218.002L120.532 218.645L122.14 220.708L121.952 223.549Z" fill="#D9A72A"/>
<path d="M103.889 219.636L104.773 219.1L105.685 219.583L105.524 218.35L106.167 217.385L105.202 217.171L104.666 216.099L104.211 217.198L103.273 217.492L103.969 218.377L103.889 219.636Z" fill="#D9A72A"/>
<path d="M108.204 223.817L109.088 223.281L109.999 223.764L109.865 222.531L110.508 221.566L109.517 221.352L109.008 220.28L108.552 221.378L107.587 221.673L108.284 222.558L108.204 223.817Z" fill="#D9A72A"/>
<path d="M99.413 256.406L100.297 255.87L101.235 256.352L101.075 255.119L101.718 254.155L100.726 253.94L100.217 252.868L99.7614 253.967L98.7966 254.262L99.4934 255.146L99.413 256.406Z" fill="#D9A72A"/>
<path d="M99.413 244.614L100.297 244.051L101.235 244.56L101.075 243.301L101.718 242.363L100.726 242.148L100.217 241.076L99.7614 242.175L98.7966 242.443L99.4934 243.354L99.413 244.614Z" fill="#D9A72A"/>
<path d="M122.033 234.805L122.917 234.242L123.828 234.752L123.667 233.492L124.311 232.554L123.346 232.34L122.81 231.268L122.354 232.366L121.416 232.661L122.113 233.546L122.033 234.805Z" fill="#D9A72A"/>
<path d="M129.59 192.756L130.475 192.193L131.386 192.702L131.225 191.443L131.868 190.505L130.903 190.29L130.367 189.218L129.912 190.317L128.974 190.612L129.671 191.496L129.59 192.756Z" fill="#D9A72A"/>
<path d="M111.822 209.694L112.706 209.131L113.617 209.64L113.456 208.381L114.1 207.443L113.135 207.228L112.599 206.156L112.143 207.255L111.178 207.55L111.875 208.434L111.822 209.694Z" fill="#D9A72A"/>
<path d="M128.84 205.593L129.724 205.03L130.635 205.54L130.474 204.28L131.118 203.342L130.153 203.128L129.617 202.056L129.161 203.154L128.196 203.422L128.893 204.334L128.84 205.593Z" fill="#D9A72A"/>
<path d="M91.561 188.441L94.2678 188.549L96.4386 190.183L96.787 188.254L99.0918 187.53L96.5994 186.217L95.849 184.153L93.973 185.279L91.2126 184.689L92.5258 186.699L91.561 188.441Z" fill="#FFD878"/>
<path d="M61.4108 174.371L63.2332 174.451L64.6804 175.55L64.8948 174.237L66.4492 173.755L64.7876 172.897L64.2784 171.503L63.0188 172.254L61.1696 171.879L62.054 173.219L61.4108 174.371Z" fill="#FFD878"/>
<path d="M118.549 175.095L120.344 175.175L121.791 176.274L122.033 174.961L123.587 174.478L121.899 173.621L121.416 172.227L120.157 172.978L118.307 172.602L119.192 173.942L118.549 175.095Z" fill="#FFD878"/>
<path d="M52.6205 177.909L53.6925 177.936L54.5769 178.606L54.7109 177.828L55.6221 177.534L54.6305 177.024L54.3357 176.194L53.5853 176.649L52.4865 176.408L52.9957 177.212L52.6205 177.909Z" fill="#FFD878"/>
<path d="M93.4101 179.785L94.5089 179.838L95.3665 180.482L95.5005 179.704L96.4385 179.41L95.4201 178.9L95.1253 178.07L94.3749 178.525L93.2761 178.284L93.8121 179.088L93.4101 179.785Z" fill="#FFD878"/>
<path d="M52.5937 207.362L55.3005 206.478L57.7661 207.925L57.7393 205.057L59.8833 203.181L57.1497 202.324L56.0241 199.697L54.3625 202.029L51.5217 202.297L53.2369 204.602L52.5937 207.362Z" fill="#FFD878"/>
<path d="M47.2602 231.536L49.967 230.625L52.4326 232.099L52.4058 229.231L54.5498 227.355L51.8162 226.498L50.6906 223.871L49.029 226.203L46.1882 226.471L47.9034 228.749L47.2602 231.536Z" fill="#FFD878"/>
<path d="M52.6742 251.153L55.381 250.242L57.8198 251.716L57.793 248.848L59.937 246.972L57.2302 246.115L56.0778 243.488L54.443 245.82L51.6022 246.088L53.2906 248.366L52.6742 251.153Z" fill="#FFD878"/>
<path d="M54.6035 192.247L55.5683 191.925L56.4259 192.434V191.443L57.1763 190.773L56.2115 190.451L55.8095 189.54L55.2199 190.344L54.2283 190.451L54.8179 191.255L54.6035 192.247Z" fill="#FFD878"/>
<path d="M79.313 249.09L80.2778 248.768L81.1622 249.304L81.1354 248.286L81.9126 247.616L80.9478 247.321L80.5458 246.383L79.9562 247.214L78.9378 247.294L79.5542 248.125L79.313 249.09Z" fill="#FFD878"/>
<path d="M44.2587 210.364L45.2235 210.042L46.0811 210.551V209.56L46.8315 208.89L45.8667 208.568L45.4647 207.657L44.9019 208.461L43.8835 208.568L44.4731 209.372L44.2587 210.364Z" fill="#FFD878"/>
<path d="M45.7329 193.694L46.6977 193.372L47.5821 193.908L47.5553 192.89L48.3325 192.22L47.3677 191.925L46.9657 190.987L46.3761 191.818L45.3577 191.898L45.9741 192.729L45.7329 193.694Z" fill="#FFD878"/>
<path d="M53.1298 219.127L54.0946 218.805L54.9522 219.315V218.323L55.7026 217.653L54.7378 217.331L54.3358 216.42L53.7462 217.224L52.7546 217.331L53.3442 218.135L53.1298 219.127Z" fill="#FFD878"/>
<path d="M52.1919 258.684L53.1566 258.362L54.0143 258.872V257.853L54.7646 257.183L53.7999 256.888L53.3979 255.95L52.835 256.781L51.8166 256.888L52.4063 257.692L52.1919 258.684Z" fill="#FFD878"/>
<path d="M83.6279 217.841L84.5659 217.519L85.4503 218.028V217.01L86.2007 216.34L85.2359 216.045L84.8339 215.107L84.2443 215.938L83.2259 216.045L83.8423 216.849L83.6279 217.841Z" fill="#FFD878"/>
<path d="M89.6582 215.081L90.5962 214.759L91.4806 215.295V214.277L92.231 213.607L91.2662 213.312L90.8642 212.374L90.2746 213.205L89.2562 213.285L89.8726 214.089L89.6582 215.081Z" fill="#FFD878"/>
<path d="M119.674 183.832C121.255 183.054 122.836 182.304 124.418 181.554C125.838 180.857 127.312 179.892 128.866 179.651C129.724 179.517 130.555 180.535 129.778 181.232C128.625 182.331 127.044 182.894 125.624 183.59C124.042 184.368 122.488 185.145 120.907 185.922C119.513 186.592 118.28 184.528 119.674 183.832Z" fill="#8FB73A"/>
<path d="M61.1963 183.162C64.3319 184.1 67.4675 184.957 70.5495 185.922C74.8643 187.289 75.6951 187.101 73.8995 191.389C69.7723 189.594 64.3051 187.691 59.8295 187.101C59.4543 187.048 58.5163 182.384 61.1963 183.162Z" fill="#AED164"/>
<path d="M72.7205 156.79C72.8009 156.415 73.3638 156.147 73.6854 156.415C74.9718 157.38 75.2397 158.8 75.9365 160.221C76.9013 162.15 78.0537 164.026 79.3669 165.742C80.5997 167.35 81.9665 168.85 83.4673 170.217C84.9949 171.584 86.7905 172.683 88.1573 174.237C88.5057 174.639 88.1841 175.336 87.5945 175.175C83.7085 174.13 80.1977 170.19 77.7589 167.135C76.4993 165.554 75.3737 163.866 74.4089 162.07C73.5513 160.489 72.3185 158.64 72.7205 156.79Z" fill="#AED164"/>
<path d="M75.0518 151.537C75.4538 151.564 75.9362 151.913 75.8826 152.368C75.8826 152.44 75.8737 152.502 75.8558 152.556C75.829 152.985 75.5342 153.387 75.0518 153.36C74.5694 153.36 74.2746 153.011 74.2478 152.556C74.2299 152.502 74.221 152.44 74.221 152.368C74.1674 151.939 74.623 151.511 75.0518 151.537Z" fill="#AED164"/>
<path d="M12.3131 236.333L15.9579 251.85V251.877L16.6547 254.905L21.6395 276.131L22.3095 278.998L27.1335 299.608L43.9103 295.856L46.1347 295.346L61.8127 291.836L63.9835 291.353C64.0013 291.353 64.0103 291.353 64.0103 291.353L72.4255 289.45L74.4087 279.508L74.7571 277.792L77.4907 264.258L77.8123 262.543L80.0099 251.609L80.2779 250.323L81.7787 242.845L82.1539 241.023L83.8959 232.34L84.2443 230.678L85.7183 223.308L76.5795 224.943L74.2747 225.345L65.1627 226.953L62.6703 227.409L52.4863 229.204L50.3691 229.579L36.3259 232.072L33.7263 232.554L18.0215 235.341L15.9579 235.69L12.3131 236.333Z" fill="#BF2525"/>
<path d="M74.275 225.345C76.3654 226.765 78.5094 228.105 80.5194 229.633C81.6718 230.491 82.7974 231.429 83.8962 232.34L84.2446 230.678C81.8594 228.534 79.233 226.578 76.5798 224.943L74.275 225.345Z" fill="#D93D2A"/>
<path d="M62.6702 227.408C65.3502 229.418 68.0838 231.402 70.6834 233.492C74.4622 236.52 78.0534 239.763 81.7786 242.845L82.1538 241.023C78.7234 237.86 75.0518 234.939 71.4338 232.018C69.3702 230.356 67.2798 228.641 65.1626 226.953L62.6702 227.408Z" fill="#D93D2A"/>
<path d="M50.369 229.579C51.2266 230.205 52.0842 230.839 52.9418 231.482C56.1936 233.948 59.4542 236.404 62.7238 238.852C68.459 243.14 74.1942 247.428 80.0098 251.609L80.2778 250.322C75.025 246.195 69.6918 242.175 64.3586 238.155C61.1069 235.69 57.8462 233.233 54.5766 230.785C53.8798 230.267 53.183 229.74 52.4862 229.204L50.369 229.579Z" fill="#D93D2A"/>
<path d="M33.7265 232.554C36.0045 234.001 38.3361 235.395 40.5069 236.896C45.3845 240.272 50.2264 243.703 55.0325 247.187C62.6169 252.708 70.0941 258.443 77.4909 264.258L77.8125 262.543C71.0589 257.076 64.1177 251.77 57.0961 246.624C52.1917 243.033 47.2069 239.495 42.1685 236.038C40.2389 234.716 38.2914 233.394 36.3261 232.072L33.7265 232.554Z" fill="#D93D2A"/>
<path d="M15.9581 235.689C19.9781 238.825 24.4805 241.398 28.7149 244.265C33.2441 247.321 37.7197 250.429 42.1417 253.645C49.7529 259.166 64.4393 271.253 74.4089 279.507L74.7573 277.792C65.1897 269.591 51.3877 258.175 44.2589 252.949C39.5957 249.518 34.8521 246.168 30.0549 242.952C26.1421 240.326 22.2025 237.512 18.0217 235.341L15.9581 235.689Z" fill="#D93D2A"/>
<path d="M15.9578 251.877L16.6546 254.905C18.611 256.54 20.5942 258.148 22.5774 259.756C26.7046 263.106 30.8318 266.456 34.959 269.806C41.391 275.005 52.9686 284.921 61.8126 291.836L63.9834 291.353C55.2734 283.769 42.329 273.451 35.4146 267.85C31.1534 264.392 26.8922 260.935 22.6042 257.478C20.487 255.79 18.2894 253.646 15.9578 251.877Z" fill="#D93D2A"/>
<path d="M21.6396 276.131L22.3096 278.998C23.1404 279.615 23.9444 280.204 24.6948 280.794C27.1782 282.777 29.6706 284.752 32.172 286.717C36.058 289.718 39.8904 292.961 43.9104 295.856L46.1348 295.346C41.8468 291.594 37.13 288.244 32.6544 284.76C30.2424 282.858 27.7768 280.982 25.338 279.106C24.132 278.194 22.8992 277.096 21.6396 276.131Z" fill="#D93D2A"/>
<path d="M-28.7978 220.36L12.9298 236.333L33.9946 232.608L39.2206 231.67L48.3594 230.062H48.3862L53.2906 229.177L65.1094 227.087L67.3338 226.685L73.9802 225.506L76.4994 225.05L86.335 223.308L66.1278 216.581L56.721 213.446L37.9342 207.174L28.179 209.104L23.0066 210.122L12.9298 212.132C12.9298 212.132 12.9208 212.132 12.903 212.132L6.84616 213.312L-2.45345 215.161C-2.45345 215.161 -2.46237 215.161 -2.48024 215.161L-8.69785 216.394C-8.71571 216.394 -8.72464 216.394 -8.72464 216.394L-28.7978 220.36Z" fill="#F04832"/>
<path d="M5.15743 232.42C10.169 233.197 15.261 233.358 20.2726 234.055C21.023 234.162 20.7818 235.261 20.1118 235.314C15.0198 235.636 9.74023 234.778 4.70183 234.001C3.65663 233.84 4.11223 232.259 5.15743 232.42Z" fill="#F77261"/>
<path d="M-5.26779 228.561C2.14688 229.329 9.57049 230.088 17.003 230.839C20.7014 231.214 24.3998 231.589 28.125 231.964C30.0546 232.152 32.0378 232.42 33.9942 232.608L39.2202 231.67C35.7898 230.866 32.145 230.758 28.661 230.383C24.9358 230.008 21.2374 229.633 17.5122 229.284C9.92781 228.507 2.31661 227.784 -5.26779 227.033C-6.25939 226.953 -6.23259 228.454 -5.26779 228.561Z" fill="#F77261"/>
<path d="M-21.7495 221.405C-9.44827 223.362 3.04054 224.514 15.3953 226.042C21.7469 226.819 28.0717 227.596 34.3965 228.346C39.0061 228.909 43.6961 229.686 48.3593 230.062H48.3861L53.2905 229.177C47.3409 227.676 41.0161 227.248 34.9325 226.47C28.7685 225.702 22.6135 224.934 16.4673 224.166C3.81774 222.611 -8.83186 220.628 -21.5083 219.529C-22.5803 219.422 -22.8215 221.218 -21.7495 221.405Z" fill="#F77261"/>
<path d="M-8.69801 216.394C3.89799 217.385 16.4672 218.779 28.9828 220.655C41.0696 222.45 53.0492 224.996 65.1092 227.087L67.3336 226.685C67.3604 226.444 67.2264 226.202 66.878 226.122C54.3088 222.718 41.284 220.682 28.3932 218.806C18.1377 217.305 7.85546 216.09 -2.45361 215.161C-2.45361 215.161 -2.46253 215.161 -2.4804 215.161L-8.69801 216.394Z" fill="#F77261"/>
<path d="M6.84582 213.312C12.3666 214.384 18.0482 214.866 23.569 215.724C29.465 216.635 35.3432 217.636 41.2034 218.725C47.2245 219.815 53.2366 221.003 59.2398 222.29C64.1174 223.335 69.0218 224.755 73.9798 225.506L76.499 225.05C76.4722 224.809 76.3382 224.541 76.0702 224.434C70.3886 222.343 64.1174 221.379 58.1946 220.146C52.3701 218.913 46.5277 217.761 40.6674 216.689C34.6285 215.599 28.5806 214.589 22.5238 213.66C19.3614 213.151 16.1454 212.588 12.9294 212.133C12.9294 212.133 12.9205 212.133 12.9026 212.133L6.84582 213.312Z" fill="#F77261"/>
<path d="M23.0062 210.122C30.6978 211.355 38.3626 212.615 46.0542 213.74C50.0474 214.33 54.0406 214.919 58.0606 215.455C60.6602 215.804 63.4206 216.393 66.1274 216.581L56.7206 213.445C53.1473 212.945 49.5829 212.427 46.0274 211.891C40.0778 211.007 34.1282 210.095 28.1786 209.104L23.0062 210.122Z" fill="#F77261"/>
<path d="M-22.9825 222.45C-19.9005 223.013 -17.3009 224.916 -14.3797 226.068C-10.1185 227.757 -5.56248 228.936 -1.19408 230.41C2.18272 231.562 5.58633 232.742 8.96313 233.948C10.4907 234.51 12.0719 234.859 13.2511 235.904C34.1819 232.608 54.9251 227.757 75.9631 225.264C76.2311 225.238 76.2311 225.613 76.0167 225.693C65.6987 229.579 54.7375 231.294 43.9103 233.224C34.0211 234.966 24.1051 236.574 14.2427 238.477C14.9663 241.72 15.3415 245.123 16.0383 248.366C16.9227 252.547 17.8071 256.728 18.6915 260.908C20.3799 268.841 22.0951 276.828 23.1403 284.868C23.1939 285.27 22.5775 285.296 22.4703 284.975C20.0047 276.774 18.2627 268.332 16.4671 259.944C15.6363 256.031 14.7787 252.145 13.9479 248.232C13.3047 245.177 12.4471 241.88 12.3935 238.691C11.6431 238.53 11.2143 237.7 11.2947 237.03C6.01511 234.644 0.172729 233.036 -5.24087 231.08C-8.51047 229.901 -11.6193 228.427 -14.8621 227.194C-17.7833 226.068 -20.8385 225.318 -23.5721 223.79C-24.3493 223.362 -23.7865 222.29 -22.9825 222.45Z" fill="#F77261"/>
<path d="M59.2133 292.479C61.7325 271.253 60.8213 247.669 59.5349 226.336C59.8386 226.39 60.1423 226.444 60.4461 226.497C53.2905 222.879 45.7597 220.065 37.9877 218.055L23.1405 222.718C30.8857 224.702 38.4165 227.542 45.5721 231.16C45.2683 231.107 44.9646 231.053 44.6609 231C45.9741 252.332 46.8585 274.55 44.3661 295.775L59.2133 292.479Z" fill="#D6C48B"/>
<path d="M16.0918 221.834C21.9342 222.263 27.8302 224.166 33.5922 222.316C36.9422 221.244 40.6942 220.896 44.1514 220.199C51.0926 218.806 58.3286 217.814 65.1626 215.938C61.223 213.312 54.7642 212.749 50.1814 213.097C38.443 214.008 26.8386 216.983 16.0918 221.834Z" fill="#E2D4A7"/>
<path d="M-28.6638 220.36L-28.1278 222.129L-27.5382 224.031L-21.6422 243.113L-20.9722 245.311V245.337L-15.103 264.312L-14.1918 267.26V267.287L-8.29581 286.395L18.0754 296.231L20.5678 297.169L27.1338 299.607L12.3134 236.333L-28.6638 220.36Z" fill="#D93D2A"/>
<path d="M-28.1281 222.129L-27.5385 224.032C-24.7513 226.39 -21.4817 228.32 -18.5069 230.41C-14.7728 233.019 -11.0386 235.636 -7.30451 238.263C0.0654945 243.435 7.32829 249.385 15.2343 253.753C15.6899 253.994 16.1991 253.378 15.7971 253.003C9.2043 247.267 1.45909 242.604 -5.69651 237.566C-9.43064 234.957 -13.1648 232.34 -16.8989 229.713C-20.5437 227.167 -24.1349 224.085 -28.1281 222.129Z" fill="#F04832"/>
<path d="M-21.6422 243.113L-20.9722 245.311V245.337C-14.701 249.554 -8.55483 253.931 -2.53376 258.469C5.23824 264.339 12.4742 270.851 20.2194 276.693C20.7286 277.069 21.2914 276.265 20.8626 275.863C14.109 269.109 6.20304 263.293 -1.38136 257.531C-8.00096 252.52 -14.7546 247.723 -21.6422 243.113Z" fill="#F04832"/>
<path d="M-15.1034 264.312L-14.1922 267.26V267.287C-13.3078 267.93 -12.3966 268.573 -11.5658 269.243C-10.0293 270.458 -8.50167 271.691 -6.98301 272.942C-3.98141 275.434 -1.00662 278.007 1.91458 280.607C7.46218 285.618 12.5542 291.166 18.075 296.231L20.5674 297.169C20.5942 297.008 20.5406 296.847 20.4334 296.713C15.261 290.067 8.66819 284.305 2.42379 278.704C-0.738615 275.881 -3.96354 273.12 -7.25101 270.423C-9.66301 268.466 -12.2626 265.84 -15.1034 264.312Z" fill="#F04832"/>
<path d="M26.0616 223.174C19.8083 224.567 13.5638 225.952 7.32838 227.328C2.07558 228.507 -3.52562 228.051 -8.24242 230.544C-8.04588 230.508 -7.84935 230.455 -7.65281 230.383C-11.1011 228.989 -14.5583 227.605 -18.0244 226.229C-8.18882 223.79 2.12918 222.772 12.1524 221.191C14.618 220.789 17.1372 220.387 19.6296 220.681C22.122 220.976 24.6412 222.075 26.0884 224.112C25.8204 223.915 25.5613 223.728 25.3112 223.549" fill="#ECE1C3"/>
<path d="M-7.41177 266.992C-5.13377 274.362 -3.49896 281.652 -1.19416 289.049C2.79904 290.817 10.6246 293.471 10.4102 293.363C9.52583 292.935 8.66824 287.575 8.37344 286.503C7.60517 283.751 6.84584 281 6.09544 278.248C4.55891 272.745 3.0313 267.242 1.51263 261.739C0.0296974 256.379 -1.45323 251.028 -2.93616 245.686C-3.68656 242.935 -4.4459 240.183 -5.21416 237.432C-5.72336 235.556 -5.99136 231.884 -7.25096 230.383C-9.71656 227.435 -15.023 227.677 -18.3998 226.39C-17.167 229.713 -17.033 232.474 -16.3094 235.877C-15.559 239.227 -14.5406 242.497 -13.683 245.793C-11.807 252.922 -9.55577 259.944 -7.41177 266.992Z" fill="#ECE1C3"/>
<path d="M44.2319 196.535C43.4815 201.395 42.7311 206.245 41.9807 211.087L44.2319 196.535Z" fill="#00B2C5"/>
<path d="M31.6362 191.094C30.5374 192.649 29.9478 194.498 29.385 196.32C26.6782 205.191 24.8558 214.33 23.9446 223.549C25.0702 224.219 26.5978 223.764 27.5358 222.826C28.4738 221.914 28.9294 220.628 29.385 219.368C32.5116 210.614 35.6294 201.859 38.7382 193.104C40.5606 187.986 34.0482 187.664 31.6362 191.094Z" fill="#D6C48B"/>
<path d="M47.7698 200.153C48.413 197.178 47.9306 192.22 44.8754 190.451C43.6158 189.701 41.2842 189.46 39.8102 189.165C38.8454 188.951 34.2894 189.379 33.8338 188.951C39.1134 193.748 35.7634 202.109 33.941 207.737C32.1186 213.365 28.8758 218.163 26.6246 223.549C30.2962 225.05 37.3982 217.841 39.5958 215.483C43.6426 211.248 46.5638 205.888 47.7698 200.153Z" fill="#ECE1C3"/>
<path d="M3.54934 201.305C2.77214 198.491 5.61294 197.553 7.89094 197.982C11.6965 198.706 15.2341 201.305 17.8069 204.066C20.9961 207.496 23.2741 211.677 25.1233 215.965C26.1417 218.35 27.0261 221.164 25.7129 223.388C21.9073 221.754 19.4685 218.082 17.2977 214.571C15.1269 211.06 12.8221 207.335 9.15053 205.459C8.07853 204.896 6.92614 204.521 5.88094 203.932C4.83574 203.342 3.87094 202.458 3.54934 201.305Z" fill="#D6C48B"/>
<path d="M-2.21238 206.263C2.71882 214.491 15.2612 225.506 25.6328 222.799C23.462 219.476 19.0132 217.814 16.1188 215.107C12.5008 211.73 8.18602 207.63 7.06042 202.618C6.65842 200.903 6.92643 198.947 8.15923 197.687C5.47923 197.58 2.77242 198.062 0.280022 199.054C-1.30118 199.67 -2.93599 200.662 -3.31119 202.324C-3.60599 203.69 -2.93598 205.057 -2.21238 206.263Z" fill="#ECE1C3"/>
<path d="M14.2966 220.735C16.1994 220.949 18.0486 221.512 19.8978 221.887C21.9882 222.289 24.0786 222.584 26.169 222.879C26.6246 222.933 26.5174 223.71 26.035 223.683C22.1758 223.442 17.7002 222.959 14.109 221.405C13.7874 221.244 13.9482 220.681 14.2966 220.735Z" fill="#E2D4A7"/>
<path d="M44.9556 230.115C46.912 229.07 49.2704 228.829 51.4412 228.32C53.88 227.757 56.3456 227.06 58.838 226.712C59.8564 226.578 60.2852 227.944 59.2668 228.266C56.8816 229.07 54.3892 229.552 51.9504 230.142C49.7796 230.651 47.5284 231.509 45.304 231.455C44.6072 231.455 44.2856 230.464 44.9556 230.115Z" fill="#ECE1C3"/>
<path d="M2.98684 206.424C5.15764 210.551 7.99844 213.419 11.4824 216.447C12.0452 216.93 11.3216 217.653 10.7588 217.385C6.63164 215.509 3.22805 211.436 1.45925 207.335C1.00365 206.29 2.45084 205.379 2.98684 206.424Z" fill="#FFFCF5"/>
<path d="M1.53949 201.895C2.12909 201.895 2.6919 202.431 2.6651 203.02C2.6383 203.637 2.15589 204.146 1.53949 204.146C0.949892 204.146 0.387089 203.637 0.413889 203.02C0.440689 202.431 0.896292 201.895 1.53949 201.895Z" fill="#FFFCF5"/>
<path d="M35.5487 206.987C36.0311 204.548 37.6123 202.458 38.1483 199.965C38.7647 197.258 38.6843 194.552 38.5235 191.791C38.4967 191.175 39.4347 191.068 39.5955 191.657C40.4263 194.364 40.3995 197.205 39.8903 199.992C39.4347 202.431 38.5503 205.942 36.5135 207.55C36.0579 207.898 35.4147 207.576 35.5487 206.987Z" fill="#FFFCF5"/>
<path d="M97.9464 294.387L86.1812 235.883L151.091 247.407L137.959 303.365L97.9464 294.387Z" fill="#8FB73A"/>
<path d="M85.6112 236.306L128.438 222.048L187.451 233.706L150.521 247.83L85.6112 236.306Z" fill="#A4CC4B"/>
<path d="M109.597 296.874C107.373 278.114 108.177 257.853 109.329 238.986C109.061 239.04 108.793 239.084 108.525 239.12C114.85 235.931 121.497 233.438 128.357 231.67L141.516 235.797C134.655 237.566 127.982 240.058 121.657 243.247C121.925 243.194 122.193 243.149 122.461 243.113C121.309 261.98 120.532 282.241 122.729 301.001L109.597 296.874Z" fill="#D93D2A"/>
<path d="M147.733 235.019C142.561 235.395 137.362 237.056 132.27 235.448C129.295 234.483 125.972 234.189 122.917 233.572C116.779 232.339 110.374 231.455 104.344 229.793C107.828 227.462 113.537 226.979 117.583 227.301C127.982 228.078 138.219 230.731 147.733 235.019Z" fill="#F04832"/>
<path d="M187.317 233.707L169.281 292.104L137.952 303.789L151.084 247.83L187.317 233.707Z" fill="#6A872A"/>
<path d="M182.305 235.529C179.572 236.065 177.267 237.726 174.694 238.745C170.915 240.246 166.895 241.291 163.036 242.604C160.035 243.622 157.033 244.668 154.058 245.74C152.691 246.222 151.271 246.517 150.226 247.455C131.734 244.534 113.376 240.246 94.8034 238.048C94.5622 237.994 94.5622 238.343 94.7498 238.423C103.862 241.854 113.563 243.381 123.131 245.07C131.868 246.624 140.658 248.044 149.368 249.733C148.725 252.6 148.403 255.602 147.787 258.47C147.001 262.168 146.215 265.866 145.429 269.565C143.955 276.586 142.427 283.635 141.516 290.764C141.462 291.085 141.998 291.139 142.079 290.844C144.276 283.581 145.804 276.131 147.412 268.707C148.135 265.25 148.913 261.793 149.636 258.336C150.199 255.656 150.949 252.734 151.003 249.92C151.673 249.76 152.048 249.036 151.968 248.446C156.658 246.329 161.83 244.909 166.601 243.167C169.495 242.148 172.255 240.835 175.123 239.736C177.696 238.745 180.376 238.075 182.815 236.735C183.485 236.36 183.002 235.422 182.305 235.529Z" fill="#B4D66D"/>
<path d="M138.916 236.199C144.437 237.414 149.967 238.638 155.505 239.871C160.115 240.889 165.073 240.514 169.254 242.711C169.075 242.676 168.905 242.631 168.745 242.577C171.8 241.345 174.855 240.121 177.91 238.906C169.227 236.735 160.061 235.851 151.244 234.43C149.047 234.082 146.822 233.733 144.598 234.001C142.4 234.269 140.176 235.207 138.889 237.03C139.122 236.851 139.354 236.681 139.586 236.521" fill="#F04832"/>
<path d="M168.53 274.925C166.547 281.491 165.1 287.574 163.063 294.114C159.633 295.632 156.202 297.151 152.772 298.67C153.549 298.294 154.3 293.149 154.568 292.184C155.246 289.754 155.916 287.324 156.578 284.894C157.935 280.017 159.284 275.148 160.624 270.288C161.929 265.554 163.242 260.828 164.564 256.111C165.225 253.664 165.895 251.225 166.574 248.795C167.03 247.133 167.271 243.917 168.396 242.577C170.567 239.978 175.257 240.165 178.232 239.04C177.133 241.988 177.026 244.426 176.383 247.428C175.74 250.376 174.828 253.27 174.078 256.192C172.39 262.516 170.406 268.761 168.53 274.925Z" fill="#BF2525"/>
<path d="M122.863 212.642C123.524 216.93 124.177 221.218 124.82 225.506L122.863 212.642Z" fill="#E6369F"/>
<path d="M133.985 207.844C134.95 209.211 135.486 210.846 135.995 212.454C138.354 220.28 139.988 228.373 140.792 236.52C139.801 237.137 138.434 236.708 137.63 235.904C136.799 235.073 136.37 233.921 135.995 232.822C133.226 225.086 130.457 217.341 127.687 209.586C126.079 205.084 131.868 204.789 133.985 207.844Z" fill="#BF2525"/>
<path d="M119.701 215.831C119.138 213.204 119.594 208.809 122.274 207.255C123.399 206.612 125.463 206.37 126.749 206.102C127.607 205.915 131.654 206.317 132.056 205.942C127.392 210.176 130.34 217.573 131.948 222.531C133.556 227.516 136.424 231.777 138.434 236.52C135.164 237.86 128.893 231.482 126.937 229.392C123.372 225.64 120.8 220.923 119.701 215.831Z" fill="#F04832"/>
<path d="M158.829 216.849C159.526 214.357 157.006 213.526 154.996 213.901C151.62 214.545 148.484 216.849 146.206 219.315C143.392 222.343 141.382 226.015 139.747 229.821C138.836 231.938 138.086 234.43 139.238 236.387C142.588 234.939 144.759 231.697 146.688 228.588C148.591 225.479 150.628 222.183 153.871 220.521C154.836 220.039 155.854 219.717 156.765 219.181C157.703 218.645 158.534 217.868 158.829 216.849Z" fill="#D93D2A"/>
<path d="M163.921 221.217C159.552 228.507 148.484 238.262 139.291 235.85C141.221 232.929 145.134 231.455 147.707 229.07C150.896 226.095 154.728 222.45 155.72 218.001C156.068 216.501 155.827 214.759 154.755 213.633C157.113 213.579 159.499 213.981 161.723 214.839C163.117 215.402 164.564 216.286 164.885 217.733C165.153 218.939 164.564 220.172 163.921 221.217Z" fill="#F04832"/>
<path d="M127.741 238.53C129.724 237.887 131.761 237.592 133.825 237.646C134.816 237.646 137.014 237.592 135.325 235.716C134.923 235.261 134.387 234.993 133.825 234.778C128.384 232.581 121.202 233.331 116.163 236.306C110.669 239.576 107.185 245.981 107.427 252.359C107.507 254.61 108.016 256.862 108.043 259.113C108.097 261.364 107.561 263.803 105.926 265.357C109.061 264.875 111.875 262.543 112.894 259.515C112.805 261.837 112.715 264.151 112.626 266.456C115.52 266.322 117.825 263.803 118.683 261.042C119.54 258.309 119.326 255.334 119.219 252.466C119.085 249.599 119.138 246.57 120.505 244.024C121.952 241.264 124.766 239.442 127.741 238.53Z" fill="#BF2525"/>
<path d="M127.232 237.03C129.242 236.574 131.305 236.44 133.342 236.601C134.334 236.708 136.531 236.788 135.004 234.805C134.629 234.323 134.093 234.028 133.557 233.76C128.304 231.16 121.068 231.375 115.842 233.974C110.107 236.815 106.167 242.926 105.926 249.331C105.845 251.582 106.167 253.833 106.033 256.111C105.899 258.362 105.202 260.721 103.46 262.168C106.623 261.927 109.597 259.81 110.83 256.862C110.58 259.166 110.33 261.471 110.08 263.776C112.947 263.856 115.44 261.498 116.512 258.818C117.584 256.165 117.557 253.19 117.664 250.322C117.771 247.428 118.039 244.426 119.567 241.988C121.229 239.361 124.177 237.753 127.232 237.03Z" fill="#F04832"/>
<path d="M138.273 235.341C135.539 233.17 131.761 231.402 127.955 230.785C127.687 230.642 127.428 230.499 127.178 230.356C126.347 229.794 125.65 229.124 124.953 228.427C124.712 228.186 124.257 228.507 124.471 228.802C124.9 229.418 125.489 230.035 126.133 230.571C123.56 230.41 121.041 230.812 118.87 232.045C118.521 232.232 118.736 232.822 119.138 232.688C122.461 231.482 125.731 231.214 129.161 232.179C130.823 232.608 132.404 233.278 133.905 234.055C135.218 234.752 136.424 235.69 137.817 236.118C138.246 236.252 138.648 235.636 138.273 235.341Z" fill="#D93D2A"/>
<path d="M149.315 234.028C147.653 234.216 146.018 234.725 144.357 235.047C142.534 235.422 140.685 235.663 138.836 235.931C138.434 235.985 138.514 236.681 138.943 236.655C142.347 236.413 146.313 236.011 149.476 234.618C149.77 234.484 149.636 234.001 149.315 234.028Z" fill="#BF2525"/>
<path d="M134.923 259.3C135.245 259.274 135.459 259.381 135.754 259.488C136.504 259.836 136.504 261.176 135.754 261.498C135.459 261.632 135.245 261.739 134.923 261.712C134.307 261.632 133.717 261.203 133.744 260.506C133.771 259.783 134.253 259.381 134.923 259.3Z" fill="#B4D66D"/>
<path d="M127.258 270.288C127.848 270.315 128.464 270.798 128.411 271.441C128.411 271.476 128.402 271.512 128.384 271.548C128.357 272.138 127.902 272.7 127.258 272.674C126.615 272.647 126.186 272.191 126.133 271.548C126.133 271.512 126.133 271.476 126.133 271.441C126.079 270.851 126.696 270.288 127.258 270.288Z" fill="#B4D66D"/>
<path d="M134.253 283.983C135.379 283.983 135.379 285.698 134.253 285.698C133.154 285.698 133.154 283.983 134.253 283.983Z" fill="#B4D66D"/>
<path d="M101.718 287.655C101.754 287.601 101.789 287.548 101.825 287.494C102.227 286.824 103.165 286.824 103.594 287.494C103.63 287.548 103.665 287.601 103.701 287.655C104.157 288.405 103.567 289.37 102.71 289.37C101.852 289.37 101.236 288.405 101.718 287.655Z" fill="#B4D66D"/>
<path d="M96.6259 275.246C97.9659 275.246 97.9659 277.337 96.6259 277.337C95.2859 277.337 95.2591 275.246 96.6259 275.246Z" fill="#B4D66D"/>
<path d="M102.281 269.699C102.263 269.717 102.254 269.726 102.254 269.726C102.79 269.056 103.889 269.645 103.889 270.422C103.889 271.2 102.79 271.789 102.254 271.092C102.254 271.11 102.263 271.128 102.281 271.146C101.745 270.824 101.745 270.02 102.281 269.699Z" fill="#B4D66D"/>
<path d="M95.7148 252.842C96.8672 252.842 96.8672 254.637 95.7148 254.637C94.5624 254.637 94.5624 252.842 95.7148 252.842Z" fill="#B4D66D"/>
<path d="M101.236 249.358C101.53 248.849 102.093 248.849 102.388 249.358C102.629 249.787 102.308 250.349 101.798 250.349C101.289 250.349 100.968 249.787 101.236 249.358Z" fill="#B4D66D"/>
<path d="M157.542 254.074C157.623 253.538 157.971 253.002 158.588 253.029C159.231 253.056 159.552 253.512 159.633 254.074C159.686 254.342 159.606 254.584 159.445 254.798C159.016 255.441 158.159 255.441 157.73 254.798C157.596 254.584 157.516 254.342 157.542 254.074Z" fill="#B4D66D"/>
<path d="M152.745 265.277C154.112 265.277 154.139 267.448 152.745 267.448C151.351 267.448 151.351 265.277 152.745 265.277Z" fill="#B4D66D"/>
<path d="M153.415 279.749C154.755 279.749 154.755 281.839 153.415 281.839C152.075 281.839 152.075 279.749 153.415 279.749Z" fill="#B4D66D"/>
<path d="M168.477 284.144C168.494 284.108 168.503 284.073 168.503 284.037C168.691 283.152 170.111 283.152 170.326 284.037C170.326 284.073 170.326 284.108 170.326 284.144C170.46 284.734 170.058 285.35 169.415 285.35C168.771 285.35 168.369 284.734 168.477 284.144Z" fill="#B4D66D"/>
<path d="M178.205 253.217C179.438 253.217 179.438 255.173 178.205 255.173C176.972 255.173 176.946 253.217 178.205 253.217Z" fill="#B4D66D"/>
<path d="M127.258 249.652C127.312 249.652 127.357 249.652 127.392 249.652C128.598 249.599 128.598 251.582 127.392 251.528C127.357 251.528 127.312 251.528 127.258 251.528C126.079 251.475 126.052 249.706 127.258 249.652Z" fill="#B4D66D"/>
<path d="M145.536 242.068C146.099 242.068 146.635 242.577 146.608 243.14C146.581 243.729 146.126 244.239 145.536 244.239C144.973 244.239 144.41 243.729 144.437 243.14C144.464 242.577 144.92 242.068 145.536 242.068Z" fill="#B4D66D"/>
<path d="M134.709 240.433C135.593 240.433 135.593 241.8 134.709 241.8C133.824 241.8 133.824 240.433 134.709 240.433Z" fill="#B4D66D"/>
<path d="M167.163 234.778C167.181 234.743 167.19 234.716 167.19 234.698C167.485 233.84 168.637 233.84 168.932 234.698C168.95 234.716 168.959 234.743 168.959 234.778C169.173 235.368 168.637 235.984 168.075 235.984C167.485 235.984 166.976 235.368 167.163 234.778Z" fill="#B4D66D"/>
<path d="M160.062 231.348C160.097 231.33 160.124 231.312 160.142 231.294C160.758 230.973 161.562 231.375 161.562 232.098C161.562 232.822 160.758 233.251 160.142 232.902C160.124 232.902 160.097 232.894 160.062 232.876C159.499 232.554 159.499 231.67 160.062 231.348Z" fill="#B4D66D"/>
<path d="M109.168 233.439C109.329 233.171 109.651 232.983 109.972 232.983C110.008 232.983 110.053 232.983 110.106 232.983C111.286 233.01 111.286 234.805 110.106 234.832C110.053 234.832 110.008 234.832 109.972 234.832C109.651 234.832 109.329 234.645 109.168 234.377C109.008 234.055 109.008 233.76 109.168 233.439Z" fill="#B4D66D"/>
<path d="M100.646 235.314C100.673 235.261 100.673 235.18 100.7 235.02C100.807 234.43 101.423 233.948 102.04 234.162C102.227 234.216 102.334 234.35 102.522 234.43C102.361 234.305 102.361 234.305 102.522 234.43C102.611 234.484 102.674 234.555 102.71 234.644C103.004 234.993 103.004 235.368 102.924 235.797C102.817 236.386 102.04 236.788 101.477 236.601C100.914 236.413 100.566 235.877 100.646 235.314Z" fill="#B4D66D"/>
<path d="M105.658 312.391L113.832 271.736L77.4907 279.749L77.8391 318.636L105.658 312.391Z" fill="#D6C48B"/>
<path d="M114.341 271.628L85.102 262.061L52.2184 269.538L77.3032 280.178L114.341 271.628Z" fill="#ECE1C3"/>
<path d="M98.1804 314.508C99.708 301.457 99.172 286.958 98.368 273.853C98.5466 273.888 98.7342 273.915 98.9308 273.933C94.5356 271.736 89.8992 269.994 85.1288 268.761L75.99 271.628C80.7604 272.861 85.3968 274.603 89.792 276.801C89.6133 276.765 89.4257 276.738 89.2292 276.72C90.0332 289.826 90.5692 303.494 89.0416 316.545L98.1804 314.508Z" fill="#BA8D1E"/>
<path d="M71.6752 271.092C75.2664 271.333 78.8844 272.513 82.422 271.387C84.4856 270.717 86.7904 270.503 88.9076 270.074C93.1956 269.216 97.6444 268.6 101.825 267.447C99.4132 265.839 95.4468 265.491 92.6328 265.705C85.3968 266.268 78.268 268.091 71.6752 271.092Z" fill="#D9A72A"/>
<path d="M52.2988 269.538L56.694 310.756L78.4556 318.904L78.134 279.99L52.2988 269.538Z" fill="#ECE1C3"/>
<path d="M78.1338 272.138L68.6198 276.158L69.2362 315.446L63.367 313.249L61.3302 273.317L74.0066 270.074L78.1338 272.138Z" fill="#F0C04A"/>
<path d="M88.9614 255.548C88.4969 258.514 88.0413 261.489 87.5946 264.473L88.9614 255.548Z" fill="#00B2C5"/>
<path d="M81.2161 252.198C80.5461 253.136 80.1709 254.289 79.8493 255.387C78.1877 260.855 77.0621 266.456 76.4993 272.137C77.1961 272.539 78.1342 272.271 78.6969 271.682C79.2865 271.119 79.5545 270.342 79.8225 269.565C81.7521 264.187 83.6728 258.8 85.5845 253.404C86.7101 250.269 82.6901 250.081 81.2161 252.198Z" fill="#BA8D1E"/>
<path d="M91.159 257.746C91.5342 255.924 91.2394 252.868 89.3634 251.796C88.5862 251.341 87.1658 251.18 86.2546 250.992C85.6382 250.858 82.851 251.126 82.5562 250.885C85.8258 253.806 83.7622 258.952 82.6366 262.409C81.511 265.866 79.5278 268.841 78.1342 272.138C80.4122 273.076 84.7538 268.627 86.1206 267.18C88.613 264.553 90.3818 261.284 91.159 257.746Z" fill="#F0C04A"/>
<path d="M63.957 258.47C63.4746 256.728 65.2166 256.165 66.6102 256.406C68.9686 256.862 71.1394 258.443 72.7206 260.158C74.677 262.275 76.0974 264.848 77.223 267.474C77.8394 268.948 78.3754 270.664 77.5714 272.03C75.2398 271.039 73.739 268.788 72.399 266.617C71.059 264.446 69.6654 262.168 67.3874 261.016C66.7442 260.667 66.0206 260.453 65.3774 260.078C64.7342 259.702 64.1446 259.166 63.957 258.47Z" fill="#BA8D1E"/>
<path d="M60.4192 261.498C63.4476 266.563 71.1392 273.344 77.5444 271.655C76.2044 269.645 73.4708 268.6 71.702 266.938C69.4776 264.875 66.8244 262.356 66.1008 259.274C65.8596 258.202 66.0472 256.996 66.7976 256.218C65.136 256.165 63.4744 256.46 61.9468 257.076C60.982 257.451 59.9636 258.068 59.7492 259.086C59.5616 259.917 59.9636 260.774 60.4192 261.498Z" fill="#F0C04A"/>
<path d="M85.5578 273.531C84.191 273.075 82.7706 272.888 81.3502 272.915C80.6534 272.915 79.1258 272.861 80.305 271.575C80.573 271.253 80.9482 271.065 81.3502 270.931C85.129 269.377 90.1138 269.913 93.6246 271.977C97.4302 274.255 99.869 278.703 99.6814 283.152C99.6278 284.707 99.2794 286.261 99.2526 287.842C99.2258 289.397 99.601 291.085 100.727 292.184C98.529 291.835 96.5994 290.227 95.9026 288.11C95.9562 289.718 96.0098 291.326 96.0634 292.934C94.0534 292.854 92.4722 291.085 91.8558 289.182C91.2662 287.279 91.427 285.216 91.5074 283.206C91.5878 281.223 91.5342 279.132 90.5962 277.363C89.6046 275.434 87.6214 274.174 85.5578 273.531Z" fill="#BA8D1E"/>
<path d="M85.9326 272.486C84.5122 272.164 83.0918 272.057 81.6714 272.191C80.9746 272.245 79.447 272.325 80.519 270.931C80.787 270.61 81.1622 270.395 81.5106 270.208C85.1822 268.412 90.1938 268.546 93.8386 270.369C97.8318 272.325 100.565 276.586 100.726 281.035C100.807 282.589 100.565 284.171 100.646 285.752C100.753 287.306 101.235 288.968 102.441 289.959C100.244 289.799 98.1802 288.325 97.3226 286.288C97.5013 287.878 97.6799 289.468 97.8586 291.058C95.8486 291.139 94.1334 289.504 93.383 287.628C92.6326 285.779 92.6326 283.715 92.579 281.705C92.4986 279.722 92.311 277.631 91.239 275.943C90.0866 274.094 88.0498 272.968 85.9326 272.486Z" fill="#D9A72A"/>
<path d="M78.2413 271.307C80.1441 269.806 82.7705 268.573 85.4237 268.144C85.6024 268.055 85.781 267.957 85.9597 267.85C86.5493 267.474 87.0317 266.992 87.5141 266.51C87.6749 266.322 87.9965 266.563 87.8357 266.751C87.5409 267.206 87.1389 267.635 86.6833 268.01C88.4521 267.876 90.2209 268.171 91.7485 269.002C91.9897 269.136 91.8289 269.565 91.5609 269.458C89.2293 268.627 86.9781 268.439 84.5661 269.109C83.4405 269.431 82.3417 269.886 81.2965 270.422C80.3853 270.905 79.5277 271.548 78.5629 271.87C78.2681 271.95 77.9733 271.521 78.2413 271.307Z" fill="#D9A72A"/>
<path d="M70.5766 270.396C71.729 270.53 72.8546 270.878 74.007 271.119C75.2934 271.361 76.5798 271.521 77.8662 271.709C78.1342 271.763 78.0806 272.245 77.7858 272.218C75.4006 272.057 72.6402 271.789 70.4426 270.798C70.255 270.717 70.3622 270.369 70.5766 270.396Z" fill="#F0C04A"/>
<path d="M63.2601 261.471C64.0105 263.91 65.5381 265.679 67.8161 266.777C68.3789 267.045 68.0037 268.01 67.3873 267.796C64.7877 266.885 62.6437 264.553 62.0273 261.819C61.8665 261.015 63.0189 260.694 63.2601 261.471Z" fill="#FFD878"/>
<path d="M61.411 258.711C61.4288 258.675 61.4556 258.648 61.4914 258.63C61.7326 258.389 62.1078 258.389 62.349 258.63C62.3847 258.648 62.4115 258.675 62.4294 258.711C62.8314 259.166 62.5634 259.944 61.9202 259.944C61.277 259.944 61.009 259.166 61.411 258.711Z" fill="#FFD878"/>
<path d="M84.8339 258.898C85.3431 257.424 85.7183 255.95 86.1471 254.476C86.3347 253.806 87.4067 253.914 87.4067 254.664C87.3531 257.264 86.6831 261.605 84.3783 263.213C84.0835 263.428 83.6815 263.16 83.6815 262.838C83.6547 261.471 84.4051 260.158 84.8339 258.898Z" fill="#FFD878"/>
<path d="M86.8442 251.743C86.8978 251.743 86.9603 251.743 87.0318 251.743C87.675 251.797 87.675 252.708 87.0318 252.761C86.9603 252.761 86.8978 252.761 86.8442 252.761C86.201 252.788 86.201 251.716 86.8442 251.743Z" fill="#FFD878"/>
<path d="M63.769 273.076C64.841 273.531 65.913 274.014 66.9582 274.469C67.8158 274.844 68.9146 275.166 69.3434 276.05C69.4774 276.318 69.3434 276.64 69.0486 276.747C68.1106 277.042 67.1458 276.479 66.2614 276.104C65.1894 275.675 64.1174 275.22 63.0454 274.764C61.8394 274.255 62.5362 272.54 63.769 273.076Z" fill="#FFD878"/>
<path d="M120.773 211.034C120.987 210.283 122.086 210.417 122.113 211.194C122.193 216.152 122.756 220.306 125.785 224.46C126.053 224.836 125.463 225.264 125.141 224.943C121.604 221.566 119.272 215.911 120.773 211.034Z" fill="#F77261"/>
<path d="M123.399 208.649C123.614 207.711 125.114 207.711 125.329 208.649C125.356 208.809 125.409 208.943 125.382 209.104C125.329 209.64 124.954 210.149 124.364 210.123C123.774 210.096 123.399 209.667 123.346 209.104C123.319 208.943 123.372 208.809 123.399 208.649Z" fill="#F77261"/>
<path d="M119.004 235.288C119.701 235.127 120.049 236.038 119.486 236.44C117.289 237.941 115.225 239.308 113.751 241.586C112.411 243.703 112.063 246.034 111.339 248.366C111.178 248.848 110.428 248.902 110.321 248.366C109.008 243.167 113.966 236.44 119.004 235.288Z" fill="#F77261"/>
<path d="M152.397 227.194C153.522 225.666 154.836 224.3 155.774 222.611C156.685 220.923 156.872 218.913 157.837 217.305C158.159 216.796 159.097 216.822 159.231 217.492C159.606 219.449 158.534 221.646 157.623 223.362C156.631 225.238 155.238 227.114 153.388 228.186C152.799 228.534 151.941 227.81 152.397 227.194Z" fill="#F77261"/>
</svg>
