<svg width="191" height="291" viewBox="0 0 191 291" fill="none" xmlns="http://www.w3.org/2000/svg">
<path d="M199.176 196.982C199.176 202.787 180.355 207.48 157.137 207.48C133.943 207.48 115.122 202.787 115.122 196.982C115.122 191.203 133.943 186.51 157.137 186.51C180.355 186.51 199.176 191.203 199.176 196.982Z" fill="#C3DBDA"/>
<path d="M255.813 187.424C255.813 195.673 234.127 202.367 207.376 202.367C180.602 202.367 158.915 195.673 158.915 187.424C158.915 179.174 180.602 172.48 207.376 172.48C234.127 172.48 255.813 179.174 255.813 187.424Z" fill="#EDEBCC"/>
<path d="M237.091 209.802C237.091 215.607 221.851 220.3 203.054 220.3C184.257 220.3 169.018 215.607 169.018 209.802C169.018 204.022 184.257 199.305 203.054 199.305C221.851 199.305 237.091 204.022 237.091 209.802Z" fill="#C3DBDA"/>
<path d="M233.88 170.825L244.698 89.0682L184.875 105.173L196.978 183.398L233.88 170.825Z" fill="#D9A72A"/>
<path d="M244.698 89.0682L186.456 107.791L151.48 85.4126L205.895 76.3477L213.255 78.7683L223.11 81.9793L244.698 89.0682Z" fill="#F0C04A"/>
<path d="M223.111 81.9792C219.035 82.8437 214.885 83.4859 210.835 84.301C208.019 84.8691 204.956 85.1655 202.239 86.03C197.521 87.5367 192.73 85.9806 187.962 85.6348C195.965 82.0286 204.536 79.7068 213.255 78.7682L223.111 81.9792Z" fill="#8FB73A"/>
<path d="M151.48 85.4125L168.104 167.046L196.978 183.397L184.875 105.173L151.48 85.4125Z" fill="#BA8D1E"/>
<path d="M156.099 87.9814C158.619 88.6977 160.768 91.0442 163.114 92.4521C166.597 94.5516 170.326 96.0089 173.859 97.8367C176.65 99.2693 179.391 100.727 182.158 102.209C183.417 102.9 184.702 103.32 185.665 104.629C202.708 100.554 219.628 94.5516 236.745 91.4641C236.967 91.4147 236.992 91.9087 236.794 92.0075C228.396 96.824 219.455 98.9235 210.637 101.295C202.585 103.468 194.508 105.444 186.456 107.791C187.048 111.817 187.369 116.016 187.913 120.042C188.629 125.204 189.37 130.367 190.086 135.554C191.47 145.36 192.853 155.24 193.717 165.169C193.742 165.638 193.248 165.712 193.174 165.292C191.149 155.165 189.741 144.717 188.283 134.368C187.592 129.527 186.9 124.686 186.209 119.844C185.69 116.09 184.998 112.015 184.949 108.087C184.331 107.865 183.986 106.852 184.06 106.012C179.762 103.073 174.995 101.072 170.573 98.6518C167.906 97.1945 165.362 95.3667 162.744 93.8353C160.372 92.4521 157.878 91.5382 155.63 89.661C155.012 89.1176 155.457 87.7838 156.099 87.9814Z" fill="#FFD878"/>
<path d="M196.089 86.7216C191 87.8578 186.851 90.7724 181.763 91.9086C177.49 92.8472 172.722 94.5021 168.869 96.5275C169.017 96.5028 165.09 94.8479 165.238 94.7738C162.423 93.6623 162.694 92.4026 159.878 91.2664C167.881 89.2904 176.6 86.4005 184.751 85.1161C186.777 84.7703 188.827 84.4492 190.852 84.6962C192.878 84.9432 194.928 85.8324 196.113 87.4873C195.899 87.3391 195.685 87.1827 195.471 87.018" fill="#6A872A"/>
<path d="M168.795 143.063C170.623 152.202 171.957 160.748 173.834 169.862C176.995 171.986 180.157 174.11 183.319 176.235C182.602 175.691 181.911 168.528 181.664 167.17C181.054 163.778 180.437 160.377 179.811 156.969C178.576 150.168 177.333 143.367 176.081 136.567C174.879 129.947 173.677 123.327 172.475 116.708C171.849 113.316 171.224 109.915 170.598 106.507C170.178 104.185 169.956 99.6647 168.943 97.8122C166.918 94.1566 162.595 94.453 159.854 92.8722C160.866 96.9724 160.965 100.381 161.558 104.58C162.151 108.73 162.99 112.756 163.707 116.856C165.238 125.698 167.091 134.393 168.795 143.063Z" fill="#6A872A"/>
<path d="M177.736 68.888C177.119 66.5909 179.416 65.8499 181.268 66.1957C184.381 66.7885 187.271 68.888 189.37 71.1604C191.964 73.9515 193.816 77.3601 195.323 80.8675C196.163 82.7941 196.879 85.0912 195.792 86.919C192.705 85.5852 190.704 82.5965 188.95 79.7313C187.172 76.8661 185.295 73.828 182.306 72.2719C181.441 71.8273 180.478 71.5309 179.638 71.0369C178.798 70.5676 178.008 69.8513 177.736 68.888Z" fill="#6A872A"/>
<path d="M173.044 72.9389C177.07 79.6573 187.271 88.6234 195.743 86.4251C193.964 83.7081 190.358 82.3496 187.987 80.1513C185.048 77.4096 181.54 74.0504 180.602 69.9749C180.281 68.567 180.503 66.9862 181.516 65.9488C179.317 65.8747 177.119 66.2452 175.069 67.0603C173.809 67.5543 172.451 68.3941 172.154 69.7279C171.907 70.8394 172.451 71.9509 173.044 72.9389Z" fill="#8FB73A"/>
<path d="M186.505 84.721C188.036 84.9186 189.543 85.3879 191.074 85.6843C192.754 86.0054 194.458 86.2277 196.162 86.4747C196.533 86.5241 196.459 87.1663 196.088 87.1416C192.927 86.944 189.271 86.5488 186.357 85.2891C186.085 85.1656 186.233 84.6963 186.505 84.721Z" fill="#6A872A"/>
<path d="M181.417 113.917L179.564 112.756L177.638 113.793L177.959 111.175L176.625 109.199L178.675 108.754L179.762 106.482L180.701 108.804L182.726 109.396L181.269 111.298L181.417 113.917Z" fill="#D9A72A"/>
<path d="M172.105 160.945L170.252 159.809L168.326 160.846L168.647 158.228L167.313 156.252L169.363 155.808L170.45 153.535L171.388 155.857L173.414 156.45L171.957 158.327L172.105 160.945Z" fill="#D9A72A"/>
<path d="M183.492 143.433L181.639 142.272L179.737 143.309L180.058 140.716L178.7 138.715L180.75 138.271L181.861 136.023L182.8 138.345L184.801 138.913L183.343 140.815L183.492 143.433Z" fill="#D9A72A"/>
<path d="M166.992 131.379L165.139 130.218L163.213 131.256L163.534 128.638L162.2 126.662L164.25 126.217L165.337 123.945L166.276 126.266L168.301 126.859L166.819 128.761L166.992 131.379Z" fill="#D9A72A"/>
<path d="M183.64 127.773L182.825 127.279L181.985 127.724L182.133 126.587L181.541 125.698L182.43 125.501L182.924 124.513L183.344 125.525L184.208 125.797L183.566 126.612L183.64 127.773Z" fill="#D9A72A"/>
<path d="M179.663 131.626L178.848 131.132L178.008 131.577L178.132 130.441L177.539 129.552L178.453 129.354L178.922 128.366L179.342 129.379L180.231 129.65L179.589 130.465L179.663 131.626Z" fill="#D9A72A"/>
<path d="M187.765 161.661L186.95 161.167L186.085 161.612L186.233 160.476L185.641 159.587L186.555 159.389L187.024 158.401L187.444 159.414L188.333 159.685L187.691 160.5L187.765 161.661Z" fill="#D9A72A"/>
<path d="M187.765 150.793L186.95 150.275L186.085 150.744L186.233 149.583L185.641 148.719L186.555 148.521L187.024 147.533L187.444 148.546L188.333 148.793L187.691 149.632L187.765 150.793Z" fill="#D9A72A"/>
<path d="M166.918 141.753L166.103 141.235L165.263 141.704L165.411 140.543L164.818 139.678L165.708 139.481L166.202 138.493L166.621 139.506L167.486 139.777L166.844 140.592L166.918 141.753Z" fill="#D9A72A"/>
<path d="M159.953 102.999L159.137 102.48L158.298 102.95L158.446 101.789L157.853 100.924L158.742 100.727L159.236 99.7385L159.656 100.751L160.521 101.023L159.878 101.838L159.953 102.999Z" fill="#D9A72A"/>
<path d="M176.329 118.61L175.513 118.091L174.674 118.56L174.822 117.399L174.229 116.535L175.118 116.337L175.612 115.349L176.032 116.362L176.921 116.634L176.279 117.449L176.329 118.61Z" fill="#D9A72A"/>
<path d="M160.644 114.83L159.829 114.311L158.989 114.781L159.137 113.62L158.544 112.755L159.434 112.558L159.928 111.57L160.348 112.582L161.237 112.829L160.595 113.669L160.644 114.83Z" fill="#D9A72A"/>
<path d="M195.002 99.0224L192.507 99.1212L190.506 100.628L190.185 98.8495L188.061 98.1826L190.358 96.9723L191.05 95.0704L192.779 96.1078L195.323 95.5644L194.113 97.4169L195.002 99.0224Z" fill="#FFD878"/>
<path d="M170.129 86.7217L168.474 86.7958L167.14 87.8085L166.918 86.5982L165.485 86.1536L167.041 85.3632L167.486 84.0788L168.647 84.7704L170.351 84.4246L169.536 85.6596L170.129 86.7217Z" fill="#FFD878"/>
<path d="M193.297 91.0442L192.285 91.0936L191.494 91.6864L191.371 90.9701L190.506 90.6984L191.445 90.2291L191.717 89.4634L192.408 89.8833L193.421 89.661L192.927 90.402L193.297 91.0442Z" fill="#FFD878"/>
<path d="M169.092 94.774C167.634 94.0577 166.177 93.3661 164.72 92.6745C163.411 92.0323 162.052 91.1431 160.62 90.9208C159.829 90.7973 159.063 91.7359 159.78 92.3781C160.842 93.3908 162.299 93.9095 163.608 94.5517C165.066 95.268 166.498 95.9843 167.955 96.7006C169.24 97.3181 170.376 95.4162 169.092 94.774Z" fill="#8FB73A"/>
<path d="M189.123 197.056L199.966 143.136L140.143 153.757L152.246 205.331L189.123 197.056Z" fill="#8FB73A"/>
<path d="M200.485 143.136L161.014 129.996L106.625 140.741L140.662 153.757L200.485 143.136Z" fill="#A4CC4B"/>
<path d="M178.379 198.959C180.429 181.669 179.688 162.995 178.626 145.607C178.873 145.656 179.12 145.697 179.367 145.73C173.537 142.791 167.412 140.494 161.089 138.864L148.961 142.667C155.284 144.298 161.434 146.595 167.264 149.534C167.017 149.485 166.77 149.443 166.523 149.41C167.585 166.799 168.301 185.472 166.276 202.762L178.379 198.959Z" fill="#D93D2A"/>
<path d="M143.23 141.951C147.998 142.297 152.789 143.828 157.482 142.346C160.224 141.457 163.287 141.185 166.103 140.617C171.759 139.481 177.662 138.666 183.22 137.134C180.009 134.985 174.748 134.541 171.018 134.837C161.434 135.553 151.999 137.999 143.23 141.951Z" fill="#F04832"/>
<path d="M106.749 140.741L123.372 194.562L152.246 205.331L140.143 153.758L106.749 140.741Z" fill="#6A872A"/>
<path d="M111.367 142.42C113.887 142.914 116.011 144.446 118.382 145.384C121.865 146.767 125.57 147.731 129.127 148.941C131.893 149.88 134.659 150.843 137.401 151.831C138.661 152.275 139.97 152.547 140.933 153.412C157.976 150.719 174.896 146.767 192.013 144.742C192.235 144.693 192.235 145.014 192.062 145.088C183.664 148.249 174.723 149.657 165.905 151.213C157.853 152.646 149.751 153.955 141.724 155.511C142.316 158.154 142.613 160.92 143.181 163.563C143.905 166.972 144.63 170.381 145.355 173.789C146.713 180.261 148.121 186.757 148.961 193.327C149.01 193.623 148.516 193.673 148.442 193.401C146.417 186.707 145.009 179.841 143.527 172.999C142.86 169.812 142.144 166.626 141.477 163.44C140.958 160.97 140.266 158.278 140.217 155.684C139.599 155.536 139.254 154.869 139.328 154.326C135.005 152.374 130.238 151.065 125.842 149.46C123.174 148.521 120.63 147.311 117.987 146.298C115.616 145.384 113.146 144.767 110.898 143.532C110.281 143.186 110.725 142.321 111.367 142.42Z" fill="#B4D66D"/>
<path d="M151.357 143.038C146.269 144.158 141.172 145.286 136.068 146.422C131.819 147.36 127.25 147.015 123.397 149.04C123.561 149.007 123.718 148.966 123.866 148.916C121.05 147.78 118.234 146.652 115.418 145.533C123.421 143.532 131.869 142.717 139.995 141.408C142.02 141.087 144.07 140.765 146.121 141.012C148.146 141.259 150.196 142.124 151.382 143.804C151.168 143.639 150.954 143.482 150.739 143.334" fill="#F04832"/>
<path d="M124.063 178.729C125.891 184.781 127.225 190.388 129.102 196.415C132.264 197.814 135.425 199.214 138.587 200.614C137.871 200.268 137.179 195.525 136.932 194.636C136.306 192.397 135.689 190.157 135.08 187.918C133.828 183.422 132.585 178.935 131.35 174.456C130.148 170.093 128.938 165.737 127.719 161.39C127.11 159.134 126.492 156.886 125.867 154.647C125.447 153.115 125.224 150.151 124.187 148.916C122.186 146.521 117.864 146.693 115.122 145.656C116.135 148.373 116.234 150.621 116.826 153.387C117.419 156.104 118.259 158.772 118.951 161.464C120.507 167.293 122.334 173.048 124.063 178.729Z" fill="#BF2525"/>
<path d="M166.152 121.326C165.543 125.278 164.942 129.23 164.349 133.182L166.152 121.326Z" fill="#E6369F"/>
<path d="M155.902 116.905C155.013 118.165 154.519 119.671 154.049 121.153C151.876 128.366 150.369 135.825 149.628 143.334C150.542 143.902 151.802 143.507 152.543 142.766C153.308 142 153.703 140.938 154.049 139.925C156.602 132.795 159.154 125.657 161.706 118.511C163.188 114.361 157.853 114.089 155.902 116.905Z" fill="#BF2525"/>
<path d="M169.067 124.266C169.585 121.845 169.165 117.794 166.695 116.362C165.658 115.769 163.756 115.547 162.57 115.3C161.78 115.127 158.05 115.497 157.68 115.151C161.978 119.054 159.261 125.871 157.779 130.441C156.297 135.035 153.654 138.962 151.801 143.334C154.815 144.569 160.594 138.691 162.398 136.764C165.683 133.306 168.054 128.959 169.067 124.266Z" fill="#F04832"/>
<path d="M133.005 125.205C132.363 122.907 134.684 122.142 136.537 122.488C139.649 123.08 142.539 125.205 144.638 127.477C147.232 130.268 149.084 133.652 150.591 137.159C151.431 139.111 152.123 141.408 151.06 143.211C147.973 141.877 145.972 138.888 144.194 136.023C142.44 133.158 140.563 130.12 137.574 128.588C136.685 128.144 135.746 127.847 134.907 127.353C134.042 126.859 133.276 126.143 133.005 125.205Z" fill="#D93D2A"/>
<path d="M128.312 129.23C132.338 135.949 142.539 144.939 151.011 142.716C149.233 140.024 145.626 138.666 143.255 136.467C140.316 133.726 136.784 130.367 135.87 126.266C135.549 124.883 135.771 123.278 136.759 122.24C134.585 122.191 132.387 122.561 130.337 123.352C129.053 123.87 127.719 124.686 127.422 126.019C127.175 127.131 127.719 128.267 128.312 129.23Z" fill="#F04832"/>
<path d="M161.657 145.187C159.829 144.594 157.952 144.322 156.05 144.372C155.136 144.372 153.111 144.322 154.667 142.593C155.037 142.173 155.531 141.926 156.05 141.729C161.064 139.703 167.684 140.395 172.327 143.137C177.391 146.15 180.602 152.053 180.379 157.932C180.305 160.007 179.836 162.081 179.811 164.156C179.762 166.231 180.256 168.479 181.763 169.911C178.873 169.467 176.279 167.318 175.341 164.527C175.423 166.667 175.505 168.8 175.588 170.924C172.92 170.801 170.796 168.479 170.005 165.935C169.215 163.415 169.413 160.674 169.511 158.031C169.635 155.388 169.585 152.597 168.326 150.25C166.992 147.706 164.398 146.026 161.657 145.187Z" fill="#BF2525"/>
<path d="M162.126 143.803C160.273 143.383 158.371 143.26 156.494 143.408C155.58 143.507 153.555 143.581 154.963 141.753C155.309 141.309 155.803 141.037 156.297 140.79C161.138 138.394 167.807 138.592 172.623 140.988C177.909 143.606 181.54 149.237 181.762 155.141C181.836 157.215 181.54 159.29 181.664 161.39C181.787 163.465 182.429 165.638 184.035 166.972C181.12 166.75 178.378 164.798 177.242 162.081C177.473 164.206 177.703 166.33 177.934 168.454C175.291 168.528 172.994 166.354 172.006 163.884C171.018 161.439 171.043 158.697 170.944 156.055C170.845 153.387 170.598 150.621 169.19 148.373C167.659 145.952 164.942 144.47 162.126 143.803Z" fill="#F04832"/>
<path d="M151.95 142.247C154.469 140.247 157.952 138.616 161.459 138.048C161.706 137.917 161.945 137.785 162.175 137.653C162.941 137.134 163.583 136.517 164.226 135.875C164.448 135.652 164.868 135.949 164.67 136.22C164.275 136.789 163.732 137.357 163.139 137.851C165.51 137.702 167.832 138.073 169.832 139.209C170.154 139.382 169.956 139.925 169.585 139.802C166.523 138.69 163.509 138.443 160.348 139.333C158.816 139.728 157.359 140.345 155.976 141.062C154.765 141.704 153.654 142.568 152.37 142.964C151.974 143.087 151.604 142.519 151.95 142.247Z" fill="#D93D2A"/>
<path d="M141.773 141.037C143.304 141.21 144.811 141.679 146.343 141.976C148.022 142.322 149.726 142.544 151.431 142.791C151.801 142.84 151.727 143.482 151.332 143.458C148.195 143.235 144.539 142.865 141.625 141.581C141.353 141.457 141.477 141.012 141.773 141.037Z" fill="#BF2525"/>
<path d="M155.037 164.329C154.741 164.304 154.543 164.403 154.272 164.502C153.58 164.823 153.58 166.058 154.272 166.354C154.543 166.478 154.741 166.577 155.037 166.552C155.605 166.478 156.149 166.083 156.124 165.441C156.099 164.774 155.655 164.403 155.037 164.329Z" fill="#B4D66D"/>
<path d="M162.101 174.456C161.558 174.481 160.99 174.925 161.039 175.518C161.039 175.551 161.047 175.584 161.064 175.617C161.089 176.16 161.508 176.679 162.101 176.654C162.694 176.63 163.089 176.21 163.139 175.617C163.139 175.584 163.139 175.551 163.139 175.518C163.188 174.975 162.62 174.456 162.101 174.456Z" fill="#B4D66D"/>
<path d="M155.655 187.078C154.617 187.078 154.617 188.658 155.655 188.658C156.667 188.658 156.667 187.078 155.655 187.078Z" fill="#B4D66D"/>
<path d="M163.139 193.969C161.632 193.969 161.632 196.315 163.139 196.315C164.646 196.315 164.646 193.969 163.139 193.969Z" fill="#B4D66D"/>
<path d="M185.641 190.462C185.608 190.412 185.575 190.363 185.542 190.314C185.171 189.696 184.307 189.696 183.912 190.314C183.879 190.363 183.846 190.412 183.813 190.462C183.393 191.153 183.936 192.043 184.727 192.043C185.517 192.043 186.085 191.153 185.641 190.462Z" fill="#B4D66D"/>
<path d="M190.333 179.026C189.098 179.026 189.098 180.952 190.333 180.952C191.568 180.952 191.593 179.026 190.333 179.026Z" fill="#B4D66D"/>
<path d="M185.122 173.913C185.138 173.929 185.146 173.937 185.146 173.937C184.652 173.32 183.64 173.863 183.64 174.58C183.64 175.296 184.652 175.839 185.146 175.197C185.146 175.214 185.138 175.23 185.122 175.247C185.616 174.95 185.616 174.209 185.122 173.913Z" fill="#B4D66D"/>
<path d="M191.174 158.376C190.111 158.376 190.111 160.031 191.174 160.031C192.236 160.031 192.236 158.376 191.174 158.376Z" fill="#B4D66D"/>
<path d="M186.085 155.165C185.813 154.696 185.295 154.696 185.023 155.165C184.801 155.561 185.097 156.079 185.566 156.079C186.036 156.079 186.332 155.561 186.085 155.165Z" fill="#B4D66D"/>
<path d="M134.19 159.513C134.116 159.019 133.795 158.525 133.227 158.549C132.634 158.574 132.338 158.994 132.264 159.513C132.214 159.76 132.288 159.982 132.437 160.18C132.832 160.772 133.622 160.772 134.017 160.18C134.141 159.982 134.215 159.76 134.19 159.513Z" fill="#B4D66D"/>
<path d="M138.612 169.837C137.352 169.837 137.327 171.838 138.612 171.838C139.896 171.838 139.896 169.837 138.612 169.837Z" fill="#B4D66D"/>
<path d="M137.994 183.175C136.759 183.175 136.759 185.102 137.994 185.102C139.229 185.102 139.229 183.175 137.994 183.175Z" fill="#B4D66D"/>
<path d="M144.12 198.119C144.021 197.872 143.922 197.674 143.725 197.501C143.404 197.23 142.984 197.23 142.638 197.501C142.44 197.674 142.341 197.872 142.267 198.119C142.07 198.712 142.588 199.304 143.181 199.304C143.799 199.304 144.293 198.712 144.12 198.119Z" fill="#B4D66D"/>
<path d="M124.113 187.226C124.096 187.193 124.088 187.16 124.088 187.127C123.915 186.312 122.606 186.312 122.408 187.127C122.408 187.16 122.408 187.193 122.408 187.226C122.285 187.769 122.655 188.338 123.248 188.338C123.841 188.338 124.212 187.769 124.113 187.226Z" fill="#B4D66D"/>
<path d="M115.147 158.722C114.01 158.722 114.01 160.525 115.147 160.525C116.283 160.525 116.307 158.722 115.147 158.722Z" fill="#B4D66D"/>
<path d="M162.102 155.437C162.052 155.437 162.011 155.437 161.978 155.437C160.867 155.388 160.867 157.216 161.978 157.166C162.011 157.166 162.052 157.166 162.102 157.166C163.188 157.117 163.213 155.487 162.102 155.437Z" fill="#B4D66D"/>
<path d="M145.256 148.447C144.737 148.447 144.243 148.916 144.268 149.435C144.293 149.978 144.713 150.448 145.256 150.448C145.775 150.448 146.293 149.978 146.269 149.435C146.244 148.916 145.824 148.447 145.256 148.447Z" fill="#B4D66D"/>
<path d="M155.235 146.94C154.42 146.94 154.42 148.2 155.235 148.2C156.05 148.2 156.05 146.94 155.235 146.94Z" fill="#B4D66D"/>
<path d="M125.323 141.728C125.306 141.696 125.298 141.671 125.298 141.654C125.027 140.864 123.964 140.864 123.693 141.654C123.676 141.671 123.668 141.696 123.668 141.728C123.47 142.272 123.964 142.84 124.483 142.84C125.027 142.84 125.496 142.272 125.323 141.728Z" fill="#B4D66D"/>
<path d="M131.869 138.567C131.836 138.551 131.811 138.534 131.794 138.518C131.226 138.221 130.485 138.592 130.485 139.259C130.485 139.926 131.226 140.321 131.794 140C131.811 140 131.836 139.991 131.869 139.975C132.387 139.679 132.387 138.864 131.869 138.567Z" fill="#B4D66D"/>
<path d="M178.774 140.494C178.626 140.247 178.329 140.074 178.033 140.074C178 140.074 177.959 140.074 177.909 140.074C176.823 140.098 176.823 141.753 177.909 141.778C177.959 141.778 178 141.778 178.033 141.778C178.329 141.778 178.626 141.605 178.774 141.358C178.922 141.062 178.922 140.79 178.774 140.494Z" fill="#B4D66D"/>
<path d="M186.628 142.223C186.604 142.173 186.604 142.099 186.579 141.951C186.48 141.408 185.912 140.963 185.344 141.161C185.171 141.21 185.072 141.333 184.899 141.408C185.048 141.292 185.048 141.292 184.899 141.408C184.817 141.457 184.759 141.523 184.727 141.605C184.455 141.926 184.455 142.272 184.529 142.667C184.628 143.211 185.344 143.581 185.863 143.408C186.381 143.235 186.703 142.741 186.628 142.223Z" fill="#B4D66D"/>
<path d="M182.01 213.26L174.476 175.79L207.969 183.175L207.648 219.015L182.01 213.26Z" fill="#D6C48B"/>
<path d="M174.007 175.691L200.955 166.873L231.261 173.764L208.142 183.57L174.007 175.691Z" fill="#ECE1C3"/>
<path d="M188.901 215.211C187.493 203.182 187.987 189.819 188.728 177.741C188.564 177.774 188.391 177.799 188.209 177.815C192.26 175.79 196.533 174.184 200.93 173.048L209.353 175.691C204.956 176.827 200.683 178.433 196.632 180.458C196.797 180.425 196.97 180.4 197.151 180.384C196.41 192.462 195.916 205.059 197.324 217.088L188.901 215.211Z" fill="#BA8D1E"/>
<path d="M213.329 175.197C210.019 175.419 206.685 176.506 203.424 175.469C201.522 174.851 199.398 174.654 197.447 174.258C193.495 173.468 189.395 172.9 185.542 171.838C187.765 170.356 191.42 170.035 194.014 170.232C200.683 170.751 207.253 172.431 213.329 175.197Z" fill="#D9A72A"/>
<path d="M200.534 177.445C201.794 177.025 203.103 176.852 204.412 176.876C205.054 176.876 206.462 176.827 205.376 175.641C205.129 175.345 204.783 175.172 204.412 175.049C200.93 173.616 196.335 174.11 193.1 176.012C189.592 178.111 187.345 182.212 187.517 186.312C187.567 187.744 187.888 189.177 187.913 190.634C187.937 192.067 187.592 193.623 186.554 194.636C188.58 194.315 190.358 192.833 191 190.881C190.951 192.363 190.901 193.845 190.852 195.327C192.704 195.253 194.162 193.623 194.73 191.869C195.273 190.116 195.125 188.214 195.051 186.361C194.977 184.533 195.026 182.607 195.891 180.977C196.805 179.198 198.632 178.037 200.534 177.445Z" fill="#BA8D1E"/>
<path d="M200.189 176.481C201.498 176.185 202.807 176.086 204.116 176.21C204.758 176.259 206.166 176.333 205.178 175.049C204.931 174.752 204.585 174.555 204.264 174.382C200.88 172.727 196.262 172.85 192.902 174.53C189.222 176.333 186.703 180.26 186.554 184.361C186.48 185.793 186.703 187.25 186.629 188.708C186.53 190.14 186.085 191.672 184.974 192.586C186.999 192.437 188.901 191.079 189.691 189.202C189.527 190.667 189.362 192.133 189.197 193.598C191.05 193.672 192.631 192.166 193.322 190.437C194.014 188.732 194.014 186.831 194.063 184.978C194.137 183.15 194.31 181.224 195.298 179.668C196.36 177.963 198.238 176.926 200.189 176.481Z" fill="#D9A72A"/>
<path d="M168.079 119.844C167.881 119.153 166.869 119.276 166.844 119.993C166.77 124.562 166.251 128.391 163.46 132.219C163.213 132.565 163.756 132.96 164.053 132.664C167.313 129.552 169.462 124.34 168.079 119.844Z" fill="#F77261"/>
<path d="M165.658 117.646C165.461 116.782 164.077 116.782 163.88 117.646C163.855 117.794 163.806 117.918 163.83 118.066C163.88 118.56 164.226 119.029 164.769 119.005C165.312 118.98 165.658 118.585 165.708 118.066C165.732 117.918 165.683 117.794 165.658 117.646Z" fill="#F77261"/>
<path d="M169.709 142.198C169.067 142.05 168.746 142.89 169.265 143.26C171.29 144.643 173.192 145.903 174.55 148.002C175.785 149.954 176.107 152.103 176.773 154.252C176.922 154.696 177.613 154.746 177.712 154.252C178.922 149.46 174.353 143.26 169.709 142.198Z" fill="#F77261"/>
<path d="M138.933 134.738C137.895 133.33 136.685 132.071 135.821 130.515C134.981 128.959 134.808 127.106 133.919 125.624C133.622 125.155 132.758 125.179 132.634 125.797C132.289 127.6 133.277 129.625 134.116 131.206C135.03 132.935 136.315 134.664 138.019 135.652C138.562 135.973 139.353 135.306 138.933 134.738Z" fill="#F77261"/>
<path d="M124.968 294.73C124.968 301.028 104.547 306.12 79.3549 306.12C54.1897 306.12 33.7681 301.028 33.7681 294.73C33.7681 288.459 54.1897 283.367 79.3549 283.367C104.547 283.367 124.968 288.459 124.968 294.73Z" fill="#C3DBDA"/>
<path d="M233.08 292.479C233.08 300.009 209.523 306.12 180.498 306.12C151.474 306.12 127.917 300.009 127.917 292.479C127.917 284.975 151.474 278.864 180.498 278.864C209.523 278.864 233.08 284.975 233.08 292.479Z" fill="#C3DBDA"/>
<path d="M186.421 284.358C186.421 293.31 162.89 300.572 133.866 300.572C104.815 300.572 81.2842 293.31 81.2842 284.358C81.2842 275.407 104.815 268.144 133.866 268.144C162.89 268.144 186.421 275.407 186.421 284.358Z" fill="#EDEBCC"/>
<path d="M162.622 266.349L174.361 177.641L109.451 195.115L122.583 279.99L162.622 266.349Z" fill="#D9A72A"/>
<path d="M174.361 177.641L111.167 197.955L73.2178 173.674L132.258 163.839L140.245 166.465L150.938 169.949L174.361 177.641Z" fill="#F0C04A"/>
<path d="M150.937 269.511C153.162 241.023 152.358 210.31 151.205 181.688C151.473 181.759 151.75 181.831 152.036 181.902C145.711 177.051 139.038 173.246 132.177 170.566L117.384 176.435C124.245 179.088 132.553 183.296 138.877 188.146C138.609 188.075 138.341 188.003 138.073 187.932C139.226 216.554 140.003 247.267 137.805 275.756L150.937 269.511Z" fill="#8FB73A"/>
<path d="M150.938 169.949C146.516 170.887 142.013 171.584 137.618 172.468C134.563 173.085 131.24 173.406 128.292 174.344C123.173 175.979 117.974 174.291 112.801 173.916C121.484 170.003 130.784 167.484 140.244 166.465L150.938 169.949Z" fill="#8FB73A"/>
<path d="M73.2178 173.674L91.2542 262.248L122.583 279.99L109.451 195.114L73.2178 173.674Z" fill="#BA8D1E"/>
<path d="M78.2293 176.462C80.9629 177.239 83.2945 179.785 85.8405 181.312C89.6193 183.59 93.6661 185.172 97.4985 187.155C100.527 188.709 103.502 190.29 106.503 191.898C107.87 192.649 109.264 193.104 110.309 194.525C128.801 190.103 147.159 183.59 165.731 180.24C165.972 180.187 165.999 180.723 165.785 180.83C156.673 186.056 146.971 188.334 137.404 190.907C128.667 193.265 119.903 195.409 111.166 197.955C111.81 202.324 112.158 206.88 112.748 211.248C113.525 216.849 114.329 222.45 115.106 228.078C116.607 238.718 118.108 249.438 119.046 260.212C119.072 260.721 118.536 260.801 118.456 260.346C116.258 249.358 114.731 238.021 113.15 226.792C112.399 221.539 111.649 216.286 110.898 211.034C110.336 206.96 109.585 202.538 109.532 198.277C108.862 198.036 108.486 196.937 108.567 196.026C103.904 192.836 98.7313 190.666 93.9341 188.039C91.0397 186.458 88.2793 184.475 85.4385 182.813C82.8657 181.312 80.1589 180.321 77.7201 178.284C77.0501 177.694 77.5325 176.247 78.2293 176.462Z" fill="#FFD878"/>
<path d="M121.618 175.095C116.098 176.328 111.595 179.49 106.074 180.723C101.438 181.741 96.2656 183.537 92.0848 185.734C92.2456 185.708 87.9844 183.912 88.1452 183.832C85.09 182.626 85.3848 181.259 82.3296 180.026C91.0128 177.882 100.473 174.746 109.317 173.353C111.515 172.978 113.739 172.629 115.937 172.897C118.134 173.165 120.359 174.13 121.645 175.926C121.413 175.765 121.181 175.595 120.948 175.416" fill="#6A872A"/>
<path d="M92.0043 236.226C93.9875 246.142 95.4347 255.414 97.4715 265.304C100.902 267.608 104.332 269.913 107.763 272.218C106.986 271.628 106.235 263.856 105.967 262.382C105.306 258.702 104.636 255.012 103.957 251.314C102.617 243.935 101.268 236.556 99.9103 229.177C98.6061 221.995 97.3018 214.812 95.9975 207.63C95.3186 203.95 94.6397 200.26 93.9607 196.562C93.5051 194.042 93.2639 189.138 92.1651 187.128C89.9675 183.162 85.2775 183.483 82.3027 181.768C83.4015 186.217 83.5087 189.915 84.1519 194.471C84.7951 198.974 85.7063 203.342 86.4835 207.791C88.1451 217.385 90.1551 226.819 92.0043 236.226Z" fill="#6A872A"/>
<path d="M137.672 151.564C137.029 155.835 136.376 160.114 135.715 164.402L137.672 151.564Z" fill="#E6369F"/>
<path d="M126.549 146.74C125.585 148.107 125.049 149.742 124.566 151.35C122.181 159.202 120.573 167.269 119.742 175.443C120.734 176.033 122.101 175.631 122.931 174.8C123.735 173.969 124.164 172.844 124.539 171.745C127.309 163.991 130.078 156.245 132.847 148.509C134.455 143.98 128.667 143.712 126.549 146.74Z" fill="#6A872A"/>
<path d="M140.834 154.754C141.397 152.1 140.941 147.732 138.261 146.151C137.162 145.508 135.072 145.293 133.785 145.025C132.928 144.838 128.908 145.213 128.479 144.838C133.169 149.072 130.194 156.469 128.586 161.454C126.978 166.412 124.111 170.673 122.101 175.416C125.37 176.756 131.641 170.378 133.598 168.314C137.162 164.536 139.735 159.819 140.834 154.754Z" fill="#8FB73A"/>
<path d="M101.706 155.745C101.036 153.253 103.528 152.449 105.538 152.824C108.915 153.467 112.051 155.745 114.329 158.211C117.143 161.239 119.153 164.937 120.788 168.743C121.699 170.833 122.476 173.326 121.297 175.309C117.947 173.862 115.776 170.619 113.873 167.51C111.944 164.401 109.907 161.105 106.664 159.417C105.726 158.934 104.681 158.613 103.77 158.077C102.858 157.567 102.001 156.79 101.706 155.745Z" fill="#6A872A"/>
<path d="M96.6141 160.14C100.982 167.43 112.051 177.158 121.243 174.773C119.314 171.825 115.401 170.351 112.828 167.966C109.639 164.991 105.833 161.346 104.815 156.924C104.466 155.397 104.708 153.682 105.806 152.556C103.421 152.476 101.036 152.878 98.8117 153.762C97.4449 154.298 95.9709 155.209 95.6493 156.656C95.3813 157.862 95.9709 159.068 96.6141 160.14Z" fill="#8FB73A"/>
<path d="M111.22 172.924C112.882 173.138 114.516 173.648 116.178 173.969C118 174.318 119.85 174.559 121.699 174.827C122.101 174.88 122.02 175.577 121.618 175.55C118.188 175.336 114.222 174.907 111.059 173.54C110.764 173.406 110.925 172.897 111.22 172.924Z" fill="#6A872A"/>
<path d="M130.864 207.362L128.158 206.478L125.719 207.925L125.746 205.057L123.602 203.181L126.308 202.324L127.434 199.697L129.096 202.029L131.936 202.297L130.248 204.602L130.864 207.362Z" fill="#FFD878"/>
<path d="M139.789 231.536L137.082 230.625L134.643 232.099L134.67 229.231L132.526 227.355L135.233 226.498L136.385 223.871L138.02 226.203L140.861 226.471L139.172 228.749L139.789 231.536Z" fill="#FFD878"/>
<path d="M136.948 266.831L134.268 265.947L131.802 267.394L131.829 264.527L129.685 262.651L132.419 261.793L133.544 259.167L135.206 261.498L138.02 261.766L136.331 264.071L136.948 266.831Z" fill="#FFD878"/>
<path d="M127.514 241.854L124.807 240.943L122.342 242.417L122.369 239.549L120.225 237.673L122.958 236.815L124.084 234.189L125.745 236.521L128.586 236.789L126.871 239.067L127.514 241.854Z" fill="#FFD878"/>
<path d="M105.699 204.602L103.689 203.342L101.599 204.468L101.947 201.627L100.5 199.483L102.724 199L103.904 196.535L104.922 199.054L107.12 199.697L105.538 201.761L105.699 204.602Z" fill="#D9A72A"/>
<path d="M95.5957 255.629L93.5857 254.396L91.4953 255.521L91.8437 252.681L90.3965 250.537L92.6209 250.054L93.8001 247.589L94.8185 250.108L97.0161 250.751L95.4349 252.788L95.5957 255.629Z" fill="#D9A72A"/>
<path d="M107.95 236.628L105.94 235.368L103.877 236.494L104.225 233.68L102.751 231.509L104.975 231.026L106.181 228.588L107.2 231.107L109.371 231.723L107.789 233.787L107.95 236.628Z" fill="#D9A72A"/>
<path d="M90.0478 223.549L88.0378 222.29L85.9474 223.415L86.2958 220.574L84.8486 218.43L87.073 217.948L88.2522 215.482L89.2706 218.002L91.4682 218.645L89.8602 220.708L90.0478 223.549Z" fill="#D9A72A"/>
<path d="M108.111 219.636L107.227 219.1L106.315 219.583L106.476 218.35L105.833 217.385L106.798 217.171L107.334 216.099L107.789 217.198L108.727 217.492L108.031 218.377L108.111 219.636Z" fill="#D9A72A"/>
<path d="M103.796 223.817L102.912 223.281L102.001 223.764L102.135 222.531L101.492 221.566L102.483 221.352L102.992 220.28L103.448 221.378L104.413 221.673L103.716 222.558L103.796 223.817Z" fill="#D9A72A"/>
<path d="M112.587 256.406L111.703 255.87L110.765 256.352L110.925 255.119L110.282 254.155L111.274 253.94L111.783 252.868L112.239 253.967L113.203 254.262L112.507 255.146L112.587 256.406Z" fill="#D9A72A"/>
<path d="M112.587 244.614L111.703 244.051L110.765 244.56L110.925 243.301L110.282 242.363L111.274 242.148L111.783 241.076L112.239 242.175L113.203 242.443L112.507 243.354L112.587 244.614Z" fill="#D9A72A"/>
<path d="M89.9675 234.805L89.083 234.242L88.1718 234.752L88.3327 233.492L87.6895 232.554L88.6542 232.34L89.1902 231.268L89.6458 232.366L90.5838 232.661L89.887 233.546L89.9675 234.805Z" fill="#D9A72A"/>
<path d="M82.4098 192.756L81.5254 192.193L80.6142 192.702L80.775 191.443L80.1318 190.505L81.0966 190.29L81.6326 189.218L82.0882 190.317L83.0262 190.612L82.3294 191.496L82.4098 192.756Z" fill="#D9A72A"/>
<path d="M100.178 209.694L99.294 209.131L98.3828 209.64L98.5436 208.381L97.9004 207.443L98.8652 207.228L99.4012 206.156L99.8568 207.255L100.822 207.55L100.125 208.434L100.178 209.694Z" fill="#D9A72A"/>
<path d="M83.1603 205.593L82.2759 205.03L81.3647 205.54L81.5255 204.28L80.8823 203.342L81.8471 203.128L82.3831 202.056L82.8387 203.154L83.8035 203.422L83.1067 204.334L83.1603 205.593Z" fill="#D9A72A"/>
<path d="M120.439 188.441L117.732 188.549L115.561 190.183L115.213 188.254L112.908 187.53L115.401 186.217L116.151 184.153L118.027 185.279L120.787 184.689L119.474 186.699L120.439 188.441Z" fill="#FFD878"/>
<path d="M150.589 174.371L148.767 174.451L147.32 175.55L147.105 174.237L145.551 173.755L147.212 172.897L147.722 171.503L148.981 172.254L150.83 171.879L149.946 173.219L150.589 174.371Z" fill="#FFD878"/>
<path d="M93.4515 175.095L91.6559 175.175L90.2087 176.274L89.9675 174.961L88.4131 174.478L90.1015 173.621L90.5839 172.227L91.8435 172.978L93.6927 172.602L92.8083 173.942L93.4515 175.095Z" fill="#FFD878"/>
<path d="M159.38 177.909L158.308 177.936L157.423 178.606L157.289 177.828L156.378 177.534L157.37 177.024L157.664 176.194L158.415 176.649L159.514 176.408L159.004 177.212L159.38 177.909Z" fill="#FFD878"/>
<path d="M118.59 179.785L117.491 179.838L116.634 180.482L116.5 179.704L115.562 179.41L116.58 178.9L116.875 178.07L117.625 178.525L118.724 178.284L118.188 179.088L118.59 179.785Z" fill="#FFD878"/>
<path d="M159.406 207.362L156.7 206.478L154.234 207.925L154.261 205.057L152.117 203.181L154.85 202.324L155.976 199.697L157.638 202.029L160.478 202.297L158.763 204.602L159.406 207.362Z" fill="#FFD878"/>
<path d="M164.74 231.536L162.033 230.625L159.567 232.099L159.594 229.231L157.45 227.355L160.184 226.498L161.309 223.871L162.971 226.203L165.812 226.471L164.097 228.749L164.74 231.536Z" fill="#FFD878"/>
<path d="M159.326 251.153L156.619 250.242L154.18 251.716L154.207 248.848L152.063 246.972L154.77 246.115L155.922 243.488L157.557 245.82L160.398 246.088L158.709 248.366L159.326 251.153Z" fill="#FFD878"/>
<path d="M157.397 192.247L156.432 191.925L155.574 192.434V191.443L154.824 190.773L155.789 190.451L156.191 189.54L156.78 190.344L157.772 190.451L157.182 191.255L157.397 192.247Z" fill="#FFD878"/>
<path d="M132.687 249.09L131.722 248.768L130.838 249.304L130.865 248.286L130.087 247.616L131.052 247.321L131.454 246.383L132.044 247.214L133.062 247.294L132.446 248.125L132.687 249.09Z" fill="#FFD878"/>
<path d="M167.741 210.364L166.776 210.042L165.919 210.551V209.56L165.168 208.89L166.133 208.568L166.535 207.657L167.098 208.461L168.116 208.568L167.527 209.372L167.741 210.364Z" fill="#FFD878"/>
<path d="M166.267 193.694L165.302 193.372L164.418 193.908L164.445 192.89L163.667 192.22L164.632 191.925L165.034 190.987L165.624 191.818L166.642 191.898L166.026 192.729L166.267 193.694Z" fill="#FFD878"/>
<path d="M158.87 219.127L157.905 218.805L157.048 219.315V218.323L156.297 217.653L157.262 217.331L157.664 216.42L158.254 217.224L159.245 217.331L158.656 218.135L158.87 219.127Z" fill="#FFD878"/>
<path d="M159.808 258.684L158.843 258.362L157.986 258.872V257.853L157.235 257.183L158.2 256.888L158.602 255.95L159.165 256.781L160.183 256.888L159.594 257.692L159.808 258.684Z" fill="#FFD878"/>
<path d="M128.372 217.841L127.434 217.519L126.55 218.028V217.01L125.799 216.34L126.764 216.045L127.166 215.107L127.756 215.938L128.774 216.045L128.158 216.849L128.372 217.841Z" fill="#FFD878"/>
<path d="M122.342 215.081L121.404 214.759L120.519 215.295V214.277L119.769 213.607L120.734 213.312L121.136 212.374L121.725 213.205L122.744 213.285L122.127 214.089L122.342 215.081Z" fill="#FFD878"/>
<path d="M92.326 183.832C90.7448 183.054 89.1636 182.304 87.5824 181.554C86.162 180.857 84.688 179.892 83.1336 179.651C82.276 179.517 81.4452 180.535 82.2224 181.232C83.3748 182.331 84.956 182.894 86.3764 183.59C87.9576 184.368 89.512 185.145 91.0932 185.922C92.4868 186.592 93.7196 184.528 92.326 183.832Z" fill="#8FB73A"/>
<path d="M150.804 183.162C147.668 184.1 144.532 184.957 141.45 185.922C137.136 187.289 136.305 187.101 138.1 191.389C142.228 189.594 147.695 187.691 152.17 187.101C152.546 187.048 153.484 182.384 150.804 183.162Z" fill="#AED164"/>
<path d="M139.279 156.79C139.199 156.415 138.636 156.147 138.315 156.415C137.028 157.38 136.76 158.8 136.063 160.221C135.099 162.15 133.946 164.026 132.633 165.742C131.4 167.35 130.033 168.85 128.533 170.217C127.005 171.584 125.209 172.683 123.843 174.237C123.494 174.639 123.816 175.336 124.405 175.175C128.291 174.13 131.802 170.19 134.241 167.135C135.501 165.554 136.626 163.866 137.591 162.07C138.449 160.489 139.681 158.64 139.279 156.79Z" fill="#AED164"/>
<path d="M136.948 151.537C136.546 151.564 136.064 151.913 136.117 152.368C136.117 152.44 136.126 152.502 136.144 152.556C136.171 152.985 136.466 153.387 136.948 153.36C137.431 153.36 137.725 153.011 137.752 152.556C137.77 152.502 137.779 152.44 137.779 152.368C137.833 151.939 137.377 151.511 136.948 151.537Z" fill="#AED164"/>
<path d="M199.687 236.333L196.042 251.85V251.877L195.345 254.905L190.361 276.131L189.691 278.998L184.867 299.608L168.09 295.856L165.865 295.346L150.187 291.836L148.017 291.353C147.999 291.353 147.99 291.353 147.99 291.353L139.575 289.45L137.591 279.508L137.243 277.792L134.509 264.258L134.188 262.543L131.99 251.609L131.722 250.323L130.221 242.845L129.846 241.023L128.104 232.34L127.756 230.678L126.282 223.308L135.421 224.943L137.725 225.345L146.837 226.953L149.33 227.409L159.514 229.204L161.631 229.579L175.674 232.072L178.274 232.554L193.979 235.341L196.042 235.69L199.687 236.333Z" fill="#BF2525"/>
<path d="M137.725 225.345C135.635 226.765 133.491 228.105 131.481 229.633C130.328 230.491 129.203 231.429 128.104 232.34L127.755 230.678C130.141 228.534 132.767 226.578 135.42 224.943L137.725 225.345Z" fill="#D93D2A"/>
<path d="M149.33 227.408C146.65 229.418 143.916 231.402 141.317 233.492C137.538 236.52 133.947 239.763 130.221 242.845L129.846 241.023C133.277 237.86 136.948 234.939 140.566 232.018C142.63 230.356 144.72 228.641 146.837 226.953L149.33 227.408Z" fill="#D93D2A"/>
<path d="M161.631 229.579C160.773 230.205 159.916 230.839 159.058 231.482C155.806 233.948 152.546 236.404 149.276 238.852C143.541 243.14 137.806 247.428 131.99 251.609L131.722 250.322C136.975 246.195 142.308 242.175 147.641 238.155C150.893 235.69 154.154 233.233 157.423 230.785C158.12 230.267 158.817 229.74 159.514 229.204L161.631 229.579Z" fill="#D93D2A"/>
<path d="M178.273 232.554C175.995 234.001 173.664 235.395 171.493 236.896C166.616 240.272 161.774 243.703 156.967 247.187C149.383 252.708 141.906 258.443 134.509 264.258L134.188 262.543C140.941 257.076 147.882 251.77 154.904 246.624C159.808 243.033 164.793 239.495 169.831 236.038C171.761 234.716 173.709 233.394 175.674 232.072L178.273 232.554Z" fill="#D93D2A"/>
<path d="M196.042 235.689C192.022 238.825 187.519 241.398 183.285 244.265C178.756 247.321 174.28 250.429 169.858 253.645C162.247 259.166 147.561 271.253 137.591 279.507L137.243 277.792C146.81 269.591 160.612 258.175 167.741 252.949C172.404 249.518 177.148 246.168 181.945 242.952C185.858 240.326 189.797 237.512 193.978 235.341L196.042 235.689Z" fill="#D93D2A"/>
<path d="M196.042 251.877L195.345 254.905C193.389 256.54 191.406 258.148 189.423 259.756C185.295 263.106 181.168 266.456 177.041 269.806C170.609 275.005 159.031 284.921 150.187 291.836L148.017 291.353C156.727 283.769 169.671 273.451 176.585 267.85C180.847 264.392 185.108 260.935 189.396 257.478C191.513 255.79 193.711 253.646 196.042 251.877Z" fill="#D93D2A"/>
<path d="M190.36 276.131L189.69 278.998C188.86 279.615 188.056 280.204 187.305 280.794C184.822 282.777 182.329 284.752 179.828 286.717C175.942 289.718 172.11 292.961 168.09 295.856L165.865 295.346C170.153 291.594 174.87 288.244 179.346 284.76C181.758 282.858 184.223 280.982 186.662 279.106C187.868 278.194 189.101 277.096 190.36 276.131Z" fill="#D93D2A"/>
<path d="M240.798 220.36L199.07 236.333L178.005 232.608L172.779 231.67L163.641 230.062H163.614L158.709 229.177L146.891 227.087L144.666 226.685L138.02 225.506L135.501 225.05L125.665 223.308L145.872 216.581L155.279 213.446L174.066 207.174L183.821 209.104L188.993 210.122L199.07 212.132C199.07 212.132 199.079 212.132 199.097 212.132L205.154 213.312L214.453 215.161C214.453 215.161 214.462 215.161 214.48 215.161L220.698 216.394C220.716 216.394 220.725 216.394 220.725 216.394L240.798 220.36Z" fill="#F04832"/>
<path d="M206.843 232.42C201.831 233.197 196.739 233.358 191.727 234.055C190.977 234.162 191.218 235.261 191.888 235.314C196.98 235.636 202.26 234.778 207.298 234.001C208.343 233.84 207.888 232.259 206.843 232.42Z" fill="#F77261"/>
<path d="M217.268 228.561C209.853 229.329 202.43 230.088 194.997 230.839C191.299 231.214 187.6 231.589 183.875 231.964C181.945 232.152 179.962 232.42 178.006 232.608L172.78 231.67C176.21 230.866 179.855 230.758 183.339 230.383C187.064 230.008 190.763 229.633 194.488 229.284C202.072 228.507 209.683 227.784 217.268 227.033C218.259 226.953 218.233 228.454 217.268 228.561Z" fill="#F77261"/>
<path d="M233.749 221.405C221.448 223.362 208.959 224.514 196.605 226.042C190.253 226.819 183.928 227.596 177.603 228.346C172.994 228.909 168.304 229.686 163.641 230.062H163.614L158.709 229.177C164.659 227.676 170.984 227.248 177.067 226.47C183.231 225.702 189.387 224.934 195.533 224.166C208.182 222.611 220.832 220.628 233.508 219.529C234.58 219.422 234.821 221.218 233.749 221.405Z" fill="#F77261"/>
<path d="M220.698 216.394C208.102 217.385 195.533 218.779 183.017 220.655C170.93 222.45 158.951 224.996 146.891 227.087L144.666 226.685C144.64 226.444 144.774 226.202 145.122 226.122C157.691 222.718 170.716 220.682 183.607 218.806C193.862 217.305 204.145 216.09 214.454 215.161C214.454 215.161 214.463 215.161 214.48 215.161L220.698 216.394Z" fill="#F77261"/>
<path d="M205.154 213.312C199.633 214.384 193.952 214.866 188.431 215.724C182.535 216.635 176.657 217.636 170.797 218.725C164.776 219.815 158.763 221.003 152.76 222.29C147.883 223.335 142.978 224.755 138.02 225.506L135.501 225.05C135.528 224.809 135.662 224.541 135.93 224.434C141.611 222.343 147.883 221.379 153.805 220.146C159.63 218.913 165.472 217.761 171.333 216.689C177.372 215.599 183.419 214.589 189.476 213.66C192.639 213.151 195.855 212.588 199.071 212.133C199.071 212.133 199.08 212.133 199.097 212.133L205.154 213.312Z" fill="#F77261"/>
<path d="M188.994 210.122C181.302 211.355 173.637 212.615 165.946 213.74C161.953 214.33 157.959 214.919 153.939 215.455C151.34 215.804 148.579 216.393 145.873 216.581L155.279 213.445C158.853 212.945 162.417 212.427 165.973 211.891C171.922 211.007 177.872 210.095 183.821 209.104L188.994 210.122Z" fill="#F77261"/>
<path d="M234.982 222.45C231.9 223.013 229.301 224.916 226.38 226.068C222.118 227.757 217.562 228.936 213.194 230.41C209.817 231.562 206.414 232.742 203.037 233.948C201.509 234.51 199.928 234.859 198.749 235.904C177.818 232.608 157.075 227.757 136.037 225.264C135.769 225.238 135.769 225.613 135.983 225.693C146.301 229.579 157.262 231.294 168.09 233.224C177.979 234.966 187.895 236.574 197.757 238.477C197.034 241.72 196.658 245.123 195.962 248.366C195.077 252.547 194.193 256.728 193.308 260.908C191.62 268.841 189.905 276.828 188.86 284.868C188.806 285.27 189.422 285.296 189.53 284.975C191.995 276.774 193.737 268.332 195.533 259.944C196.364 256.031 197.221 252.145 198.052 248.232C198.695 245.177 199.553 241.88 199.606 238.691C200.357 238.53 200.786 237.7 200.705 237.03C205.985 234.644 211.827 233.036 217.241 231.08C220.51 229.901 223.619 228.427 226.862 227.194C229.783 226.068 232.838 225.318 235.572 223.79C236.349 223.362 235.786 222.29 234.982 222.45Z" fill="#F77261"/>
<path d="M152.787 292.479C150.268 271.253 151.179 247.669 152.465 226.336C152.161 226.39 151.858 226.444 151.554 226.497C158.71 222.879 166.24 220.065 174.012 218.055L188.86 222.718C181.114 224.702 173.584 227.542 166.428 231.16C166.732 231.107 167.035 231.053 167.339 231C166.026 252.332 165.142 274.55 167.634 295.775L152.787 292.479Z" fill="#D6C48B"/>
<path d="M195.908 221.834C190.066 222.263 184.17 224.166 178.408 222.316C175.058 221.244 171.306 220.896 167.849 220.199C160.907 218.806 153.671 217.814 146.837 215.938C150.777 213.312 157.236 212.749 161.819 213.097C173.557 214.008 185.161 216.983 195.908 221.834Z" fill="#E2D4A7"/>
<path d="M240.664 220.36L240.128 222.129L239.538 224.031L233.642 243.113L232.972 245.311V245.337L227.103 264.312L226.192 267.26V267.287L220.296 286.395L193.925 296.231L191.432 297.169L184.866 299.607L199.687 236.333L240.664 220.36Z" fill="#D93D2A"/>
<path d="M233.642 243.113L232.972 245.311V245.337C226.701 249.554 220.555 253.931 214.534 258.469C206.762 264.339 199.526 270.851 191.781 276.693C191.271 277.069 190.709 276.265 191.137 275.863C197.891 269.109 205.797 263.293 213.381 257.531C220.001 252.52 226.755 247.723 233.642 243.113Z" fill="#F04832"/>
<path d="M185.938 223.174C192.192 224.567 198.436 225.952 204.672 227.328C209.924 228.507 215.526 228.051 220.242 230.544C220.046 230.508 219.849 230.455 219.653 230.383C223.101 228.989 226.558 227.605 230.024 226.229C220.189 223.79 209.871 222.772 199.848 221.191C197.382 220.789 194.863 220.387 192.37 220.681C189.878 220.976 187.359 222.075 185.912 224.112C186.18 223.915 186.439 223.728 186.689 223.549" fill="#ECE1C3"/>
<path d="M167.768 196.535C168.518 201.395 169.269 206.245 170.019 211.087L167.768 196.535Z" fill="#00B2C5"/>
<path d="M180.364 191.094C181.463 192.649 182.052 194.498 182.615 196.32C185.322 205.191 187.144 214.33 188.055 223.549C186.93 224.219 185.402 223.764 184.464 222.826C183.526 221.914 183.071 220.628 182.615 219.368C179.488 210.614 176.371 201.859 173.262 193.104C171.439 187.986 177.952 187.664 180.364 191.094Z" fill="#D6C48B"/>
<path d="M164.23 200.153C163.587 197.178 164.069 192.22 167.125 190.451C168.384 189.701 170.716 189.46 172.19 189.165C173.155 188.951 177.711 189.379 178.166 188.951C172.887 193.748 176.237 202.109 178.059 207.737C179.881 213.365 183.124 218.163 185.375 223.549C181.704 225.05 174.602 217.841 172.404 215.483C168.357 211.248 165.436 205.888 164.23 200.153Z" fill="#ECE1C3"/>
<path d="M208.451 201.305C209.228 198.491 206.387 197.553 204.109 197.982C200.303 198.706 196.766 201.305 194.193 204.066C191.004 207.496 188.726 211.677 186.877 215.965C185.858 218.35 184.974 221.164 186.287 223.388C190.093 221.754 192.531 218.082 194.702 214.571C196.873 211.06 199.178 207.335 202.849 205.459C203.921 204.896 205.074 204.521 206.119 203.932C207.164 203.342 208.129 202.458 208.451 201.305Z" fill="#D6C48B"/>
<path d="M214.212 206.263C209.281 214.491 196.739 225.506 186.367 222.799C188.538 219.476 192.987 217.814 195.881 215.107C199.499 211.73 203.814 207.63 204.94 202.618C205.342 200.903 205.074 198.947 203.841 197.687C206.521 197.58 209.228 198.062 211.72 199.054C213.301 199.67 214.936 200.662 215.311 202.324C215.606 203.69 214.936 205.057 214.212 206.263Z" fill="#ECE1C3"/>
<path d="M197.703 220.735C195.801 220.949 193.951 221.512 192.102 221.887C190.012 222.289 187.921 222.584 185.831 222.879C185.375 222.933 185.483 223.71 185.965 223.683C189.824 223.442 194.3 222.959 197.891 221.405C198.213 221.244 198.052 220.681 197.703 220.735Z" fill="#E2D4A7"/>
<path d="M167.044 230.115C165.088 229.07 162.73 228.829 160.559 228.32C158.12 227.757 155.654 227.06 153.162 226.712C152.144 226.578 151.715 227.944 152.733 228.266C155.118 229.07 157.611 229.552 160.05 230.142C162.22 230.651 164.472 231.509 166.696 231.455C167.393 231.455 167.714 230.464 167.044 230.115Z" fill="#ECE1C3"/>
<path d="M176.451 206.987C175.969 204.548 174.388 202.458 173.852 199.965C173.235 197.258 173.316 194.552 173.476 191.791C173.503 191.175 172.565 191.068 172.404 191.657C171.574 194.364 171.6 197.205 172.11 199.992C172.565 202.431 173.45 205.942 175.486 207.55C175.942 207.898 176.585 207.576 176.451 206.987Z" fill="#FFFCF5"/>
<path d="M114.054 294.387L125.819 235.883L60.9092 247.407L74.0412 303.365L114.054 294.387Z" fill="#8FB73A"/>
<path d="M126.389 236.306L83.5624 222.048L24.5488 233.706L61.4792 247.83L126.389 236.306Z" fill="#A4CC4B"/>
<path d="M102.403 296.874C104.627 278.114 103.823 257.853 102.671 238.986C102.939 239.04 103.207 239.084 103.475 239.12C97.1499 235.931 90.5035 233.438 83.6427 231.67L70.4839 235.797C77.3447 237.566 84.0179 240.058 90.3427 243.247C90.0747 243.194 89.8067 243.149 89.5387 243.113C90.6911 261.98 91.4683 282.241 89.2707 301.001L102.403 296.874Z" fill="#D93D2A"/>
<path d="M64.2666 235.019C69.439 235.395 74.6382 237.056 79.7302 235.448C82.705 234.483 86.0282 234.189 89.0834 233.572C95.2206 232.339 101.626 231.455 107.656 229.793C104.172 227.462 98.4634 226.979 94.4166 227.301C84.0182 228.078 73.7806 230.731 64.2666 235.019Z" fill="#F04832"/>
<path d="M24.6826 233.707L42.719 292.104L74.0482 303.789L60.9162 247.83L24.6826 233.707Z" fill="#6A872A"/>
<path d="M29.6946 235.529C32.4282 236.065 34.733 237.726 37.3058 238.745C41.0846 240.246 45.1046 241.291 48.9638 242.604C51.9654 243.622 54.967 244.668 57.9418 245.74C59.3086 246.222 60.729 246.517 61.7742 247.455C80.2662 244.534 98.6242 240.246 117.197 238.048C117.438 237.994 117.438 238.343 117.25 238.423C108.138 241.854 98.4366 243.381 88.869 245.07C80.1322 246.624 71.3418 248.044 62.6318 249.733C63.275 252.6 63.5966 255.602 64.213 258.47C64.9991 262.168 65.7852 265.866 66.5714 269.565C68.0454 276.586 69.573 283.635 70.4842 290.764C70.5378 291.085 70.0018 291.139 69.9214 290.844C67.7238 283.581 66.1962 276.131 64.5882 268.707C63.8646 265.25 63.0874 261.793 62.3638 258.336C61.801 255.656 61.0506 252.734 60.997 249.92C60.327 249.76 59.9518 249.036 60.0322 248.446C55.3422 246.329 50.1698 244.909 45.3994 243.167C42.505 242.148 39.7446 240.835 36.877 239.736C34.3042 238.745 31.6242 238.075 29.1854 236.735C28.5154 236.36 28.9978 235.422 29.6946 235.529Z" fill="#B4D66D"/>
<path d="M73.0838 236.199C67.563 237.414 62.0333 238.638 56.4946 239.871C51.885 240.889 46.927 240.514 42.7462 242.711C42.9249 242.676 43.0946 242.631 43.2554 242.577C40.2002 241.345 37.145 240.121 34.0898 238.906C42.773 236.735 51.9386 235.851 60.7558 234.43C62.9534 234.082 65.1778 233.733 67.4022 234.001C69.5998 234.269 71.8242 235.207 73.1106 237.03C72.8784 236.851 72.6461 236.681 72.4138 236.521" fill="#F04832"/>
<path d="M43.4697 274.925C45.4529 281.491 46.9001 287.574 48.9369 294.114C52.3673 295.632 55.7977 297.151 59.2281 298.67C58.4509 298.294 57.7005 293.149 57.4325 292.184C56.7535 289.754 56.0835 287.324 55.4225 284.894C54.0646 280.017 52.7157 275.148 51.3757 270.288C50.0714 265.554 48.7582 260.828 47.4361 256.111C46.775 253.664 46.105 251.225 45.4261 248.795C44.9705 247.133 44.7293 243.917 43.6037 242.577C41.4329 239.978 36.7429 240.165 33.7681 239.04C34.8669 241.988 34.9741 244.426 35.6173 247.428C36.2605 250.376 37.1717 253.27 37.9221 256.192C39.6105 262.516 41.5937 268.761 43.4697 274.925Z" fill="#BF2525"/>
<path d="M89.1366 212.642C88.4755 216.93 87.8234 221.218 87.1802 225.506L89.1366 212.642Z" fill="#E6369F"/>
<path d="M78.0147 207.844C77.0499 209.211 76.5139 210.846 76.0047 212.454C73.6463 220.28 72.0115 228.373 71.2075 236.52C72.1991 237.137 73.5659 236.708 74.3699 235.904C75.2007 235.073 75.6295 233.921 76.0047 232.822C78.7741 225.086 81.5434 217.341 84.3127 209.586C85.9207 205.084 80.1319 204.789 78.0147 207.844Z" fill="#BF2525"/>
<path d="M92.2991 215.831C92.8619 213.204 92.4063 208.809 89.7263 207.255C88.6007 206.612 86.5371 206.37 85.2507 206.102C84.3931 205.915 80.3463 206.317 79.9443 205.942C84.6075 210.176 81.6595 217.573 80.0515 222.531C78.4435 227.516 75.5759 231.777 73.5659 236.52C76.8355 237.86 83.1067 231.482 85.0631 229.392C88.6275 225.64 91.2003 220.923 92.2991 215.831Z" fill="#F04832"/>
<path d="M53.1712 216.849C52.4744 214.357 54.9936 213.526 57.0036 213.901C60.3804 214.545 63.516 216.849 65.794 219.315C68.608 222.343 70.618 226.015 72.2528 229.821C73.164 231.938 73.9144 234.43 72.762 236.387C69.412 234.939 67.2412 231.697 65.3116 228.588C63.4088 225.479 61.372 222.183 58.1292 220.521C57.1644 220.039 56.146 219.717 55.2348 219.181C54.2968 218.645 53.466 217.868 53.1712 216.849Z" fill="#D93D2A"/>
<path d="M48.0794 221.217C52.4478 228.507 63.5162 238.262 72.7086 235.85C70.779 232.929 66.8662 231.455 64.2934 229.07C61.1042 226.095 57.2718 222.45 56.2802 218.001C55.9318 216.501 56.173 214.759 57.245 213.633C54.8866 213.579 52.5014 213.981 50.277 214.839C48.8834 215.402 47.4362 216.286 47.1146 217.733C46.8466 218.939 47.4362 220.172 48.0794 221.217Z" fill="#F04832"/>
<path d="M84.259 238.53C82.2758 237.887 80.239 237.592 78.1754 237.646C77.1838 237.646 74.9862 237.592 76.6746 235.716C77.0766 235.261 77.6126 234.993 78.1754 234.778C83.6158 232.581 90.7982 233.331 95.8366 236.306C101.331 239.576 104.815 245.981 104.573 252.359C104.493 254.61 103.984 256.862 103.957 259.113C103.903 261.364 104.439 263.803 106.074 265.357C102.939 264.875 100.125 262.543 99.1062 259.515C99.1955 261.837 99.2848 264.151 99.3742 266.456C96.4798 266.322 94.175 263.803 93.3174 261.042C92.4598 258.309 92.6742 255.334 92.7814 252.466C92.9154 249.599 92.8618 246.57 91.495 244.024C90.0478 241.264 87.2338 239.442 84.259 238.53Z" fill="#BF2525"/>
<path d="M84.7682 237.03C82.7582 236.574 80.6946 236.44 78.6578 236.601C77.6662 236.708 75.4686 236.788 76.9962 234.805C77.3714 234.323 77.9074 234.028 78.4434 233.76C83.6962 231.16 90.9322 231.375 96.1582 233.974C101.893 236.815 105.833 242.926 106.074 249.331C106.155 251.582 105.833 253.833 105.967 256.111C106.101 258.362 106.798 260.721 108.54 262.168C105.377 261.927 102.403 259.81 101.17 256.862C101.42 259.166 101.67 261.471 101.92 263.776C99.0526 263.856 96.5602 261.498 95.4882 258.818C94.4162 256.165 94.443 253.19 94.3358 250.322C94.2286 247.428 93.9606 244.426 92.433 241.988C90.7714 239.361 87.8234 237.753 84.7682 237.03Z" fill="#F04832"/>
<path d="M73.727 235.341C76.4606 233.17 80.2394 231.402 84.045 230.785C84.313 230.642 84.572 230.499 84.8222 230.356C85.653 229.794 86.3498 229.124 87.0466 228.427C87.2878 228.186 87.7434 228.507 87.529 228.802C87.1002 229.418 86.5106 230.035 85.8674 230.571C88.4402 230.41 90.9594 230.812 93.1302 232.045C93.4786 232.232 93.2642 232.822 92.8622 232.688C89.539 231.482 86.2694 231.214 82.839 232.179C81.1774 232.608 79.5962 233.278 78.0954 234.055C76.7822 234.752 75.5762 235.69 74.1826 236.118C73.7538 236.252 73.3518 235.636 73.727 235.341Z" fill="#D93D2A"/>
<path d="M62.6852 234.028C64.3468 234.216 65.9816 234.725 67.6432 235.047C69.4656 235.422 71.3148 235.663 73.164 235.931C73.566 235.985 73.4856 236.681 73.0568 236.655C69.6532 236.413 65.6868 236.011 62.5244 234.618C62.2296 234.484 62.3636 234.001 62.6852 234.028Z" fill="#BF2525"/>
<path d="M77.0767 259.3C76.7551 259.274 76.5407 259.381 76.2459 259.488C75.4955 259.836 75.4955 261.176 76.2459 261.498C76.5407 261.632 76.7551 261.739 77.0767 261.712C77.6931 261.632 78.2827 261.203 78.2559 260.506C78.2291 259.783 77.7467 259.381 77.0767 259.3Z" fill="#B4D66D"/>
<path d="M84.7416 270.288C84.152 270.315 83.5356 270.798 83.5892 271.441C83.5892 271.476 83.5981 271.512 83.616 271.548C83.6428 272.138 84.0984 272.7 84.7416 272.674C85.3848 272.647 85.8136 272.191 85.8672 271.548C85.8672 271.512 85.8672 271.476 85.8672 271.441C85.9208 270.851 85.3044 270.288 84.7416 270.288Z" fill="#B4D66D"/>
<path d="M77.747 283.983C76.6214 283.983 76.6214 285.698 77.747 285.698C78.8458 285.698 78.8458 283.983 77.747 283.983Z" fill="#B4D66D"/>
<path d="M110.282 287.655C110.246 287.601 110.211 287.548 110.175 287.494C109.773 286.824 108.835 286.824 108.406 287.494C108.37 287.548 108.335 287.601 108.299 287.655C107.843 288.405 108.433 289.37 109.29 289.37C110.148 289.37 110.764 288.405 110.282 287.655Z" fill="#B4D66D"/>
<path d="M115.374 275.246C114.034 275.246 114.034 277.337 115.374 277.337C116.714 277.337 116.741 275.246 115.374 275.246Z" fill="#B4D66D"/>
<path d="M109.719 269.699C109.737 269.717 109.746 269.726 109.746 269.726C109.21 269.056 108.111 269.645 108.111 270.422C108.111 271.2 109.21 271.789 109.746 271.092C109.746 271.11 109.737 271.128 109.719 271.146C110.255 270.824 110.255 270.02 109.719 269.699Z" fill="#B4D66D"/>
<path d="M116.285 252.842C115.133 252.842 115.133 254.637 116.285 254.637C117.438 254.637 117.438 252.842 116.285 252.842Z" fill="#B4D66D"/>
<path d="M110.764 249.358C110.47 248.849 109.907 248.849 109.612 249.358C109.371 249.787 109.692 250.349 110.202 250.349C110.711 250.349 111.032 249.787 110.764 249.358Z" fill="#B4D66D"/>
<path d="M54.4575 254.074C54.3771 253.538 54.0287 253.002 53.4123 253.029C52.7691 253.056 52.4475 253.512 52.3671 254.074C52.3135 254.342 52.3939 254.584 52.5547 254.798C52.9835 255.441 53.8411 255.441 54.2699 254.798C54.4039 254.584 54.4843 254.342 54.4575 254.074Z" fill="#B4D66D"/>
<path d="M59.2549 265.277C57.8881 265.277 57.8613 267.448 59.2549 267.448C60.6485 267.448 60.6485 265.277 59.2549 265.277Z" fill="#B4D66D"/>
<path d="M58.5846 279.749C57.2446 279.749 57.2446 281.839 58.5846 281.839C59.9246 281.839 59.9246 279.749 58.5846 279.749Z" fill="#B4D66D"/>
<path d="M43.5234 284.144C43.5055 284.108 43.4966 284.073 43.4966 284.037C43.309 283.152 41.8886 283.152 41.6742 284.037C41.6742 284.073 41.6742 284.108 41.6742 284.144C41.5402 284.734 41.9422 285.35 42.5854 285.35C43.2286 285.35 43.6306 284.734 43.5234 284.144Z" fill="#B4D66D"/>
<path d="M33.7947 253.217C32.5619 253.217 32.5619 255.173 33.7947 255.173C35.0275 255.173 35.0543 253.217 33.7947 253.217Z" fill="#B4D66D"/>
<path d="M84.7416 249.652C84.688 249.652 84.6434 249.652 84.6076 249.652C83.4016 249.599 83.4016 251.582 84.6076 251.528C84.6434 251.528 84.688 251.528 84.7416 251.528C85.9208 251.475 85.9476 249.706 84.7416 249.652Z" fill="#B4D66D"/>
<path d="M66.4641 242.068C65.9013 242.068 65.3653 242.577 65.3921 243.14C65.4189 243.729 65.8745 244.239 66.4641 244.239C67.0269 244.239 67.5897 243.729 67.5629 243.14C67.5361 242.577 67.0805 242.068 66.4641 242.068Z" fill="#B4D66D"/>
<path d="M77.2912 240.433C76.4068 240.433 76.4068 241.8 77.2912 241.8C78.1756 241.8 78.1756 240.433 77.2912 240.433Z" fill="#B4D66D"/>
<path d="M44.8366 234.778C44.8187 234.743 44.8098 234.716 44.8098 234.698C44.515 233.84 43.3626 233.84 43.0678 234.698C43.0499 234.716 43.041 234.743 43.041 234.778C42.8266 235.368 43.3626 235.984 43.9254 235.984C44.515 235.984 45.0242 235.368 44.8366 234.778Z" fill="#B4D66D"/>
<path d="M51.9383 231.348C51.9026 231.33 51.8758 231.312 51.8579 231.294C51.2415 230.973 50.4375 231.375 50.4375 232.098C50.4375 232.822 51.2415 233.251 51.8579 232.902C51.8758 232.902 51.9026 232.894 51.9383 232.876C52.5011 232.554 52.5011 231.67 51.9383 231.348Z" fill="#B4D66D"/>
<path d="M102.832 233.439C102.671 233.171 102.349 232.983 102.028 232.983C101.992 232.983 101.947 232.983 101.894 232.983C100.714 233.01 100.714 234.805 101.894 234.832C101.947 234.832 101.992 234.832 102.028 234.832C102.349 234.832 102.671 234.645 102.832 234.377C102.992 234.055 102.992 233.76 102.832 233.439Z" fill="#B4D66D"/>
<path d="M111.354 235.314C111.327 235.261 111.327 235.18 111.3 235.02C111.193 234.43 110.577 233.948 109.96 234.162C109.773 234.216 109.666 234.35 109.478 234.43C109.639 234.305 109.639 234.305 109.478 234.43C109.389 234.484 109.326 234.555 109.29 234.644C108.996 234.993 108.996 235.368 109.076 235.797C109.183 236.386 109.96 236.788 110.523 236.601C111.086 236.413 111.434 235.877 111.354 235.314Z" fill="#B4D66D"/>
<path d="M106.342 312.391L98.1685 271.736L134.509 279.749L134.161 318.636L106.342 312.391Z" fill="#D6C48B"/>
<path d="M97.6592 271.628L126.898 262.061L159.782 269.538L134.697 280.178L97.6592 271.628Z" fill="#ECE1C3"/>
<path d="M113.82 314.508C112.292 301.457 112.828 286.958 113.632 273.853C113.453 273.888 113.266 273.915 113.069 273.933C117.464 271.736 122.101 269.994 126.871 268.761L136.01 271.628C131.24 272.861 126.603 274.603 122.208 276.801C122.387 276.765 122.574 276.738 122.771 276.72C121.967 289.826 121.431 303.494 122.958 316.545L113.82 314.508Z" fill="#BA8D1E"/>
<path d="M140.325 271.092C136.734 271.333 133.116 272.513 129.578 271.387C127.514 270.717 125.21 270.503 123.092 270.074C118.804 269.216 114.356 268.6 110.175 267.447C112.587 265.839 116.553 265.491 119.367 265.705C126.603 266.268 133.732 268.091 140.325 271.092Z" fill="#D9A72A"/>
<path d="M159.701 269.538L155.306 310.756L133.544 318.904L133.866 279.99L159.701 269.538Z" fill="#ECE1C3"/>
<path d="M133.866 272.138L143.38 276.158L142.764 315.446L148.633 313.249L150.67 273.317L137.993 270.074L133.866 272.138Z" fill="#F0C04A"/>
<path d="M123.039 255.548C123.503 258.514 123.959 261.489 124.405 264.473L123.039 255.548Z" fill="#00B2C5"/>
<path d="M130.784 252.198C131.454 253.136 131.829 254.289 132.151 255.387C133.812 260.855 134.938 266.456 135.501 272.137C134.804 272.539 133.866 272.271 133.303 271.682C132.713 271.119 132.445 270.342 132.177 269.565C130.248 264.187 128.327 258.8 126.415 253.404C125.29 250.269 129.31 250.081 130.784 252.198Z" fill="#BA8D1E"/>
<path d="M120.841 257.746C120.466 255.924 120.761 252.868 122.637 251.796C123.414 251.341 124.834 251.18 125.745 250.992C126.362 250.858 129.149 251.126 129.444 250.885C126.174 253.806 128.238 258.952 129.363 262.409C130.489 265.866 132.472 268.841 133.866 272.138C131.588 273.076 127.246 268.627 125.879 267.18C123.387 264.553 121.618 261.284 120.841 257.746Z" fill="#F0C04A"/>
<path d="M148.043 258.47C148.525 256.728 146.783 256.165 145.39 256.406C143.031 256.862 140.861 258.443 139.279 260.158C137.323 262.275 135.903 264.848 134.777 267.474C134.161 268.948 133.625 270.664 134.429 272.03C136.76 271.039 138.261 268.788 139.601 266.617C140.941 264.446 142.335 262.168 144.613 261.016C145.256 260.667 145.979 260.453 146.623 260.078C147.266 259.702 147.855 259.166 148.043 258.47Z" fill="#BA8D1E"/>
<path d="M151.581 261.498C148.552 266.563 140.861 273.344 134.456 271.655C135.796 269.645 138.529 268.6 140.298 266.938C142.522 264.875 145.176 262.356 145.899 259.274C146.14 258.202 145.953 256.996 145.202 256.218C146.864 256.165 148.526 256.46 150.053 257.076C151.018 257.451 152.036 258.068 152.251 259.086C152.438 259.917 152.036 260.774 151.581 261.498Z" fill="#F0C04A"/>
<path d="M126.442 273.531C127.809 273.075 129.229 272.888 130.65 272.915C131.347 272.915 132.874 272.861 131.695 271.575C131.427 271.253 131.052 271.065 130.65 270.931C126.871 269.377 121.886 269.913 118.375 271.977C114.57 274.255 112.131 278.703 112.319 283.152C112.372 284.707 112.721 286.261 112.747 287.842C112.774 289.397 112.399 291.085 111.273 292.184C113.471 291.835 115.401 290.227 116.097 288.11C116.044 289.718 115.99 291.326 115.937 292.934C117.947 292.854 119.528 291.085 120.144 289.182C120.734 287.279 120.573 285.216 120.493 283.206C120.412 281.223 120.466 279.132 121.404 277.363C122.395 275.434 124.379 274.174 126.442 273.531Z" fill="#BA8D1E"/>
<path d="M126.067 272.486C127.488 272.164 128.908 272.057 130.329 272.191C131.025 272.245 132.553 272.325 131.481 270.931C131.213 270.61 130.838 270.395 130.489 270.208C126.818 268.412 121.806 268.546 118.161 270.369C114.168 272.325 111.435 276.586 111.274 281.035C111.193 282.589 111.435 284.171 111.354 285.752C111.247 287.306 110.765 288.968 109.559 289.959C111.756 289.799 113.82 288.325 114.677 286.288C114.499 287.878 114.32 289.468 114.141 291.058C116.151 291.139 117.867 289.504 118.617 287.628C119.367 285.779 119.367 283.715 119.421 281.705C119.501 279.722 119.689 277.631 120.761 275.943C121.913 274.094 123.95 272.968 126.067 272.486Z" fill="#D9A72A"/>
<path d="M133.759 271.307C131.856 269.806 129.23 268.573 126.576 268.144C126.398 268.055 126.219 267.957 126.04 267.85C125.451 267.474 124.968 266.992 124.486 266.51C124.325 266.322 124.004 266.563 124.164 266.751C124.459 267.206 124.861 267.635 125.317 268.01C123.548 267.876 121.779 268.171 120.252 269.002C120.01 269.136 120.171 269.565 120.439 269.458C122.771 268.627 125.022 268.439 127.434 269.109C128.56 269.431 129.658 269.886 130.704 270.422C131.615 270.905 132.472 271.548 133.437 271.87C133.732 271.95 134.027 271.521 133.759 271.307Z" fill="#D9A72A"/>
<path d="M141.423 270.396C140.271 270.53 139.145 270.878 137.993 271.119C136.707 271.361 135.42 271.521 134.134 271.709C133.866 271.763 133.919 272.245 134.214 272.218C136.599 272.057 139.36 271.789 141.557 270.798C141.745 270.717 141.638 270.369 141.423 270.396Z" fill="#F0C04A"/>
<path d="M148.74 261.471C147.989 263.91 146.462 265.679 144.184 266.777C143.621 267.045 143.996 268.01 144.613 267.796C147.212 266.885 149.356 264.553 149.973 261.819C150.133 261.015 148.981 260.694 148.74 261.471Z" fill="#FFD878"/>
<path d="M150.589 258.711C150.571 258.675 150.544 258.648 150.509 258.63C150.267 258.389 149.892 258.389 149.651 258.63C149.615 258.648 149.588 258.675 149.571 258.711C149.169 259.166 149.437 259.944 150.08 259.944C150.723 259.944 150.991 259.166 150.589 258.711Z" fill="#FFD878"/>
<path d="M127.166 258.898C126.657 257.424 126.282 255.95 125.853 254.476C125.665 253.806 124.593 253.914 124.593 254.664C124.647 257.264 125.317 261.605 127.622 263.213C127.916 263.428 128.318 263.16 128.318 262.838C128.345 261.471 127.595 260.158 127.166 258.898Z" fill="#FFD878"/>
<path d="M125.156 251.743C125.102 251.743 125.04 251.743 124.968 251.743C124.325 251.797 124.325 252.708 124.968 252.761C125.04 252.761 125.102 252.761 125.156 252.761C125.799 252.788 125.799 251.716 125.156 251.743Z" fill="#FFD878"/>
<path d="M148.231 273.076C147.159 273.531 146.087 274.014 145.042 274.469C144.184 274.844 143.085 275.166 142.657 276.05C142.523 276.318 142.657 276.64 142.951 276.747C143.889 277.042 144.854 276.479 145.739 276.104C146.811 275.675 147.883 275.22 148.955 274.764C150.161 274.255 149.464 272.54 148.231 273.076Z" fill="#FFD878"/>
<path d="M91.227 211.034C91.0126 210.283 89.9138 210.417 89.887 211.194C89.8066 216.152 89.2438 220.306 86.2154 224.46C85.9474 224.836 86.537 225.264 86.8586 224.943C90.3962 221.566 92.7278 215.911 91.227 211.034Z" fill="#F77261"/>
<path d="M88.6009 208.649C88.3865 207.711 86.8857 207.711 86.6713 208.649C86.6445 208.809 86.5909 208.943 86.6177 209.104C86.6713 209.64 87.0465 210.149 87.6361 210.123C88.2257 210.096 88.6008 209.667 88.6544 209.104C88.6812 208.943 88.6277 208.809 88.6009 208.649Z" fill="#F77261"/>
<path d="M92.996 235.288C92.2992 235.127 91.9508 236.038 92.5136 236.44C94.7112 237.941 96.7748 239.308 98.2488 241.586C99.5888 243.703 99.9372 246.034 100.661 248.366C100.822 248.848 101.572 248.902 101.679 248.366C102.992 243.167 98.0344 236.44 92.996 235.288Z" fill="#F77261"/>
<path d="M59.6033 227.194C58.4777 225.666 57.1645 224.3 56.2265 222.611C55.3153 220.923 55.1277 218.913 54.1629 217.305C53.8413 216.796 52.9033 216.822 52.7693 217.492C52.3941 219.449 53.4661 221.646 54.3773 223.362C55.3689 225.238 56.7625 227.114 58.6117 228.186C59.2013 228.534 60.0589 227.81 59.6033 227.194Z" fill="#F77261"/>
</svg>
