<svg width="311" height="309" viewBox="0 0 311 309" fill="none" xmlns="http://www.w3.org/2000/svg">
<path d="M183.722 314.215C183.722 323.474 153.699 330.96 116.663 330.96C79.6668 330.96 49.644 323.474 49.644 314.215C49.644 304.995 79.6668 297.509 116.663 297.509C153.699 297.509 183.722 304.995 183.722 314.215Z" fill="#C3DBDA"/>
<path d="M342.662 310.905C342.662 321.977 308.029 330.96 265.359 330.96C222.689 330.96 188.056 321.977 188.056 310.905C188.056 299.873 222.689 290.89 265.359 290.89C308.029 290.89 342.662 299.873 342.662 310.905Z" fill="#C3DBDA"/>
<path d="M274.066 298.967C274.066 312.127 239.473 322.804 196.803 322.804C154.093 322.804 119.5 312.127 119.5 298.967C119.5 285.808 154.093 275.13 196.803 275.13C239.473 275.13 274.066 285.808 274.066 298.967Z" fill="#EDEBCC"/>
<path d="M239.079 272.49L256.336 142.076L160.91 167.765L180.216 292.545L239.079 272.49Z" fill="#D9A72A"/>
<path d="M256.336 142.076L163.431 171.942L107.641 136.245L194.439 121.785L206.18 125.647L221.901 130.769L256.336 142.076Z" fill="#F0C04A"/>
<path d="M221.901 277.14C225.171 235.257 223.989 190.105 222.295 148.026C222.689 148.131 223.096 148.236 223.516 148.341C214.218 141.21 204.407 135.615 194.321 131.675L172.572 140.303C182.658 144.204 194.872 150.39 204.171 157.521C203.777 157.416 203.383 157.311 202.989 157.206C204.683 199.285 205.825 244.438 202.595 286.32L221.901 277.14Z" fill="#8FB73A"/>
<path d="M221.901 130.769C215.4 132.148 208.78 133.172 202.319 134.472C197.827 135.378 192.942 135.851 188.608 137.23C181.082 139.634 173.439 137.151 165.834 136.6C178.6 130.847 192.272 127.144 206.18 125.647L221.901 130.769Z" fill="#8FB73A"/>
<path d="M107.641 136.245L134.157 266.462L180.215 292.545L160.909 167.765L107.641 136.245Z" fill="#BA8D1E"/>
<path d="M115.009 140.343C119.027 141.485 122.455 145.228 126.198 147.474C131.754 150.823 137.703 153.148 143.337 156.063C147.789 158.349 152.163 160.673 156.576 163.037C158.585 164.14 160.634 164.81 162.17 166.898C189.356 160.397 216.345 150.823 243.65 145.898C244.004 145.819 244.044 146.607 243.728 146.765C230.332 154.448 216.07 157.797 202.004 161.579C189.159 165.047 176.276 168.199 163.431 171.942C164.377 178.364 164.889 185.062 165.756 191.484C166.898 199.719 168.08 207.953 169.223 216.227C171.429 231.869 173.636 247.629 175.015 263.468C175.054 264.216 174.266 264.335 174.148 263.665C170.917 247.511 168.671 230.845 166.347 214.336C165.244 206.614 164.14 198.891 163.037 191.169C162.21 185.18 161.107 178.679 161.028 172.414C160.043 172.06 159.491 170.444 159.609 169.105C152.754 164.416 145.15 161.225 138.097 157.364C133.842 155.039 129.784 152.123 125.607 149.681C121.825 147.474 117.845 146.016 114.26 143.022C113.275 142.155 113.984 140.028 115.009 140.343Z" fill="#FFD878"/>
<path d="M178.797 138.333C170.681 140.146 164.061 144.795 155.945 146.607C149.129 148.105 141.525 150.744 135.378 153.975C135.615 153.936 129.35 151.296 129.586 151.178C125.095 149.405 125.528 147.395 121.037 145.583C133.802 142.431 147.71 137.821 160.712 135.772C163.943 135.221 167.213 134.709 170.444 135.103C173.675 135.497 176.945 136.915 178.836 139.555C178.495 139.318 178.153 139.069 177.812 138.806" fill="#6A872A"/>
<path d="M135.26 228.205C138.176 242.783 140.304 256.415 143.298 270.954C148.341 274.342 153.384 277.731 158.428 281.119C157.285 280.252 156.182 268.826 155.788 266.659C154.816 261.248 153.831 255.824 152.833 250.387C150.863 239.539 148.88 228.691 146.883 217.843C144.966 207.283 143.048 196.724 141.131 186.165C140.133 180.754 139.135 175.33 138.137 169.893C137.467 166.189 137.112 158.979 135.497 156.024C132.266 150.193 125.371 150.666 120.998 148.144C122.613 154.684 122.771 160.122 123.716 166.82C124.662 173.439 126.001 179.861 127.144 186.401C129.587 200.507 132.542 214.375 135.26 228.205Z" fill="#6A872A"/>
<path d="M202.398 103.74C201.452 110.018 200.493 116.309 199.521 122.613L202.398 103.74Z" fill="#E6369F"/>
<path d="M186.047 96.6483C184.628 98.6577 183.84 101.061 183.131 103.425C179.624 114.969 177.26 126.829 176.039 138.846C177.497 139.712 179.506 139.121 180.728 137.9C181.91 136.679 182.54 135.024 183.092 133.408C187.163 122.009 191.234 110.622 195.306 99.2487C197.67 92.5901 189.159 92.1961 186.047 96.6483Z" fill="#6A872A"/>
<path d="M207.047 108.429C207.874 104.528 207.205 98.106 203.265 95.7814C201.649 94.8358 198.576 94.5206 196.685 94.1266C195.424 93.8508 189.514 94.4024 188.884 93.8508C195.779 100.076 191.405 110.95 189.041 118.279C186.677 125.568 182.461 131.832 179.506 138.806C184.313 140.776 193.533 131.399 196.409 128.365C201.649 122.81 205.432 115.875 207.047 108.429Z" fill="#8FB73A"/>
<path d="M149.523 109.887C148.538 106.222 152.202 105.04 155.157 105.592C160.122 106.538 164.731 109.887 168.08 113.511C172.217 117.964 175.172 123.401 177.576 128.996C178.915 132.069 180.058 135.733 178.324 138.649C173.399 136.521 170.208 131.754 167.411 127.183C164.574 122.613 161.579 117.767 156.812 115.284C155.433 114.575 153.896 114.102 152.557 113.314C151.217 112.566 149.956 111.423 149.523 109.887Z" fill="#6A872A"/>
<path d="M142.037 116.348C148.459 127.065 164.731 141.367 178.245 137.861C175.409 133.527 169.656 131.36 165.874 127.853C161.185 123.48 155.59 118.121 154.093 111.62C153.581 109.374 153.936 106.853 155.551 105.198C152.044 105.08 148.538 105.671 145.268 106.971C143.258 107.759 141.091 109.099 140.618 111.226C140.224 112.999 141.091 114.772 142.037 116.348Z" fill="#8FB73A"/>
<path d="M163.51 135.142C165.953 135.457 168.356 136.206 170.799 136.679C173.478 137.191 176.197 137.545 178.915 137.939C179.506 138.018 179.388 139.043 178.797 139.003C173.754 138.688 167.923 138.058 163.273 136.048C162.84 135.851 163.076 135.103 163.51 135.142Z" fill="#6A872A"/>
<path d="M192.39 185.771L188.411 184.471L184.825 186.598L184.865 182.383L181.713 179.625L185.692 178.364L187.347 174.503L189.79 177.93L193.966 178.324L191.484 181.713L192.39 185.771Z" fill="#FFD878"/>
<path d="M205.51 221.31L201.531 219.97L197.946 222.137L197.985 217.921L194.833 215.163L198.812 213.903L200.507 210.041L202.91 213.469L207.086 213.863L204.604 217.212L205.51 221.31Z" fill="#FFD878"/>
<path d="M201.334 273.2L197.394 271.899L193.769 274.027L193.809 269.811L190.657 267.053L194.676 265.792L196.33 261.931L198.773 265.359L202.91 265.753L200.428 269.141L201.334 273.2Z" fill="#FFD878"/>
<path d="M187.465 236.479L183.486 235.139L179.861 237.306L179.901 233.09L176.749 230.332L180.767 229.072L182.422 225.21L184.865 228.638L189.041 229.032L186.52 232.381L187.465 236.479Z" fill="#FFD878"/>
<path d="M155.394 181.713L152.439 179.861L149.365 181.516L149.878 177.339L147.75 174.187L151.02 173.478L152.754 169.853L154.251 173.557L157.482 174.503L155.157 177.536L155.394 181.713Z" fill="#D9A72A"/>
<path d="M140.54 256.73L137.585 254.918L134.511 256.573L135.024 252.396L132.896 249.244L136.166 248.535L137.9 244.91L139.397 248.614L142.628 249.56L140.303 252.554L140.54 256.73Z" fill="#D9A72A"/>
<path d="M158.703 228.796L155.748 226.944L152.714 228.599L153.227 224.462L151.06 221.27L154.33 220.561L156.103 216.976L157.6 220.679L160.791 221.586L158.467 224.619L158.703 228.796Z" fill="#D9A72A"/>
<path d="M132.384 209.569L129.429 207.717L126.356 209.372L126.868 205.195L124.74 202.043L128.01 201.334L129.744 197.709L131.241 201.413L134.472 202.358L132.108 205.392L132.384 209.569Z" fill="#D9A72A"/>
<path d="M158.94 203.816L157.64 203.028L156.3 203.737L156.536 201.925L155.591 200.507L157.009 200.191L157.797 198.615L158.467 200.231L159.846 200.664L158.822 201.964L158.94 203.816Z" fill="#D9A72A"/>
<path d="M152.596 209.963L151.296 209.175L149.957 209.884L150.154 208.071L149.208 206.653L150.666 206.338L151.414 204.762L152.084 206.377L153.503 206.811L152.478 208.111L152.596 209.963Z" fill="#D9A72A"/>
<path d="M165.519 257.873L164.219 257.085L162.84 257.794L163.076 255.982L162.131 254.563L163.589 254.248L164.337 252.672L165.007 254.288L166.425 254.721L165.401 256.021L165.519 257.873Z" fill="#D9A72A"/>
<path d="M165.519 240.537L164.219 239.71L162.84 240.458L163.076 238.606L162.131 237.227L163.589 236.912L164.337 235.336L165.007 236.952L166.425 237.346L165.401 238.685L165.519 240.537Z" fill="#D9A72A"/>
<path d="M132.266 226.117L130.966 225.289L129.626 226.038L129.863 224.186L128.917 222.807L130.335 222.492L131.123 220.916L131.793 222.531L133.172 222.965L132.148 224.265L132.266 226.117Z" fill="#D9A72A"/>
<path d="M121.155 164.298L119.855 163.471L118.515 164.219L118.752 162.367L117.806 160.988L119.225 160.673L120.013 159.097L120.682 160.713L122.061 161.146L121.037 162.446L121.155 164.298Z" fill="#D9A72A"/>
<path d="M147.277 189.199L145.977 188.371L144.637 189.12L144.874 187.268L143.928 185.889L145.347 185.574L146.135 183.998L146.804 185.613L148.223 186.047L147.198 187.347L147.277 189.199Z" fill="#D9A72A"/>
<path d="M122.258 183.171L120.958 182.343L119.618 183.092L119.855 181.24L118.909 179.861L120.328 179.546L121.116 177.97L121.785 179.585L123.204 179.979L122.179 181.319L122.258 183.171Z" fill="#D9A72A"/>
<path d="M177.064 157.955L173.084 158.112L169.893 160.516L169.381 157.679L165.992 156.615L169.656 154.684L170.76 151.651L173.518 153.305L177.576 152.439L175.645 155.394L177.064 157.955Z" fill="#FFD878"/>
<path d="M221.389 137.27L218.709 137.388L216.582 139.003L216.267 137.073L213.981 136.363L216.424 135.103L217.173 133.054L219.025 134.157L221.743 133.605L220.443 135.575L221.389 137.27Z" fill="#FFD878"/>
<path d="M137.388 138.333L134.748 138.452L132.62 140.067L132.266 138.136L129.98 137.427L132.463 136.166L133.172 134.118L135.024 135.221L137.742 134.669L136.442 136.639L137.388 138.333Z" fill="#FFD878"/>
<path d="M234.312 142.47L232.736 142.51L231.436 143.495L231.239 142.352L229.899 141.919L231.357 141.17L231.79 139.949L232.893 140.619L234.509 140.264L233.76 141.446L234.312 142.47Z" fill="#FFD878"/>
<path d="M174.345 145.228L172.729 145.307L171.469 146.253L171.272 145.11L169.893 144.677L171.39 143.928L171.823 142.707L172.926 143.377L174.542 143.022L173.754 144.204L174.345 145.228Z" fill="#FFD878"/>
<path d="M234.351 185.771L230.372 184.471L226.747 186.598L226.786 182.383L223.634 179.625L227.653 178.364L229.308 174.503L231.751 177.93L235.927 178.324L233.405 181.713L234.351 185.771Z" fill="#FFD878"/>
<path d="M242.192 221.31L238.212 219.97L234.588 222.137L234.627 217.921L231.475 215.163L235.494 213.903L237.149 210.041L239.591 213.469L243.768 213.863L241.246 217.212L242.192 221.31Z" fill="#FFD878"/>
<path d="M234.233 250.151L230.254 248.811L226.668 250.978L226.708 246.762L223.556 244.004L227.535 242.743L229.229 238.882L231.633 242.31L235.809 242.704L233.327 246.053L234.233 250.151Z" fill="#FFD878"/>
<path d="M231.396 163.549L229.978 163.077L228.717 163.825V162.367L227.614 161.382L229.032 160.91L229.623 159.57L230.49 160.752L231.948 160.91L231.081 162.092L231.396 163.549Z" fill="#FFD878"/>
<path d="M195.069 247.117L193.651 246.644L192.351 247.432L192.39 245.935L191.248 244.95L192.666 244.516L193.257 243.137L194.124 244.359L195.621 244.477L194.715 245.698L195.069 247.117Z" fill="#FFD878"/>
<path d="M246.605 190.184L245.186 189.711L243.925 190.46V189.002L242.822 188.017L244.241 187.544L244.832 186.204L245.659 187.386L247.156 187.544L246.289 188.726L246.605 190.184Z" fill="#FFD878"/>
<path d="M244.438 165.677L243.019 165.204L241.719 165.992L241.758 164.495L240.616 163.51L242.034 163.077L242.625 161.698L243.492 162.919L244.989 163.037L244.083 164.259L244.438 165.677Z" fill="#FFD878"/>
<path d="M233.563 203.068L232.145 202.595L230.884 203.343V201.886L229.781 200.901L231.199 200.428L231.79 199.088L232.657 200.27L234.115 200.428L233.248 201.61L233.563 203.068Z" fill="#FFD878"/>
<path d="M234.942 261.222L233.524 260.749L232.263 261.498V260.001L231.16 259.016L232.578 258.582L233.169 257.203L233.996 258.425L235.494 258.582L234.627 259.764L234.942 261.222Z" fill="#FFD878"/>
<path d="M188.726 201.176L187.347 200.704L186.047 201.452V199.955L184.943 198.97L186.362 198.537L186.953 197.158L187.82 198.379L189.317 198.537L188.411 199.719L188.726 201.176Z" fill="#FFD878"/>
<path d="M179.861 197.118L178.482 196.645L177.182 197.433V195.936L176.079 194.951L177.497 194.518L178.088 193.139L178.955 194.36L180.452 194.478L179.546 195.66L179.861 197.118Z" fill="#FFD878"/>
<path d="M135.733 151.178C133.408 150.035 131.084 148.932 128.759 147.829C126.671 146.804 124.504 145.386 122.219 145.031C120.958 144.834 119.737 146.332 120.879 147.356C122.573 148.971 124.898 149.799 126.986 150.823C129.311 151.966 131.596 153.108 133.921 154.251C135.969 155.236 137.782 152.202 135.733 151.178Z" fill="#8FB73A"/>
<path d="M221.704 150.193C217.094 151.572 212.484 152.833 207.953 154.251C201.61 156.26 200.388 155.985 203.028 162.289C209.096 159.649 217.133 156.851 223.713 155.985C224.265 155.906 225.644 149.05 221.704 150.193Z" fill="#AED164"/>
<path d="M204.762 111.423C204.644 110.872 203.816 110.478 203.344 110.872C201.452 112.29 201.058 114.378 200.034 116.466C198.616 119.303 196.921 122.061 194.991 124.583C193.178 126.947 191.169 129.153 188.963 131.163C186.717 133.172 184.077 134.787 182.068 137.073C181.555 137.664 182.028 138.688 182.895 138.452C188.608 136.915 193.769 131.123 197.355 126.632C199.207 124.307 200.861 121.825 202.28 119.185C203.541 116.86 205.353 114.142 204.762 111.423Z" fill="#AED164"/>
<path d="M201.334 103.701C200.743 103.74 200.034 104.252 200.112 104.922C200.112 105.027 200.126 105.119 200.152 105.198C200.191 105.828 200.625 106.419 201.334 106.38C202.043 106.38 202.476 105.868 202.516 105.198C202.542 105.119 202.555 105.027 202.555 104.922C202.634 104.292 201.964 103.661 201.334 103.701Z" fill="#AED164"/>
<path d="M293.569 228.362L288.211 251.175V251.214L287.187 255.667L279.858 286.871L278.873 291.087L271.781 321.386L247.117 315.87L243.847 315.121L220.798 309.96L217.606 309.251C217.58 309.251 217.567 309.251 217.567 309.251L205.195 306.453L202.28 291.836L201.767 289.314L197.749 269.417L197.276 266.896L194.045 250.82L193.651 248.929L191.445 237.937L190.893 235.257L188.332 222.492L187.82 220.049L185.653 209.214L199.088 211.617L202.477 212.208L215.873 214.572L219.537 215.242L234.509 217.882L237.621 218.434L258.267 222.098L262.089 222.807L285.177 226.905L288.211 227.417L293.569 228.362Z" fill="#BF2525"/>
<path d="M202.477 212.208C199.403 214.297 196.251 216.267 193.296 218.512C191.602 219.773 189.947 221.152 188.332 222.492L187.82 220.049C191.326 216.897 195.188 214.021 199.088 211.617L202.477 212.208Z" fill="#D93D2A"/>
<path d="M219.537 215.242C215.597 218.197 211.578 221.113 207.756 224.186C202.201 228.638 196.921 233.406 191.445 237.937L190.893 235.257C195.936 230.608 201.334 226.314 206.653 222.019C209.687 219.576 212.76 217.055 215.873 214.572L219.537 215.242Z" fill="#D93D2A"/>
<path d="M237.621 218.434C236.36 219.353 235.1 220.285 233.839 221.231C229.058 224.856 224.265 228.467 219.458 232.066C211.026 238.37 202.595 244.674 194.045 250.82L193.651 248.929C201.373 242.862 209.214 236.952 217.054 231.042C221.835 227.417 226.629 223.805 231.435 220.207C232.46 219.445 233.484 218.67 234.509 217.882L237.621 218.434Z" fill="#D93D2A"/>
<path d="M262.089 222.807C258.74 224.935 255.312 226.983 252.121 229.19C244.95 234.154 237.832 239.197 230.766 244.319C219.616 252.436 208.623 260.867 197.749 269.417L197.276 266.896C207.205 258.858 217.409 251.057 227.732 243.492C234.942 238.212 242.271 233.012 249.678 227.929C252.515 225.985 255.378 224.042 258.267 222.098L262.089 222.807Z" fill="#D93D2A"/>
<path d="M288.211 227.417C282.301 232.027 275.682 235.809 269.457 240.025C262.798 244.516 256.218 249.087 249.717 253.815C238.528 261.931 216.937 279.701 202.28 291.836L201.768 289.314C215.833 277.258 236.124 260.473 246.605 252.79C253.46 247.747 260.434 242.822 267.487 238.094C273.239 234.233 279.031 230.096 285.177 226.905L288.211 227.417Z" fill="#D93D2A"/>
<path d="M288.211 251.214L287.186 255.667C284.31 258.07 281.395 260.434 278.479 262.798C272.411 267.723 266.344 272.648 260.276 277.573C250.82 285.217 233.799 299.795 220.797 309.96L217.606 309.251C230.411 298.1 249.441 282.931 259.606 274.697C265.871 269.614 272.136 264.532 278.44 259.449C281.552 256.967 284.783 253.815 288.211 251.214Z" fill="#D93D2A"/>
<path d="M279.858 286.871L278.873 291.087C277.652 291.993 276.47 292.86 275.367 293.727C271.716 296.643 268.051 299.545 264.374 302.434C258.661 306.847 253.027 311.615 247.117 315.87L243.847 315.121C250.151 309.605 257.085 304.68 263.665 299.558C267.211 296.761 270.836 294.003 274.421 291.245C276.194 289.905 278.006 288.29 279.858 286.871Z" fill="#D93D2A"/>
<path d="M354.009 204.88L292.663 228.362L261.695 222.886L254.012 221.507L240.576 219.143H240.537L233.327 217.843L215.951 214.769L212.681 214.178L202.91 212.445L199.206 211.775L184.747 209.214L214.454 199.325L228.284 194.715L255.903 185.495L270.245 188.332L277.849 189.829L292.663 192.784C292.663 192.784 292.676 192.784 292.703 192.784L301.607 194.518L315.279 197.236C315.279 197.236 315.292 197.236 315.318 197.236L324.459 199.049C324.485 199.049 324.498 199.049 324.498 199.049L354.009 204.88Z" fill="#F04832"/>
<path d="M304.089 222.61C296.722 223.753 289.236 223.989 281.868 225.013C280.765 225.171 281.119 226.786 282.104 226.865C289.59 227.338 297.352 226.077 304.759 224.935C306.296 224.698 305.626 222.374 304.089 222.61Z" fill="#F77261"/>
<path d="M319.416 216.936C308.515 218.066 297.601 219.182 286.674 220.285C281.237 220.837 275.8 221.389 270.323 221.94C267.487 222.216 264.571 222.61 261.695 222.886L254.012 221.507C259.055 220.325 264.413 220.167 269.535 219.616C275.012 219.064 280.449 218.512 285.926 218C297.076 216.858 308.266 215.794 319.416 214.691C320.874 214.572 320.834 216.779 319.416 216.936Z" fill="#F77261"/>
<path d="M343.647 206.417C325.562 209.293 307.202 210.987 289.038 213.233C279.7 214.375 270.402 215.518 261.104 216.621C254.327 217.449 247.432 218.591 240.576 219.143H240.537L233.327 217.843C242.073 215.636 251.372 215.006 260.316 213.863C269.378 212.734 278.427 211.604 287.462 210.475C306.059 208.19 324.656 205.274 343.292 203.659C344.868 203.501 345.223 206.141 343.647 206.417Z" fill="#F77261"/>
<path d="M324.459 199.049C305.941 200.507 287.462 202.555 269.063 205.313C251.293 207.953 233.681 211.696 215.951 214.769L212.681 214.178C212.642 213.824 212.839 213.469 213.351 213.351C231.83 208.347 250.978 205.353 269.929 202.595C285.006 200.388 300.123 198.602 315.279 197.236C315.279 197.236 315.292 197.236 315.318 197.236L324.459 199.049Z" fill="#F77261"/>
<path d="M301.607 194.518C293.491 196.094 285.138 196.803 277.022 198.064C268.354 199.403 259.712 200.874 251.096 202.477C242.244 204.079 233.406 205.826 224.58 207.717C217.409 209.253 210.199 211.342 202.91 212.445L199.207 211.775C199.246 211.42 199.443 211.026 199.837 210.869C208.19 207.796 217.409 206.377 226.117 204.565C234.68 202.752 243.269 201.058 251.884 199.482C260.762 197.88 269.654 196.396 278.558 195.03C283.207 194.281 287.935 193.454 292.663 192.784C292.663 192.784 292.676 192.784 292.703 192.784L301.607 194.518Z" fill="#F77261"/>
<path d="M277.849 189.829C266.541 191.642 255.273 193.493 243.965 195.148C238.094 196.015 232.224 196.882 226.314 197.67C222.492 198.182 218.434 199.049 214.454 199.325L228.284 194.715C233.537 193.979 238.777 193.218 244.004 192.43C252.751 191.129 261.498 189.79 270.245 188.332L277.849 189.829Z" fill="#F77261"/>
<path d="M345.459 207.953C340.928 208.781 337.107 211.578 332.812 213.272C326.547 215.754 319.849 217.488 313.427 219.655C308.463 221.349 303.459 223.083 298.495 224.856C296.249 225.683 293.924 226.195 292.191 227.732C261.419 222.886 230.924 215.754 199.995 212.09C199.601 212.051 199.601 212.602 199.916 212.721C215.085 218.434 231.199 220.955 247.117 223.792C261.656 226.353 276.234 228.717 290.733 231.514C289.669 236.282 289.117 241.286 288.093 246.053C286.793 252.199 285.493 258.346 284.192 264.492C281.71 276.155 279.189 287.896 277.652 299.716C277.573 300.307 278.479 300.346 278.637 299.873C282.262 287.817 284.823 275.406 287.463 263.074C288.684 257.321 289.945 251.608 291.166 245.856C292.112 241.364 293.373 236.518 293.451 231.83C294.555 231.593 295.185 230.372 295.067 229.387C302.829 225.88 311.418 223.516 319.377 220.64C324.183 218.906 328.754 216.739 333.521 214.927C337.816 213.272 342.307 212.169 346.326 209.923C347.469 209.293 346.641 207.717 345.459 207.953Z" fill="#F77261"/>
<path d="M224.619 310.905C220.916 279.701 222.255 245.029 224.146 213.666C223.7 213.745 223.253 213.824 222.807 213.903C233.327 208.584 244.398 204.447 255.824 201.492L277.652 208.347C266.265 211.263 255.194 215.439 244.674 220.758C245.12 220.679 245.567 220.601 246.013 220.522C244.083 251.884 242.783 284.547 246.447 315.752L224.619 310.905Z" fill="#D6C48B"/>
<path d="M288.014 207.047C279.425 207.677 270.757 210.475 262.286 207.756C257.361 206.18 251.845 205.668 246.762 204.644C236.558 202.595 225.92 201.137 215.873 198.379C221.664 194.518 231.16 193.69 237.897 194.203C255.154 195.542 272.215 199.916 288.014 207.047Z" fill="#E2D4A7"/>
<path d="M353.812 204.88L353.024 207.48L352.157 210.278L343.489 238.331L342.504 241.561V241.601L333.876 269.496L332.536 273.83V273.869L323.868 301.962L285.098 316.421L281.434 317.8L271.781 321.386L293.569 228.362L353.812 204.88Z" fill="#D93D2A"/>
<path d="M353.024 207.48L352.157 210.278C348.059 213.745 343.253 216.582 338.879 219.655C333.389 223.49 327.9 227.338 322.41 231.199C311.575 238.803 300.898 247.55 289.275 253.972C288.605 254.327 287.856 253.421 288.447 252.869C298.14 244.438 309.526 237.582 320.046 230.175C325.536 226.34 331.025 222.492 336.515 218.631C341.874 214.888 347.153 210.357 353.024 207.48Z" fill="#F04832"/>
<path d="M343.489 238.331L342.504 241.561V241.601C333.285 247.8 324.249 254.235 315.397 260.907C303.971 269.535 293.333 279.11 281.946 287.699C281.198 288.25 280.37 287.068 281.001 286.477C290.93 276.549 302.553 267.999 313.703 259.528C323.435 252.16 333.363 245.107 343.489 238.331Z" fill="#F04832"/>
<path d="M333.876 269.496L332.536 273.83V273.869C331.236 274.815 329.896 275.761 328.675 276.746C326.416 278.532 324.17 280.344 321.938 282.183C317.525 285.847 313.151 289.629 308.857 293.451C300.701 300.819 293.215 308.975 285.099 316.421L281.434 317.8C281.395 317.564 281.474 317.328 281.631 317.131C289.236 307.359 298.928 298.888 308.108 290.654C312.757 286.504 317.498 282.445 322.332 278.479C325.878 275.603 329.699 271.742 333.876 269.496Z" fill="#F04832"/>
<path d="M273.357 209.017C282.551 211.066 291.731 213.101 300.898 215.124C308.62 216.858 316.855 216.188 323.789 219.852C323.5 219.799 323.211 219.721 322.922 219.616C327.992 217.567 333.075 215.531 338.17 213.509C323.71 209.923 308.541 208.426 293.806 206.101C290.181 205.51 286.477 204.919 282.813 205.353C279.149 205.786 275.445 207.402 273.318 210.396C273.712 210.107 274.093 209.831 274.46 209.569" fill="#ECE1C3"/>
<path d="M322.568 273.436C319.219 284.271 316.815 294.988 313.427 305.862C307.556 308.463 296.051 312.363 296.367 312.206C297.667 311.575 298.928 303.695 299.361 302.119C300.491 298.074 301.607 294.029 302.71 289.984C304.969 281.894 307.215 273.804 309.448 265.714C311.628 257.834 313.808 249.967 315.988 242.113C317.091 238.068 318.207 234.023 319.337 229.978C320.085 227.22 320.479 221.822 322.331 219.616C325.956 215.282 333.757 215.636 338.722 213.745C336.909 218.631 336.712 222.689 335.649 227.693C334.545 232.618 333.048 237.424 331.787 242.271C329.029 252.751 325.72 263.074 322.568 273.436Z" fill="#ECE1C3"/>
<path d="M246.644 169.853C247.747 176.998 248.85 184.129 249.954 191.248L246.644 169.853Z" fill="#00B2C5"/>
<path d="M265.162 161.855C266.778 164.14 267.644 166.859 268.472 169.538C272.451 182.58 275.13 196.015 276.47 209.569C274.815 210.554 272.569 209.884 271.19 208.505C269.811 207.165 269.142 205.274 268.472 203.422C263.875 190.552 259.292 177.681 254.721 164.81C252.042 157.285 261.616 156.812 265.162 161.855Z" fill="#D6C48B"/>
<path d="M241.443 175.172C240.498 170.799 241.207 163.51 245.699 160.91C247.55 159.806 250.978 159.452 253.145 159.018C254.564 158.703 261.262 159.334 261.931 158.703C254.17 165.756 259.095 178.049 261.774 186.323C264.453 194.597 269.22 201.649 272.53 209.569C267.132 211.775 256.691 201.176 253.46 197.709C247.511 191.484 243.216 183.604 241.443 175.172Z" fill="#ECE1C3"/>
<path d="M306.453 176.867C307.596 172.73 303.419 171.351 300.07 171.981C294.476 173.045 289.275 176.867 285.492 180.925C280.804 185.968 277.455 192.114 274.736 198.418C273.239 201.925 271.939 206.062 273.869 209.332C279.464 206.929 283.05 201.531 286.241 196.37C289.432 191.208 292.821 185.732 298.219 182.974C299.795 182.146 301.489 181.595 303.025 180.728C304.562 179.861 305.98 178.561 306.453 176.867Z" fill="#D6C48B"/>
<path d="M314.924 184.156C307.675 196.251 289.236 212.445 273.988 208.465C277.179 203.58 283.72 201.137 287.975 197.158C293.294 192.193 299.637 186.165 301.292 178.797C301.883 176.276 301.489 173.399 299.677 171.548C303.617 171.39 307.596 172.099 311.26 173.557C313.585 174.463 315.988 175.921 316.54 178.364C316.973 180.373 315.988 182.383 314.924 184.156Z" fill="#ECE1C3"/>
<path d="M290.654 205.432C287.856 205.747 285.138 206.574 282.419 207.126C279.346 207.717 276.273 208.15 273.2 208.584C272.53 208.662 272.687 209.805 273.397 209.766C279.07 209.411 285.65 208.702 290.93 206.417C291.402 206.18 291.166 205.353 290.654 205.432Z" fill="#E2D4A7"/>
<path d="M245.58 219.222C242.704 217.685 239.237 217.33 236.045 216.582C232.46 215.754 228.835 214.73 225.171 214.218C223.674 214.021 223.043 216.03 224.541 216.503C228.047 217.685 231.711 218.394 235.297 219.261C238.488 220.01 241.798 221.27 245.068 221.192C246.092 221.192 246.565 219.734 245.58 219.222Z" fill="#ECE1C3"/>
<path d="M307.281 184.392C304.089 190.46 299.913 194.675 294.791 199.128C293.964 199.837 295.027 200.901 295.855 200.507C301.922 197.749 306.926 191.76 309.527 185.732C310.196 184.195 308.069 182.855 307.281 184.392Z" fill="#FFFCF5"/>
<path d="M309.408 177.733C308.541 177.733 307.714 178.521 307.753 179.388C307.793 180.294 308.502 181.043 309.408 181.043C310.275 181.043 311.102 180.294 311.063 179.388C311.024 178.521 310.354 177.733 309.408 177.733Z" fill="#FFFCF5"/>
<path d="M259.409 185.219C258.7 181.634 256.376 178.561 255.588 174.897C254.681 170.917 254.8 166.938 255.036 162.88C255.075 161.973 253.696 161.816 253.46 162.683C252.239 166.662 252.278 170.838 253.027 174.936C253.696 178.521 254.997 183.683 257.991 186.047C258.661 186.559 259.606 186.086 259.409 185.219Z" fill="#FFFCF5"/>
<path d="M167.686 314.333L184.983 228.323L89.5562 245.265L108.862 327.532L167.686 314.333Z" fill="#8FB73A"/>
<path d="M185.81 228.323L122.849 207.362L36.0903 224.501L90.3835 245.265L185.81 228.323Z" fill="#A4CC4B"/>
<path d="M150.547 317.367C153.818 289.787 152.636 260.001 150.941 232.263C151.335 232.342 151.729 232.407 152.123 232.46C142.825 227.771 133.054 224.107 122.967 221.507L103.622 227.574C113.708 230.175 123.519 233.839 132.817 238.528C132.423 238.449 132.029 238.383 131.635 238.331C133.33 266.068 134.472 295.855 131.241 323.435L150.547 317.367Z" fill="#D93D2A"/>
<path d="M94.4814 226.432C102.086 226.983 109.729 229.426 117.215 227.062C121.589 225.644 126.474 225.21 130.966 224.304C139.988 222.492 149.405 221.192 158.27 218.749C153.148 215.321 144.756 214.612 138.806 215.085C123.519 216.227 108.468 220.128 94.4814 226.432Z" fill="#F04832"/>
<path d="M36.2874 224.501L62.8036 310.354L108.862 327.532L89.5562 245.265L36.2874 224.501Z" fill="#6A872A"/>
<path d="M43.6553 227.18C47.6741 227.968 51.0625 230.411 54.8449 231.908C60.4003 234.115 66.3103 235.651 71.9839 237.582C76.3967 239.079 80.8095 240.616 85.1829 242.192C87.1923 242.901 89.2805 243.334 90.8171 244.713C118.003 240.419 144.992 234.115 172.296 230.884C172.651 230.805 172.651 231.317 172.375 231.436C158.979 236.479 144.716 238.725 130.65 241.207C117.806 243.492 104.883 245.58 92.0779 248.062C93.0235 252.278 93.4963 256.691 94.4025 260.907C95.5582 266.344 96.714 271.781 97.8697 277.218C100.037 287.541 102.282 297.903 103.622 308.384C103.701 308.857 102.913 308.935 102.795 308.502C99.5639 297.825 97.3181 286.871 94.9541 275.958C93.8903 270.875 92.7477 265.792 91.6839 260.71C90.8565 256.77 89.7533 252.475 89.6745 248.338C88.6895 248.102 88.1379 247.038 88.2561 246.171C81.3611 243.059 73.7569 240.97 66.7437 238.409C62.4885 236.912 58.4303 234.982 54.2145 233.366C50.4321 231.908 46.4921 230.923 42.9067 228.953C41.9217 228.402 42.6309 227.023 43.6553 227.18Z" fill="#B4D66D"/>
<path d="M107.444 228.165C99.3273 229.951 91.1978 231.751 83.0551 233.563C76.2783 235.06 68.9893 234.509 62.8429 237.74C63.1056 237.687 63.3551 237.621 63.5915 237.543C59.0999 235.73 54.6083 233.931 50.1167 232.145C62.8823 228.953 76.3571 227.653 89.3197 225.565C92.5505 225.053 95.8207 224.541 99.0909 224.935C102.322 225.329 105.592 226.708 107.483 229.387C107.142 229.124 106.8 228.875 106.459 228.638" fill="#F04832"/>
<path d="M63.9068 285.098C66.8224 294.751 68.95 303.695 71.9444 313.309C76.9876 315.541 82.0308 317.774 87.074 320.007C85.9314 319.455 84.8282 311.89 84.4342 310.472C83.4361 306.9 82.4511 303.327 81.4792 299.755C79.483 292.584 77.4998 285.427 75.5298 278.282C73.6124 271.322 71.6818 264.374 69.738 257.44C68.7662 253.841 67.7812 250.256 66.783 246.683C66.1132 244.241 65.7586 239.513 64.1038 237.543C60.9124 233.721 54.0174 233.997 49.644 232.342C51.2594 236.676 51.417 240.261 52.3626 244.674C53.3082 249.008 54.6478 253.263 55.751 257.558C58.2332 266.856 61.1488 276.036 63.9068 285.098Z" fill="#BF2525"/>
<path d="M131.044 193.533C130.072 199.837 129.114 206.141 128.168 212.445L131.044 193.533Z" fill="#E6369F"/>
<path d="M114.694 186.48C113.275 188.49 112.487 190.893 111.739 193.257C108.271 204.762 105.868 216.661 104.686 228.638C106.144 229.544 108.153 228.914 109.335 227.732C110.557 226.511 111.187 224.816 111.739 223.201C115.81 211.828 119.881 200.441 123.953 189.041C126.317 182.422 117.806 181.989 114.694 186.48Z" fill="#BF2525"/>
<path d="M135.693 198.221C136.521 194.36 135.851 187.899 131.911 185.613C130.256 184.668 127.222 184.313 125.331 183.919C124.07 183.643 118.121 184.234 117.53 183.683C124.386 189.908 120.052 200.782 117.688 208.071C115.324 215.4 111.108 221.664 108.153 228.638C112.96 230.608 122.179 221.231 125.055 218.158C130.296 212.642 134.078 205.707 135.693 198.221Z" fill="#F04832"/>
<path d="M78.1698 199.719C77.1454 196.054 80.849 194.833 83.804 195.385C88.7684 196.33 93.3782 199.719 96.7272 203.343C100.864 207.796 103.819 213.193 106.223 218.788C107.562 221.901 108.665 225.565 106.971 228.441C102.046 226.314 98.8548 221.546 96.018 216.976C93.2206 212.405 90.2262 207.559 85.4588 205.116C84.0404 204.407 82.5432 203.934 81.2036 203.146C79.8246 202.358 78.6032 201.216 78.1698 199.719Z" fill="#D93D2A"/>
<path d="M70.6838 206.141C77.106 216.858 93.3782 231.199 106.892 227.653C104.056 223.359 98.3032 221.192 94.5208 217.685C89.8322 213.312 84.198 207.953 82.7402 201.413C82.228 199.206 82.5826 196.645 84.1586 194.991C80.6914 194.912 77.1848 195.503 73.9146 196.764C71.8658 197.591 69.7382 198.891 69.2654 201.019C68.8714 202.792 69.7382 204.604 70.6838 206.141Z" fill="#F04832"/>
<path d="M123.874 231.593C120.958 230.648 117.964 230.214 114.93 230.293C113.472 230.293 110.241 230.214 112.724 227.456C113.315 226.786 114.103 226.392 114.93 226.077C122.928 222.846 133.487 223.95 140.895 228.323C148.972 233.13 154.094 242.546 153.739 251.924C153.621 255.233 152.872 258.543 152.833 261.852C152.754 265.162 153.542 268.747 155.945 271.033C151.336 270.323 147.199 266.896 145.701 262.443C145.833 265.858 145.964 269.26 146.095 272.648C141.84 272.451 138.452 268.747 137.191 264.689C135.93 260.67 136.245 256.297 136.403 252.081C136.6 247.865 136.521 243.413 134.512 239.67C132.384 235.612 128.247 232.933 123.874 231.593Z" fill="#BF2525"/>
<path d="M124.622 229.387C121.667 228.717 118.634 228.52 115.639 228.756C114.181 228.914 110.951 229.032 113.196 226.117C113.748 225.407 114.536 224.974 115.324 224.58C123.046 220.758 133.684 221.073 141.367 224.895C149.799 229.072 155.591 238.055 155.945 247.471C156.064 250.781 155.591 254.091 155.788 257.44C155.985 260.749 157.009 264.216 159.57 266.344C154.921 265.989 150.548 262.877 148.735 258.543C149.103 261.931 149.471 265.32 149.838 268.708C145.623 268.826 141.958 265.359 140.382 261.419C138.806 257.518 138.846 253.145 138.688 248.929C138.531 244.674 138.137 240.261 135.891 236.676C133.448 232.815 129.114 230.451 124.622 229.387Z" fill="#F04832"/>
<path d="M108.389 226.905C112.408 223.713 117.963 221.113 123.558 220.207C123.952 219.996 124.333 219.786 124.701 219.576C125.922 218.749 126.947 217.764 127.971 216.739C128.326 216.385 128.995 216.858 128.68 217.291C128.05 218.197 127.183 219.103 126.237 219.891C130.02 219.655 133.723 220.246 136.915 222.058C137.427 222.334 137.112 223.201 136.521 223.004C131.635 221.231 126.828 220.837 121.785 222.255C119.342 222.886 117.018 223.871 114.811 225.013C112.881 226.038 111.108 227.417 109.059 228.047C108.429 228.244 107.838 227.338 108.389 226.905Z" fill="#D93D2A"/>
<path d="M92.1566 224.974C94.5994 225.25 97.0028 225.998 99.4456 226.471C102.125 227.023 104.843 227.377 107.562 227.771C108.153 227.85 108.035 228.875 107.404 228.835C102.401 228.481 96.5694 227.89 91.9202 225.841C91.4868 225.644 91.6838 224.935 92.1566 224.974Z" fill="#BF2525"/>
<path d="M113.314 262.128C112.842 262.089 112.526 262.246 112.093 262.404C110.99 262.916 110.99 264.886 112.093 265.359C112.526 265.556 112.842 265.714 113.314 265.674C114.221 265.556 115.087 264.926 115.048 263.901C115.009 262.837 114.299 262.246 113.314 262.128Z" fill="#B4D66D"/>
<path d="M124.583 278.282C123.716 278.322 122.81 279.031 122.889 279.976C122.889 280.029 122.902 280.081 122.928 280.134C122.967 281.001 123.637 281.828 124.583 281.789C125.528 281.749 126.159 281.08 126.238 280.134C126.238 280.081 126.238 280.029 126.238 279.976C126.316 279.11 125.41 278.282 124.583 278.282Z" fill="#B4D66D"/>
<path d="M114.299 298.416C112.644 298.416 112.644 300.937 114.299 300.937C115.915 300.937 115.915 298.416 114.299 298.416Z" fill="#B4D66D"/>
<path d="M162.131 303.813C162.079 303.735 162.026 303.656 161.973 303.577C161.382 302.592 160.003 302.592 159.373 303.577C159.321 303.656 159.268 303.735 159.215 303.813C158.546 304.917 159.412 306.335 160.673 306.335C161.934 306.335 162.84 304.917 162.131 303.813Z" fill="#B4D66D"/>
<path d="M169.617 285.571C167.647 285.571 167.647 288.644 169.617 288.644C171.587 288.644 171.627 285.571 169.617 285.571Z" fill="#B4D66D"/>
<path d="M161.303 277.415C161.33 277.442 161.343 277.455 161.343 277.455C160.555 276.47 158.939 277.337 158.939 278.479C158.939 279.622 160.555 280.489 161.343 279.464C161.343 279.49 161.33 279.517 161.303 279.543C162.091 279.07 162.091 277.888 161.303 277.415Z" fill="#B4D66D"/>
<path d="M170.957 252.633C169.262 252.633 169.262 255.273 170.957 255.273C172.651 255.273 172.651 252.633 170.957 252.633Z" fill="#B4D66D"/>
<path d="M162.84 247.511C162.407 246.762 161.579 246.762 161.146 247.511C160.791 248.141 161.264 248.969 162.013 248.969C162.761 248.969 163.234 248.141 162.84 247.511Z" fill="#B4D66D"/>
<path d="M80.0609 254.445C79.9427 253.657 79.4305 252.869 78.5243 252.909C77.5787 252.948 77.1059 253.618 76.9877 254.445C76.9089 254.839 77.0271 255.194 77.2635 255.509C77.8939 256.455 79.1547 256.455 79.7851 255.509C79.9821 255.194 80.1003 254.839 80.0609 254.445Z" fill="#B4D66D"/>
<path d="M87.1132 270.914C85.1038 270.914 85.0644 274.106 87.1132 274.106C89.162 274.106 89.162 270.914 87.1132 270.914Z" fill="#B4D66D"/>
<path d="M86.1284 292.19C84.1584 292.19 84.1584 295.264 86.1284 295.264C88.0984 295.264 88.0984 292.19 86.1284 292.19Z" fill="#B4D66D"/>
<path d="M63.9854 298.652C63.9592 298.6 63.946 298.547 63.946 298.494C63.6702 297.194 61.582 297.194 61.2668 298.494C61.2668 298.547 61.2668 298.6 61.2668 298.652C61.0698 299.519 61.6608 300.425 62.6064 300.425C63.552 300.425 64.143 299.519 63.9854 298.652Z" fill="#B4D66D"/>
<path d="M49.6835 253.184C47.8711 253.184 47.8711 256.061 49.6835 256.061C51.4959 256.061 51.5353 253.184 49.6835 253.184Z" fill="#B4D66D"/>
<path d="M124.583 247.944C124.504 247.944 124.438 247.944 124.386 247.944C122.613 247.865 122.613 250.781 124.386 250.702C124.438 250.702 124.504 250.702 124.583 250.702C126.317 250.623 126.356 248.023 124.583 247.944Z" fill="#B4D66D"/>
<path d="M97.7122 236.794C96.8848 236.794 96.0968 237.543 96.1362 238.37C96.1756 239.237 96.8454 239.985 97.7122 239.985C98.5396 239.985 99.367 239.237 99.3276 238.37C99.2882 237.543 98.6184 236.794 97.7122 236.794Z" fill="#B4D66D"/>
<path d="M113.629 234.391C112.329 234.391 112.329 236.4 113.629 236.4C114.93 236.4 114.93 234.391 113.629 234.391Z" fill="#B4D66D"/>
<path d="M65.9164 226.077C65.8901 226.025 65.877 225.985 65.877 225.959C65.4436 224.698 63.7494 224.698 63.316 225.959C63.2897 225.985 63.2766 226.025 63.2766 226.077C62.9614 226.944 63.7494 227.85 64.5768 227.85C65.4436 227.85 66.1922 226.944 65.9164 226.077Z" fill="#B4D66D"/>
<path d="M76.3573 221.034C76.3047 221.008 76.2653 220.981 76.2391 220.955C75.3329 220.482 74.1509 221.073 74.1509 222.137C74.1509 223.201 75.3329 223.831 76.2391 223.319C76.2653 223.319 76.3047 223.306 76.3573 223.28C77.1847 222.807 77.1847 221.507 76.3573 221.034Z" fill="#B4D66D"/>
<path d="M151.178 224.107C150.941 223.713 150.469 223.437 149.996 223.437C149.943 223.437 149.878 223.437 149.799 223.437C148.065 223.477 148.065 226.117 149.799 226.156C149.878 226.156 149.943 226.156 149.996 226.156C150.469 226.156 150.941 225.88 151.178 225.486C151.414 225.013 151.414 224.58 151.178 224.107Z" fill="#B4D66D"/>
<path d="M163.707 226.865C163.668 226.786 163.668 226.668 163.628 226.432C163.471 225.565 162.565 224.856 161.658 225.171C161.383 225.25 161.225 225.447 160.949 225.565C161.186 225.381 161.186 225.381 160.949 225.565C160.818 225.644 160.726 225.749 160.673 225.88C160.24 226.392 160.24 226.944 160.358 227.574C160.516 228.441 161.658 229.032 162.486 228.756C163.313 228.481 163.825 227.693 163.707 226.865Z" fill="#B4D66D"/>
<path d="M156.339 340.18L144.322 280.41L197.749 292.19L197.236 349.36L156.339 340.18Z" fill="#D6C48B"/>
<path d="M143.574 280.252L186.559 266.186L234.903 277.179L198.025 292.821L143.574 280.252Z" fill="#ECE1C3"/>
<path d="M167.332 343.292C165.086 324.104 165.874 302.789 167.056 283.522C166.793 283.575 166.517 283.614 166.229 283.641C172.69 280.41 179.506 277.849 186.52 276.036L199.955 280.252C192.942 282.065 186.126 284.626 179.664 287.856C179.927 287.804 180.202 287.764 180.491 287.738C179.309 307.005 178.521 327.099 180.767 346.287L167.332 343.292Z" fill="#BA8D1E"/>
<path d="M206.299 279.464C201.019 279.819 195.7 281.552 190.499 279.898C187.465 278.913 184.077 278.597 180.964 277.967C174.66 276.706 168.12 275.8 161.974 274.106C165.52 271.742 171.351 271.23 175.488 271.545C186.126 272.372 196.606 275.051 206.299 279.464Z" fill="#D9A72A"/>
<path d="M234.784 277.179L228.323 337.776L196.33 349.754L196.803 292.545L234.784 277.179Z" fill="#ECE1C3"/>
<path d="M196.803 281.001L210.79 286.911L209.884 344.671L218.513 341.44L221.507 282.734L202.871 277.967L196.803 281.001Z" fill="#F0C04A"/>
<path d="M180.885 256.612C181.568 260.972 182.238 265.346 182.895 269.732L180.885 256.612Z" fill="#00B2C5"/>
<path d="M192.272 251.687C193.257 253.066 193.809 254.76 194.282 256.376C196.724 264.413 198.379 272.648 199.207 281.001C198.182 281.592 196.803 281.198 195.976 280.331C195.109 279.504 194.715 278.361 194.321 277.218C191.484 269.312 188.661 261.393 185.85 253.46C184.195 248.85 190.105 248.575 192.272 251.687Z" fill="#BA8D1E"/>
<path d="M177.655 259.843C177.103 257.164 177.537 252.672 180.295 251.096C181.437 250.426 183.525 250.19 184.865 249.914C185.771 249.717 189.869 250.111 190.302 249.757C185.495 254.051 188.529 261.616 190.184 266.699C191.839 271.781 194.754 276.155 196.803 281.001C193.454 282.38 187.071 275.839 185.062 273.712C181.398 269.851 178.797 265.044 177.655 259.843Z" fill="#F0C04A"/>
<path d="M217.645 260.907C218.355 258.346 215.794 257.518 213.745 257.873C210.278 258.543 207.086 260.867 204.762 263.389C201.885 266.502 199.797 270.284 198.142 274.145C197.236 276.312 196.448 278.834 197.63 280.843C201.058 279.385 203.264 276.076 205.234 272.884C207.204 269.693 209.253 266.344 212.602 264.65C213.548 264.138 214.612 263.822 215.557 263.271C216.503 262.719 217.37 261.931 217.645 260.907Z" fill="#BA8D1E"/>
<path d="M222.847 265.359C218.394 272.806 207.087 282.774 197.67 280.292C199.64 277.337 203.659 275.8 206.259 273.357C209.529 270.323 213.43 266.62 214.494 262.089C214.848 260.513 214.573 258.74 213.469 257.597C215.912 257.518 218.355 257.952 220.601 258.858C222.019 259.41 223.516 260.316 223.832 261.813C224.107 263.034 223.516 264.295 222.847 265.359Z" fill="#F0C04A"/>
<path d="M185.889 283.05C187.899 282.38 189.987 282.104 192.075 282.143C193.099 282.143 195.345 282.065 193.612 280.173C193.218 279.701 192.666 279.425 192.075 279.228C186.52 276.943 179.191 277.731 174.03 280.764C168.435 284.113 164.85 290.654 165.125 297.194C165.204 299.479 165.716 301.765 165.756 304.089C165.795 306.374 165.244 308.857 163.589 310.472C166.82 309.96 169.656 307.596 170.681 304.483C170.602 306.847 170.523 309.211 170.444 311.575C173.399 311.457 175.724 308.857 176.63 306.059C177.497 303.262 177.261 300.228 177.142 297.273C177.024 294.357 177.103 291.284 178.482 288.684C179.94 285.847 182.855 283.995 185.889 283.05Z" fill="#BA8D1E"/>
<path d="M185.338 281.513C187.426 281.04 189.514 280.883 191.602 281.08C192.627 281.158 194.873 281.277 193.297 279.228C192.903 278.755 192.351 278.44 191.839 278.164C186.441 275.524 179.073 275.721 173.715 278.4C167.844 281.277 163.825 287.541 163.589 294.082C163.471 296.367 163.825 298.691 163.707 301.016C163.55 303.301 162.84 305.744 161.067 307.202C164.298 306.965 167.332 304.798 168.593 301.804C168.33 304.142 168.067 306.479 167.805 308.817C170.76 308.935 173.281 306.532 174.385 303.774C175.488 301.055 175.488 298.022 175.567 295.067C175.685 292.151 175.961 289.078 177.537 286.596C179.231 283.877 182.225 282.222 185.338 281.513Z" fill="#D9A72A"/>
<path d="M196.646 279.779C193.848 277.573 189.987 275.761 186.086 275.13C185.824 274.999 185.561 274.854 185.298 274.697C184.432 274.145 183.722 273.436 183.013 272.727C182.777 272.451 182.304 272.806 182.54 273.081C182.974 273.751 183.565 274.382 184.235 274.933C181.634 274.736 179.034 275.17 176.788 276.391C176.433 276.588 176.67 277.218 177.064 277.061C180.492 275.839 183.801 275.564 187.347 276.549C189.002 277.021 190.617 277.691 192.154 278.479C193.494 279.188 194.754 280.134 196.173 280.607C196.606 280.725 197.04 280.095 196.646 279.779Z" fill="#D9A72A"/>
<path d="M207.914 278.44C206.22 278.637 204.565 279.149 202.871 279.504C200.979 279.858 199.088 280.095 197.197 280.37C196.803 280.449 196.882 281.158 197.315 281.119C200.822 280.883 204.88 280.489 208.111 279.031C208.387 278.913 208.229 278.4 207.914 278.44Z" fill="#F0C04A"/>
<path d="M218.67 265.32C217.567 268.905 215.321 271.505 211.972 273.121C211.145 273.515 211.696 274.933 212.602 274.618C216.424 273.278 219.576 269.851 220.482 265.832C220.719 264.65 219.025 264.177 218.67 265.32Z" fill="#FFD878"/>
<path d="M221.389 261.261C221.362 261.209 221.323 261.169 221.27 261.143C220.916 260.789 220.364 260.789 220.01 261.143C219.957 261.169 219.918 261.209 219.891 261.261C219.3 261.931 219.694 263.074 220.64 263.074C221.586 263.074 221.98 261.931 221.389 261.261Z" fill="#FFD878"/>
<path d="M186.953 261.537C186.204 259.37 185.653 257.203 185.022 255.036C184.746 254.051 183.17 254.209 183.17 255.312C183.249 259.134 184.234 265.517 187.623 267.881C188.056 268.196 188.647 267.802 188.647 267.329C188.686 265.32 187.583 263.389 186.953 261.537Z" fill="#FFD878"/>
<path d="M183.998 251.017C183.919 251.017 183.827 251.017 183.722 251.017C182.777 251.096 182.777 252.436 183.722 252.515C183.827 252.515 183.919 252.515 183.998 252.515C184.944 252.554 184.944 250.978 183.998 251.017Z" fill="#FFD878"/>
<path d="M217.921 282.38C216.345 283.05 214.769 283.759 213.233 284.429C211.972 284.98 210.356 285.453 209.726 286.753C209.529 287.147 209.726 287.62 210.159 287.778C211.538 288.211 212.957 287.384 214.257 286.832C215.833 286.202 217.409 285.532 218.985 284.862C220.758 284.113 219.734 281.592 217.921 282.38Z" fill="#FFD878"/>
<path d="M134.118 191.169C133.802 190.066 132.187 190.263 132.148 191.405C132.029 198.694 131.202 204.801 126.75 210.908C126.356 211.46 127.223 212.09 127.695 211.617C132.896 206.653 136.324 198.34 134.118 191.169Z" fill="#F77261"/>
<path d="M130.256 187.662C129.941 186.283 127.735 186.283 127.42 187.662C127.38 187.899 127.301 188.096 127.341 188.332C127.42 189.12 127.971 189.869 128.838 189.829C129.705 189.79 130.256 189.159 130.335 188.332C130.375 188.096 130.296 187.899 130.256 187.662Z" fill="#F77261"/>
<path d="M136.718 226.826C135.693 226.589 135.181 227.929 136.009 228.52C139.239 230.726 142.273 232.736 144.44 236.085C146.41 239.197 146.922 242.625 147.986 246.053C148.223 246.762 149.326 246.841 149.483 246.053C151.414 238.409 144.125 228.52 136.718 226.826Z" fill="#F77261"/>
<path d="M87.6254 214.927C85.9706 212.681 84.04 210.672 82.661 208.19C81.3214 205.707 81.0456 202.752 79.6272 200.388C79.1544 199.64 77.7754 199.679 77.5784 200.664C77.0268 203.54 78.6028 206.771 79.9424 209.293C81.4002 212.051 83.449 214.809 86.1676 216.385C87.0344 216.897 88.2952 215.833 87.6254 214.927Z" fill="#F77261"/>
</svg>
