<svg width="572" height="228" viewBox="0 0 572 228" fill="none" xmlns="http://www.w3.org/2000/svg">
<path d="M68.8545 3.64847C73.7907 0.184474 142.032 36.9895 286.047 36.9895C430.063 36.9895 496.226 -0.681526 503.24 3.64847C510.255 7.97847 564.813 188.972 556.153 196.766C551.823 200.663 459.68 217.724 286.74 217.724C113.8 217.724 21.2245 201.27 15.9419 196.766C5.46332 187.673 64.0049 7.11247 68.8545 3.64847Z" fill="#E11700"/>
<path d="M286.221 47.2082C430.063 47.2082 503.24 14.6466 506.271 13.261C509.735 11.6156 511.294 7.54542 509.649 4.08142C508.09 0.617417 503.933 -0.941383 500.469 0.617417C499.776 0.963817 426.772 33.3522 286.221 33.3522C145.322 33.3522 72.665 0.963817 71.8856 0.617417C68.4216 -0.941383 64.3514 0.617417 62.706 4.08142C61.1472 7.54542 62.706 11.6156 66.17 13.261C69.201 14.6466 142.291 47.2082 286.221 47.2082Z" fill="#F9BE48"/>
<path fill-rule="evenodd" clip-rule="evenodd" d="M286.913 227.509C382.087 227.509 450.068 222.487 490.25 218.243C516.577 215.472 533.983 212.701 543.942 210.969C564.64 207.245 566.891 205.167 568.71 203.608C572.607 200.057 572.867 194.082 569.403 190.185C566.198 186.634 561.089 186.028 557.192 188.453C545.847 192.869 453.532 208.457 286.913 208.457C117.177 208.457 25.9876 192.956 15.3358 188.539C11.4388 185.941 6.06964 186.634 2.95203 190.271C-0.511963 194.255 -0.0789795 200.317 3.9046 203.694C11.6986 210.449 62.0132 216.251 83.2302 218.503C123.239 222.573 191.134 227.509 286.913 227.509Z" fill="#F9BE48"/>
<g style="mix-blend-mode:multiply" opacity="0.3">
<path d="M3.9046 203.694C-0.0789795 200.317 -0.511963 194.255 2.95203 190.271C5.98303 186.807 10.9193 186.028 14.8162 188.28C17.0678 155.978 52.314 44.6968 64.871 12.395C62.3596 10.4898 61.407 7.02582 62.706 4.08142C64.3514 0.617417 68.4216 -0.941383 71.8856 0.617417C71.9722 0.704017 72.8382 1.05037 74.3104 1.65657C66.0834 27.4634 14.7296 161.867 39.4106 183.517C65.5638 206.552 161.43 217.464 272.538 218.416C430.063 217.724 491.116 208.457 517.269 185.422C543.596 162.213 481.59 20.7952 477.087 8.84442C492.415 4.25462 500.296 0.704017 500.469 0.617417C503.933 -0.941383 508.09 0.617417 509.649 4.08142C511.034 7.02582 510.082 10.4032 507.657 12.395C520.647 44.6968 553.988 156.844 556.846 188.626C556.961 188.568 557.077 188.511 557.192 188.453C561.089 186.028 566.198 186.634 569.403 190.185C572.867 194.082 572.607 200.057 568.71 203.608C566.891 205.167 564.64 207.245 543.942 210.969C533.983 212.701 516.577 215.472 490.25 218.243C450.068 222.487 382.087 227.509 286.913 227.509C191.134 227.509 123.239 222.573 83.2302 218.503C62.0132 216.251 11.6986 210.449 3.9046 203.694Z" fill="#BF3232"/>
</g>
</svg>
